<svg version="1.2" xmlns="http://www.w3.org/2000/svg" viewBox="0 0 688 528" width="688" height="528"><defs><linearGradient id="P" gradientUnits="userSpaceOnUse"/><linearGradient id="g1" x2="1" href="#P" gradientTransform="matrix(-64.87,-112.358,83.13,-47.995,307.503,258.109)"><stop offset=".07" stop-color="#3122ca"/><stop offset=".58" stop-color="#453ff5"/><stop offset="1" stop-color="#3c32e1"/></linearGradient><linearGradient id="g2" x2="1" href="#P" gradientTransform="matrix(-27.364,-47.396,53.975,-31.163,273.628,202.085)"><stop offset=".07" stop-color="#939393"/><stop offset=".58" stop-color="#eee"/><stop offset="1" stop-color="#a9a9a9"/></linearGradient><linearGradient id="g3" x2="1" href="#P" gradientTransform="matrix(0,-66.788,34.266,0,303.361,220.854)"><stop offset=".14" stop-color="#832323"/><stop offset=".71" stop-color="#c63939"/><stop offset="1" stop-color="#b13333"/></linearGradient><linearGradient id="g4" x2="1" href="#P" gradientTransform="matrix(-34.456,-59.679,61.282,-35.381,324.391,244.872)"><stop offset=".14" stop-color="#832323"/><stop offset=".71" stop-color="#c63939"/><stop offset="1" stop-color="#b13333"/></linearGradient><linearGradient id="g5" x2="1" href="#P" gradientTransform="matrix(-16.312,-28.254,28.062,-16.202,341.397,226.79)"><stop offset=".15" stop-color="#334a58"/><stop offset=".66" stop-color="#7c8b94"/><stop offset="1" stop-color="#4f636f"/></linearGradient><linearGradient id="g6" x2="1" href="#P" gradientTransform="matrix(-17.829,-30.881,25.616,-14.789,353.551,227.505)"><stop offset=".15" stop-color="#334a58"/><stop offset=".63" stop-color="#7c8b94"/><stop offset="1" stop-color="#4f636f"/></linearGradient><linearGradient id="g7" x2="1" href="#P" gradientTransform="matrix(-29.694,-51.432,44.546,-25.719,340.176,240.229)"><stop offset=".15" stop-color="#334a58"/><stop offset=".66" stop-color="#7c8b94"/><stop offset="1" stop-color="#4f636f"/></linearGradient><linearGradient id="g8" x2="1" href="#P" gradientTransform="matrix(-29.626,-51.314,49.778,-28.739,329.449,237.488)"><stop offset=".15" stop-color="#334a58"/><stop offset=".66" stop-color="#7c8b94"/><stop offset="1" stop-color="#4f636f"/></linearGradient><linearGradient id="g9" x2="1" href="#P" gradientTransform="matrix(-34.399,-59.58,62.326,-35.984,280.572,214.452)"><stop offset=".07" stop-color="#3122ca"/><stop offset=".58" stop-color="#787aff"/><stop offset="1" stop-color="#3c32e1"/></linearGradient><linearGradient id="g10" x2="1" href="#P" gradientTransform="matrix(9.672,-16.753,16.957,9.79,51.289,129.864)"><stop stop-color="#333030"/><stop offset=".46" stop-color="#494545"/><stop offset=".85" stop-color="#545050"/></linearGradient><linearGradient id="g11" x2="1" href="#P" gradientTransform="matrix(-8.485,-14.697,7.473,-4.315,59.165,141.422)"><stop offset=".18" stop-color="#353232"/><stop offset=".66" stop-color="#433f3f"/></linearGradient><linearGradient id="g12" x2="1" href="#P" gradientTransform="matrix(-7.227,-12.517,6.365,-3.675,59.326,139.71)"><stop stop-color="#302e2e"/><stop offset=".3" stop-color="#383535"/><stop offset=".8" stop-color="#3d3a3a"/></linearGradient><linearGradient id="g13" x2="1" href="#P" gradientTransform="matrix(-3.882,-6.724,3.419,-1.974,60.416,134.64)"><stop offset=".34" stop-color="#433f3f"/><stop offset=".82" stop-color="#353232"/></linearGradient><linearGradient id="g14" x2="1" href="#P" gradientTransform="matrix(9.673,-16.753,16.957,9.79,45.507,134.414)"><stop stop-color="#333030"/><stop offset=".46" stop-color="#494545"/><stop offset=".85" stop-color="#545050"/></linearGradient><linearGradient id="g15" x2="1" href="#P" gradientTransform="matrix(-8.485,-14.696,7.473,-4.315,53.382,145.972)"><stop offset=".18" stop-color="#353232"/><stop offset=".66" stop-color="#433f3f"/></linearGradient><linearGradient id="g16" x2="1" href="#P" gradientTransform="matrix(-7.227,-12.517,6.365,-3.675,53.544,144.259)"><stop stop-color="#302e2e"/><stop offset=".3" stop-color="#383535"/><stop offset=".8" stop-color="#3d3a3a"/></linearGradient><linearGradient id="g17" x2="1" href="#P" gradientTransform="matrix(-3.882,-6.723,3.419,-1.974,54.634,139.19)"><stop offset=".34" stop-color="#433f3f"/><stop offset=".82" stop-color="#353232"/></linearGradient><linearGradient id="g18" x2="1" href="#P" gradientTransform="matrix(-403.235,-698.424,281.642,-162.606,336.303,697.854)"><stop offset=".07" stop-color="#bcbcbc"/><stop offset=".58" stop-color="#eee"/><stop offset="1" stop-color="#cacaca"/></linearGradient><linearGradient id="g19" x2="1" href="#P" gradientTransform="matrix(-204.649,-354.462,113.897,-65.759,433.119,583.994)"><stop offset=".07" stop-color="#3122ca"/><stop offset=".58" stop-color="#4a45ff"/><stop offset="1" stop-color="#372bd7"/></linearGradient><linearGradient id="g20" x2="1" href="#P" gradientTransform="matrix(159.146,0,0,145.184,152.937,198.396)"><stop offset=".07" stop-color="#bcbcbc"/><stop offset=".58" stop-color="#f2f2f2"/><stop offset="1" stop-color="#cacaca"/></linearGradient><linearGradient id="g21" x2="1" href="#P" gradientTransform="matrix(-64.87,-112.358,83.13,-47.995,135.923,407.885)"><stop offset=".07" stop-color="#3122ca"/><stop offset=".58" stop-color="#453ff5"/><stop offset="1" stop-color="#3c32e1"/></linearGradient><linearGradient id="g22" x2="1" href="#P" gradientTransform="matrix(-27.364,-47.395,53.974,-31.162,102.048,351.861)"><stop offset=".07" stop-color="#939393"/><stop offset=".58" stop-color="#eee"/><stop offset="1" stop-color="#a9a9a9"/></linearGradient><linearGradient id="g23" x2="1" href="#P" gradientTransform="matrix(0,-66.788,34.266,0,131.781,370.629)"><stop offset=".14" stop-color="#832323"/><stop offset=".71" stop-color="#c63939"/><stop offset="1" stop-color="#b13333"/></linearGradient><linearGradient id="g24" x2="1" href="#P" gradientTransform="matrix(-34.455,-59.679,61.281,-35.381,152.811,394.648)"><stop offset=".14" stop-color="#832323"/><stop offset=".71" stop-color="#c63939"/><stop offset="1" stop-color="#b13333"/></linearGradient><linearGradient id="g25" x2="1" href="#P" gradientTransform="matrix(-16.312,-28.253,28.061,-16.201,169.817,376.566)"><stop offset=".15" stop-color="#334a58"/><stop offset=".66" stop-color="#7c8b94"/><stop offset="1" stop-color="#4f636f"/></linearGradient><linearGradient id="g26" x2="1" href="#P" gradientTransform="matrix(-17.829,-30.881,25.616,-14.789,181.971,377.28)"><stop offset=".15" stop-color="#334a58"/><stop offset=".63" stop-color="#7c8b94"/><stop offset="1" stop-color="#4f636f"/></linearGradient><linearGradient id="g27" x2="1" href="#P" gradientTransform="matrix(-29.694,-51.432,44.546,-25.719,168.596,390.004)"><stop offset=".15" stop-color="#334a58"/><stop offset=".66" stop-color="#7c8b94"/><stop offset="1" stop-color="#4f636f"/></linearGradient><linearGradient id="g28" x2="1" href="#P" gradientTransform="matrix(-29.626,-51.314,49.778,-28.739,157.869,387.264)"><stop offset=".15" stop-color="#334a58"/><stop offset=".66" stop-color="#7c8b94"/><stop offset="1" stop-color="#4f636f"/></linearGradient><linearGradient id="g29" x2="1" href="#P" gradientTransform="matrix(-34.399,-59.58,62.325,-35.983,108.992,364.227)"><stop offset=".07" stop-color="#3122ca"/><stop offset=".58" stop-color="#787aff"/><stop offset="1" stop-color="#3c32e1"/></linearGradient><linearGradient id="g30" x2="1" href="#P" gradientTransform="matrix(12.854,-22.264,21.161,12.217,225.976,373.468)"><stop stop-color="#333030"/><stop offset=".46" stop-color="#494545"/><stop offset=".85" stop-color="#545050"/></linearGradient><linearGradient id="g31" x2="1" href="#P" gradientTransform="matrix(-10.93,-18.931,9.36,-5.404,236.318,389.789)"><stop offset=".18" stop-color="#353232"/><stop offset=".66" stop-color="#433f3f"/></linearGradient><linearGradient id="g32" x2="1" href="#P" gradientTransform="matrix(-9.309,-16.124,7.972,-4.603,236.527,387.496)"><stop stop-color="#302e2e"/><stop offset=".3" stop-color="#383535"/><stop offset=".8" stop-color="#3d3a3a"/></linearGradient><linearGradient id="g33" x2="1" href="#P" gradientTransform="matrix(12.854,-22.264,21.161,12.218,212.858,362.017)"><stop stop-color="#333030"/><stop offset=".46" stop-color="#494545"/><stop offset=".85" stop-color="#545050"/></linearGradient><linearGradient id="g34" x2="1" href="#P" gradientTransform="matrix(-10.93,-18.931,9.36,-5.404,223.2,378.338)"><stop offset=".18" stop-color="#353232"/><stop offset=".66" stop-color="#433f3f"/></linearGradient><linearGradient id="g35" x2="1" href="#P" gradientTransform="matrix(-9.309,-16.124,7.972,-4.603,223.409,376.045)"><stop stop-color="#302e2e"/><stop offset=".3" stop-color="#383535"/><stop offset=".8" stop-color="#3d3a3a"/></linearGradient><linearGradient id="g36" x2="1" href="#P" gradientTransform="matrix(12.854,-22.264,21.161,12.218,204.06,369.698)"><stop stop-color="#333030"/><stop offset=".46" stop-color="#494545"/><stop offset=".85" stop-color="#545050"/></linearGradient><linearGradient id="g37" x2="1" href="#P" gradientTransform="matrix(-10.93,-18.932,9.36,-5.404,214.402,386.019)"><stop offset=".18" stop-color="#353232"/><stop offset=".66" stop-color="#433f3f"/></linearGradient><linearGradient id="g38" x2="1" href="#P" gradientTransform="matrix(-9.309,-16.124,7.972,-4.603,214.61,383.726)"><stop stop-color="#302e2e"/><stop offset=".3" stop-color="#383535"/><stop offset=".8" stop-color="#3d3a3a"/></linearGradient><linearGradient id="g39" x2="1" href="#P" gradientTransform="matrix(-5.001,-8.661,4.282,-2.472,216.014,376.889)"><stop offset=".34" stop-color="#433f3f"/><stop offset=".82" stop-color="#353232"/></linearGradient><linearGradient id="g40" x2="1" href="#P" gradientTransform="matrix(12.854,-22.264,21.161,12.217,217.178,381.149)"><stop stop-color="#333030"/><stop offset=".46" stop-color="#494545"/><stop offset=".85" stop-color="#545050"/></linearGradient><linearGradient id="g41" x2="1" href="#P" gradientTransform="matrix(-10.93,-18.931,9.36,-5.404,227.52,397.47)"><stop offset=".18" stop-color="#353232"/><stop offset=".66" stop-color="#433f3f"/></linearGradient><linearGradient id="g42" x2="1" href="#P" gradientTransform="matrix(-9.309,-16.124,7.972,-4.602,227.728,395.177)"><stop stop-color="#302e2e"/><stop offset=".3" stop-color="#383535"/><stop offset=".8" stop-color="#3d3a3a"/></linearGradient><linearGradient id="g43" x2="1" href="#P" gradientTransform="matrix(-5.001,-8.661,4.282,-2.472,229.132,388.339)"><stop offset=".34" stop-color="#433f3f"/><stop offset=".82" stop-color="#353232"/></linearGradient></defs><style>.a{fill:url(#g1)}.b{fill:url(#g2)}.c{fill:url(#g3)}.d{fill:url(#g4)}.e{fill:#334a58}.f{fill:#253545}.g{fill:#1d1d1d}.h{fill:url(#g5)}.i{fill:url(#g6)}.j{fill:#3b515f}.k{fill:url(#g7)}.l{fill:#ff2c2c}.m{fill:url(#g8)}.n{fill:url(#g9)}.o{fill:#383838}.p{fill:#424242}.q{fill:#4f4f4f}.r{fill:#929fa6}.s{fill:#677982}.t{fill:#4a5f6b}.u{fill:url(#g10)}.v{fill:url(#g11)}.w{fill:url(#g12)}.x{fill:url(#g13)}.y{fill:#c2c2c2}.z{fill:#dfdfdf}.A{fill:#3c5360}.B{fill:url(#g14)}.C{fill:url(#g15)}.D{fill:url(#g16)}.E{fill:url(#g17)}.F{fill:#75858e}.G{fill:#787aff}.H{fill:#3629d5}.I{fill:#eeefef}.J{fill:#c6c6c6}.K{fill:url(#g18)}.L{fill:url(#g19)}.M{fill:url(#g20)}.N{fill:url(#g21)}.O{fill:url(#g22)}.P{fill:url(#g23)}.Q{fill:url(#g24)}.R{fill:url(#g25)}.S{fill:url(#g26)}.T{fill:url(#g27)}.U{fill:url(#g28)}.V{fill:url(#g29)}.W{fill:url(#g30)}.X{fill:url(#g31)}.Y{fill:url(#g32)}.Z{fill:#657781}.a0{fill:url(#g33)}.a1{fill:url(#g34)}.a2{fill:url(#g35)}.a3{fill:#586b75}.a4{fill:#5f727d}.a5{fill:url(#g36)}.a6{fill:url(#g37)}.a7{fill:url(#g38)}.a8{fill:url(#g39)}.a9{fill:url(#g40)}.aa{fill:url(#g41)}.ab{fill:url(#g42)}.ac{fill:url(#g43)}.ad{fill:#4e636d}.ae{fill:#687982}.af{fill:#a4a4a4}.ag{fill:#1b0d93}.ah{fill:#453ff5}.ai{fill:#6365ff}.aj{fill:#0f00b0}</style><path class="a" d="m319.6 176.3c6.5-17 17.1-26.2 23.6-20.6l-35.2-30.8c-6.5-5.7-17.1 3.6-23.7 20.7-6.5 17-6.5 35.4 0 41.1l35.3 30.6c-6.5-5.6-6.5-23.9 0-41z"/><path class="b" d="m284.3 145.6c5.2-13.5 12.9-22.2 19.2-22.4-6.2-4-15.7 4.7-21.7 20.2-5.9 15.4-6.2 32-0.8 38.1-2.9-8.2-1.8-22.5 3.3-35.9z"/><path class="c" d="m349 163.7c0 0-2.3-4.3-4.5-6.6q-0.6-0.8-1.3-1.4c-6.5-5.6-17.1 3.6-23.6 20.6-6.5 17.1-6.5 35.4 0 41q0.4 0.4 0.8 0.6c0 0 2.7 2 6.7 2.9 0.7 0.2 1.9-1.5 3.3-4.5 4.6-3.5 9.3-10.4 12.8-19.6 4-10.4 5.6-21.3 4.7-29.5 0.7-2.2 1.1-3.5 1.1-3.5z"/><path class="d" d="m346.8 161c6.2 5.3 6.2 22.7 0 38.9-6.2 16.1-16.2 24.9-22.4 19.5-6.2-5.3-6.2-22.7 0-38.9 6.2-16.1 16.2-24.9 22.4-19.5z"/><path class="e" d="m347.1 165.9c5.4 4.6 5.4 20 0 34.2-5.5 14.2-14.3 21.9-19.8 17.2-5.4-4.7-5.4-20 0-34.2 5.5-14.2 14.3-21.9 19.8-17.2z"/><path class="f" d="m350.2 180.7c-0.1 12.5-6 27.6-13.2 33.6-5.7 4.9-10.6 2.4-12.2-5.3l15.1-41.8c5.9-3 10.4 2.4 10.3 13.5z"/><path class="g" d="m328 183.4c-4.3 11.2-5 23.1-1.9 29 1.7 0.1 3.7-0.7 5.9-2.5 7.1-6 13-21.1 13.1-33.6 0.1-4.2-0.5-7.6-1.6-10-5-0.6-11.3 6.1-15.5 17.1z"/><path class="f" d="m349.1 175.6l3.2 2.8 1.2 6.7 4.2 3.4 1.6 4.4v5.4l-1.6 7.9-5.4 10.4-3.6 3.3-3.7-0.3-5.5-2.8-2.5 0.8-4.4-3.5 0.1-24.8z"/><path class="h" d="m339.3 205.8c0.1-6.8 3.3-15 7.2-18.3 1.9-1.6 3.6-1.8 4.9-0.7l3 2.7c-1.3-1.1-3-1-4.9 0.6-3.9 3.3-7.1 11.5-7.2 18.3 0 3.5 0.8 5.9 2.1 7.1l-3-2.6c-1.3-1.2-2.1-3.6-2.1-7.1z"/><path class="e" d="m357.7 213.2l-15.4-4.8c0 5.1 1.7 7.9 4.1 7.8l12.5-0.9c-0.7 0.1-1.2-0.7-1.2-2.1z"/><path class="i" d="m361.5 208.6l-5.7-16.8c-1.1-3.2-3.5-4.1-6.3-1.7-3.9 3.3-7.1 11.5-7.2 18.3l15.4 4.8c0.1-1.9 0.9-4.2 2-5.1 0.8-0.6 1.5-0.4 1.8 0.5z"/><path class="j" d="m357.7 213.2c0 1.9 0.9 2.7 2 1.8 1-1 1.9-3.2 1.9-5.1 0.1-1.9-0.8-2.7-1.9-1.8-1.1 0.9-1.9 3.2-2 5.1z"/><path class="k" d="m334.3 189.1c4.1-10.7 10.7-16.5 14.9-13q0.7 0.6 1.2 1.6l7.4 10.2-3.7-1.2-4.3 2.6-4.6 7.6-2.8 9.9 0.1 8.7 3 4.9-10.2-4.8q-0.5-0.3-1-0.7c-4.1-3.5-4.1-15.1 0-25.8z"/><path class="j" d="m358.6 200.1c0.4-2.9 0.5-5.6 0.1-7.9-0.4-2-1.1-3.4-2-4.2q-0.9-0.8-1.9-0.8-1.1 0-2.2 0.7l-0.8-0.7c1.9-1.3 3.8-1.4 5.3-0.2 2.5 2.2 3.2 8.1 2 14.6z"/><path class="j" d="m342.8 214.1q0 0.3 0.1 0.5c0.3 2 1 3.5 1.9 4.3 1.5 1.2 3.5 0.9 5.6-1q1-0.9 2-2.1l1.1-0.1c-3.1 4.4-6.6 6.2-9 4.1-1.4-1.2-2.2-3.5-2.5-6.4z"/><path class="j" d="m342.3 208.4c0-1.6 0.2-3.3 0.5-5q0.7-2.7 1.7-5.4c2-5.2 4.7-9 7.3-10.8l0.8 0.7q-0.7 0.4-1.5 1c-2.2 2-4.4 5.4-6 9.6-2.1 5.4-2.9 11.3-2.3 15.6l-0.8-0.7c-0.3-2.9 0-6.4 0.8-10-0.3 1.7-0.5 3.4-0.5 5z"/><path class="l" d="m334.9 189.5c4.3-11.4 11.4-17.6 15.8-13.8 1.5 1.3 2.5 3.6 3 6.5l-1.7-2.3c-0.9-2.3-2.4-3.6-4.1-3.8q-0.1 0-0.1-0.1c-3.9-0.5-9.1 5-12.4 13.8-2.9 7.4-3.8 15.4-2.6 20.6 0.8 3.7 2.5 5.9 4.7 6.2l2.3 1.1c-1.8 0.8-3.5 0.6-4.9-0.6-4.4-3.8-4.4-16.1 0-27.6z"/><path class="m" d="m328 183.4c4-10.5 9.9-17.1 14.7-17.2q0.3 0.3 0.5 0.6l8 9.4q-0.2-0.3-0.5-0.5c-4.4-3.8-11.5 2.4-15.8 13.8-4.4 11.5-4.4 23.8 0 27.6q0 0 0.1 0.1l-8.2-5.2q-0.7-0.2-1.3-0.6c-0.3-1-0.6-1.8-0.7-2.4v-0.1c-1.4-6.5-0.4-16.3 3.2-25.5z"/><path class="e" d="m334.9 189.5c4.3-11.4 11.4-17.6 15.8-13.8 1.5 1.3 2.5 3.6 3 6.5l-1.7-2.3c-0.9-2.3-2.4-3.6-4.1-3.8 0 0 0 0.1 0 0-4-0.4-9.1 5.1-12.4 13.9-2.9 7.5-3.9 15.2-2.7 20.4 0.8 3.7 2.5 5.9 4.7 6.2l2.3 1.1c-1.8 0.8-3.5 0.6-4.9-0.6-4.4-3.8-4.4-16.1 0-27.6z"/><path class="n" d="m288 148.9c6.6-17 17.2-26.2 23.7-20.6l-3.7-3.4c-6.5-5.7-17.1 3.6-23.7 20.7-6.5 17-6.5 35.4 0 41.1l3.7 3.2c-6.5-5.6-6.5-24 0-41z"/><path class="o" d="m332.3 155.8c0 0-2.6-5-4.8-8.4-2.2-3.5-10-11.6-10-11.6 0 0-17.5-14.4-20.6-11.7-3.2 2.7-4.8 5.9-4.8 5.9v1.1l34.6 29.8z"/><path class="p" d="m327.5 147.4c-2.2-3.5-10-11.6-10-11.6 0 0-17.5-14.4-20.6-11.7-1.8 1.5-3.2 3.3-3.9 4.4 4.6-0.5 18.9 12.4 18.9 12.4 0 0 7.8 8.1 10 11.5 2.2 3.5 4.8 8.5 4.8 8.5l5.6-5.1c0 0-2.6-5-4.8-8.4z"/><path class="q" d="m317.5 135.8l-5.6 5.1c0 0 7.8 8.1 10 11.5l5.6-5c-2.2-3.5-10-11.6-10-11.6z"/><path class="r" d="m70.6 106.5l0.7 1.5 0.6-0.3 1-0.9-0.5-1.8z"/><path class="s" d="m71.8 105.6l1.4-1.4 0.7 1.5-1.4 1.5z"/><path class="t" d="m60.3 108.6l2.7-5.5v-5.5l0.7-0.6 0.9 0.8-0.5 7.5-3.3 8.5-1.9 1.5z"/><path class="o" d="m62.6 120.6c-1.3 1-1.3 4.3 0 7.4 1.3 3 3.4 4.7 4.7 3.7 1.3-1 1.3-4.3 0-7.4-1.3-3-3.4-4.7-4.7-3.7z"/><path class="u" d="m59.2 122.1l2.4-1.9c1.5-1.2 4 0.7 5.5 4.3 1.5 3.6 1.5 7.5 0 8.7l-2.4 1.8-1.4-3.3c-0.6-0.7-1.2-1.7-1.7-2.9-0.5-1.1-0.9-2.3-1-3.4z"/><path class="v" d="m59.2 122.1c-1.6 1.2-1.6 5 0 8.6 1.5 3.6 4 5.5 5.5 4.3 1.5-1.1 1.5-5 0-8.6-1.5-3.6-4-5.5-5.5-4.3z"/><path class="w" d="m59.3 123.2c-1.3 1-1.3 4.3 0 7.4 1.3 3 3.4 4.7 4.7 3.7 1.3-1 1.3-4.3 0-7.4-1.3-3-3.4-4.7-4.7-3.7z"/><path class="x" d="m60.4 125.8c-0.7 0.5-0.7 2.3 0 3.9 0.7 1.7 1.8 2.6 2.5 2 0.7-0.5 0.7-2.3 0-3.9-0.7-1.7-1.8-2.6-2.5-2z"/><path class="t" d="m60.9 126.2c-0.5 0.4-0.5 1.8 0 3.1 0.6 1.3 1.5 2 2 1.6 0.6-0.4 0.6-1.8 0-3.1-0.5-1.3-1.4-2-2-1.6z"/><path class="t" d="m61.7 128c-0.2 0.1-0.2 0.4 0 0.8 0.1 0.3 0.3 0.5 0.5 0.4 0.1-0.2 0.1-0.5 0-0.8-0.2-0.4-0.4-0.5-0.5-0.4z"/><path class="s" d="m61.3 128.4l-1.2 0.1-1.4-0.9v-2.9l0.3-1.2 1-0.1 1 0.4 0.7 0.6-0.1 2.9z"/><path class="t" d="m61.4 125.4l0.3-1v0.3l-0.1 2.6-0.3 1.1-1.2 0.1-1.4-0.9v-2.9l1.3 1z"/><path class="t" d="m61.2 109.4l2.7-5.6v-5.5l0.7-0.5v8.1l-2.9 8.6-1.9 1.5z"/><path class="r" d="m63 103.1l0.9 0.7-2.7 5.6-0.9-0.8z"/><path class="t" d="m61.5 95.4v28.8l-0.3 0.8-0.2 0.2-1.1 0.2-1-0.8v-28.9z"/><path class="s" d="m59.9 125.4l0.1-28.8-1.1-0.9v28.9z"/><path class="t" d="m60.9 119.9v-0.6l1.3 0.2v0.6l-0.8 0.6z"/><path class="s" d="m60.9 119.3l0.5-0.4 0.8 0.6-0.8 0.6z"/><path class="t" d="m63.9 122.8l1.1 0.9 1-0.9v-1.7l-4.6-2.8v1.7l3 2.4z"/><path class="s" d="m63.9 121.2l1.1 0.8 1-0.9-4.1-3.1-0.5 0.3 3 2.4z"/><path class="t" d="m65 122v1.7l-1.1-0.9v-1.6z"/><path class="r" d="m63.9 98.3l-0.9-0.7 0.7-0.6 0.9 0.8z"/><path class="t" d="m60.9 118.5l0.7 1 1.5-1.2v-0.6l-2.2 0.2z"/><path class="s" d="m60.9 117.9l0.7 1.1 1.5-1.3-1.4-0.6z"/><path class="t" d="m61.5 110.2c0-0.8 0.4-1.8 0.9-2.2q0.4-0.3 0.7-0.1l0.5 0.4-0.3 0.6c0 0.7-0.4 1.6-0.9 2l-0.2 0.4-0.4-0.3c-0.2-0.1-0.3-0.4-0.3-0.8z"/><path class="r" d="m63.8 109.1c0 0.8-0.4 1.8-0.9 2.2-0.5 0.4-0.9 0-0.9-0.8 0-0.7 0.4-1.7 0.9-2.1 0.5-0.4 0.9-0.1 0.9 0.7z"/><path class="y" d="m63.7 109.2c0 0.7-0.4 1.5-0.8 1.8-0.4 0.3-0.8 0.1-0.8-0.6 0-0.6 0.4-1.4 0.8-1.7 0.4-0.4 0.8-0.1 0.8 0.5z"/><path class="z" d="m63.1 109.4c0 0.3-0.2 0.7-0.4 0.8-0.2 0.2-0.3 0.1-0.3-0.2 0-0.3 0.1-0.7 0.3-0.8 0.2-0.2 0.4-0.1 0.4 0.2z"/><path class="s" d="m62.1 116.7v0.7l-0.4 0.1-0.4-0.7v-0.8l0.4-0.1z"/><path class="t" d="m62 116.8v0.8h-0.5l-0.4-0.7v-0.8h0.4z"/><path class="t" d="m61.3 118l5-5.1-0.6-1.1-5.1 5.2z"/><path class="s" d="m69.7 107.3l0.7 1.6 0.3 0.1-3.8 3.8-1 0.9h-0.3l-0.5-1.3 0.1-0.3z"/><path class="A" d="m65.2 112.1l0.7 1.6h-0.3l-0.6-1.2z"/><path class="r" d="m73.4 104l0.8 1.5-0.3 0.2-0.7-1.5z"/><path class="r" d="m72.4 105l0.8 1.5-0.3 0.3-0.7-1.5z"/><path class="t" d="m65.9 113.7l4.5-4.8 0.3 0.1-3.8 3.8z"/><path class="o" d="m56.9 125.2c-1.3 1-1.3 4.3 0 7.3 1.2 3.1 3.4 4.7 4.7 3.7 1.3-1 1.3-4.3 0-7.3-1.3-3.1-3.5-4.7-4.7-3.7z"/><path class="B" d="m53.4 126.6l2.4-1.9c1.5-1.1 4 0.8 5.5 4.4 1.5 3.6 1.5 7.4 0 8.6l-2.4 1.9-1.4-3.3c-0.6-0.8-1.2-1.8-1.7-2.9-0.5-1.2-0.8-2.4-1-3.5z"/><path class="C" d="m53.4 126.6c-1.5 1.2-1.5 5.1 0 8.7 1.5 3.5 4 5.5 5.5 4.3 1.5-1.2 1.5-5.1 0-8.6-1.5-3.6-4-5.6-5.5-4.4z"/><path class="D" d="m53.5 127.8c-1.3 1-1.3 4.3 0 7.3 1.3 3.1 3.5 4.7 4.7 3.7 1.3-1 1.3-4.3 0-7.3-1.2-3.1-3.4-4.7-4.7-3.7z"/><path class="E" d="m54.6 130.3c-0.7 0.6-0.7 2.3 0 4 0.7 1.6 1.9 2.5 2.6 2 0.7-0.6 0.7-2.3 0-4-0.7-1.6-1.9-2.5-2.6-2z"/><path class="s" d="m55.1 130.8c-0.5 0.4-0.5 1.8 0 3.1 0.6 1.3 1.5 2 2 1.6 0.6-0.5 0.6-1.9 0-3.2-0.5-1.3-1.4-2-2-1.5z"/><path class="F" d="m55.9 132.5c-0.1 0.1-0.1 0.5 0 0.8 0.1 0.3 0.4 0.5 0.5 0.4 0.1-0.1 0.1-0.5 0-0.8-0.1-0.3-0.4-0.5-0.5-0.4z"/><path class="r" d="m71.3 105.7l0.7 1.5-0.2 0.2-0.7-1.5z"/><path class="s" d="m69.7 107.3l1.4-1.4 0.7 1.5-1.4 1.5z"/><path class="t" d="m72 107.2l-0.7 0.8 0.6-0.3 1-0.9 0.3-0.3 0.7-0.8 0.3-0.2-2.2 2.2-1.3 1.3-0.3-0.1 1.4-1.5z"/><path class="r" d="m60.4 94.6l1.1 0.8-0.2 0.8-0.3 0.2-1 0.2-1.1-0.9 0.2-0.8 0.2-0.2z"/><path class="t" d="m58.9 109.6l0.9 0.7-0.9 5 0.5 1-0.9-0.7-2.9-4.1v-8l0.7-0.6 0.9 0.7-0.3 5z"/><path class="t" d="m55.6 111.5l0.9 0.7v-8l-0.9-0.7z"/><path class="t" d="m59.8 110.3v5.7l-0.4 0.3-2.9-4.1v-8l0.7-0.6v5.5z"/><path class="r" d="m56.5 104.2l-0.9-0.7 0.7-0.6 0.9 0.7z"/><path class="s" d="m58.2 112.8c0-0.8 0.4-1.8 0.9-2.2q0.4-0.3 0.6-0.1 0 0 0.1 0l0.5 0.5-0.3 0.6c-0.1 0.7-0.4 1.3-0.7 1.7l-0.3 0.7-0.5-0.4q-0.3-0.2-0.3-0.8z"/><path class="t" d="m60.5 111.7c0 0.8-0.4 1.8-0.9 2.2-0.5 0.4-0.9 0-0.9-0.8 0-0.7 0.4-1.7 0.9-2.1 0.5-0.4 0.9-0.1 0.9 0.7z"/><path class="G" d="m608.1 352.4l14.6 9.8-0.9 0.9-105.8 74.6-28.8-57 36.6-9.2 67.3-20.1 6.1-0.5c0 0 8.6-0.1 10.9 1.5z"/><path class="H" d="m622.7 362.2v2.2l-106.7 73.3v-2.6z"/><path class="I" d="m348.4 253.8l32.4-36.7 72.2-43.4 175.7-122.3 15-13.2c0 0 23.8-15.3 44-18.7-0.4-1.1-10-6.2-19.2-7.5-9.2-1.3-24.6-2.1-37.8 3.8-13.2 5.9-29.7 14.7-29.7 14.7l-212.2 87.3-156.3 51z"/><path fill-rule="evenodd" class="J" d="m536.9 102.2l86.5-56.3 0.2-0.1 5.9 5.6-84.5 58.8-0.1 0.1zm86.5-55.2l-85.1 55.4 6.5 6.7 83.1-57.8z"/><path fill-rule="evenodd" class="J" d="m332.4 242.7l15-17.1 0.2-0.3 12.7 14.8 0.4 0.5-12.2 13.8zm15.1-16l-13.8 15.8 14.6 10.7 11.1-12.6z"/><path fill-rule="evenodd" class="J" d="m369.8 205.9l74.3-41.4 88.5-55.3 0.2-0.1 5.6 5.7-85.3 59.4-72.2 43.4-0.2 0.1zm162.9-95.6l-88.3 55.1-73 40.8 9.5 10.2 72-43.3 84.1-58.5z"/><path fill-rule="evenodd" class="J" d="m231.2 168.7l157.5-51.4 212.2-87.3 0.1-0.1 6.2 4.4-200.1 93.1-93.1 38-53.4 18.1h-0.1zm175.8-42.3l198.2-92.3-4.2-3-212.1 87.3-155 50.5 26.6 13.5 53.3-18.1 93.2-37.9z"/><path class="K" d="m0.8 37.6c0.5 4.6 5.1 17.9 6.7 22.1 1.6 4.2 11.5 19.5 11.5 19.5l11.3 14.4 16.7 18.9 323.1 281.7 14.4 10.3 57 31.2 7.6 3 19.5 7.7q0 0 0 0l15.6 6.1 13.8 5.4 19.2 6.4c0 0 0.8 0.3 12.1 0.7 6.9-2 5.3-9.2 5.2-10.1-0.1-1-6.2-16.6-6.2-16.6l-10-19.1q0 0 0 0l-13-18.1-31.6-42.6-47.7-45.6-80.9-70.9-243.3-213.3-21.1-17.2-9.5-5.5-18.3-5.7h-12.9c0 0-16.9 4.5-17.8 5.2-0.8 0.6-8.7 7-8.7 7 0 0-4.3 2.7-5.8 3.7-1.5 1.1-4.9 4.3-6.3 7.7-1.4 3.4-1.2 9.1-0.6 13.7z"/><path class="L" d="m285.3 218.8c0 0 37 79.5 59.8 117.9 22.9 38.5 19.2 35.9 54.5 68.4 17.3 16 35.2 26.9 49.5 33.6l19.5 7.7q0 0 0 0c4.4 1.3 7.3 1.7 8.3 1.5 0.6-0.1 3.2 1.6 7.3 4.6l13.8 5.4 19.2 6.4c0 0 0.8 0.3 12.1 0.7 6.9-2 5.3-9.2 5.2-10.1-0.1-1-6.2-16.6-6.2-16.6l-10-19.1q0 0 0 0l-13-18.1-31.6-42.6-47.7-45.6-80.9-70.9c-16-11.6-35.9-24.3-50.4-31.9-5.7 2.8-9.4 8.7-9.4 8.7z"/><path class="G" d="m440 426.1v-5.5l-0.8-3.4 8.2 2.1 34.5 19.2 19.5 11.8v1.2l-61.8 70.8-10.3-8.3c0 0-3.2-4.5-4-6.6-0.9-2-2.2-8.4-2.2-8.4z"/><path class="H" d="m501.4 450.3l-61.3 69.1-10.3-7.5-4.4-6.1-2.3-6.8 2.2 8.4 4 6.6 10.3 8.3 61.8-70.2z"/><path class="M" d="m152.9 198.5c0 0 4.5 8.3 4.8 9.5 0.3 1.2 2.4 8.8 5.8 12.9 3.4 4.1 107 101.4 107 101.4 0 0 18.3 14.8 22.1 16.9 3.8 2 17 4.4 19.5 4.4-0.8-2.6-3.6-7.3-7.2-10.5-3.6-3.1-14.4-14.6-22.7-25.1-8.4-10.5-80.3-77.4-89.4-84.4-9.1-7.1-30.5-21.4-34.4-23.6-4-2.2-5.5-1.5-5.5-1.5z"/><path class="N" d="m148 326.1c6.5-17 17.1-26.2 23.6-20.6l-35.1-30.9c-6.6-5.6-17.2 3.7-23.7 20.7-6.6 17.1-6.6 35.5 0 41.2l35.2 30.6c-6.5-5.6-6.5-24 0-41z"/><path class="O" d="m112.8 295.3c5.1-13.5 12.9-22.1 19.1-22.3-6.2-4-15.7 4.6-21.7 20.1-5.9 15.5-6.1 32.1-0.7 38.2-3-8.3-1.9-22.5 3.3-36z"/><path class="P" d="m177.4 313.5c0 0-2.3-4.3-4.4-6.6q-0.6-0.8-1.4-1.4c-6.5-5.6-17.1 3.6-23.6 20.6-6.5 17-6.5 35.4 0 41q0.4 0.3 0.8 0.6c0 0 2.7 1.9 6.7 2.9 0.8 0.2 1.9-1.5 3.4-4.5 4.6-3.6 9.2-10.5 12.7-19.6 4-10.4 5.6-21.3 4.7-29.5 0.7-2.2 1.1-3.5 1.1-3.5z"/><path class="Q" d="m175.2 310.7c6.2 5.4 6.2 22.8 0 38.9-6.1 16.2-16.2 24.9-22.4 19.6-6.2-5.3-6.2-22.7 0-38.9 6.2-16.1 16.3-24.9 22.4-19.6z"/><path class="e" d="m175.5 315.6c5.4 4.7 5.4 20 0 34.3-5.5 14.2-14.3 21.9-19.8 17.2-5.4-4.7-5.4-20 0-34.3 5.5-14.2 14.3-21.9 19.8-17.2z"/><path class="f" d="m178.6 330.4c-0.1 12.6-6 27.7-13.2 33.7-5.7 4.9-10.6 2.4-12.2-5.3l15.1-41.8c6-3 10.4 2.4 10.3 13.4z"/><path class="g" d="m156.4 333.1c-4.3 11.2-4.9 23.2-1.9 29.1 1.8 0.1 3.8-0.7 5.9-2.5 7.2-6 13.1-21.1 13.2-33.7 0-4.2-0.6-7.5-1.7-10-4.9-0.6-11.3 6.2-15.5 17.1z"/><path class="f" d="m177.5 325.4l3.3 2.8 1.1 6.7 4.3 3.4 1.5 4.4v5.3l-1.5 8-5.4 10.4-3.7 3.3-3.7-0.3-5.5-2.8-2.5 0.8-4.4-3.5 0.1-24.8z"/><path class="R" d="m167.7 355.6c0.1-6.9 3.3-15.1 7.2-18.3 1.9-1.7 3.6-1.8 4.9-0.7l3 2.6c-1.3-1.1-3-0.9-4.9 0.7-3.9 3.3-7.1 11.5-7.2 18.3 0 3.5 0.8 5.9 2.1 7l-3-2.6c-1.3-1.1-2.1-3.6-2.1-7z"/><path class="e" d="m186.2 363l-15.5-4.8c0 5 1.7 7.9 4.1 7.8l12.5-0.9c-0.7 0.1-1.2-0.7-1.1-2.1z"/><path class="S" d="m189.9 358.4l-5.7-16.8c-1.1-3.3-3.5-4.1-6.3-1.7-3.9 3.3-7.1 11.5-7.2 18.3l15.5 4.8c0-1.9 0.9-4.2 1.9-5.1 0.8-0.7 1.5-0.4 1.8 0.5z"/><path class="j" d="m186.2 363c-0.1 1.8 0.8 2.6 1.9 1.7 1.1-0.9 1.9-3.1 2-5 0-1.9-0.9-2.7-2-1.8-1 0.9-1.9 3.2-1.9 5.1z"/><path class="T" d="m162.7 338.9c4.1-10.7 10.8-16.5 14.9-13q0.7 0.6 1.2 1.5l7.4 10.2-3.7-1.1-4.3 2.6-4.5 7.6-2.9 9.8 0.2 8.7 2.9 5-10.2-4.8q-0.5-0.3-1-0.7c-4.1-3.5-4.1-15.1 0-25.8z"/><path class="j" d="m187 349.9c0.5-2.9 0.5-5.7 0.1-7.9-0.4-2-1-3.4-2-4.3q-0.8-0.7-1.9-0.7-1 0-2.2 0.7l-0.8-0.7c1.9-1.3 3.8-1.5 5.3-0.2 2.5 2.2 3.2 8 2 14.6z"/><path class="j" d="m171.2 363.9q0 0.2 0.1 0.5c0.3 2 1 3.5 2 4.3 1.4 1.2 3.4 0.9 5.5-1q1.1-0.9 2-2.2h1.1c-3 4.4-6.6 6.2-9 4.1-1.4-1.2-2.2-3.5-2.5-6.4z"/><path class="j" d="m170.7 358.2c0-1.6 0.2-3.3 0.6-5q0.6-2.7 1.6-5.4c2-5.2 4.7-9.1 7.3-10.8l0.8 0.7q-0.7 0.4-1.5 1c-2.2 2-4.4 5.4-6 9.6-2 5.4-2.9 11.3-2.3 15.6l-0.8-0.7c-0.3-2.9 0-6.4 0.9-10-0.4 1.7-0.6 3.4-0.6 5z"/><path class="l" d="m163.3 339.3c4.4-11.4 11.5-17.6 15.8-13.8 1.5 1.3 2.5 3.5 3 6.4l-1.7-2.2c-0.9-2.3-2.4-3.6-4.1-3.8q0 0-0.1-0.1c-3.9-0.5-9 5-12.4 13.8-2.9 7.4-3.7 15.4-2.5 20.6 0.7 3.7 2.4 5.9 4.6 6.2l2.3 1.1c-1.8 0.7-3.5 0.6-4.9-0.7-4.4-3.7-4.4-16.1 0-27.5z"/><path class="U" d="m156.4 333.1c4-10.4 9.9-17 14.8-17.1q0.2 0.3 0.4 0.6l8 9.3q-0.2-0.2-0.5-0.4c-4.3-3.8-11.4 2.4-15.8 13.8-4.4 11.4-4.4 23.8 0 27.5q0.1 0.1 0.1 0.1l-8.2-5.1q-0.6-0.2-1.2-0.6c-0.4-1-0.7-1.9-0.8-2.4l0.1-0.1c-1.5-6.5-0.5-16.3 3.1-25.6z"/><path class="e" d="m163.3 339.3c4.4-11.4 11.5-17.6 15.8-13.8 1.5 1.3 2.5 3.5 3 6.4l-1.7-2.2c-0.9-2.3-2.4-3.6-4.1-3.8 0 0 0 0 0 0-4-0.5-9 5.1-12.4 13.9-2.9 7.4-3.8 15.2-2.6 20.4 0.7 3.7 2.4 5.9 4.6 6.2l2.3 1.1c-1.8 0.7-3.5 0.6-4.9-0.7-4.4-3.7-4.4-16.1 0-27.5z"/><path class="V" d="m116.5 298.7c6.5-17 17.1-26.3 23.6-20.6l-3.6-3.5c-6.6-5.6-17.2 3.7-23.7 20.7-6.6 17.1-6.6 35.5 0 41.2l3.7 3.2c-6.6-5.6-6.6-24 0-41z"/><path class="o" d="m160.7 305.6c0 0-2.6-5-4.8-8.4-2.2-3.5-10-11.6-10-11.6 0 0-17.5-14.4-20.6-11.7-3.1 2.6-4.8 5.8-4.8 5.8v1.2l34.6 29.8z"/><path class="p" d="m155.9 297.2c-2.2-3.5-10-11.6-10-11.6 0 0-17.5-14.4-20.6-11.7-1.8 1.5-3.1 3.2-3.9 4.4 4.6-0.5 18.9 12.4 18.9 12.4 0 0 7.8 8.1 10 11.5 2.3 3.5 4.8 8.5 4.8 8.5l5.6-5.1c0 0-2.6-5-4.8-8.4z"/><path class="q" d="m145.9 285.6l-5.6 5.1c0 0 7.8 8.1 10 11.5l5.6-5c-2.2-3.5-10-11.6-10-11.6z"/><path class="o" d="m240.8 361.1c-1.7 1.5-1.7 6.2 0 10.5 1.7 4.4 4.4 6.7 6 5.3 1.7-1.4 1.7-6.1 0-10.5-1.6-4.4-4.3-6.7-6-5.3z"/><path class="W" d="m236.3 363.2l3.1-2.7c2-1.7 5.2 1.1 7.1 6.2 2 5.1 2 10.6 0 12.3l-3.1 2.7-1.8-4.7c-0.8-1.1-1.6-2.5-2.2-4.2-0.6-1.6-1.1-3.3-1.3-4.9z"/><path class="X" d="m236.3 363.2c-1.9 1.7-1.9 7.2 0 12.3 2 5.1 5.2 7.9 7.1 6.2 2-1.7 2-7.2 0-12.3-1.9-5.1-5.1-7.9-7.1-6.2z"/><path class="Y" d="m236.5 364.8c-1.6 1.5-1.6 6.2 0 10.5 1.7 4.4 4.4 6.8 6.1 5.3 1.7-1.4 1.7-6.1 0-10.5-1.7-4.3-4.4-6.7-6.1-5.3z"/><path class="t" d="m237.9 368.5c-0.9 0.8-0.9 3.3 0 5.6 0.9 2.4 2.4 3.6 3.3 2.9 0.9-0.8 0.9-3.3 0-5.7-0.9-2.3-2.4-3.6-3.3-2.8z"/><path class="Z" d="m238.6 369.1c-0.7 0.6-0.7 2.6 0 4.5 0.7 1.8 1.9 2.8 2.6 2.2 0.7-0.6 0.7-2.6 0-4.5-0.7-1.8-1.9-2.8-2.6-2.2z"/><path class="r" d="m237.7 370l1.8-0.5 1.7 2.6v3l-5.1 4.5-3.8-4.6z"/><path class="F" d="m233.6 373.6l1.7-0.4 4.2-3.7-1.8 0.5z"/><path class="o" d="m227.7 349.7c-1.7 1.4-1.7 6.1 0 10.5 1.6 4.3 4.4 6.7 6 5.3 1.7-1.5 1.7-6.2 0-10.6-1.6-4.3-4.4-6.7-6-5.2z"/><path class="a0" d="m223.2 351.7l3.1-2.7c2-1.7 5.1 1.1 7.1 6.2 2 5.2 2 10.7 0 12.4l-3.1 2.7-1.8-4.8c-0.8-1.1-1.6-2.5-2.2-4.1-0.6-1.7-1.1-3.4-1.3-5z"/><path class="a1" d="m223.2 351.7c-2 1.7-2 7.2 0 12.4 2 5.1 5.2 7.9 7.1 6.2 2-1.7 2-7.2 0-12.4-1.9-5.1-5.1-7.9-7.1-6.2z"/><path class="a2" d="m223.4 353.4c-1.7 1.4-1.7 6.1 0 10.5 1.7 4.3 4.4 6.7 6.1 5.3 1.6-1.5 1.6-6.2 0-10.5-1.7-4.4-4.4-6.8-6.1-5.3z"/><path class="t" d="m224.8 357c-0.9 0.8-0.9 3.3 0 5.7 0.9 2.3 2.4 3.6 3.3 2.8 0.9-0.8 0.9-3.3 0-5.6-0.9-2.4-2.4-3.6-3.3-2.9z"/><path class="Z" d="m225.5 357.6c-0.7 0.6-0.7 2.6 0 4.5 0.7 1.9 1.8 2.9 2.6 2.3 0.7-0.7 0.7-2.7 0-4.5-0.8-1.9-1.9-2.9-2.6-2.3z"/><path class="z" d="m226.4 360.1c-0.1 0.2-0.1 0.7 0 1.2 0.2 0.4 0.5 0.7 0.7 0.5 0.2-0.1 0.2-0.6 0-1.1-0.2-0.5-0.5-0.7-0.7-0.6z"/><path fill-rule="evenodd" d="m226.4 361.3c-0.1-0.3-0.2-0.7-0.1-0.9q0-0.2 0.1-0.3 0.1-0.1 0.2-0.1c0.1 0 0.4 0.3 0.5 0.7 0.2 0.5 0.2 1 0 1.2q-0.1 0.1-0.1 0.1c-0.2 0-0.5-0.3-0.6-0.7zm0.1-1.1q-0.1 0.1-0.1 0.2c-0.1 0.2 0 0.5 0.1 0.8 0.1 0.4 0.3 0.6 0.5 0.6q0 0 0.1 0c0.1-0.2 0.1-0.6-0.1-1-0.1-0.4-0.3-0.6-0.4-0.6q-0.1 0-0.1 0z"/><path class="r" d="m223 360.9l3.2-2.7c0 0 1.4 1.8 1.7 2.7 0.4 1 0 2.6 0 2.6l-5.8 5.4z"/><path class="a3" d="m231.1 364.8l-3.1-3.1-1.5-0.9-1.6 1.4 1.1 1.5 7.2 6.9z"/><path class="r" d="m229.8 361.7l-4.6-8.8-0.7-0.8-0.7 0.5 0.8 1.6 4.6 11.4z"/><path class="F" d="m229.2 362.3l-4.6-8.9-0.8-0.8-0.3 0.5 0.5 1.6 4.6 11.4z"/><path class="a4" d="m229.4 366.2l-3.1-3-1.4-1-1.2 1.3 0.6 1.6 7.3 7z"/><path class="o" d="m218.9 357.3c-1.7 1.5-1.7 6.2 0 10.5 1.6 4.4 4.4 6.8 6 5.3 1.7-1.4 1.7-6.1 0-10.5-1.6-4.3-4.4-6.7-6-5.3z"/><path class="a5" d="m214.4 359.4l3.1-2.7c2-1.7 5.1 1.1 7.1 6.2 2 5.1 2 10.7 0 12.4l-3.1 2.6-1.8-4.7c-0.8-1.1-1.6-2.5-2.2-4.2-0.6-1.6-1.1-3.3-1.3-4.9z"/><path class="a6" d="m214.4 359.4c-2 1.7-2 7.2 0 12.3 2 5.2 5.2 7.9 7.1 6.2 2-1.6 2-7.2 0-12.3-1.9-5.1-5.1-7.9-7.1-6.2z"/><path class="a7" d="m214.6 361.1c-1.7 1.4-1.7 6.1 0 10.5 1.7 4.3 4.4 6.7 6.1 5.3 1.6-1.5 1.6-6.2 0-10.6-1.7-4.3-4.4-6.7-6.1-5.2z"/><path class="a8" d="m216 364.7c-0.9 0.8-0.9 3.3 0 5.7 0.9 2.3 2.4 3.6 3.3 2.8 0.9-0.8 0.9-3.3 0-5.6-0.9-2.4-2.4-3.7-3.3-2.9z"/><path class="F" d="m216.7 365.3c-0.7 0.6-0.7 2.6 0 4.5 0.7 1.9 1.8 2.9 2.6 2.2 0.7-0.6 0.7-2.6 0-4.4-0.8-1.9-1.9-2.9-2.6-2.3z"/><path class="t" d="m217.6 367.8c-0.1 0.2-0.1 0.7 0 1.2 0.2 0.4 0.5 0.7 0.7 0.5 0.2-0.1 0.2-0.6 0-1.1-0.2-0.5-0.5-0.7-0.7-0.6z"/><path class="r" d="m228.4 362.6l3.1 2.8 2.9-2.5-3.3-2.7z"/><path class="a3" d="m233 360.1l-0.2 3.1-0.3 0.6-1.1 0.3-1-0.9 0.3-4.5z"/><path class="F" d="m231.5 365.4v7.3l-2.9-2.4-0.4-2.8 0.2-4.9z"/><path class="r" d="m233.3 365.6l1.5-1.2 3 5.9-1.5 1.3z"/><path class="F" d="m232.8 366.6l0.5-1 3 6-0.6 0.6z"/><path class="a3" d="m231.6 364.3l2.4-2 0.6-0.1 0.7 1.2v1.4l-2.4 2.1z"/><path class="z" d="m235.3 373.3v-1.4l0.7-0.1 0.7 1.3v1.4h-0.7z"/><path fill-rule="evenodd" d="m235.3 373.3v-1.5l0.7-0.1 0.7 1.3v0.1 1.4l-0.7 0.1zm1.3-0.2l-0.6-1.2-0.6 0.1v1.2l0.6 1.3 0.6-0.1z"/><path class="a3" d="m235.3 371.9l2.4-2.1 0.7-0.1 0.7 1.3v1.4l-2.4 2.1z"/><path class="F" d="m236.3 373.4l-0.8-1.2 2.9-2.5 0.7 1.3z"/><path class="r" d="m232.9 365.5l-0.7-1.2 2.4-2.1 0.7 1.2z"/><path class="F" d="m237.1 375.7l-0.2 3.2 4.3-3.8v-3z"/><path class="F" d="m233.3 365.6v0.9l-0.4 0.4v-1.4z"/><path class="a3" d="m224.7 352l0.7-0.6 6.6-0.6-0.2 4.7-6.2-1.9z"/><path class="F" d="m224.6 352.4l0.1-0.4 6.7-0.6-0.2 4.6-6.3-1.9z"/><path class="r" d="m253.2 320.1l0.9 2.1-20 31.4-0.7-2.7z"/><path class="F" d="m242.1 313.9l-7.4 37.2 1.1-2.5 6.9-34.9z"/><path class="r" d="m240.4 313l1.7 0.9-7.4 37.2-1.5-1.5z"/><path class="F" d="m235.8 330.7l2.6 0.9-0.3 1.8-2.5-0.7z"/><path class="a3" d="m236.9 330.8l1.5 0.8-2.6-0.9-0.2-0.4z"/><path class="F" d="m234.1 353.6l0.3 1.6 20.7-32.7-1-0.3z"/><path class="F" d="m243.2 326.1l-0.5 13.9 1.2-1.8 0.5-12.8z"/><path class="a3" d="m242.4 324.4l0.8 1.7-0.5 13.9-0.9-2.1z"/><path class="r" d="m244.4 325.4l-0.9-1.7-1.1 0.7 0.8 1.7z"/><path class="r" d="m255.1 322.5l-0.9-2-1-0.4 0.9 2.1z"/><path class="F" d="m236 323.8l0.7 0.4-2.5 34.2-0.6 2.1-2.3 0.4-1.6-1.9 3.3-34.2z"/><path class="r" d="m235.4 322.7l1.3 1.5-0.5 1.8-1.9 0.3-1.3-1.5 0.5-1.8z"/><path class="a3" d="m242.7 313.7l-1.7-0.9-0.6 0.2 1.7 0.9z"/><path class="o" d="m232 368.8c-1.7 1.4-1.7 6.1 0 10.5 1.7 4.4 4.4 6.7 6 5.3 1.7-1.5 1.7-6.2 0-10.5-1.6-4.4-4.3-6.8-6-5.3z"/><path class="a9" d="m227.5 370.9l3.1-2.7c2-1.7 5.2 1 7.1 6.2 2 5.1 2 10.6 0 12.3l-3.1 2.7-1.8-4.7c-0.8-1.1-1.6-2.5-2.2-4.2-0.6-1.7-1.1-3.4-1.3-5z"/><path class="aa" d="m227.5 370.9c-1.9 1.6-1.9 7.2 0 12.3 2 5.1 5.2 7.9 7.1 6.2 2-1.7 2-7.2 0-12.3-1.9-5.2-5.1-7.9-7.1-6.2z"/><path class="ab" d="m227.7 372.5c-1.6 1.4-1.6 6.2 0 10.5 1.7 4.4 4.4 6.7 6.1 5.3 1.7-1.4 1.7-6.1 0-10.5-1.7-4.4-4.4-6.7-6.1-5.3z"/><path class="ac" d="m229.1 376.2c-0.9 0.7-0.9 3.3 0 5.6 0.9 2.3 2.4 3.6 3.3 2.8 0.9-0.7 0.9-3.3 0-5.6-0.9-2.3-2.4-3.6-3.3-2.8z"/><path class="F" d="m229.8 376.8c-0.7 0.6-0.7 2.6 0 4.4 0.7 1.9 1.9 2.9 2.6 2.3 0.7-0.6 0.7-2.6 0-4.5-0.7-1.8-1.9-2.9-2.6-2.2z"/><path class="t" d="m230.8 379.3c-0.2 0.1-0.2 0.6 0 1.1 0.1 0.5 0.4 0.7 0.6 0.6 0.2-0.2 0.2-0.7 0-1.2-0.2-0.4-0.5-0.7-0.6-0.5z"/><path class="F" d="m231.6 365.7v-1.4h0.6l0.7 1.2v1.4l-0.7 0.1z"/><path class="s" d="m234.3 326.3l-3 34.6-1.6-1.9 3.3-34.2z"/><path class="r" d="m225 342.4l0.9 0.8 7.4-10.3-0.9-0.8z"/><path class="F" d="m225.9 343.2l7.4-10.3-0.1 1.9-6.9 9.9z"/><path class="r" d="m213.9 344.7l1.4 1.8 16.1 9.7-2.3-2z"/><path class="F" d="m222.8 335.4l5.7 19 1.7 1-6.5-20.9z"/><path class="ad" d="m221.1 334.5l1.7 0.9 5.7 19-1.3-1.3z"/><path class="F" d="m230.9 358.6l0.5-2.4-16.1-9.7-0.7 2.3z"/><path class="r" d="m215.3 346.5l-1.4-1.7-0.8 2.2 1.5 1.8z"/><path class="ae" d="m236.7 324.2l-2.5 34.2-0.6 2.1 2.6-34.5z"/><path class="a3" d="m222.8 335.4l-1.7-0.9 0.9-0.9 1.7 0.9z"/><path  d="m14.4 17.9v8.2l-0.3 3.9 0.3 5.5-2.1 2.5-1.9-4.1-0.5-9.4z"/><path  d="m9.6 22.3l-0.2-4.4 2.7-5.5 5-3.7-2.4 6.8z"/><path fill-rule="evenodd" class="af" d="m282.3 301.6c-0.3-0.3-5.6-4-7.6-5.5-0.1-0.1-2.7-2.4-3.5-8.6-0.8-6.3-0.5-17.7 1.1-23.5 1.5-3 2.4-2.7 2.7-2.5 1.8 1.5 7.7 6.3 8 6.8 0.4 0.6 1.5 3.5 1.3 5.4q-0.1 0.6-0.2 1.6c-0.4 2.5-1.2 7.3-1 12.9 0.1 4.7 0.7 8 1 10 0.2 1 0.3 1.6 0.2 2 0 0.6-0.3 1.1-0.7 1.4q-0.3 0.2-0.7 0.2-0.3 0-0.6-0.2zm-9.4-37.1c-1.5 5.5-1.8 16.6-1 22.8 0.7 5.7 3.1 7.9 3.1 7.9 0.3 0.2 7.2 5.1 7.7 5.5 0.1 0.1 0.4 0.1 0.6-0.1 0.2-0.1 0.3-0.3 0.3-0.5 0-0.2-0.1-0.9-0.2-1.7-0.3-2-0.9-5.3-1-10.2-0.2-5.7 0.6-10.6 1-13.2q0.1-0.9 0.2-1.4c0.2-1.6-0.8-4.1-1.1-4.5-0.3-0.5-5-4.3-7.8-6.6-0.2-0.1-0.8 0-1.8 2z"/><path fill-rule="evenodd" class="ag" d="m403.9 408.8c-0.4-0.3-5.7-4-7.7-5.5-0.1-0.1-2.7-2.4-3.5-8.6-0.8-6.3-0.5-17.7 1.1-23.6 1.5-3 2.4-2.6 2.7-2.4 1.8 1.5 7.7 6.3 8 6.8 0.4 0.6 1.5 3.5 1.3 5.4q-0.1 0.6-0.2 1.6c-0.4 2.5-1.2 7.3-1 12.9 0.1 4.7 0.7 8 1 10 0.2 1 0.3 1.6 0.2 2 0 0.5-0.3 1.1-0.7 1.4q-0.3 0.2-0.7 0.2-0.3 0-0.5-0.2zm-9.5-37.1c-1.5 5.5-1.8 16.6-1 22.8 0.7 5.7 3.1 7.9 3.1 7.9 0.3 0.2 7.3 5.1 7.7 5.5 0.1 0.1 0.4 0.1 0.6-0.1 0.2-0.1 0.3-0.3 0.3-0.5 0-0.2-0.1-0.9-0.2-1.7-0.3-2-0.9-5.3-1-10.2-0.2-5.7 0.6-10.6 1-13.2q0.1-0.9 0.2-1.4c0.2-1.6-0.8-4.1-1.1-4.5-0.3-0.5-4.9-4.3-7.8-6.6q0 0-0.1 0c-0.3 0-0.9 0.3-1.7 2z"/><path fill-rule="evenodd" class="af" d="m138.3 178.5c-0.3-0.4-5.6-4.1-7.6-5.5-0.1-0.1-2.7-2.4-3.5-8.6-0.8-6.4-0.5-17.8 1.1-23.6 1.5-3 2.4-2.7 2.7-2.4 1.8 1.4 7.7 6.2 8 6.7 0.4 0.6 1.5 3.6 1.3 5.5q-0.1 0.5-0.2 1.5c-0.4 2.6-1.2 7.3-1 12.9 0.1 4.8 0.7 8.1 1 10 0.2 1.1 0.2 1.6 0.2 2 0 0.6-0.3 1.1-0.7 1.4q-0.3 0.3-0.7 0.3-0.3 0-0.6-0.2zm-9.4-37.2c-1.5 5.6-1.8 16.7-1 22.9 0.7 5.7 3.1 7.8 3.1 7.8 0.3 0.2 7.2 5.1 7.7 5.5 0.1 0.1 0.4 0.1 0.6 0 0.2-0.2 0.3-0.4 0.3-0.6 0-0.2-0.1-0.9-0.2-1.6-0.3-2-0.9-5.4-1-10.2-0.2-5.8 0.6-10.6 1-13.2q0.1-1 0.2-1.5c0.2-1.5-0.8-4.1-1.1-4.5-0.3-0.4-5-4.3-7.8-6.6q0 0-0.1 0c-0.3 0-0.9 0.4-1.7 2z"/><path fill-rule="evenodd" class="af" d="m44.6 86.2c-0.4-0.3-5.7-3.7-7.7-4.9-0.1-0.1-2.7-2.2-3.5-7.8-0.8-5.7-0.5-16 1.1-21.3 1.5-2.7 2.4-2.4 2.8-2.1 1.7 1.3 7.6 5.6 7.9 6.1 0.4 0.5 1.5 3.1 1.3 4.9q0 0.5-0.2 1.4c-0.4 2.3-1.2 6.5-1 11.6 0.1 4.3 0.7 7.2 1 9 0.2 0.9 0.3 1.4 0.2 1.8 0 0.5-0.2 1-0.7 1.3q-0.3 0.2-0.7 0.2-0.3 0-0.5-0.2zm-9.5-33.5c-1.5 5-1.8 15-1 20.6 0.7 5.1 3.1 7.1 3.1 7.1 0.3 0.2 7.3 4.6 7.7 5 0.1 0.1 0.4 0.1 0.6-0.1 0.2-0.1 0.3-0.3 0.3-0.5 0-0.2-0.1-0.8-0.2-1.5-0.3-1.8-0.9-4.8-1-9.2-0.2-5.1 0.6-9.5 1-11.9q0.2-0.8 0.2-1.3c0.2-1.4-0.8-3.7-1.1-4-0.3-0.4-4.9-3.9-7.8-6q0 0-0.1 0c-0.3 0-0.8 0.3-1.7 1.8z"/><path  d="m377.9 376.8l0.9 0.8c0.7 0.5 1.2-0.1 1.2-1.4v-4.5c0-1.3-0.5-2.9-1.2-3.4l-0.9-0.8c-0.6-0.6-1.1 0-1.1 1.3v4.6c0 1.3 0.5 2.8 1.1 3.4z"/><path  d="m372.1 371.7l0.9 0.8c0.6 0.5 1.1-0.1 1.1-1.4v-4.5c0-1.3-0.5-2.9-1.1-3.4l-0.9-0.8c-0.7-0.6-1.2 0-1.2 1.3v4.6c0 1.3 0.5 2.8 1.2 3.4z"/><path  d="m366.2 366.6l0.9 0.8c0.7 0.5 1.2-0.1 1.2-1.4v-4.5c0-1.3-0.5-2.9-1.2-3.4l-0.9-0.8c-0.6-0.6-1.1 0-1.1 1.3v4.6c0 1.3 0.5 2.8 1.1 3.4z"/><path  d="m360.4 361.5l0.9 0.8c0.6 0.5 1.2-0.1 1.2-1.4v-4.5c0-1.3-0.6-2.9-1.2-3.4l-0.9-0.8c-0.6-0.6-1.2 0-1.2 1.3v4.6c0 1.3 0.6 2.8 1.2 3.4z"/><path  d="m354.6 356.4l0.8 0.8c0.7 0.5 1.2-0.1 1.2-1.4v-4.5c0-1.3-0.5-2.9-1.2-3.4l-0.8-0.8c-0.7-0.6-1.2 0-1.2 1.3v4.6c0 1.3 0.5 2.8 1.2 3.4z"/><path  d="m348.7 351.3l0.9 0.8c0.6 0.5 1.2-0.1 1.2-1.4v-4.5c0-1.3-0.6-2.9-1.2-3.4l-0.9-0.8c-0.6-0.6-1.2 0-1.2 1.3v4.6c0 1.3 0.6 2.8 1.2 3.4z"/><path  d="m342.9 346.2l0.9 0.8c0.6 0.5 1.1-0.1 1.1-1.4v-4.5c0-1.3-0.5-2.9-1.1-3.4l-0.9-0.8c-0.7-0.6-1.2 0-1.2 1.3v4.6c0 1.3 0.5 2.8 1.2 3.4z"/><path  d="m337 341.1l0.9 0.8c0.7 0.5 1.2-0.1 1.2-1.4v-4.5c0-1.3-0.5-2.9-1.2-3.4l-0.9-0.8c-0.6-0.6-1.1 0-1.1 1.3v4.6c0 1.3 0.5 2.8 1.1 3.4z"/><path  d="m331.2 336l0.9 0.8c0.6 0.5 1.2-0.1 1.2-1.4v-4.5c0-1.3-0.6-2.9-1.2-3.4l-0.9-0.8c-0.7-0.6-1.2 0-1.2 1.4v4.5c0 1.3 0.5 2.8 1.2 3.4z"/><path  d="m325.4 330.9l0.8 0.8c0.7 0.5 1.2-0.1 1.2-1.4v-4.5c0-1.3-0.5-2.9-1.2-3.4l-0.8-0.8c-0.7-0.6-1.2 0-1.2 1.4v4.5c0 1.3 0.5 2.8 1.2 3.4z"/><path  d="m319.5 325.8l0.9 0.8c0.6 0.5 1.2-0.1 1.2-1.4v-4.5c0-1.3-0.6-2.9-1.2-3.4l-0.9-0.8c-0.6-0.6-1.2 0-1.2 1.4v4.5c0 1.3 0.6 2.8 1.2 3.4z"/><path  d="m313.7 320.7l0.8 0.8c0.7 0.5 1.2-0.1 1.2-1.4v-4.5c0-1.3-0.5-2.9-1.2-3.4l-0.8-0.8c-0.7-0.6-1.2 0-1.2 1.4v4.5c0 1.3 0.5 2.8 1.2 3.4z"/><path  d="m307.8 315.6l0.9 0.8c0.7 0.6 1.2-0.1 1.2-1.4v-4.5c0-1.3-0.5-2.9-1.2-3.4l-0.9-0.8c-0.6-0.6-1.2 0-1.2 1.4v4.5c0 1.3 0.6 2.9 1.2 3.4z"/><path  d="m302 310.5l0.9 0.8c0.6 0.6 1.1-0.1 1.1-1.4v-4.5c0-1.3-0.5-2.9-1.1-3.4l-0.9-0.8c-0.7-0.6-1.2 0-1.2 1.4v4.5c0 1.3 0.5 2.9 1.2 3.4z"/><path  d="m296.1 305.4l0.9 0.8c0.7 0.6 1.2-0.1 1.2-1.4v-4.5c0-1.3-0.5-2.9-1.2-3.4l-0.9-0.8c-0.6-0.6-1.1 0-1.1 1.4v4.5c0 1.3 0.5 2.9 1.1 3.4z"/><path  d="m290.3 300.3l0.9 0.8c0.6 0.6 1.2-0.1 1.2-1.4v-4.5c0-1.3-0.6-2.9-1.2-3.4l-0.9-0.8c-0.6-0.6-1.2 0-1.2 1.4v4.5c0 1.3 0.6 2.9 1.2 3.4z"/><path  d="m258.4 272.5l0.9 0.8c0.7 0.5 1.2-0.1 1.2-1.4v-4.5c0-1.3-0.5-2.9-1.2-3.4l-0.9-0.8c-0.6-0.6-1.1 0-1.1 1.3v4.6c0 1.3 0.5 2.8 1.1 3.4z"/><path  d="m252.6 267.4l0.9 0.8c0.6 0.5 1.2-0.1 1.2-1.4v-4.5c0-1.3-0.6-2.9-1.2-3.4l-0.9-0.8c-0.7-0.6-1.2 0-1.2 1.3v4.6c0 1.3 0.5 2.8 1.2 3.4z"/><path  d="m246.8 262.3l0.8 0.8c0.7 0.5 1.2-0.1 1.2-1.4v-4.5c0-1.3-0.5-2.9-1.2-3.4l-0.8-0.8c-0.7-0.6-1.2 0-1.2 1.3v4.6c0 1.3 0.5 2.8 1.2 3.4z"/><path  d="m240.9 257.2l0.9 0.8c0.6 0.5 1.2-0.1 1.2-1.4v-4.5c0-1.3-0.6-2.9-1.2-3.4l-0.9-0.8c-0.6-0.6-1.2 0-1.2 1.3v4.6c0 1.3 0.6 2.8 1.2 3.4z"/><path  d="m235.1 252.1l0.8 0.8c0.7 0.5 1.2-0.1 1.2-1.4v-4.5c0-1.3-0.5-2.9-1.2-3.4l-0.8-0.8c-0.7-0.6-1.2 0-1.2 1.3v4.6c0 1.3 0.5 2.8 1.2 3.4z"/><path  d="m229.2 247l0.9 0.8c0.7 0.5 1.2-0.1 1.2-1.4v-4.5c0-1.3-0.5-2.9-1.2-3.4l-0.9-0.8c-0.6-0.6-1.2 0-1.2 1.3v4.6c0 1.3 0.6 2.8 1.2 3.4z"/><path  d="m223.4 241.9l0.9 0.8c0.6 0.5 1.1-0.1 1.1-1.4v-4.5c0-1.3-0.5-2.9-1.1-3.4l-0.9-0.8c-0.7-0.6-1.2 0-1.2 1.3v4.6c0 1.3 0.5 2.8 1.2 3.4z"/><path  d="m217.5 236.8l0.9 0.8c0.7 0.5 1.2-0.1 1.2-1.4v-4.5c0-1.3-0.5-2.9-1.2-3.4l-0.9-0.8c-0.6-0.6-1.1 0-1.1 1.3v4.6c0 1.3 0.5 2.8 1.1 3.4z"/><path  d="m211.7 231.7l0.9 0.8c0.6 0.5 1.2-0.1 1.2-1.4v-4.5c0-1.3-0.6-2.9-1.2-3.4l-0.9-0.8c-0.6-0.6-1.2 0-1.2 1.3v4.6c0 1.3 0.6 2.8 1.2 3.4z"/><path  d="m205.9 226.6l0.8 0.8c0.7 0.5 1.2-0.1 1.2-1.4v-4.5c0-1.3-0.5-2.9-1.2-3.4l-0.8-0.8c-0.7-0.6-1.2 0-1.2 1.3v4.6c0 1.3 0.5 2.8 1.2 3.4z"/><path  d="m200 221.5l0.9 0.8c0.6 0.5 1.2-0.1 1.2-1.4v-4.5c0-1.3-0.6-2.9-1.2-3.4l-0.9-0.8c-0.6-0.6-1.2 0-1.2 1.3v4.6c0 1.3 0.6 2.8 1.2 3.4z"/><path  d="m194.2 216.4l0.9 0.8c0.6 0.5 1.1-0.1 1.1-1.4v-4.5c0-1.3-0.5-2.9-1.1-3.4l-0.9-0.8c-0.7-0.6-1.2 0-1.2 1.3v4.6c0 1.3 0.5 2.8 1.2 3.4z"/><path  d="m188.3 211.3l0.9 0.8c0.7 0.5 1.2-0.1 1.2-1.4v-4.5c0-1.3-0.5-2.9-1.2-3.4l-0.9-0.8c-0.6-0.6-1.1 0-1.1 1.3v4.6c0 1.3 0.5 2.8 1.1 3.4z"/><path  d="m182.5 206.2l0.9 0.8c0.6 0.5 1.2-0.1 1.2-1.4v-4.5c0-1.3-0.6-2.9-1.2-3.4l-0.9-0.8c-0.7-0.6-1.2 0-1.2 1.3v4.6c0 1.3 0.5 2.8 1.2 3.4z"/><path  d="m176.7 201.1l0.8 0.8c0.7 0.5 1.2-0.1 1.2-1.4v-4.5c0-1.3-0.5-2.9-1.2-3.4l-0.8-0.8c-0.7-0.6-1.2 0-1.2 1.3v4.6c0 1.3 0.5 2.8 1.2 3.4z"/><path  d="m170.8 196l0.9 0.8c0.6 0.5 1.2-0.1 1.2-1.4v-4.5c0-1.3-0.6-2.9-1.2-3.4l-0.9-0.8c-0.6-0.6-1.2 0-1.2 1.3v4.6c0 1.3 0.6 2.8 1.2 3.4z"/><path  d="m113.8 146.3l0.9 0.7c0.6 0.6 1.2 0 1.2-1.3v-4.6c0-1.3-0.6-2.8-1.2-3.4l-0.9-0.7c-0.6-0.6-1.2 0-1.2 1.3v4.6c0 1.3 0.6 2.8 1.2 3.4z"/><path  d="m108 141.2l0.9 0.7c0.6 0.6 1.1 0 1.1-1.3v-4.6c0-1.3-0.5-2.8-1.1-3.4l-0.9-0.7c-0.7-0.6-1.2 0-1.2 1.3v4.6c0 1.3 0.5 2.8 1.2 3.4z"/><path  d="m102.1 136.1l0.9 0.7c0.7 0.6 1.2 0 1.2-1.3v-4.6c0-1.3-0.5-2.8-1.2-3.4l-0.9-0.7c-0.6-0.6-1.1 0-1.1 1.3v4.6c0 1.3 0.5 2.8 1.1 3.4z"/><path  d="m96.3 131l0.9 0.7c0.6 0.6 1.2 0 1.2-1.3v-4.6c0-1.3-0.6-2.8-1.2-3.4l-0.9-0.7c-0.7-0.6-1.2 0-1.2 1.3v4.6c0 1.3 0.5 2.8 1.2 3.4z"/><path  d="m90.5 125.9l0.8 0.7c0.7 0.6 1.2 0 1.2-1.3v-4.6c0-1.3-0.5-2.8-1.2-3.4l-0.8-0.7c-0.7-0.6-1.2 0-1.2 1.3v4.6c0 1.3 0.5 2.8 1.2 3.4z"/><path  d="m84.6 120.8l0.9 0.7c0.6 0.6 1.2 0 1.2-1.3v-4.6c0-1.3-0.6-2.8-1.2-3.4l-0.9-0.7c-0.6-0.6-1.2 0-1.2 1.3v4.6c0 1.3 0.6 2.8 1.2 3.4z"/><path  d="m78.8 115.7l0.8 0.7c0.7 0.6 1.2 0 1.2-1.3v-4.6c0-1.3-0.5-2.8-1.2-3.4l-0.8-0.7c-0.7-0.6-1.2 0-1.2 1.3v4.6c0 1.3 0.5 2.8 1.2 3.4z"/><path  d="m72.9 99.7l0.9 0.7c0.7 0.5 1.2-0.1 1.2-1.2v-4.1c0-1.2-0.5-2.6-1.2-3.1l-0.9-0.7c-0.6-0.5-1.2 0-1.2 1.2v4.1c0 1.2 0.6 2.6 1.2 3.1z"/><path  d="m67.1 95.1l0.9 0.7c0.6 0.5 1.1 0 1.1-1.2v-4.1c0-1.2-0.5-2.6-1.1-3.1l-0.9-0.7c-0.7-0.5-1.2 0-1.2 1.2v4.1c0 1.2 0.5 2.6 1.2 3.1z"/><path  d="m61.2 90.5l0.9 0.7c0.7 0.5 1.2 0 1.2-1.2v-4.1c0-1.2-0.5-2.6-1.2-3.1l-0.9-0.7c-0.6-0.5-1.1 0-1.1 1.2v4.1c0 1.2 0.5 2.6 1.1 3.1z"/><path  d="m55.4 85.9l0.9 0.7c0.6 0.5 1.2 0 1.2-1.2v-4.1c0-1.2-0.6-2.6-1.2-3.1l-0.9-0.7c-0.6-0.5-1.2 0-1.2 1.2v4.1c0 1.2 0.6 2.6 1.2 3.1z"/><path class="I" d="m277.1 320.8l-57.3 36.2-31.3 47.8-39.8 52.2-33.3 42.3-7.5 7c0 0-2.5 6.5-2.8 8.5-0.2 2.1 0.6 13.1 0.6 13.1 0 0-1.3 0.2-1.4 0-0.1-0.2-9.4-9.7-12.8-14.9-3.4-5.3-9.2-13.9-4.7-27.6 4.6-13.8 44.5-149.6 44.5-149.6l33.1-121c0 0 15.8 0.1 29.1 15.4 13.3 15.3 83.6 90.6 83.6 90.6z"/><path fill-rule="evenodd" class="J" d="m90.3 474.1l-0.3-0.2 0.1-0.5c10.9-36 40.6-136.8 40.9-137.8l33.1-121 0.1-0.3h0.2c0.2 0 16 0.2 29.3 15.5l0.2 0.2-46.6 128.6-50.6 120.9zm74.4-258.7l-33.1 120.6c-0.3 1-29.7 101-40.7 137.4l5.6 4.7 50.2-120.1 46.3-127.7c-12.1-13.7-26.3-14.8-28.3-14.9z"/><path fill-rule="evenodd" class="J" d="m240.8 344.1l-13-13.4 36.8-23.6 0.2-0.2 0.2 0.2c7.4 8 12.3 13.3 12.3 13.3l0.6 0.5-36.8 23.2v0.1zm23.9-36l-35.5 22.8 11.7 12.1 35.4-22.4c-1.4-1.5-5.7-6.1-11.6-12.5z"/><path fill-rule="evenodd" class="J" d="m109.5 494.3l31.8-47.1 8 9.8-33.7 42.7-0.2 0.3zm31.8-45.6l-30.7 45.4 4.7 4.5 32.9-41.6z"/><path fill-rule="evenodd" class="J" d="m147.3 446.5l33.6-51.8 29.7-49.4 0.2-0.4 9.6 12-31.7 48.3-35.5 46.7-0.2 0.3zm63.5-100l-29.4 49-33 50.8 4.5 4.6 35.3-46.4 31.1-47.5z"/><path class="H" d="m509.8 423.8c0 0-10.7-6.5-22.6-17.7-21.3-19.9-50.4-50.9-56.6-58.4-9.6-11.7-17-23.8-17-23.8l1.1-1.5 19.1 8.3 8 0.5 72.7-53.8c0 0 7.5-1.5 9.6-1.4 2 0.2 19.7 14.6 19.7 14.6l5 5.2-37.6 126.6z"/><path class="ah" d="m523.7 277.8l-79.4 64h-13.3l-17.4-17.9 17.6 10.5h9.5l72.6-55.4z"/><path class="ai" d="m542.1 291.9l-18.4-14.1-10.4 1.2-72.6 55.4h-9.5l-17.6-10.5 1.1-1.5 19.1 8.3 8 0.5 72.7-53.8c0 0 7.5-1.5 9.6-1.4 2 0.2 19.7 14.6 19.7 14.6l5 5.2-1.4 1.2z"/><path class="aj" d="m547.4 297l-37.6 126.8 1.4-1.4 37.6-126.6z"/></svg>