<svg version="1.2" xmlns="http://www.w3.org/2000/svg" viewBox="0 0 536 341" width="536" height="341"><style>.a{fill:#23222d}.b{fill:#393843}.c{fill:#2d2c37}.d{fill:#504f58}.e{fill:#c4c2bb}.f{fill:#b0ac9e}.g{fill:#b7b4a9}.h{fill:#9d9783}.i{fill:#d5d2c9}.j{fill:#ded8d1}.k{fill:#f9f7f4}.l{fill:#fcfbfa}.m{mix-blend-mode:multiply;fill:#ede8e4}.n{fill:#ebe7e3}.o{fill:#f3f1ee}.p{fill:#677e93}.q{fill:#8694a1}.r{fill:#ccc9c6}.s{fill:#bfbcb9}.t{fill:#a19e9c}.u{mix-blend-mode:soft-light;fill:#fcfbfa}.v{fill:#cdc6bc}.w{mix-blend-mode:multiply;fill:#e3198d}.x{fill:#e6e2dc}.y{fill:#383838}.z{fill:#9c958d}</style><path class="a" d="m344.9 236.6c0-3 2.2-6.7 4.8-8.2 1.4-0.8 2.7-0.9 3.6-0.3l3 1.8-2.1 3.3c-0.5 1.9-1.7 3.9-3.2 5.3l-1.8 2.9-2.7-1.6q-0.2-0.1-0.4-0.2c-0.8-0.6-1.2-1.6-1.2-3z"/><path class="b" d="m347.9 238.4c0 3 2.1 4.2 4.8 2.7 2.6-1.5 4.8-5.2 4.8-8.3 0-3-2.2-4.3-4.8-2.7-2.7 1.5-4.8 5.2-4.8 8.3z"/><path class="c" d="m348.4 238.3c0 2.9 2 4.1 4.6 2.6 2.5-1.4 4.6-5 4.6-7.9 0-3-2.1-4.1-4.6-2.7-2.6 1.5-4.6 5.1-4.6 8z"/><path class="d" d="m349.4 237.6c0 2.1 1.5 2.9 3.4 1.9 1.8-1.1 3.3-3.7 3.3-5.8 0-2.1-1.5-2.9-3.3-1.9-1.9 1.1-3.4 3.7-3.4 5.8z"/><path class="e" d="m349.7 237.3c0 1.9 1.3 2.7 3 1.8 1.6-1 3-3.3 3-5.3 0-1.9-1.4-2.6-3-1.7-1.7 1-3 3.3-3 5.2z"/><path class="f" d="m350 237.2c0 1.7 1.2 2.4 2.7 1.5 1.5-0.9 2.7-3 2.7-4.7 0-1.7-1.2-2.4-2.7-1.5q-0.2 0.1-0.4 0.2c-1.2 0.9-2.1 2.5-2.3 4q0 0.2 0 0.5z"/><path class="g" d="m351.7 238c1.4-0.8 2.6-2.8 2.6-4.4 0-0.7-0.2-1.2-0.5-1.5 0.9-0.1 1.6 0.6 1.6 1.9 0 1.7-1.2 3.8-2.7 4.7-1.1 0.6-2.1 0.4-2.5-0.4q0.7 0.2 1.5-0.3z"/><path class="h" d="m350 236.7c0.3 0.4 0.8 0.4 1.4 0.1 1-0.5 1.7-1.8 1.7-2.9 0-0.7-0.3-1.1-0.8-1.2-1.2 0.9-2.1 2.5-2.3 4z"/><path class="h" d="m352.7 232.9l1.2 0.7-2.4 4-1.3-0.7 0.9-2z"/><path class="i" d="m351 236.6c0 1 0.8 1.4 1.7 0.9 0.9-0.5 1.6-1.8 1.6-2.9 0-1-0.7-1.5-1.6-0.9-0.9 0.5-1.7 1.8-1.7 2.9z"/><path class="a" d="m355.5 234.4q0 0.4-0.5 0.6c-0.6 0.4-1.6 0.4-2.2 0.1q-0.5-0.3-0.5-0.6 0 0 0 0l-1-43.6 3.1-0.2 1.1 43.7z"/><path class="a" d="m349.9 239.6c0-3.1 2.2-6.8 4.8-8.3 1.4-0.8 2.7-0.9 3.6-0.3l3 1.8-2.1 3.3c-0.5 2-1.7 4-3.2 5.3l-1.8 2.9-2.6-1.5q-0.3-0.1-0.5-0.3c-0.7-0.6-1.2-1.6-1.2-2.9z"/><path class="b" d="m352.9 241.3c0 3 2.1 4.3 4.8 2.7 2.7-1.5 4.8-5.2 4.8-8.3 0-3-2.1-4.2-4.8-2.7-2.7 1.5-4.8 5.2-4.8 8.3z"/><path class="c" d="m353.4 241.2c0 3 2 4.1 4.6 2.7 2.6-1.5 4.6-5.1 4.6-8 0-2.9-2-4.1-4.6-2.6-2.6 1.4-4.6 5-4.6 7.9z"/><path class="d" d="m354.5 240.5c0 2.1 1.4 3 3.3 1.9 1.8-1.1 3.3-3.6 3.3-5.7 0-2.2-1.5-3-3.3-1.9-1.9 1-3.3 3.6-3.3 5.7z"/><path class="e" d="m354.7 240.3c0 1.9 1.3 2.6 3 1.7 1.7-1 3-3.3 3-5.2 0-1.9-1.3-2.7-3-1.8-1.7 1-3 3.3-3 5.3z"/><path class="f" d="m355 240.1c0 1.7 1.2 2.4 2.7 1.5 1.5-0.8 2.7-2.9 2.7-4.7 0-1.7-1.2-2.4-2.7-1.5q-0.2 0.1-0.4 0.3c-1.2 0.8-2.1 2.4-2.3 3.9q0 0.2 0 0.5z"/><path class="g" d="m356.7 240.9c1.4-0.8 2.6-2.8 2.6-4.4 0-0.7-0.2-1.2-0.5-1.5 0.9 0 1.6 0.7 1.6 1.9 0 1.8-1.2 3.9-2.7 4.7-1.1 0.7-2 0.5-2.5-0.3q0.7 0.1 1.5-0.4z"/><path class="h" d="m355 239.6c0.3 0.4 0.8 0.5 1.5 0.1 0.9-0.5 1.6-1.8 1.6-2.9 0-0.7-0.3-1.1-0.8-1.1-1.2 0.8-2.1 2.4-2.3 3.9z"/><path class="h" d="m357.7 235.8l1.3 0.7-2.5 4-1.2-0.7 0.8-2z"/><path class="i" d="m356 239.5c0 1 0.8 1.5 1.7 0.9 0.9-0.5 1.7-1.8 1.7-2.8 0-1.1-0.8-1.5-1.7-1-0.9 0.5-1.7 1.8-1.7 2.9z"/><path class="a" d="m363.6 247.1c0-3.1 2.2-6.8 4.8-8.3 1.5-0.8 2.7-0.9 3.6-0.3l3 1.8-2 3.3c-0.6 2-1.8 3.9-3.3 5.3l-1.8 2.9-2.6-1.5q-0.3-0.1-0.5-0.3c-0.7-0.6-1.2-1.6-1.2-2.9z"/><path class="b" d="m366.6 248.8c0 3 2.2 4.2 4.8 2.7 2.7-1.5 4.8-5.2 4.8-8.3 0-3-2.1-4.2-4.8-2.7-2.6 1.5-4.8 5.2-4.8 8.3z"/><path class="c" d="m367.1 248.7c0 3 2.1 4.1 4.6 2.7 2.6-1.5 4.6-5.1 4.6-8 0-2.9-2-4.1-4.6-2.6-2.5 1.4-4.6 5-4.6 7.9z"/><path class="d" d="m368.2 248c0 2.1 1.5 3 3.3 1.9 1.8-1.1 3.3-3.6 3.3-5.7 0-2.2-1.5-3-3.3-2-1.8 1.1-3.3 3.7-3.3 5.8z"/><path class="e" d="m368.4 247.8c0 1.9 1.3 2.6 3 1.7 1.7-1 3-3.3 3-5.2 0-2-1.3-2.7-3-1.8-1.7 1-3 3.3-3 5.3z"/><path class="f" d="m368.7 247.6c0 1.7 1.2 2.4 2.7 1.5 1.5-0.8 2.7-2.9 2.7-4.7 0-1.7-1.2-2.4-2.7-1.5q-0.2 0.1-0.4 0.3c-1.2 0.8-2.1 2.4-2.3 3.9q0 0.2 0 0.5z"/><path class="g" d="m370.4 248.4c1.5-0.8 2.6-2.8 2.6-4.4 0-0.7-0.2-1.2-0.5-1.5 1-0.1 1.6 0.7 1.6 1.9 0 1.8-1.2 3.9-2.7 4.7-1.1 0.7-2 0.5-2.5-0.4q0.7 0.2 1.5-0.3z"/><path class="h" d="m368.7 247.1c0.3 0.4 0.9 0.5 1.5 0.1 0.9-0.5 1.6-1.8 1.6-2.9 0-0.7-0.3-1.1-0.8-1.1-1.2 0.8-2.1 2.4-2.3 3.9z"/><path class="h" d="m371.4 243.3l1.3 0.7-2.5 4-1.2-0.7 0.8-2z"/><path class="i" d="m369.7 247c0 1 0.8 1.5 1.7 0.9 0.9-0.5 1.7-1.8 1.7-2.9 0-1-0.8-1.4-1.7-0.9-0.9 0.5-1.7 1.8-1.7 2.9z"/><path class="a" d="m374.2 244.8q0 0.4-0.4 0.7c-0.6 0.3-1.6 0.4-2.3 0q-0.4-0.2-0.5-0.6l-1-43.6 3.2-0.2 1 43.7q0 0 0 0z"/><path class="a" d="m368.7 250c0-3 2.1-6.8 4.8-8.3 1.4-0.8 2.6-0.8 3.5-0.2l3 1.7-2 3.3c-0.5 2-1.8 4-3.3 5.3l-1.8 2.9-2.6-1.5q-0.3-0.1-0.5-0.3c-0.7-0.5-1.1-1.5-1.1-2.9z"/><path class="b" d="m371.6 251.7c0 3.1 2.2 4.3 4.8 2.7 2.7-1.5 4.8-5.2 4.8-8.2 0-3.1-2.1-4.3-4.8-2.8-2.6 1.6-4.8 5.3-4.8 8.3z"/><path class="c" d="m372.1 251.7c0 2.9 2.1 4.1 4.6 2.6 2.6-1.5 4.7-5.1 4.7-8 0-2.9-2.1-4.1-4.7-2.6-2.5 1.5-4.6 5-4.6 8z"/><path class="d" d="m373.2 250.9c0 2.1 1.5 3 3.3 1.9 1.9-1 3.4-3.6 3.4-5.7 0-2.1-1.5-3-3.4-1.9-1.8 1-3.3 3.6-3.3 5.7z"/><path class="e" d="m373.4 250.7c0 1.9 1.4 2.7 3 1.7 1.7-1 3.1-3.3 3.1-5.2 0-1.9-1.4-2.7-3.1-1.7-1.6 0.9-3 3.3-3 5.2z"/><path class="f" d="m373.7 250.5c0 1.7 1.2 2.4 2.7 1.6 1.5-0.9 2.8-3 2.8-4.7 0-1.8-1.3-2.4-2.8-1.6q-0.2 0.1-0.4 0.3c-1.1 0.9-2.1 2.5-2.2 3.9q-0.1 0.3-0.1 0.5z"/><path class="g" d="m375.5 251.4c1.4-0.9 2.5-2.9 2.5-4.5 0-0.6-0.2-1.1-0.5-1.4 1-0.1 1.7 0.6 1.7 1.9 0 1.7-1.3 3.8-2.8 4.7-1.1 0.6-2 0.4-2.4-0.4q0.6 0.1 1.5-0.3z"/><path class="h" d="m373.8 250c0.2 0.4 0.8 0.5 1.4 0.1 0.9-0.5 1.7-1.8 1.7-2.8 0-0.7-0.4-1.2-0.9-1.2-1.1 0.9-2.1 2.5-2.2 3.9z"/><path class="h" d="m376.4 246.2l1.3 0.8-2.5 4-1.2-0.8 0.8-2z"/><path class="i" d="m374.8 249.9c0 1.1 0.7 1.5 1.6 1 1-0.6 1.7-1.9 1.7-2.9 0-1.1-0.7-1.5-1.7-1-0.9 0.6-1.6 1.8-1.6 2.9z"/><path class="a" d="m186.6 147c0-3.1 2.2-6.8 4.8-8.3 1.4-0.8 2.7-0.9 3.6-0.3l3 1.8-2 3.3c-0.6 2-1.8 4-3.3 5.3l-1.8 2.9-2.6-1.5q-0.3-0.1-0.5-0.3c-0.7-0.6-1.2-1.6-1.2-2.9z"/><path class="b" d="m189.6 148.7c0 3 2.2 4.3 4.8 2.7 2.7-1.5 4.8-5.2 4.8-8.3 0-3-2.1-4.2-4.8-2.7-2.6 1.5-4.8 5.2-4.8 8.3z"/><path class="c" d="m190.1 148.6c0 3 2.1 4.1 4.6 2.7 2.6-1.5 4.6-5.1 4.6-8 0-2.9-2-4.1-4.6-2.6-2.5 1.4-4.6 5-4.6 7.9z"/><path class="d" d="m191.2 147.9c0 2.1 1.5 3 3.3 1.9 1.8-1.1 3.3-3.6 3.3-5.7 0-2.2-1.5-3-3.3-1.9-1.8 1-3.3 3.6-3.3 5.7z"/><path class="e" d="m191.4 147.7c0 1.9 1.3 2.6 3 1.7 1.7-1 3-3.3 3-5.2 0-1.9-1.3-2.7-3-1.8-1.7 1-3 3.3-3 5.3z"/><path class="f" d="m191.7 147.5c0 1.7 1.2 2.4 2.7 1.5 1.5-0.8 2.7-2.9 2.7-4.7 0-1.7-1.2-2.4-2.7-1.5q-0.2 0.1-0.4 0.3c-1.2 0.8-2.1 2.4-2.3 3.9q0 0.2 0 0.5z"/><path class="g" d="m193.4 148.3c1.4-0.8 2.6-2.8 2.6-4.4 0-0.7-0.2-1.2-0.5-1.5 1 0 1.6 0.7 1.6 1.9 0 1.8-1.2 3.9-2.7 4.7-1.1 0.7-2 0.5-2.5-0.3q0.7 0.1 1.5-0.4z"/><path class="h" d="m191.7 147c0.3 0.4 0.9 0.5 1.5 0.1 0.9-0.5 1.6-1.8 1.6-2.9 0-0.7-0.3-1.1-0.8-1.1-1.2 0.8-2.1 2.4-2.3 3.9z"/><path class="h" d="m194.4 143.2l1.3 0.7-2.5 4-1.2-0.7 0.8-2z"/><path class="i" d="m192.7 146.9c0 1 0.8 1.5 1.7 0.9 0.9-0.5 1.7-1.8 1.7-2.8 0-1.1-0.8-1.5-1.7-1-0.9 0.5-1.7 1.8-1.7 2.9z"/><path class="a" d="m197.2 144.7q0 0.4-0.4 0.7c-0.6 0.4-1.6 0.4-2.3 0q-0.4-0.2-0.5-0.6l-1-43.6 3.2-0.2 1 43.7z"/><path class="a" d="m191.7 149.9c0-3 2.1-6.7 4.8-8.3 1.4-0.8 2.6-0.8 3.5-0.2l3 1.7-2 3.3c-0.6 2-1.8 4-3.3 5.3l-1.8 2.9-2.6-1.5q-0.3-0.1-0.5-0.3c-0.7-0.5-1.1-1.5-1.1-2.9z"/><path class="b" d="m194.6 151.6c0 3.1 2.2 4.3 4.8 2.8 2.7-1.6 4.8-5.3 4.8-8.3 0-3.1-2.1-4.3-4.8-2.8-2.6 1.6-4.8 5.3-4.8 8.3z"/><path class="c" d="m195.1 151.6c0 2.9 2.1 4.1 4.6 2.6 2.6-1.5 4.6-5 4.6-8 0-2.9-2-4.1-4.6-2.6-2.5 1.5-4.6 5-4.6 8z"/><path class="d" d="m196.2 150.8c0 2.2 1.5 3 3.3 1.9 1.9-1 3.4-3.6 3.4-5.7 0-2.1-1.5-3-3.4-1.9-1.8 1-3.3 3.6-3.3 5.7z"/><path class="e" d="m196.4 150.6c0 1.9 1.4 2.7 3 1.7 1.7-1 3.1-3.3 3.1-5.2 0-1.9-1.4-2.7-3.1-1.7-1.6 0.9-3 3.3-3 5.2z"/><path class="f" d="m196.7 150.4c0 1.7 1.2 2.4 2.7 1.6 1.5-0.9 2.7-3 2.7-4.7 0-1.7-1.2-2.4-2.7-1.6q-0.2 0.1-0.4 0.3c-1.1 0.9-2.1 2.5-2.3 3.9q0 0.3 0 0.5z"/><path class="g" d="m198.4 151.3c1.5-0.9 2.6-2.8 2.6-4.5 0-0.6-0.2-1.1-0.5-1.4 1-0.1 1.6 0.6 1.6 1.9 0 1.7-1.2 3.8-2.7 4.7-1.1 0.6-2 0.4-2.4-0.4q0.6 0.1 1.4-0.3z"/><path class="h" d="m196.7 149.9c0.3 0.4 0.9 0.5 1.5 0.1 0.9-0.5 1.7-1.8 1.7-2.8 0-0.7-0.4-1.2-0.9-1.2-1.1 0.9-2.1 2.5-2.3 3.9z"/><path class="h" d="m199.4 146.1l1.3 0.8-2.5 4-1.2-0.8 0.8-2z"/><path class="i" d="m197.8 149.8c0 1.1 0.7 1.5 1.6 1 1-0.6 1.7-1.9 1.7-2.9 0-1.1-0.7-1.5-1.7-1-0.9 0.6-1.6 1.9-1.6 2.9z"/><path class="a" d="m205.4 157.4c0-3 2.1-6.8 4.8-8.3 1.4-0.8 2.6-0.8 3.5-0.2l3 1.7-2 3.3c-0.5 2-1.8 4-3.3 5.3l-1.7 2.9-2.7-1.5q-0.2-0.1-0.5-0.3c-0.7-0.5-1.1-1.5-1.1-2.9z"/><path class="b" d="m208.3 159.1c0 3.1 2.2 4.3 4.8 2.7 2.7-1.5 4.8-5.2 4.8-8.2 0-3.1-2.1-4.3-4.8-2.8-2.6 1.6-4.8 5.3-4.8 8.3z"/><path class="c" d="m208.8 159.1c0 2.9 2.1 4.1 4.6 2.6 2.6-1.5 4.7-5.1 4.7-8 0-2.9-2.1-4.1-4.7-2.6-2.5 1.5-4.6 5-4.6 8z"/><path class="d" d="m209.9 158.3c0 2.1 1.5 3 3.3 1.9 1.9-1 3.4-3.6 3.4-5.7 0-2.1-1.5-3-3.4-1.9-1.8 1-3.3 3.6-3.3 5.7z"/><path class="e" d="m210.1 158.1c0 1.9 1.4 2.7 3 1.7 1.7-1 3.1-3.3 3.1-5.2 0-1.9-1.4-2.7-3.1-1.7-1.6 0.9-3 3.3-3 5.2z"/><path class="f" d="m210.4 157.9c0 1.7 1.2 2.4 2.7 1.6 1.5-0.9 2.8-3 2.8-4.7 0-1.8-1.3-2.5-2.8-1.6q-0.2 0.1-0.4 0.3c-1.1 0.9-2.1 2.5-2.2 3.9q-0.1 0.3-0.1 0.5z"/><path class="g" d="m212.2 158.8c1.4-0.9 2.5-2.9 2.5-4.5 0-0.6-0.2-1.1-0.5-1.5 1 0 1.7 0.7 1.7 2 0 1.7-1.3 3.8-2.8 4.7-1 0.6-2 0.4-2.4-0.4q0.6 0.1 1.5-0.3z"/><path class="h" d="m210.5 157.4c0.2 0.4 0.8 0.5 1.4 0.1 0.9-0.5 1.7-1.8 1.7-2.8 0-0.7-0.4-1.2-0.9-1.2-1.1 0.9-2.1 2.5-2.2 3.9z"/><path class="h" d="m213.1 153.6l1.3 0.7-2.5 4-1.2-0.7 0.8-2z"/><path class="i" d="m211.5 157.3c0 1.1 0.7 1.5 1.6 1 1-0.6 1.7-1.9 1.7-2.9 0-1.1-0.7-1.5-1.7-1-0.9 0.6-1.6 1.8-1.6 2.9z"/><path class="a" d="m216 155.2q0 0.3-0.5 0.6c-0.6 0.4-1.6 0.4-2.2 0q-0.5-0.2-0.5-0.6 0 0 0 0l-1.1-43.6 3.2-0.2 1.1 43.7v0.1z"/><path class="a" d="m210.4 160.3c0-3 2.2-6.7 4.8-8.3 1.4-0.8 2.7-0.8 3.5-0.2l3 1.7-2 3.3c-0.5 2-1.7 4-3.2 5.3l-1.8 3-2.7-1.6q-0.2-0.1-0.4-0.3c-0.8-0.5-1.2-1.5-1.2-2.9z"/><path class="b" d="m213.4 162c0 3.1 2.1 4.3 4.8 2.8 2.6-1.6 4.8-5.3 4.8-8.3 0-3-2.2-4.3-4.8-2.7-2.7 1.5-4.8 5.2-4.8 8.2z"/><path class="c" d="m213.9 162c0 2.9 2 4.1 4.6 2.6 2.5-1.5 4.6-5 4.6-8 0-2.9-2.1-4.1-4.6-2.6-2.6 1.5-4.6 5.1-4.6 8z"/><path class="d" d="m214.9 161.3c0 2.1 1.5 2.9 3.4 1.9 1.8-1.1 3.3-3.7 3.3-5.8 0-2.1-1.5-3-3.3-1.9-1.9 1.1-3.4 3.6-3.4 5.8z"/><path class="e" d="m215.1 161c0 1.9 1.4 2.7 3.1 1.7 1.6-0.9 3-3.3 3-5.2 0-1.9-1.4-2.7-3-1.7-1.7 1-3.1 3.3-3.1 5.2z"/><path class="f" d="m215.5 160.8c0 1.8 1.2 2.5 2.7 1.6 1.5-0.9 2.7-3 2.7-4.7 0-1.7-1.2-2.4-2.7-1.6q-0.2 0.2-0.4 0.3c-1.2 0.9-2.1 2.5-2.3 3.9q0 0.3 0 0.5z"/><path class="g" d="m217.2 161.7c1.4-0.8 2.6-2.8 2.6-4.5 0-0.6-0.2-1.1-0.5-1.4 0.9-0.1 1.6 0.6 1.6 1.9 0 1.7-1.2 3.8-2.7 4.7-1.1 0.6-2.1 0.4-2.5-0.4q0.6 0.2 1.5-0.3z"/><path class="h" d="m215.5 160.3c0.3 0.4 0.8 0.5 1.4 0.2 1-0.6 1.7-1.9 1.7-2.9 0-0.7-0.3-1.1-0.8-1.2-1.2 0.9-2.1 2.5-2.3 3.9z"/><path class="h" d="m218.2 156.6l1.2 0.7-2.4 4-1.3-0.7 0.9-2z"/><path class="i" d="m216.5 160.2c0 1.1 0.7 1.5 1.7 1 0.9-0.6 1.6-1.8 1.6-2.9 0-1.1-0.7-1.5-1.6-0.9-1 0.5-1.7 1.8-1.7 2.8z"/><path class="a" d="m452.5 111.4c0-3 2.2-6.7 4.8-8.2 1.4-0.8 2.7-0.9 3.6-0.3l3 1.7-2.1 3.4c-0.5 1.9-1.7 3.9-3.2 5.3l-1.8 2.9-2.6-1.6q-0.3-0.1-0.5-0.2c-0.7-0.6-1.2-1.6-1.2-3z"/><path class="b" d="m455.5 113.2c0 3 2.1 4.2 4.8 2.7 2.6-1.5 4.8-5.2 4.8-8.3 0-3-2.2-4.3-4.8-2.7-2.7 1.5-4.8 5.2-4.8 8.3z"/><path class="c" d="m456 113.1c0 2.9 2 4.1 4.6 2.6 2.5-1.4 4.6-5 4.6-7.9 0-3-2.1-4.1-4.6-2.7-2.6 1.5-4.6 5.1-4.6 8z"/><path class="d" d="m457.1 112.4c0 2.1 1.4 2.9 3.3 1.9 1.8-1.1 3.3-3.7 3.3-5.8 0-2.1-1.5-2.9-3.3-1.9-1.9 1.1-3.3 3.7-3.3 5.8z"/><path class="e" d="m457.3 112.1c0 1.9 1.3 2.7 3 1.8 1.7-1 3-3.3 3-5.3 0-1.9-1.3-2.6-3-1.7-1.7 1-3 3.3-3 5.2z"/><path class="f" d="m457.6 112c0 1.7 1.2 2.4 2.7 1.5 1.5-0.9 2.7-3 2.7-4.7 0-1.7-1.2-2.4-2.7-1.5q-0.2 0.1-0.4 0.2c-1.2 0.9-2.1 2.5-2.3 4q0 0.2 0 0.5z"/><path class="g" d="m459.3 112.8c1.4-0.8 2.6-2.8 2.6-4.4 0-0.7-0.2-1.2-0.5-1.5 0.9-0.1 1.6 0.6 1.6 1.9 0 1.7-1.2 3.8-2.7 4.7-1.1 0.6-2 0.4-2.5-0.4q0.7 0.2 1.5-0.3z"/><path class="h" d="m457.6 111.5c0.3 0.4 0.8 0.4 1.5 0.1 0.9-0.5 1.6-1.8 1.6-2.9 0-0.7-0.3-1.1-0.8-1.2-1.2 0.9-2.1 2.5-2.3 4z"/><path class="h" d="m460.3 107.7l1.2 0.7-2.4 4-1.2-0.7 0.8-2z"/><path class="i" d="m458.6 111.3c0 1.1 0.8 1.5 1.7 1 0.9-0.5 1.7-1.8 1.7-2.9 0-1-0.8-1.5-1.7-0.9-0.9 0.5-1.7 1.8-1.7 2.8z"/><path class="a" d="m463.1 109.2q0 0.4-0.4 0.6c-0.6 0.4-1.7 0.4-2.3 0.1q-0.5-0.3-0.5-0.6l-1-43.6 3.2-0.2 1 43.7z"/><path class="a" d="m457.6 114.4c0-3.1 2.1-6.8 4.8-8.3 1.4-0.8 2.6-0.9 3.5-0.3l3 1.8-2 3.3c-0.6 2-1.8 4-3.3 5.3l-1.8 2.9-2.6-1.5q-0.3-0.1-0.5-0.3c-0.7-0.6-1.1-1.6-1.1-2.9z"/><path class="b" d="m460.5 116.1c0 3 2.2 4.3 4.8 2.7 2.7-1.5 4.8-5.2 4.8-8.3 0-3-2.1-4.2-4.8-2.7-2.6 1.5-4.8 5.2-4.8 8.3z"/><path class="c" d="m461 116c0 3 2.1 4.1 4.6 2.7 2.6-1.5 4.6-5.1 4.6-8 0-2.9-2-4.1-4.6-2.6-2.5 1.4-4.6 5-4.6 7.9z"/><path class="d" d="m462.1 115.3c0 2.1 1.5 3 3.3 1.9 1.9-1.1 3.3-3.6 3.3-5.7 0-2.2-1.4-3-3.3-1.9-1.8 1-3.3 3.6-3.3 5.7z"/><path class="e" d="m462.3 115.1c0 1.9 1.4 2.6 3 1.7 1.7-1 3-3.3 3-5.2 0-1.9-1.3-2.7-3-1.8-1.6 1-3 3.3-3 5.3z"/><path class="f" d="m462.6 114.9c0 1.7 1.2 2.4 2.7 1.5 1.5-0.8 2.7-2.9 2.7-4.7 0-1.7-1.2-2.4-2.7-1.5q-0.2 0.1-0.4 0.3c-1.2 0.8-2.1 2.4-2.3 3.9q0 0.2 0 0.5z"/><path class="g" d="m464.3 115.7c1.5-0.8 2.6-2.8 2.6-4.4 0-0.7-0.2-1.2-0.5-1.5 1 0 1.6 0.7 1.6 1.9 0 1.8-1.2 3.9-2.7 4.7-1.1 0.7-2 0.5-2.4-0.4q0.6 0.2 1.4-0.3z"/><path class="h" d="m462.6 114.4c0.3 0.4 0.9 0.5 1.5 0.1 0.9-0.5 1.7-1.8 1.7-2.9 0-0.7-0.4-1.1-0.9-1.1-1.2 0.8-2.1 2.4-2.3 3.9z"/><path class="h" d="m465.3 110.6l1.3 0.7-2.5 4-1.2-0.7 0.8-2z"/><path class="i" d="m463.7 114.3c0 1 0.7 1.5 1.6 0.9 0.9-0.5 1.7-1.8 1.7-2.8 0-1.1-0.8-1.5-1.7-1-0.9 0.5-1.6 1.8-1.6 2.9z"/><path class="j" d="m158.1 231.7l-15.7 9.1-28.7 16.6-26.6-13.2-51.5-25.5-0.8-2.2 89.1 9.6 20.1 2.2 12.1 3z"/><path class="j" d="m186.7 248.3l5.9 8.1 34.8 47.7-3.4 4.5-14 10.8-67.7-45.5v-1.9z"/><path class="k" d="m158.1 229.9l-14.1-3.4-85.9-20.1-23.3 10.1 78.9 39z"/><path class="l" d="m46.1 222l18.6-7.1 84.1 19.1-35.1 21.5z"/><path class="m" d="m158.1 229.9l-2 1.4-13.7 9.5-28.7 16.6-26.6-13.2 12.7-10.8 24.1-7.3 8.1-2.4z"/><path class="n" d="m248.9 103.4c0 8.8-6.3 12.4-14 7.9-7.7-4.4-14-15.2-14-24.1 0-8.8 6.3-12.4 14-7.9 7.7 4.4 14 15.2 14 24.1z"/><path class="o" d="m247.5 104.5c0-9.4-6.2-19.5-14.5-24.3-4-2.3-6.3-3.6-9-2.2v0.1c-0.1 0-1.7 1-1.7 1 0 0-5.5 0.7-17.8 9.5-8.6 6 11.1 40.1 21 36.4 12.9-4.8 16.2-9.8 16.2-9.9 0 0 2.4-1.3 3.7-3 1.6-2.1 2.1-5 2.1-7.6z"/><path class="o" d="m229.9 115.4c0-9.4-6.7-21-14.9-25.7-5.2-3-9.8-2.6-12.5 0.4l-11.1 11.6 16.3 28 15.9-3.9c3.8-0.9 6.3-4.6 6.3-10.4z"/><path class="p" d="m212.5 121.7c0-7.4-5.2-16.4-11.7-20.1-3.9-2.2-7.3-2-9.4 0.1l-4.5 4.5 2.4 4.3c0.8 6.1 4.7 12.7 9.5 16.5l2.6 4.4 6.3-1.7c2.9-0.7 4.8-3.6 4.8-8z"/><path class="q" d="m205.6 124.3c0-6.6-4.7-14.7-10.5-18-3.6-2.1-6.8-1.8-8.7 0.3l-3.3 3.8 1.6 3c0.5 5.8 4.3 12.5 9.2 16l1.8 3.3 5.4-1.2c2.7-0.6 4.5-3.1 4.5-7.2z"/><path class="r" d="m199.8 126.2c0 5.9-4.1 8.3-9.2 5.3-5.1-2.9-9.3-10.1-9.3-16 0-5.8 4.2-8.2 9.3-5.2 5.1 2.9 9.2 10.1 9.2 15.9z"/><path class="l" d="m248.3 104.4c0-9.2-6.5-20.5-14.6-25.1-4.1-2.4-7.7-2.6-10.4-1.1l-2.4 1.4c2.7-1.4 6.3-1.2 10.3 1.1 8 4.7 14.6 15.9 14.6 25.2 0 4.5-1.6 7.7-4.1 9.2l2.2-1.2q0.2-0.1 0.3-0.2c2.5-1.6 4.1-4.8 4.1-9.3z"/><path class="s" d="m198.8 125.6c0 5.2-3.7 7.3-8.2 4.7-4.5-2.6-8.2-8.9-8.2-14.1 0-5.2 3.7-7.3 8.2-4.7 4.5 2.6 8.2 8.9 8.2 14.1z"/><path class="t" d="m198 125.2q0 0 0 0.1 0 0.2 0 0.4-0.1 0.5-0.1 1-0.1 0.2-0.1 0.3-0.1 0.6-0.3 1-0.1 0.1-0.1 0.2-0.2 0.4-0.4 0.6c-1.3 1.8-3.7 2.2-6.4 0.6-4.1-2.4-7.4-8.1-7.4-12.8 0-2.9 1.3-4.8 3.3-5.2q0.5 0 1 0 0.1 0 0.2 0 0.5 0 0.9 0.2 0.2 0 0.3 0 0.4 0.2 0.8 0.3 0.1 0.1 0.3 0.2 0.3 0.1 0.6 0.3 0 0 0 0 0.3 0.1 0.5 0.3 0.2 0.1 0.5 0.3 0.2 0.2 0.4 0.4 0.2 0.1 0.4 0.3 0.2 0.2 0.4 0.4 0.2 0.1 0.3 0.3 0.3 0.2 0.5 0.4 0.1 0.2 0.2 0.3 0.2 0.3 0.4 0.5 0.1 0.1 0.2 0.3 0.3 0.2 0.5 0.5 0 0.1 0.1 0.2 0.2 0.3 0.4 0.6 0.1 0.2 0.2 0.3 0.2 0.3 0.3 0.6 0.1 0.1 0.2 0.2 0.1 0.4 0.3 0.7 0.1 0.1 0.1 0.3 0.2 0.3 0.3 0.6 0.1 0.2 0.2 0.4 0.1 0.3 0.2 0.7 0.1 0.2 0.2 0.4 0.1 0.3 0.2 0.6 0 0.3 0.1 0.6 0.1 0.3 0.1 0.6 0.1 0.3 0.1 0.7 0 0.3 0.1 0.5 0 0.4 0 0.8z"/><path class="u" d="m207.1 106.1c0 0 11.4-7.4 15.3-9.9 3.8-2.6 16.1-8.2 16.1-8.2l-4.1-4.4c-5.1 2-14.2 7.2-16 8.5-8.2 5.4-14.4 11.2-14.4 11.2 0 0 2.6 2.5 3.1 2.8z"/><path class="n" d="m248.9 103.4q0 1.1-0.1 2-0.4 2.6-1.4 4.3c-0.7 1.8-1.8 3.1-3.2 4q-0.1 0.1-0.3 0.2l-1.9 1.1q-0.2 0.1-0.3 0.1c0 0.1-3.3 5.1-16.2 9.9q0 0 0 0-0.9 0.5-1.9 0.8l-15.9 3.9-6.2 1.7q-0.2 0.1-0.4 0.1l-4.1 0.9q-0.1 0-0.1-0.1c0.9-0.5 1.7-1.3 2.2-2.4q0.3-0.7 0.5-1.5 0.2-1 0.2-2.2 0-0.7 0-1.4c-0.2-1.3-0.5-2.7-1-4.1 8.9-2.9 22.3-7.5 30.2-11.7 11-5.8 16.3-10.9 18.5-13.5 0.6 1.9 1.1 3.8 1.3 5.7q0.1 1.1 0.1 2.2z"/><path class="j" d="m248.9 103.4q0 1.1-0.1 2-0.4 2.6-1.4 4.3c-0.7 1.8-1.8 3.1-3.2 4q-0.1 0.1-0.3 0.2l-1.9 1.1q-0.2 0.1-0.3 0.1c0 0.1-3.3 5.1-16.2 9.9q0 0 0 0-0.9 0.5-1.9 0.8l-15.9 3.9-6.2 1.7q-0.2 0.1-0.4 0.1l-4.1 0.9-1.1 0.3q0.5-0.2 1-0.4c0.9-0.5 1.7-1.3 2.2-2.4q0.3-0.7 0.5-1.5 0.2-1 0.2-2.2 0-0.7 0-1.4c7.5-2.1 17.7-5.4 30.1-10.3 8.4-3.4 14.8-9 18.9-13.3q0.1 1.1 0.1 2.2z"/><path class="v" d="m248.8 105.4q-0.4 2.6-1.4 4.3c-0.7 1.8-1.8 3.1-3.2 4q-0.1 0.1-0.3 0.2l-1.9 1.1q-0.2 0.1-0.3 0.1c0 0.1-3.3 5.1-16.2 9.9q0 0 0 0-0.9 0.5-1.9 0.8l-15.9 3.9-6.2 1.7q-0.2 0.1-0.4 0.1l-4.1 0.9-1.1 0.3q0.5-0.2 1-0.4c0.9-0.5 1.7-1.3 2.2-2.4 8.6-2.1 23.8-5.8 29.4-8 0.6-0.3 9.2-4.6 14.2-9.3 3.1-3 5-5.4 6.1-7.2z"/><path class="j" d="m228.5 77.3q1.4 0 2.9 0.5c-0.5-0.2-3.9-0.8-11.1 2.5-5 2.3-11.6 5.7-15.1 8.9-3.8 3.4-13.4 13.1-20.3 20q-1 0.3-1.8 1.1l3.3-3.7q0.2-0.2 0.5-0.4l4.5-4.5 11.1-11.6q0.9-0.9 2-1.5 0 0 0 0c9.8-7 15.2-8.9 17.1-9.4l1.7-1c1.5-0.8 3.2-1.1 5.2-0.9z"/><path class="w" d="m231.5 77.8z"/><path class="s" d="m198.8 125.6c0 5.2-3.7 7.3-8.2 4.7-4.5-2.6-8.2-8.9-8.2-14.1 0-5.2 3.7-7.3 8.2-4.7 4.5 2.6 8.2 8.9 8.2 14.1z"/><path class="t" d="m198 125.2q0 0 0 0.1 0 0.2 0 0.4-0.1 0.5-0.1 1-0.1 0.2-0.1 0.3-0.1 0.6-0.3 1-0.1 0.1-0.1 0.2-0.2 0.4-0.4 0.6c-1.3 1.8-3.7 2.2-6.4 0.6-4.1-2.4-7.4-8.1-7.4-12.8 0-2.9 1.3-4.8 3.3-5.2q0.5 0 1 0 0.1 0 0.2 0 0.5 0 0.9 0.2 0.2 0 0.3 0 0.4 0.2 0.8 0.3 0.1 0.1 0.3 0.2 0.3 0.1 0.6 0.3 0 0 0 0 0.3 0.1 0.5 0.3 0.2 0.1 0.5 0.3 0.2 0.2 0.4 0.4 0.2 0.1 0.4 0.3 0.2 0.2 0.4 0.4 0.2 0.1 0.3 0.3 0.3 0.2 0.5 0.4 0.1 0.2 0.2 0.3 0.2 0.3 0.4 0.5 0.1 0.1 0.2 0.3 0.3 0.2 0.5 0.5 0 0.1 0.1 0.2 0.2 0.3 0.4 0.6 0.1 0.2 0.2 0.3 0.2 0.3 0.3 0.6 0.1 0.1 0.2 0.2 0.1 0.4 0.3 0.7 0.1 0.1 0.1 0.3 0.2 0.3 0.3 0.6 0.1 0.2 0.2 0.4 0.1 0.3 0.2 0.7 0.1 0.2 0.2 0.4 0.1 0.3 0.2 0.6 0 0.3 0.1 0.6 0.1 0.3 0.1 0.6 0.1 0.3 0.1 0.7 0 0.3 0.1 0.5 0 0.4 0 0.8z"/><path class="n" d="m197.5 100.3c0 0 3 2 3.4 1.7 2.5-1.7 10.3-10.9 15.3-13.9 7.5-4.6 20.5-5.3 20.5-5.3l-2.9-2.2c0.1-0.4-8.3-3.8-11.7-2.4-3.3 1.3-20.7 14.7-22.2 16.5-0.7 0.9-1.6 3.2-2.2 5.1q-0.2 0.5-0.2 0.5z"/><path class="s" d="m200.9 102c0 0 12.9-8.7 18.6-12.2 7.6-4.5 18.1-6.9 18.1-6.9l-0.5-0.6c0.1-0.4-8.3-3.8-11.6-2.4-3.4 1.4-20.8 14.8-22.2 16.5-0.8 0.9-1.6 3.2-2.3 5.2q0 0 0 0-0.1 0.4-0.1 0.4z"/><path class="n" d="m453.6 214.9c0 8.8-6.3 12.4-14 8-7.7-4.5-14-15.3-14-24.2 0-8.8 6.3-12.4 14-7.9 7.7 4.4 14 15.2 14 24.1z"/><path class="o" d="m452.2 216c0-9.4-6.2-19.5-14.5-24.3-4-2.3-6.3-3.6-9-2.1-0.1 0-1.7 1-1.7 1 0 0-5.5 0.7-17.8 9.5-8.6 6.1 11.1 40.2 21 36.5 12.9-4.9 16.2-9.9 16.2-10 0 0 2.4-1.3 3.7-3 1.5-2.1 2.1-5 2.1-7.6z"/><path class="o" d="m434.6 226.9c0-9.4-6.7-20.9-14.9-25.7-5.2-3-9.8-2.6-12.5 0.5l-11.1 11.5 16.3 28 15.9-3.9c3.8-0.9 6.3-4.6 6.3-10.4z"/><path class="p" d="m417.2 233.2c0-7.4-5.2-16.4-11.7-20.1-3.9-2.2-7.3-2-9.4 0.1l-4.5 4.5 2.4 4.3c0.8 6.1 4.7 12.7 9.5 16.5l2.6 4.5 6.3-1.8c2.9-0.7 4.8-3.6 4.8-8z"/><path class="q" d="m410.2 235.8c0-6.6-4.6-14.7-10.4-18-3.6-2.1-6.8-1.8-8.7 0.3l-3.4 3.8 1.7 3c0.5 5.8 4.3 12.6 9.2 16l1.8 3.3 5.3-1.1c2.8-0.6 4.5-3.2 4.5-7.3z"/><path class="r" d="m404.5 237.7c0 5.9-4.1 8.3-9.2 5.3-5.1-2.9-9.3-10.1-9.3-15.9 0-5.9 4.2-8.3 9.3-5.3 5.1 2.9 9.2 10.1 9.2 15.9z"/><path class="l" d="m453 215.9c0-9.2-6.6-20.5-14.6-25.1-4.1-2.4-7.7-2.6-10.4-1l-2.4 1.3c2.7-1.4 6.3-1.2 10.3 1.1 8 4.7 14.6 15.9 14.6 25.2 0 4.5-1.6 7.7-4.1 9.2l2.2-1.2q0.1-0.1 0.3-0.2c2.5-1.6 4.1-4.8 4.1-9.3z"/><path class="s" d="m403.5 237.1c0 5.2-3.7 7.3-8.2 4.7-4.5-2.6-8.2-8.9-8.2-14.1 0-5.2 3.7-7.3 8.2-4.7 4.5 2.6 8.2 8.9 8.2 14.1z"/><path class="t" d="m402.7 236.7q0 0 0 0.1 0 0.2 0 0.5-0.1 0.4-0.1 0.9-0.1 0.2-0.1 0.3-0.1 0.6-0.3 1-0.1 0.1-0.2 0.3-0.1 0.3-0.3 0.6c-1.3 1.8-3.7 2.1-6.4 0.5-4.1-2.4-7.4-8.1-7.4-12.8 0-2.9 1.3-4.8 3.3-5.1q0.4-0.1 1-0.1 0.1 0 0.2 0 0.4 0.1 0.9 0.2 0.1 0 0.3 0.1 0.4 0.1 0.7 0.2 0.2 0.1 0.4 0.2 0.3 0.1 0.6 0.3 0 0 0 0 0.2 0.2 0.4 0.3 0.3 0.2 0.5 0.3 0.3 0.2 0.5 0.4 0.2 0.1 0.4 0.3 0.2 0.2 0.4 0.4 0.2 0.1 0.3 0.3 0.2 0.2 0.5 0.5 0.1 0.1 0.2 0.2 0.2 0.3 0.4 0.5 0.1 0.1 0.2 0.3 0.2 0.2 0.4 0.5 0.1 0.1 0.2 0.3 0.2 0.3 0.4 0.6 0.1 0.1 0.1 0.2 0.2 0.3 0.4 0.6 0.1 0.1 0.2 0.2 0.1 0.4 0.3 0.7 0.1 0.1 0.1 0.3 0.2 0.3 0.3 0.7 0.1 0.1 0.2 0.3 0.1 0.3 0.2 0.7 0.1 0.2 0.2 0.4 0.1 0.3 0.1 0.7 0.1 0.2 0.2 0.5 0 0.3 0.1 0.6 0.1 0.4 0.1 0.7 0 0.3 0.1 0.6 0 0.3 0 0.7z"/><path class="u" d="m411.8 217.7c0 0 11.4-7.4 15.3-10 3.8-2.5 16.1-8.1 16.1-8.1l-4.1-4.5c-5.1 2-14.2 7.3-16.1 8.5-8.1 5.4-14.3 11.2-14.3 11.2 0 0 2.6 2.5 3.1 2.9z"/><path class="n" d="m453.6 214.9q0 1.1-0.2 2.1-0.3 2.5-1.3 4.2c-0.7 1.8-1.8 3.1-3.2 4q-0.2 0.1-0.3 0.2l-2 1.1q-0.1 0.1-0.2 0.1c0 0.1-3.3 5.1-16.2 10q0 0 0 0-0.9 0.4-1.9 0.7l-15.9 3.9-6.2 1.7q-0.2 0.1-0.5 0.2l-4 0.8q-0.1 0-0.1-0.1c0.9-0.5 1.7-1.3 2.2-2.4q0.3-0.7 0.5-1.5 0.2-1 0.2-2.2 0-0.6-0.1-1.3c-0.1-1.4-0.4-2.8-0.9-4.2 8.9-2.9 22.3-7.5 30.2-11.7 11-5.8 16.2-10.8 18.4-13.5 0.7 1.9 1.1 3.8 1.3 5.7q0.2 1.1 0.2 2.2z"/><path class="j" d="m453.6 214.9q0 1.1-0.2 2.1-0.3 2.5-1.3 4.2c-0.7 1.8-1.8 3.1-3.2 4q-0.2 0.1-0.3 0.2l-2 1.1q-0.1 0.1-0.2 0.1c0 0.1-3.3 5.1-16.2 10q0 0 0 0-0.9 0.4-1.9 0.7l-15.9 3.9-6.2 1.7q-0.2 0.1-0.5 0.2l-4 0.8-1.1 0.3q0.5-0.2 1-0.4c0.9-0.5 1.7-1.3 2.2-2.4q0.3-0.7 0.5-1.5 0.2-1 0.2-2.2 0-0.6-0.1-1.3c7.6-2.2 17.8-5.4 30.2-10.4 8.4-3.4 14.8-9 18.8-13.3q0.2 1.1 0.2 2.2z"/><path class="v" d="m453.4 217q-0.3 2.5-1.3 4.2c-0.7 1.8-1.8 3.1-3.2 4q-0.2 0.1-0.3 0.2l-2 1.1q-0.1 0.1-0.2 0.1c0 0.1-3.3 5.1-16.2 10q0 0 0 0-0.9 0.4-1.9 0.7l-15.9 3.9-6.2 1.7q-0.2 0.1-0.5 0.2l-4 0.8-1.1 0.3q0.5-0.2 1-0.4c0.9-0.5 1.7-1.3 2.2-2.4 8.6-2 23.8-5.8 29.4-8 0.6-0.2 9.2-4.6 14.2-9.3 3.1-2.9 4.9-5.4 6-7.1z"/><path class="j" d="m433.1 188.9q1.5-0.1 3 0.4c-0.6-0.2-3.9-0.8-11.1 2.5-5 2.3-11.6 5.7-15.1 8.9-3.8 3.4-13.4 13.1-20.3 20q-1 0.4-1.8 1.1l3.3-3.7q0.2-0.2 0.5-0.4l4.5-4.5 11.1-11.5q0.9-1 2-1.6 0 0 0 0c9.8-7 15.2-8.9 17.1-9.4l1.7-0.9c1.4-0.9 3.2-1.2 5.1-0.9z"/><path class="w" d="m436.2 189.3z"/><path class="s" d="m403.5 237.1c0 5.2-3.7 7.3-8.2 4.7-4.5-2.6-8.2-8.9-8.2-14.1 0-5.2 3.7-7.3 8.2-4.7 4.5 2.6 8.2 8.9 8.2 14.1z"/><path class="t" d="m402.7 236.7q0 0 0 0.1 0 0.2 0 0.5-0.1 0.4-0.1 0.9-0.1 0.2-0.1 0.3-0.1 0.6-0.3 1-0.1 0.1-0.2 0.3-0.1 0.3-0.3 0.6c-1.3 1.8-3.7 2.1-6.4 0.5-4.1-2.4-7.4-8.1-7.4-12.8 0-2.9 1.3-4.8 3.3-5.1q0.4-0.1 1-0.1 0.1 0 0.2 0 0.4 0.1 0.9 0.2 0.1 0 0.3 0.1 0.4 0.1 0.7 0.2 0.2 0.1 0.4 0.2 0.3 0.1 0.6 0.3 0 0 0 0 0.2 0.2 0.4 0.3 0.3 0.2 0.5 0.3 0.3 0.2 0.5 0.4 0.2 0.1 0.4 0.3 0.2 0.2 0.4 0.4 0.2 0.1 0.3 0.3 0.2 0.2 0.5 0.5 0.1 0.1 0.2 0.2 0.2 0.3 0.4 0.5 0.1 0.1 0.2 0.3 0.2 0.2 0.4 0.5 0.1 0.1 0.2 0.3 0.2 0.3 0.4 0.6 0.1 0.1 0.1 0.2 0.2 0.3 0.4 0.6 0.1 0.1 0.2 0.2 0.1 0.4 0.3 0.7 0.1 0.1 0.1 0.3 0.2 0.3 0.3 0.7 0.1 0.1 0.2 0.3 0.1 0.3 0.2 0.7 0.1 0.2 0.2 0.4 0.1 0.3 0.1 0.7 0.1 0.2 0.2 0.5 0 0.3 0.1 0.6 0.1 0.4 0.1 0.7 0 0.3 0.1 0.6 0 0.3 0 0.7z"/><path class="n" d="m402.2 211.8c0 0 3 2 3.4 1.8 2.5-1.8 10.2-10.9 15.3-14 7.5-4.6 20.4-5.3 20.4-5.3l-2.8-2.2c0.1-0.4-8.4-3.8-11.7-2.4-3.4 1.4-20.7 14.7-22.2 16.5-0.7 0.9-1.6 3.2-2.2 5.2q0 0-0.1 0-0.1 0.4-0.1 0.4z"/><path class="s" d="m405.6 213.6c0 0 12.9-8.8 18.6-12.3 7.5-4.5 18.1-6.9 18.1-6.9l-0.5-0.6c0.1-0.4-8.3-3.8-11.7-2.4-3.3 1.4-20.7 14.8-22.1 16.5-0.8 0.9-1.7 3.2-2.3 5.2q0 0 0 0-0.1 0.4-0.1 0.5z"/><path class="j" d="m335.6 126.5l-29.1-1.8-96.2-43.2-203.3-36.7 2.2 5.2 130.1 58.6 109.9 67.8z"/><path class="l" d="m335.6 122.3l-29.1-1.9-96.2-43.2-175.5-44.2-27.8 11.8 132.3 59.5 109.9 67.9z"/><path class="j" d="m34.8 33l-16.1-32.6-18.4 7.8 6.7 36.6z"/><path class="o" d="m220.8 154.2l-0.9-1.4 8.2-4.7-71.4-42.4-7.5 4.3-0.9-1.5 8.4-4.8 74.7 44.4z"/><path class="o" d="m109.1 91.2l-0.9-1.4 6.4-3.7-78.8-33.9-5.9 3.4-0.9-1.5 6.6-3.8 0.4 0.2 82.4 35.4z"/><path class="k" d="m34.8 33l-5.6 2.4 171.4 48.1 94.5 44.2 40.5-5.4-29.1-1.9-96.2-43.2z"/><path class="o" d="m497.1 73c-11.9 17.1-33.6 30.3-40.2 34.2 0 0-225.3 130.9-237.1 137.7-3.2 1.9-6.9 3.7-10.8 5.5-10.2 4.6-22.2 8.9-32.6 12.4-14.5 4.9-57.8 13.9-57.8 13.9l-3-4.3-1.7-2.4-4.9-7c0 0 60.7-49.8 74.7-63.6 14-13.8 69.7-47.8 69.7-47.8l83.2-48.3q0 0 0.1 0l89.2-51.8c0 0 16.3-8 38.2-11.5 3.1-0.5 7 0.6 10.3 0.1 9.8-1.4 16.6-1.1 21.3-0.2 0 0 0.4 0.1 1 0.2 3.3 0.7 5.3 1.7 6.3 2.3 0.6 0.4 0.8 0.6 0.8 0.6 0 0 7.4 9.7-6.7 30z"/><path class="n" d="m497.1 73c-11.9 17.1-33.6 30.3-40.2 34.2 0 0-225.3 130.9-237.1 137.7-11.8 6.8-29 13.1-43.4 17.9-14.5 4.9-57.8 13.9-57.8 13.9l-3-4.3-1.7-2.4c13.9-5.5 86.8-34.4 100.7-41.7 15.4-8.1 204.4-117.2 246.9-142.8 42.4-25.7 38.4-34.7 40.5-39.3 1.6-3.7-3.1-5.5-5.3-6.1 3.3 0.7 5.3 1.7 6.3 2.3 0.6 0.4 0.8 0.6 0.8 0.6 0 0 7.4 9.7-6.7 30z"/><path class="j" d="m497.1 73c-11.9 17.1-33.6 30.3-40.2 34.2 0 0-225.3 130.9-237.1 137.7-11.8 6.8-29 13.1-43.4 17.9-14.5 4.9-57.8 13.9-57.8 13.9l-3-4.3c0.1-0.7 0.2-1.2 0.2-1.2 0 0 86.3-29 101.1-37.2 14.7-8.2 238.8-136.4 265.5-155.5 26.7-19.1 20.4-35.9 20.4-35.9l0.2-0.2c0.6 0.4 0.8 0.6 0.8 0.6 0 0 7.4 9.7-6.7 30z"/><path class="k" d="m469.9 41.6c0 0 11.7 5.8-13.8 18.4-25.4 12.5-253.3 146-265 156.5-11.6 10.5-70.7 47.3-74 46.8-3.3-0.6 4.3-9.7 10.3-15.6 5.9-6 57.2-47.7 63.7-51.8 6.5-4 225.9-135.4 236.5-141.3 10.6-5.9 22.4-13.5 42.3-13z"/><path class="v" d="m505.8 49.6c-0.3 3.5-0.7 11.7-8.7 23.4-11.2 16.5-33.6 30.3-40.2 34.3 0 0-225.3 130.7-237.1 137.6-11.8 6.8-29 13.1-43.4 17.9-14.5 4.8-57.8 13.9-57.8 13.9l-2.5-3.6c0.6 0.2 1.1 0.7 1.1 0.7 0 0 94.9-30 100.9-33.9 6.1-4 203.5-114.4 239.9-138.5 35.5-22.7 42.1-31.9 47.3-50.4 0.2-0.9 0.3-1.4 0.3-1.4 0.1 0 0.1 0 0.2 0z"/><path class="x" d="m384.6 144.6c-0.1 0.1-0.3 0.3-0.4 0.5-7.2 10-9.8 20.3-32.1 34.3-23.1 14.4-51.3 27.8-71.6 37.1-8 3.7-28.2 9.5-28.2 9.5 0 0 3.8-7.7 7.2-11.9q0 0 0 0 0.7-0.8 1.3-1.4c6.6-6.1 29.8-19.9 29.8-19.9l83.6-48.2z"/><path class="v" d="m384.2 145.1c-7.2 10-9.8 20.3-32.1 34.3-23.1 14.4-51.3 27.8-71.6 37.1-8 3.7-28.2 9.5-28.2 9.5 0 0 3.8-7.7 7.2-11.9-0.1 0.5-0.7 4.5 5.3 4.3 6.4-0.2 29.7-13.3 29.7-13.3l-3.9-9c0 0 49.4-12.6 58.5-17.4 8.8-4.7 31.1-28.3 35.1-33.6z"/><path class="j" d="m377 150.5l3.2 16.8 74.9 55.5 73.9 97.8 2.7-0.7v4.2l-20.4 16.1-103.1-76.4-115.2-62.2-2.4-5.5z"/><path class="y" d="m465.6 39.8c0 0 6.3 0.1 8.9 2.4 2.8 2.5 0.5 8.2-5 13.8-1.2 1.2 3.4 4.7 4.9 3.8 6.5-3.9 7.5-6.9 7.9-9.9 0.5-3.4-0.5-5.5-1.4-6.6-2.2-2.5-6-3.2-6-3.2l-1.4 0.1z"/><path class="l" d="m377 146.2l3.2 16.8 74.9 55.6 76.6 101.3-20.4 16-103.1-76.4-117.6-63.4z"/><path class="o" d="m400 254.8l-0.9-1.5 6.7-3.8-73.4-41.2-9 5.2-0.9-1.5 9.9-5.6 0.4 0.2 76.5 42.9z"/><path class="o" d="m494.2 323.7l-0.8-1.5 5.2-2.9-58.7-45.6-7.4 4.3-0.8-1.5 8.3-4.8 0.4 0.3 61.2 47.5z"/><path class="k" d="m531.7 319.9l-4.1 3.2-83.4-99-76.6-54.5 9.4-23.4 3.2 16.8 74.9 55.6z"/><path class="j" d="m531.7 319.9l4.1-21-13.5 10.7-11 26.3z"/><path class="l" d="m110.4 177.4l18.9-8.2c8.6-3.8 16.2-2.4 20.5 3.9 7.7 11.4 20.6 28.5 28.9 28.9 12.5 0.7 11.2-0.5 11.2-0.5l1.2 0.7-76.8 58.2-1.2-0.8 16.5-22.9-9.9-25.5z"/><path class="j" d="m119.7 272.8c0.1 3.8-2.5 5.3-5.7 3.5-3.3-1.8-5.9-6.3-6-10 0-3.8 2.6-5.4 5.8-3.6 3.2 1.9 5.9 6.4 5.9 10.1z"/><path class="k" d="m261 214.1c-1.3 5 8.8 1.5 13.1-0.4 4.2-1.8 17.9-10.3 17.9-10.3l-2.5-8.1c0 0-26.1 15.2-28.5 18.8z"/><path class="z" d="m305.2 168.2c-0.7 0-1.3-0.5-1.6-1.3l-1.6-4.2c-0.3-1.1 0.1-2.3 0.9-2.8l2.9-1.7q0.4-0.2 0.8-0.2c0.7 0 1.4 0.5 1.6 1.3l1.6 4.2c0.3 1 0 2.3-0.9 2.8l-2.9 1.6q-0.4 0.3-0.8 0.3z"/><path class="y" d="m303.1 160.3l2.9-1.7c0.7-0.4 1.5 0 1.8 0.8l1.5 4.2c0.3 0.9 0 1.9-0.6 2.3l-2.9 1.7c-0.7 0.3-1.5 0-1.8-0.9l-1.5-4.2c-0.3-0.8 0-1.8 0.6-2.2z"/><path class="z" d="m290.9 176.4c-0.7 0-1.4-0.5-1.6-1.3l-1.6-4.2c-0.3-1 0-2.3 0.9-2.8l2.9-1.6q0.4-0.2 0.8-0.2c0.7 0 1.3 0.5 1.6 1.2l1.5 4.3c0.4 1 0 2.2-0.8 2.7l-2.9 1.7q-0.4 0.2-0.8 0.2z"/><path class="y" d="m288.8 168.5l2.9-1.6c0.7-0.4 1.5-0.1 1.8 0.8l1.5 4.2c0.3 0.9 0 1.9-0.6 2.2l-2.9 1.7c-0.7 0.4-1.5 0-1.8-0.8l-1.5-4.2c-0.3-0.9 0-1.9 0.6-2.3z"/><path class="z" d="m276.6 184.7c-0.7 0-1.4-0.5-1.6-1.3l-1.6-4.2c-0.3-1.1 0-2.3 0.9-2.8l2.9-1.7q0.4-0.2 0.8-0.2c0.7 0 1.3 0.5 1.6 1.3l1.5 4.2c0.4 1.1 0 2.3-0.8 2.8l-2.9 1.7q-0.4 0.2-0.8 0.2z"/><path class="y" d="m274.5 176.8l2.9-1.7c0.7-0.4 1.5 0 1.8 0.8l1.5 4.3c0.3 0.8 0 1.8-0.7 2.2l-2.8 1.7c-0.7 0.4-1.5 0-1.8-0.8l-1.5-4.3c-0.4-0.8 0-1.8 0.6-2.2z"/><path class="z" d="m262.3 192.9c-0.7 0-1.4-0.5-1.6-1.2l-1.6-4.3c-0.4-1 0-2.2 0.9-2.7l2.9-1.7q0.4-0.2 0.8-0.2c0.7 0 1.3 0.5 1.6 1.3l1.5 4.2c0.4 1 0 2.3-0.8 2.8l-2.9 1.6q-0.4 0.2-0.8 0.2z"/><path class="o" d="m260.2 185l2.9-1.6c0.7-0.4 1.5 0 1.8 0.8l1.5 4.2c0.3 0.9 0 1.9-0.7 2.3l-2.8 1.6c-0.7 0.4-1.5 0.1-1.8-0.8l-1.6-4.2c-0.3-0.9 0-1.9 0.7-2.3z"/><path class="z" d="m248 201.2c-0.7 0-1.4-0.5-1.7-1.3l-1.5-4.2c-0.4-1.1 0-2.3 0.9-2.8l2.9-1.6q0.4-0.3 0.8-0.3c0.7 0 1.3 0.5 1.6 1.3l1.5 4.2c0.4 1.1 0 2.3-0.8 2.8l-2.9 1.7q-0.4 0.2-0.8 0.2z"/><path class="o" d="m245.9 193.3l2.9-1.7c0.7-0.4 1.5 0 1.8 0.9l1.5 4.2c0.3 0.8 0 1.8-0.7 2.2l-2.9 1.7c-0.6 0.4-1.4 0-1.7-0.8l-1.6-4.2c-0.3-0.9 0-1.9 0.7-2.3z"/><path fill-rule="evenodd" class="z" d="m229.9 230.2c-0.3-0.2-0.3-0.9-0.3-3.4 0.1-1.7 0.2-3.5 0-4.5-1.3-5.9-3.8-11.7-3.8-11.8-0.7-1.8-0.9-3.9-0.1-4.4l6.5-3.5q0.3-0.2 0.6-0.1c0.7 0.3 1.5 1.5 2.1 3 0 0.1 2.2 4.9 3.8 11.9 0.6 2.8-0.3 8.2-1.1 8.7l-7.4 4.1q-0.1 0-0.2 0-0.1 0-0.1 0zm2.5-27.2l-6.5 3.5c-0.3 0.2-0.5 1.8 0.3 3.8 0 0.1 2.5 6 3.8 12 0.2 0.9 0.2 2.8 0.1 4.5 0 1.1-0.1 2.5 0 2.9l7.3-4c0.5-0.3 1.5-5.4 0.9-8.2-1.6-6.9-3.8-11.7-3.9-11.8-0.5-1.7-1.3-2.6-1.7-2.8q-0.1 0-0.2 0 0 0-0.1 0.1zm-2.4 26.8z"/><path fill-rule="evenodd" class="z" d="m419.9 119.7c-0.3-0.1-0.3-0.8-0.3-3.4 0-1.7 0-3.6-0.2-4.6-1.3-6-3.9-11.9-4-12-0.6-1.8-0.9-3.9-0.1-4.4l6.3-3.8q0.2-0.2 0.6-0.1c0.6 0.3 1.5 1.5 2 3 0 0.1 2.3 5 4 12.1 0.7 2.8-0.1 8.4-0.8 8.9l-7.2 4.3q-0.1 0.1-0.2 0.1 0 0-0.1-0.1zm1.9-27.8l-6.3 3.7c-0.3 0.3-0.4 1.9 0.3 4 0.1 0 2.7 5.9 4.1 12 0.2 1 0.2 3 0.1 4.7 0 1.1 0 2.5 0.1 3l7-4.3c0.5-0.4 1.4-5.5 0.7-8.4-1.7-7-4-11.9-4-12-0.6-1.6-1.3-2.6-1.8-2.7q0-0.1-0.1-0.1-0.1 0-0.1 0.1zm-1.8 27.4z"/><path class="z" d="m319.5 159.9c-0.7 0-1.3-0.5-1.6-1.3l-1.5-4.2c-0.4-1.1 0-2.3 0.8-2.8l2.9-1.6q0.4-0.3 0.8-0.3c0.7 0 1.4 0.5 1.6 1.3l1.6 4.2c0.3 1.1 0 2.3-0.9 2.8l-2.9 1.7q-0.4 0.2-0.8 0.2z"/><path class="y" d="m317.5 152l2.8-1.7c0.7-0.4 1.5 0 1.8 0.9l1.5 4.2c0.4 0.8 0 1.8-0.6 2.2l-2.9 1.7c-0.7 0.4-1.5 0-1.8-0.8l-1.5-4.3c-0.3-0.8 0-1.8 0.7-2.2z"/><path class="z" d="m333.8 151.6c-0.7 0-1.3-0.5-1.6-1.2l-1.5-4.3c-0.4-1 0-2.2 0.8-2.7l2.9-1.7q0.4-0.2 0.8-0.2c0.7 0 1.4 0.5 1.6 1.2l1.6 4.3c0.4 1 0 2.2-0.9 2.7l-2.9 1.7q-0.4 0.2-0.8 0.2z"/><path class="y" d="m331.8 143.7l2.8-1.6c0.7-0.4 1.5 0 1.8 0.8l1.6 4.2c0.3 0.9 0 1.9-0.7 2.3l-2.9 1.6c-0.7 0.4-1.5 0.1-1.8-0.8l-1.5-4.2c-0.3-0.9 0-1.9 0.7-2.3z"/><path class="z" d="m348.1 143.4c-0.7 0-1.3-0.5-1.6-1.3l-1.5-4.2c-0.4-1.1 0-2.3 0.8-2.8l2.9-1.7q0.4-0.2 0.8-0.2c0.7 0 1.4 0.5 1.7 1.3l1.5 4.2c0.4 1.1 0 2.3-0.9 2.8l-2.9 1.7q-0.4 0.2-0.8 0.2z"/><path class="y" d="m346.1 135.5l2.9-1.7c0.6-0.4 1.4 0 1.7 0.8l1.6 4.3c0.3 0.8 0 1.8-0.7 2.2l-2.9 1.7c-0.7 0.4-1.5 0-1.8-0.9l-1.5-4.2c-0.3-0.8 0-1.8 0.7-2.2z"/><path class="z" d="m362.4 135.1c-0.7 0-1.3-0.5-1.6-1.3l-1.5-4.2c-0.4-1 0-2.3 0.9-2.8l2.8-1.6q0.4-0.2 0.8-0.2c0.7 0 1.4 0.5 1.7 1.2l1.5 4.3c0.4 1 0 2.2-0.9 2.7l-2.9 1.7q-0.3 0.2-0.8 0.2z"/><path class="y" d="m360.4 127.2l2.9-1.6c0.6-0.4 1.4-0.1 1.7 0.8l1.6 4.2c0.3 0.8 0 1.9-0.7 2.2l-2.9 1.7c-0.7 0.4-1.5 0-1.8-0.8l-1.5-4.2c-0.3-0.9 0-1.9 0.7-2.3z"/><path class="z" d="m376.7 126.8c-0.7 0-1.3-0.4-1.6-1.2l-1.5-4.2c-0.4-1.1 0-2.3 0.9-2.8l2.8-1.7q0.4-0.2 0.8-0.2c0.8 0 1.4 0.5 1.7 1.3l1.5 4.2c0.4 1 0 2.3-0.9 2.8l-2.9 1.6q-0.3 0.2-0.8 0.2z"/><path class="y" d="m374.7 119l2.9-1.7c0.6-0.4 1.4 0 1.8 0.8l1.5 4.2c0.3 0.9 0 1.9-0.7 2.3l-2.9 1.6c-0.7 0.4-1.5 0.1-1.8-0.8l-1.5-4.2c-0.3-0.8 0-1.8 0.7-2.2z"/><path class="z" d="m391.1 118.6c-0.8 0-1.4-0.5-1.7-1.3l-1.5-4.2c-0.4-1.1 0-2.3 0.9-2.8l2.9-1.6q0.3-0.3 0.7-0.3c0.8 0 1.4 0.5 1.7 1.3l1.5 4.2c0.4 1.1 0 2.3-0.9 2.8l-2.9 1.7q-0.3 0.2-0.7 0.2z"/><path class="y" d="m389 110.7l2.9-1.7c0.7-0.4 1.5 0 1.8 0.9l1.5 4.2c0.3 0.8 0 1.8-0.7 2.2l-2.9 1.7c-0.7 0.4-1.5 0-1.8-0.8l-1.5-4.3c-0.3-0.8 0-1.8 0.7-2.2z"/><path class="z" d="m405.4 110.3c-0.8 0-1.4-0.5-1.7-1.2l-1.5-4.3c-0.4-1 0-2.2 0.9-2.7l2.9-1.7q0.3-0.2 0.8-0.2c0.7 0 1.3 0.5 1.6 1.2l1.5 4.3c0.4 1 0 2.2-0.9 2.7l-2.9 1.7q-0.3 0.2-0.7 0.2z"/><path class="y" d="m403.3 102.4l2.9-1.6c0.7-0.4 1.5-0.1 1.8 0.8l1.5 4.2c0.3 0.9 0 1.9-0.7 2.3l-2.9 1.6c-0.7 0.4-1.5 0.1-1.8-0.8l-1.5-4.2c-0.3-0.9 0-1.9 0.7-2.3z"/><path class="z" d="m448.3 85.5c-0.7 0-1.4-0.5-1.7-1.2l-1.5-4.2c-0.4-1.1 0-2.3 0.9-2.8l2.9-1.7q0.4-0.2 0.8-0.2c0.7 0 1.3 0.5 1.6 1.3l1.5 4.2c0.4 1 0 2.3-0.8 2.8l-2.9 1.6q-0.4 0.2-0.8 0.2z"/><path class="y" d="m446.2 77.7l2.9-1.7c0.7-0.4 1.5 0 1.8 0.8l1.5 4.2c0.3 0.9 0 1.9-0.7 2.3l-2.9 1.6c-0.6 0.4-1.4 0.1-1.7-0.8l-1.6-4.2c-0.3-0.8 0-1.8 0.7-2.2z"/><path class="z" d="m434 93.8c-0.7 0-1.4-0.5-1.7-1.3l-1.5-4.2c-0.4-1 0-2.3 0.9-2.8l2.9-1.6q0.4-0.2 0.8-0.2c0.7 0 1.3 0.5 1.6 1.2l1.5 4.2c0.4 1.1 0 2.3-0.9 2.8l-2.8 1.7q-0.4 0.2-0.8 0.2z"/><path class="y" d="m431.9 85.9l2.9-1.6c0.7-0.4 1.5-0.1 1.8 0.8l1.5 4.2c0.3 0.8 0 1.8-0.7 2.2l-2.9 1.7c-0.6 0.4-1.4 0-1.7-0.8l-1.6-4.2c-0.3-0.9 0-1.9 0.7-2.3z"/><path class="u" d="m503.8 43c0 0-3.5 4.8-12.1 7.7-6.1 2-11.3 2.5-11.3 2.5 0 0-6.7-3.1-8.2-2.8-1.5 0.2-12.7-0.1-25.8 6.6-10.6 5.5-218.9 130.9-230.7 140.1-11.7 9.2-97.4 69.1-97.4 69.1l-2.5-1.9c0 0 86.6-67.9 102.1-77.9 15.5-9.9 218.2-131.3 225.3-135 7.2-3.7 10.2-4.4 17.4-5.8 7.2-1.4 12.9-0.9 12.9-0.9 0 0 4.6 0 9.3 2.3-5.4-2.6 12.4-7.9 21-4z"/><path class="k" d="m186.7 246.4l5.9 8.2 34.8 49.5-17.4 13.5-67.7-45.6z"/><path class="l" d="m202.2 312.4l13.2-9.7-34.1-53.2-36.2 17.9-2.8 4.6z"/><path class="l" d="m111.6 178.2l18.9-8.2c8.6-3.8 16.2-2.4 20.5 3.9 7.7 11.4 20.6 28.5 28.9 28.9 10.5 0.6 11.2-0.6 11.2-0.6l-17.1 15.6-59.7 42.6 16.5-22.9-9.9-25.5z"/><path class="o" d="m129 170.6l19.8 24.7 11.4 19.6 13.8 2.9-59.7 42.6 16.5-22.9-9.9-25.5-9.3-33.8z"/></svg>