<svg xmlns="http://www.w3.org/2000/svg" xmlns:xlink="http://www.w3.org/1999/xlink" viewBox="0,0,256,256" width="48px" height="48px"><g fill="#64b5f6" fill-rule="nonzero" stroke="none" stroke-width="1" stroke-linecap="butt" stroke-linejoin="miter" stroke-miterlimit="10" stroke-dasharray="" stroke-dashoffset="0" font-family="none" font-weight="none" font-size="none" text-anchor="none" style="mix-blend-mode: normal"><path d="M0,256v-256h256v256z" id="bgRectangle"></path></g><g fill="none" fill-rule="nonzero" stroke="none" stroke-width="1" stroke-linecap="butt" stroke-linejoin="none" stroke-miterlimit="10" stroke-dasharray="" stroke-dashoffset="0" font-family="none" font-weight="none" font-size="none" text-anchor="none" style="mix-blend-mode: normal"><path transform="scale(5.33333,5.33333)" d="M33,17c0,0.00431 0,0.00862 -0.00001,0.01293c0.16558,-0.00859 0.33229,-0.01293 0.50001,-0.01293c5.24671,0 9.5,4.25329 9.5,9.5c0,5.24671 -4.25329,9.5 -9.5,9.5c-4.29541,0 -7.92498,-2.85076 -9.09996,-6.76351c-1.37418,0.49421 -2.85566,0.76351 -4.40004,0.76351c-7.1797,0 -13,-5.8203 -13,-13c0,-7.1797 5.8203,-13 13,-13c7.1797,0 13,5.8203 13,13zM23,38.5c0,3.03757 -2.46243,5.5 -5.5,5.5c-3.03757,0 -5.5,-2.46243 -5.5,-5.5c0,-3.03757 2.46243,-5.5 5.5,-5.5c3.03757,0 5.5,2.46243 5.5,5.5z" id="strokeMainSVG" fill="#dff0ff" stroke="#dff0ff" stroke-linejoin="round"></path><g transform="scale(5.33333,5.33333)" stroke="none" stroke-linejoin="miter"><path d="M20,4c-7.1797,0 -13,5.8203 -13,13c0,7.1797 5.8203,13 13,13c7.1797,0 13,-5.8203 13,-13c0,-7.1797 -5.8203,-13 -13,-13z" fill="#84c6ff"></path><path d="M13.1,18c-0.1,0 -0.2,0 -0.3,0c-1.1,-0.2 -1.9,-1.2 -1.7,-2.3c0.6,-3.9 3.7,-7.1 7.6,-7.6c1.1,-0.2 2.1,0.6 2.3,1.7c0.2,1.1 -0.6,2.1 -1.7,2.3c-2.2,0.3 -3.9,2.1 -4.2,4.2c-0.2,1 -1,1.7 -2,1.7z" fill="#c9e6ff"></path><path d="M33.5,17c-5.24671,0 -9.5,4.25329 -9.5,9.5c0,5.24671 4.25329,9.5 9.5,9.5c5.24671,0 9.5,-4.25329 9.5,-9.5c0,-5.24671 -4.25329,-9.5 -9.5,-9.5z" fill="#c9e6ff"></path><path d="M28.6,27c-0.1,0 -0.2,0 -0.3,0c-0.8,-0.2 -1.3,-1 -1.2,-1.8c0.5,-2.6 2.5,-4.6 5.1,-5.1c0.8,-0.2 1.6,0.4 1.8,1.2c0.2,0.8 -0.4,1.6 -1.2,1.8c-1.4,0.3 -2.4,1.4 -2.7,2.7c-0.2,0.7 -0.8,1.2 -1.5,1.2z" fill="#84c6ff"></path><path d="M17.5,33c-3.03757,0 -5.5,2.46243 -5.5,5.5c0,3.03757 2.46243,5.5 5.5,5.5c3.03757,0 5.5,-2.46243 5.5,-5.5c0,-3.03757 -2.46243,-5.5 -5.5,-5.5z" fill="#c9e6ff"></path><path d="M15.1,39c-0.1,0 -0.1,0 -0.2,0c-0.5,-0.1 -0.9,-0.6 -0.8,-1.2c0.3,-1.4 1.4,-2.5 2.7,-2.7c0.5,-0.1 1.1,0.2 1.2,0.8c0.1,0.6 -0.2,1.1 -0.8,1.2c-0.6,0.1 -1,0.6 -1.2,1.2c-0.1,0.4 -0.5,0.7 -0.9,0.7z" fill="#84c6ff"></path></g></g></svg>