<?xml version="1.0" encoding="utf-8"?>
<!-- Generator: Adobe Illustrator 27.5.0, SVG Export Plug-In . SVG Version: 6.00 Build 0)  -->
<svg version="1.1" id="Capa_1" xmlns="http://www.w3.org/2000/svg" xmlns:xlink="http://www.w3.org/1999/xlink" x="0px" y="0px"
	 viewBox="0 0 425.2 425.2" style="enable-background:new 0 0 425.2 425.2;" xml:space="preserve">
<rect x="0.002" y="0.002" style="fill:#FFFFFF;" width="425.196" height="425.196"/>
<g>
	<path style="fill:#999B9E;" d="M253.309,196.602c0,0,42.783-40.44,79.386-31.727c18.274,3.899,29.973-0.088,29.973-0.088
		l8.059,26.659c9.474-6.241,16.569,6.273,16.569,6.273c6.98,10.056-15.892,23.078-15.892,23.078L171.682,348.322
		c-24.4,17.756-49.115,5.566-49.115,5.566c-42.585-15.132-74.855-41.859-74.855-41.859c-24.19-18.953-1.711-18.761,0.284-31.582
		c4.229,24.343,63.752,39.066,63.752,39.066c18.073,9.13,30.828-3.265,30.828-3.265l51.584-45.134c0,0,10.32-7.958,12.324-12.742
		l31.021-43.45C237.504,214.923,244.805,201.561,253.309,196.602"/>
	<g>
		<path style="fill:#FFFFFF;" d="M45.55,264.4c-0.764-6.328-0.519-12.289,0.049-17.265c-0.218-0.762-0.401-1.521-0.531-2.279
			c-0.862,5.535-1.473,12.898-0.519,20.808c2.776,5.293,7.117,10.551,12.181,15.532v-2.274
			C52.102,274.243,48.14,269.338,45.55,264.4z"/>
		<path style="fill:#008B95;" d="M102.052,192.741c-17.205,20.434-51.715,63.975-51.715,63.975s-9.018-9.614-3.97-16.522
			L102.052,192.741z"/>
		<path style="fill:#00B9C5;" d="M202.85,250.748c12.959-12.674,15.883-23.875,23.22-40.336c7.44-16.697,16.913-20.82,16.913-20.82
			c58.74-46.902,84.677-37.014,84.677-37.014c18.273,3.898,44.065-14.151,44.065-14.151L289.9,101.251
			c-7.845-3.387-12.498-1.5-12.498-1.5c-24.055,8.692-44.346-0.349-53.855,1.502c-51.854,10.092-80.395,42.186-80.395,42.186
			l-41.102,49.303l-50.281,46.122c-18.603,29.625,53.646,61.71,53.646,61.71c20.73,17.514,40.15-1.107,40.15-1.107L202.85,250.748z"
			/>
		<path style="fill:#009AA4;" d="M270.205,101.873c2.357-0.542,7.367-2.251,9.809-3.132c0,0,4.65-1.888,12.494,1.498l83.449,38.089
			c0,0-7.86,2.637-13.358,5.605L270.205,101.873z"/>
		<path style="fill:#414042;" d="M243.148,102.746c-8.419-0.999-14.961-3.708-19.366-2.705
			c-22.529,5.131-41.271,15.387-54.838,23.792c0.072,0.049,0.145,0.098,0.216,0.146c27.747,19.352,55.123,39.241,82.805,58.691
			c52.405-38.96,75.694-30.093,75.694-30.093c5.097,1.087,8.005,1.112,13.55-0.346L243.148,102.746z"/>
		<path style="fill:#00B9C5;" d="M149.881,136.479c32.622,42.616,96.64,52.764,88.113,51.191c0,0,50.449-37.268,84.962-36.931
			l-99.174-50.698C223.782,100.041,183.077,107.626,149.881,136.479z"/>
		<path style="fill:#00B9C5;" d="M249.712,177.847c0,0,42.781-40.442,79.389-31.727c18.271,3.896,42.169-6.023,42.169-6.023l0,0
			c11.325-1.938,11.318,35.977,11.318,35.977c0.455,16.914-14.781,25.969-14.781,25.969l-199.72,127.523
			c-24.4,17.758-49.114,5.568-49.114,5.568C76.387,320,50.397,290.819,50.397,290.819c-10.941-11.773-7.779-31.471-5.784-44.294
			c4.227,24.345,63.54,54.231,63.54,54.231c18.069,9.132,30.826-3.264,30.826-3.264l51.585-45.133c0,0,10.319-7.958,12.323-12.743
			l31.021-43.449C233.908,196.168,241.207,182.804,249.712,177.847"/>
		<path style="fill:#E6E7E8;" d="M372.499,141.467c0,0-7.786,3.229-17.863,5.278c2.467,0.728,4.826,1.867,6.295,3.862
			c2.579,3.503,1.268,7.971-1.385,11.035c-3.974,4.591-10.054,7.567-12.557,13.296c5.957-0.544,11.237-4.493,17.381-3.64
			c0.307,0.041,0.429,0.405,0.379,0.664c-1.178,5.797-4.452,10.811-8.645,14.905c-8.352,8.154-18.951,13.198-28.362,19.928
			c-13.862,9.917-26.681,21.197-40.143,31.631c-9.064,7.025-18.036,14.363-27.874,20.299c-8.716,5.257-19.638,10.898-30.115,8.227
			c-0.28-0.072-0.461-0.388-0.378-0.667c1.729-5.751,5.872-10.273,8.199-15.74c-8.566,0.508-16.569,3.711-23.813,8.24
			c-9.994,6.253-19.454,13.928-28.117,21.916c-3.064,2.827-6.148,5.69-9.544,8.123c-1.845,1.32-5.007,3.815-7.517,3.081
			c-2.73-0.792-2.349-4.482-2.075-6.648c0.541-4.32,2.021-8.584,3.829-12.631l-29.985,26.236c0,0-12.757,12.396-30.828,3.267
			c0,0-59.311-29.888-63.539-54.233c-1.995,12.822-5.157,32.523,5.784,44.295c0,0,25.989,29.178,68.574,44.314
			c0,0,24.714,12.189,49.115-5.569l199.719-127.523c0,0,15.239-9.054,14.783-25.969
			C383.817,177.443,383.823,139.529,372.499,141.467z"/>
		<path style="fill:#0B0D10;" d="M181.532,321.415c0,0-9.044-30.483,20.68-49.003c0,0,25.698-16.834,30.218,17.355L181.532,321.415z
			"/>
		<g>
			<g>
				<path style="fill:#004D53;" d="M289.58,197.066l-83.492,52.086l34.272-53.343c0.504-0.781,14.564-21.345,35.968-31.21
					c0,0,25.015-14.752,42.31-13.732c14.558,0.86,22.909,7.225,23.241,7.532l2.614,2.439L289.58,197.066l-19.266-28.588"/>
			</g>
			<path style="fill:#414042;" d="M275.476,202.402v-33.083c-20.907,9.635-32.747,28.012-32.747,28.012l-27.475,42.764
				L275.476,202.402z"/>
			<path style="fill:#414042;" d="M281.854,166.547v32.247l58.105-38.338C339.959,160.456,319.895,141.73,281.854,166.547z"/>
			<path style="fill:#939598;" d="M267.128,197.113c-4.11,0.335-8.702,0.015-12.064-2.66c-2.267-1.802-3.613-4.251-4.329-6.958
				c-5.228,5.53-8.006,9.836-8.006,9.836l-27.475,42.764l60.222-37.692v-7.015C272.75,196.242,269.966,196.879,267.128,197.113z"/>
			<path style="fill:#939598;" d="M323.629,153.98c-1.675,3.757-3.83,7.25-5.564,9.831c-4.57,6.813-10.048,13.918-16.743,18.789
				c-4.969,3.614-10.807,6.51-16.384,9.046c-1.016,0.461-2.046,0.913-3.083,1.355v5.792l58.105-38.338
				C339.959,160.456,334.412,155.288,323.629,153.98z"/>
		</g>
		<g>
			<path style="fill:#008E98;" d="M138.158,322.485c0,0-1.665-0.007-4.58-0.018c-1.453-0.103-3.232-0.19-5.261-0.386
				c-1.012-0.125-2.088-0.257-3.223-0.396c-1.141-0.113-2.31-0.405-3.548-0.614c-0.616-0.117-1.246-0.237-1.888-0.359
				c-0.636-0.15-1.283-0.305-1.941-0.461c-1.318-0.31-2.684-0.624-4.06-1.044c-1.383-0.399-2.815-0.779-4.241-1.282
				c-1.437-0.473-2.903-0.961-4.36-1.55c-1.467-0.563-2.959-1.135-4.435-1.795c-0.743-0.32-1.49-0.642-2.241-0.965
				c-0.737-0.353-1.479-0.707-2.223-1.063c-2.983-1.41-5.93-3.007-8.845-4.654c-1.452-0.835-2.871-1.724-4.298-2.586
				c-1.396-0.91-2.812-1.779-4.171-2.709c-1.364-0.923-2.72-1.835-4.017-2.796c-1.315-0.935-2.589-1.893-3.835-2.844
				c-2.504-1.887-4.835-3.823-7.016-5.691c-2.175-1.874-4.196-3.684-6.022-5.396c-1.838-1.7-3.46-3.324-4.872-4.787
				c-1.417-1.458-2.623-2.757-3.605-3.835c-1.958-2.163-2.989-3.474-2.989-3.474s1.154,1.202,3.247,3.225
				c2.082,2.034,5.151,4.838,8.914,8.1c1.879,1.634,3.956,3.355,6.185,5.132c2.234,1.771,4.628,3.587,7.131,5.427
				c2.497,1.849,5.154,3.65,7.865,5.457c1.351,0.911,2.756,1.762,4.143,2.653c1.416,0.844,2.826,1.71,4.263,2.528
				c2.868,1.646,5.769,3.241,8.701,4.651c0.731,0.357,1.459,0.712,2.184,1.065c0.734,0.333,1.464,0.664,2.19,0.993
				c1.444,0.681,2.903,1.273,4.338,1.855c1.424,0.615,2.867,1.103,4.261,1.635c1.389,0.55,2.784,0.976,4.134,1.422
				c1.344,0.467,2.678,0.828,3.968,1.183c0.645,0.18,1.279,0.355,1.901,0.528c0.629,0.145,1.247,0.286,1.851,0.425
				c2.415,0.587,4.658,0.973,6.646,1.346c1.993,0.317,3.743,0.513,5.186,0.706C136.498,322.35,138.158,322.485,138.158,322.485z"/>
		</g>
		<g>
			<path style="fill:#008E98;" d="M136.735,327.547c0,0-1.665-0.007-4.58-0.018c-1.453-0.103-3.231-0.189-5.261-0.386
				c-1.011-0.125-2.087-0.257-3.222-0.396c-1.142-0.113-2.31-0.405-3.548-0.614c-0.617-0.117-1.247-0.237-1.888-0.359
				c-0.635-0.15-1.283-0.305-1.941-0.461c-1.318-0.31-2.684-0.624-4.061-1.044c-1.383-0.399-2.815-0.78-4.241-1.282
				c-1.437-0.473-2.903-0.961-4.36-1.55c-1.467-0.563-2.959-1.135-4.435-1.796c-0.742-0.319-1.49-0.641-2.24-0.964
				c-0.737-0.353-1.479-0.707-2.223-1.063c-2.982-1.411-5.93-3.007-8.845-4.654c-1.451-0.835-2.871-1.724-4.298-2.586
				c-1.396-0.91-2.812-1.779-4.171-2.71c-1.365-0.922-2.721-1.834-4.017-2.795c-1.316-0.936-2.589-1.893-3.835-2.844
				c-2.504-1.887-4.835-3.823-7.015-5.69c-2.175-1.874-4.197-3.684-6.022-5.397c-1.838-1.699-3.46-3.324-4.872-4.786
				c-1.418-1.458-2.623-2.757-3.605-3.835c-1.958-2.163-2.989-3.474-2.989-3.474s1.154,1.202,3.247,3.225
				c2.082,2.033,5.151,4.837,8.914,8.099c1.879,1.634,3.956,3.355,6.185,5.132c2.234,1.77,4.628,3.588,7.13,5.427
				c2.497,1.849,5.153,3.65,7.865,5.457c1.351,0.912,2.756,1.762,4.143,2.653c1.415,0.844,2.825,1.71,4.262,2.528
				c2.868,1.645,5.769,3.241,8.701,4.65c0.731,0.357,1.459,0.713,2.184,1.066c0.734,0.333,1.465,0.664,2.19,0.993
				c1.443,0.681,2.902,1.272,4.338,1.855c1.424,0.615,2.867,1.103,4.26,1.635c1.389,0.55,2.784,0.977,4.134,1.422
				c1.344,0.467,2.678,0.828,3.968,1.183c0.645,0.18,1.278,0.355,1.9,0.528c0.629,0.145,1.247,0.286,1.852,0.425
				c2.414,0.587,4.657,0.973,6.646,1.346c1.992,0.317,3.743,0.513,5.186,0.706C135.075,327.411,136.735,327.547,136.735,327.547z"/>
		</g>
		<path style="fill:#BCBEC0;" d="M145.988,309.516l-3.501,2.475c0,0-13.733,13.342-33.182,3.513c0,0-52.367-26.22-64.757-49.839
			c-0.954-7.909-0.344-15.272,0.519-20.808c4.227,24.345,63.539,54.23,63.539,54.23c18.071,9.13,30.826-3.265,30.826-3.265
			l6.556-4.632C145.988,291.19,155.558,291.551,145.988,309.516z"/>
		<path style="fill:#FFFFFF;" d="M56.729,264.539c-5.993-6.352-10.521-13.102-11.662-19.683c-0.862,5.535-1.473,12.898-0.519,20.808
			c2.776,5.293,7.117,10.551,12.181,15.532V264.539z"/>
		<path style="fill:#FFFFFF;" d="M145.946,291.141l-6.542,4.651c0,0-12.718,12.433-30.817,3.357c0,0-0.072-0.036-0.175-0.094
			l0.047,16.038c0.563,0.306,0.879,0.472,0.879,0.472c19.478,9.77,33.169-3.614,33.169-3.614l3.495-2.487
			C155.514,291.472,145.946,291.141,145.946,291.141z"/>
		<path style="fill:#008B95;" d="M148.285,292.052c1.124,2.377,1.041,6.945-3.612,15.744l-3.497,2.486
			c0,0-13.48,13.164-32.721,3.825l0.004,0.985c0.563,0.306,0.879,0.472,0.879,0.472c19.478,9.77,33.169-3.614,33.169-3.614
			l3.495-2.487C152.134,297.868,150.339,293.612,148.285,292.052z"/>
		<path style="fill:#A7A9AC;" d="M60.983,268.756v16.411c11.083,9.877,33.08,21.49,41.068,26.222v-16.015
			C94.145,290.701,71.755,278.837,60.983,268.756z"/>
		
			<line style="fill:none;stroke:#BCBEC0;stroke-width:0.9384;stroke-miterlimit:10;" x1="279.017" y1="156.806" x2="279.017" y2="253.172"/>
		<polygon style="fill:#383B3E;" points="258.444,220.466 270.315,212.737 270.315,217.916 258.444,226.207 		"/>
		<polygon style="fill:#383B3E;" points="325.049,178.438 336.919,170.71 336.919,175.888 325.049,184.18 		"/>
		<g>
			<path style="fill:#383B3E;" d="M62.578,273.811c0,0,25.035,18.07,36.661,23.666v1.609c0,0-23.904-11.797-36.661-23.852V273.811z"
				/>
			<path style="fill:#383B3E;" d="M62.578,276.498c0,0,25.035,18.071,36.661,23.666v1.608c0,0-23.904-11.798-36.661-23.852V276.498z
				"/>
			<path style="fill:#383B3E;" d="M62.578,279.183c0,0,25.035,18.071,36.661,23.666v1.61c0,0-23.904-11.797-36.661-23.85V279.183z"
				/>
			<path style="fill:#383B3E;" d="M62.578,281.87c0,0,25.035,18.07,36.661,23.667v1.608c0,0-23.904-11.797-36.661-23.852V281.87z"/>
		</g>
		<path style="fill:#008B95;" d="M45.55,264.4c-0.764-6.328-0.519-12.289,0.049-17.265c-0.218-0.762-0.401-1.521-0.531-2.279
			c-0.862,5.535-1.473,12.898-0.519,20.808c2.776,5.293,7.117,10.551,12.181,15.532v-2.274
			C52.102,274.243,48.14,269.338,45.55,264.4z"/>
		<path style="fill:#51C3C6;" d="M102.052,192.741l-37.349,36.566c0,0-18.07,16.349,0,33.15l43.752,25.602c0,0,15.487,9.302,28.28,0
			l62.25-43.202L102.052,192.741z"/>
		<path style="fill:#414042;" d="M143.153,142.689c0,0,24.451,34.193,88.693,52.32l-32.861,49.847c0,0-74.704-7.038-96.934-52.115
			L143.153,142.689z"/>
		<path style="fill:#939598;" d="M196.104,221.694c-11.991,0.933-24.802-0.463-36.237-4.229
			c-11.44-3.771-22.439-10.448-28.358-21.307c-6.175-11.323-6.593-25.521-2.091-37.729l-27.365,34.311
			c22.229,45.077,96.934,52.115,96.934,52.115l20.012-30.358C212.156,218.84,204.211,221.063,196.104,221.694z"/>
		<g>
			<g>
				<path style="fill:#008E98;" d="M45.067,244.857c1.022,4.344,3.295,8.246,5.951,11.755c2.681,3.51,5.75,6.708,9.009,9.686
					c6.542,5.945,13.773,11.094,21.223,15.853c3.73,2.374,7.53,4.64,11.38,6.815c3.854,2.169,7.734,4.291,11.672,6.293
					c1.968,0.996,3.945,1.997,5.932,2.891l0.756,0.342l0.722,0.281c0.476,0.193,0.961,0.377,1.469,0.533
					c0.499,0.171,1,0.334,1.509,0.46c0.506,0.143,1.013,0.276,1.527,0.374c2.047,0.439,4.133,0.635,6.205,0.565
					c2.07-0.092,4.128-0.418,6.11-1.018c1.984-0.584,3.9-1.418,5.691-2.461c0.894-0.521,1.758-1.096,2.569-1.718
					c0.403-0.308,0.803-0.635,1.151-0.953c0.483-0.446,0.856-0.75,1.29-1.132l10.069-8.73l20.166-17.427l10.102-8.691l5.052-4.345
					l2.525-2.173l1.263-1.086l0.506-0.438l0.583-0.577c3.125-3.105,6.21-6.273,9.189-9.495c1.482-1.616,2.953-3.238,4.343-4.888
					c0.691-0.824,1.367-1.655,1.986-2.483c0.605-0.803,1.21-1.719,1.456-2.273l0.116-0.262l0.132-0.193l12.716-18.686
					c4.245-6.225,8.46-12.469,12.743-18.667l-0.177,0.299c1.608-3.054,3.31-5.865,5.196-8.666c1.884-2.78,3.916-5.481,6.209-8.025
					c1.141-1.274,2.373-2.492,3.675-3.66c0.314-0.3,0.679-0.563,1.016-0.846l0.904-0.73c0.676-0.57,1.312-1.081,1.971-1.604
					c2.617-2.066,5.294-4.018,8.026-5.896c5.463-3.749,11.152-7.176,17.08-10.173c5.923-3.001,12.078-5.6,18.47-7.57
					c6.385-1.966,13.029-3.297,19.794-3.559c3.378-0.137,6.782,0.04,10.148,0.512c1.684,0.237,3.354,0.572,5.01,0.968
					c0.58,0.103,1.592,0.343,2.253,0.413l1.107,0.157l1.155,0.111c3.086,0.281,6.243,0.171,9.389-0.139
					c3.147-0.335,6.292-0.879,9.404-1.607c3.113-0.723,6.204-1.596,9.255-2.599c3.038-1.005,6.094-2.138,8.971-3.41l0.217-0.096
					l0.153-0.027c1.127-0.202,2.429-0.096,3.5,0.425c1.081,0.501,1.91,1.267,2.547,2.063c1.273,1.612,2.005,3.355,2.595,5.093
					c1.124,3.493,1.664,7.019,2.063,10.537c0.385,3.52,0.577,7.041,0.663,10.558c0.096,3.516-0.01,7.033-0.188,10.536
					c-0.152-3.505-0.491-6.995-0.819-10.475c-0.35-3.477-0.805-6.941-1.442-10.354c-0.647-3.402-1.45-6.797-2.72-9.9
					c-0.636-1.531-1.387-3.027-2.367-4.113c-0.483-0.545-1.022-0.946-1.552-1.15c-0.528-0.215-1.06-0.215-1.646-0.09l0.369-0.123
					c-3.051,1.451-6.089,2.669-9.213,3.803c-3.116,1.123-6.283,2.12-9.511,2.928c-3.223,0.822-6.506,1.461-9.838,1.884
					c-3.335,0.396-6.726,0.588-10.146,0.349l-1.282-0.1l-1.318-0.16c-0.453-0.051-0.872-0.115-1.262-0.19l-1.304-0.234
					c-1.524-0.329-3.06-0.607-4.611-0.793c-3.101-0.372-6.242-0.462-9.379-0.284c-6.279,0.319-12.524,1.641-18.575,3.588
					c-6.056,1.948-11.935,4.514-17.61,7.478c-5.671,2.979-11.165,6.323-16.447,9.971c-2.637,1.827-5.227,3.732-7.721,5.719
					c-0.617,0.492-1.251,1.007-1.818,1.491l-0.995,0.811c-0.286,0.243-0.587,0.454-0.861,0.721c-1.121,1.016-2.21,2.095-3.239,3.254
					c-2.068,2.311-3.962,4.839-5.726,7.464c-1.752,2.612-3.415,5.401-4.837,8.124l-0.086,0.166l-0.091,0.134
					c-4.225,6.238-8.518,12.43-12.781,18.642l-12.809,18.622l0.248-0.455c-0.676,1.47-1.374,2.374-2.087,3.354
					c-0.713,0.947-1.444,1.838-2.183,2.712c-1.479,1.743-2.995,3.411-4.537,5.048c-3.084,3.27-6.233,6.436-9.441,9.561l-0.607,0.588
					l-0.197,0.181l-0.08,0.067l-0.16,0.134l-0.319,0.268l-1.275,1.071l-2.551,2.143l-5.102,4.285l-10.204,8.571l-20.448,17.094
					l-10.238,8.531c-0.407,0.344-0.898,0.737-1.235,1.04c-0.48,0.421-0.95,0.787-1.436,1.144c-0.967,0.71-1.969,1.347-3.005,1.923
					c-2.072,1.15-4.277,2.059-6.567,2.683c-2.287,0.633-4.663,0.936-7.03,0.973c-2.37,0.013-4.731-0.278-7.012-0.835
					c-0.574-0.128-1.137-0.291-1.695-0.466c-0.564-0.158-1.114-0.355-1.661-0.558c-0.549-0.188-1.097-0.411-1.644-0.652
					c-0.559-0.23-1.089-0.468-1.571-0.716c-2.038-0.987-4.001-2.04-5.969-3.1c-3.923-2.137-7.805-4.34-11.607-6.678
					c-3.806-2.331-7.557-4.75-11.236-7.277c-7.345-5.063-14.46-10.513-20.862-16.755c-3.184-3.129-6.203-6.458-8.729-10.151
					C47.99,253.305,45.883,249.245,45.067,244.857z"/>
			</g>
		</g>
		<path style="fill:#0B0D10;" d="M216.586,317.374c-6.273,15.874-15.447,19.415-25.87,15.296
			c-10.421-4.118-13.783-20.325-7.509-36.199c6.273-15.874,19.809-25.402,30.229-21.282
			C223.857,279.308,222.86,301.5,216.586,317.374z"/>
		<path style="fill:#373A3D;" d="M226.939,311.428c-6.309,15.861-19.863,25.359-30.277,21.219
			c-10.412-4.144-13.738-20.356-7.43-36.218c6.306-15.859,19.862-25.358,30.274-21.215
			C229.921,279.355,233.247,295.57,226.939,311.428z"/>
		<g>
			<path style="fill:#0B0D10;" d="M222.63,308.874c-4.158,11.432-13.614,18.487-21.12,15.758
				c-7.509-2.73-10.225-14.212-6.064-25.643c4.157-11.436,13.613-18.491,21.119-15.761
				C224.072,285.957,226.788,297.44,222.63,308.874z"/>
			<path style="fill:#D1D3D4;" d="M221.755,306.429c-3.676,10.108-12.035,16.345-18.671,13.932
				c-6.638-2.412-9.036-12.565-5.359-22.671c3.674-10.105,12.033-16.346,18.671-13.929
				C223.031,286.174,225.432,296.323,221.755,306.429z"/>
			<path style="fill:#D1D3D4;" d="M221.755,306.429c-3.676,10.108-12.035,16.345-18.671,13.932
				c-6.638-2.412-9.036-12.565-5.359-22.671c3.674-10.105,12.033-16.346,18.671-13.929
				C223.031,286.174,225.432,296.323,221.755,306.429z"/>
			<path style="fill:#808285;" d="M217.422,304.397c-2.458,6.761-7.811,11.018-11.95,9.512c-4.142-1.505-5.507-8.208-3.051-14.966
				c2.46-6.761,7.809-11.018,11.954-9.512C218.515,290.939,219.878,297.64,217.422,304.397z"/>
			<g>
				<path style="fill:#D1D3D4;" d="M210.649,286.883c0.021,0.751-0.571,1.378-1.32,1.399c-0.751,0.023-1.38-0.567-1.401-1.318
					c-0.021-0.751,0.569-1.377,1.322-1.399C209.999,285.541,210.626,286.132,210.649,286.883z"/>
				<path style="fill:#FFFFFF;" d="M209.523,286.973c0.267,0.23,0.58,0.281,0.839,0.17c0.058-0.135,0.089-0.281,0.085-0.438
					c-0.016-0.555-0.47-0.994-1.02-0.996C209.16,286.093,209.142,286.642,209.523,286.973z"/>
				<path style="fill:#BCBEC0;" d="M209.239,287.297c-0.439-0.495-0.469-1.181-0.162-1.716c-0.67,0.105-1.171,0.691-1.149,1.383
					c0.021,0.751,0.65,1.342,1.401,1.318c0.457-0.015,0.854-0.248,1.09-0.604C210.017,287.781,209.57,287.672,209.239,287.297z"/>
			</g>
			<g>
				<path style="fill:#D1D3D4;" d="M217.061,286.238c0.021,0.751-0.569,1.378-1.318,1.399c-0.752,0.023-1.379-0.567-1.4-1.32
					c-0.025-0.751,0.567-1.376,1.318-1.399C216.411,284.895,217.04,285.487,217.061,286.238z"/>
				<path style="fill:#FFFFFF;" d="M215.935,286.326c0.269,0.232,0.58,0.283,0.843,0.17c0.058-0.134,0.086-0.281,0.083-0.438
					c-0.015-0.553-0.469-0.99-1.02-0.994C215.574,285.449,215.553,285.997,215.935,286.326z"/>
				<path style="fill:#BCBEC0;" d="M215.653,286.652c-0.441-0.497-0.468-1.181-0.165-1.718c-0.667,0.104-1.167,0.689-1.145,1.383
					c0.021,0.753,0.648,1.344,1.4,1.32c0.456-0.013,0.853-0.252,1.092-0.605C216.432,287.137,215.984,287.027,215.653,286.652z"/>
			</g>
			<g>
				<path style="fill:#D1D3D4;" d="M221.553,291.36c0.021,0.752-0.569,1.379-1.321,1.402c-0.749,0.022-1.378-0.571-1.401-1.32
					c-0.021-0.752,0.569-1.377,1.322-1.4C220.902,290.021,221.529,290.61,221.553,291.36z"/>
				<path style="fill:#FFFFFF;" d="M220.426,291.45c0.267,0.23,0.58,0.284,0.841,0.171c0.058-0.135,0.088-0.283,0.085-0.438
					c-0.017-0.555-0.473-0.992-1.021-0.996C220.064,290.573,220.044,291.12,220.426,291.45z"/>
				<path style="fill:#BCBEC0;" d="M220.141,291.774c-0.439-0.495-0.466-1.182-0.162-1.717c-0.666,0.105-1.168,0.691-1.148,1.385
					c0.023,0.749,0.652,1.342,1.401,1.32c0.457-0.015,0.854-0.252,1.091-0.606C220.923,292.261,220.473,292.15,220.141,291.774z"/>
			</g>
			<g>
				<path style="fill:#D1D3D4;" d="M222.493,299.305c0.025,0.751-0.567,1.376-1.318,1.398c-0.749,0.025-1.38-0.566-1.401-1.316
					c-0.021-0.751,0.569-1.379,1.32-1.402C221.845,297.962,222.472,298.554,222.493,299.305z"/>
				<path style="fill:#FFFFFF;" d="M221.369,299.392c0.267,0.232,0.578,0.282,0.839,0.171c0.058-0.133,0.091-0.281,0.087-0.435
					c-0.019-0.555-0.472-0.994-1.023-0.996C221.006,298.515,220.987,299.064,221.369,299.392z"/>
				<path style="fill:#BCBEC0;" d="M221.085,299.719c-0.44-0.498-0.469-1.183-0.162-1.718c-0.668,0.106-1.171,0.69-1.149,1.385
					c0.021,0.751,0.652,1.342,1.401,1.316c0.457-0.013,0.854-0.248,1.091-0.603C221.862,300.203,221.416,300.094,221.085,299.719z"
					/>
			</g>
			<g>
				<path style="fill:#D1D3D4;" d="M220.62,305.816c0.023,0.753-0.569,1.378-1.318,1.401c-0.751,0.021-1.379-0.569-1.401-1.32
					c-0.022-0.751,0.569-1.377,1.318-1.4C219.972,304.475,220.599,305.065,220.62,305.816z"/>
				<path style="fill:#FFFFFF;" d="M219.496,305.905c0.267,0.233,0.576,0.284,0.84,0.171c0.058-0.135,0.09-0.281,0.084-0.438
					c-0.016-0.555-0.47-0.992-1.021-0.994C219.133,305.029,219.113,305.575,219.496,305.905z"/>
				<path style="fill:#BCBEC0;" d="M219.212,306.232c-0.438-0.497-0.469-1.183-0.162-1.718c-0.668,0.106-1.171,0.689-1.149,1.383
					c0.022,0.751,0.65,1.342,1.401,1.32c0.458-0.015,0.854-0.252,1.088-0.605C219.99,306.717,219.543,306.607,219.212,306.232z"/>
			</g>
			<g>
				<path style="fill:#D1D3D4;" d="M217.395,312.096c0.023,0.751-0.567,1.378-1.319,1.399c-0.749,0.023-1.38-0.565-1.401-1.316
					c-0.021-0.751,0.569-1.381,1.32-1.402C216.745,310.755,217.371,311.345,217.395,312.096z"/>
				<path style="fill:#FFFFFF;" d="M216.27,312.185c0.267,0.23,0.578,0.284,0.839,0.171c0.058-0.135,0.09-0.283,0.087-0.438
					c-0.018-0.555-0.473-0.992-1.021-0.994C215.909,311.308,215.888,311.854,216.27,312.185z"/>
				<path style="fill:#BCBEC0;" d="M215.984,312.51c-0.436-0.496-0.468-1.179-0.162-1.718c-0.666,0.107-1.17,0.693-1.148,1.387
					c0.021,0.751,0.652,1.34,1.401,1.316c0.457-0.013,0.854-0.248,1.091-0.604C216.765,312.996,216.318,312.887,215.984,312.51z"/>
			</g>
			<g>
				<path style="fill:#D1D3D4;" d="M211.537,316.686c0.021,0.751-0.569,1.377-1.322,1.4c-0.749,0.022-1.376-0.568-1.399-1.317
					c-0.023-0.753,0.567-1.382,1.32-1.401C210.887,315.345,211.514,315.936,211.537,316.686z"/>
				<path style="fill:#FFFFFF;" d="M210.409,316.776c0.267,0.23,0.58,0.281,0.842,0.169c0.059-0.133,0.088-0.282,0.084-0.436
					c-0.018-0.557-0.47-0.994-1.021-0.996C210.048,315.896,210.027,316.447,210.409,316.776z"/>
				<path style="fill:#BCBEC0;" d="M210.127,317.103c-0.439-0.495-0.47-1.184-0.164-1.718c-0.666,0.104-1.167,0.691-1.147,1.385
					c0.023,0.749,0.65,1.34,1.399,1.317c0.458-0.014,0.854-0.252,1.092-0.605C210.906,317.585,210.456,317.475,210.127,317.103z"/>
			</g>
			<g>
				<path style="fill:#D1D3D4;" d="M205.439,317.324c0.021,0.751-0.569,1.379-1.322,1.4c-0.749,0.021-1.375-0.569-1.398-1.319
					c-0.023-0.751,0.568-1.38,1.319-1.399C204.787,315.982,205.416,316.571,205.439,317.324z"/>
				<path style="fill:#FFFFFF;" d="M204.313,317.41c0.268,0.232,0.579,0.284,0.841,0.173c0.06-0.133,0.088-0.284,0.084-0.436
					c-0.018-0.557-0.47-0.994-1.019-0.996C203.952,316.533,203.931,317.082,204.313,317.41z"/>
				<path style="fill:#BCBEC0;" d="M204.029,317.738c-0.439-0.495-0.47-1.18-0.164-1.717c-0.666,0.104-1.167,0.69-1.146,1.384
					c0.023,0.75,0.649,1.341,1.398,1.319c0.46-0.015,0.855-0.254,1.092-0.605C204.806,318.221,204.362,318.112,204.029,317.738z"/>
			</g>
			<g>
				<path style="fill:#D1D3D4;" d="M200.895,313.041c0.024,0.75-0.566,1.378-1.319,1.399c-0.749,0.022-1.376-0.567-1.399-1.319
					c-0.023-0.749,0.567-1.376,1.32-1.397C200.246,311.7,200.872,312.292,200.895,313.041z"/>
				<path style="fill:#FFFFFF;" d="M199.77,313.132c0.267,0.23,0.58,0.282,0.843,0.169c0.056-0.133,0.086-0.281,0.083-0.438
					c-0.019-0.555-0.472-0.992-1.023-0.994C199.41,312.253,199.389,312.8,199.77,313.132z"/>
				<path style="fill:#BCBEC0;" d="M199.486,313.456c-0.439-0.495-0.467-1.182-0.161-1.717c-0.668,0.103-1.168,0.69-1.148,1.382
					c0.023,0.752,0.65,1.341,1.399,1.319c0.457-0.013,0.855-0.25,1.091-0.603C200.266,313.94,199.817,313.832,199.486,313.456z"/>
			</g>
			<g>
				<path style="fill:#D1D3D4;" d="M199.513,305.696c0.023,0.751-0.57,1.379-1.319,1.399c-0.751,0.021-1.38-0.567-1.401-1.318
					c-0.022-0.751,0.569-1.38,1.32-1.401C198.863,304.354,199.489,304.945,199.513,305.696z"/>
				<path style="fill:#FFFFFF;" d="M198.386,305.786c0.268,0.229,0.581,0.281,0.843,0.167c0.058-0.133,0.088-0.28,0.081-0.434
					c-0.015-0.557-0.469-0.994-1.02-0.996C198.023,304.907,198.006,305.456,198.386,305.786z"/>
				<path style="fill:#BCBEC0;" d="M198.103,306.11c-0.439-0.495-0.468-1.182-0.162-1.716c-0.668,0.104-1.168,0.69-1.148,1.383
					c0.021,0.751,0.65,1.34,1.401,1.318c0.457-0.013,0.854-0.251,1.087-0.604C198.881,306.595,198.435,306.486,198.103,306.11z"/>
			</g>
			<g>
				<path style="fill:#D1D3D4;" d="M201.258,298.275c0.021,0.752-0.569,1.375-1.321,1.398c-0.75,0.023-1.376-0.567-1.397-1.317
					c-0.023-0.751,0.565-1.38,1.317-1.401C200.607,296.934,201.234,297.524,201.258,298.275z"/>
				<path style="fill:#FFFFFF;" d="M200.131,298.363c0.267,0.232,0.579,0.284,0.839,0.171c0.058-0.135,0.09-0.282,0.087-0.438
					c-0.019-0.555-0.473-0.994-1.021-0.996C199.77,297.486,199.749,298.035,200.131,298.363z"/>
				<path style="fill:#BCBEC0;" d="M199.846,298.69c-0.439-0.495-0.468-1.182-0.162-1.719c-0.666,0.107-1.167,0.692-1.145,1.386
					c0.021,0.75,0.647,1.341,1.397,1.317c0.457-0.013,0.854-0.25,1.089-0.603C200.628,299.174,200.178,299.067,199.846,298.69z"/>
			</g>
			<g>
				<path style="fill:#D1D3D4;" d="M204.798,291.56c0.022,0.751-0.568,1.378-1.317,1.399c-0.753,0.021-1.38-0.567-1.403-1.318
					c-0.023-0.749,0.571-1.379,1.32-1.4C204.146,290.218,204.776,290.809,204.798,291.56z"/>
				<path style="fill:#FFFFFF;" d="M203.671,291.648c0.271,0.231,0.58,0.282,0.843,0.171c0.058-0.136,0.09-0.281,0.083-0.438
					c-0.015-0.555-0.47-0.992-1.021-0.994C203.311,290.77,203.293,291.32,203.671,291.648z"/>
				<path style="fill:#BCBEC0;" d="M203.389,291.976c-0.439-0.499-0.471-1.183-0.162-1.72c-0.669,0.106-1.169,0.691-1.149,1.385
					c0.023,0.751,0.65,1.34,1.403,1.318c0.455-0.013,0.854-0.25,1.087-0.606C204.168,292.458,203.722,292.351,203.389,291.976z"/>
			</g>
			<path style="fill:#E6E7E8;" d="M215.29,303.621c-1.762,4.839-5.59,7.885-8.554,6.808c-2.965-1.079-3.942-5.874-2.183-10.711
				c1.759-4.837,5.589-7.886,8.554-6.808C216.071,293.989,217.049,298.784,215.29,303.621z"/>
		</g>
		<path style="fill:#0B0D10;" d="M312.673,236.958c0,0-9.043-30.482,20.684-49.002c0,0,25.697-16.834,30.217,17.358L312.673,236.958
			z"/>
		<path style="fill:#0B0D10;" d="M347.729,232.917c-6.276,15.874-15.447,19.416-25.868,15.298
			c-10.424-4.12-13.784-20.326-7.512-36.2c6.274-15.874,19.808-25.403,30.23-21.281C355.003,194.85,354.003,217.043,347.729,232.917
			z"/>
		<path style="fill:#373A3D;" d="M358.082,226.973c-6.308,15.859-19.862,25.356-30.275,21.217
			c-10.416-4.142-13.74-20.357-7.434-36.218c6.31-15.857,19.863-25.357,30.279-21.215
			C361.065,194.898,364.393,211.112,358.082,226.973z"/>
		<g>
			<path style="fill:#0B0D10;" d="M353.772,224.417c-4.157,11.432-13.612,18.487-21.121,15.759
				c-7.506-2.73-10.222-14.214-6.064-25.645c4.158-11.433,13.612-18.49,21.122-15.759
				C355.215,201.504,357.931,212.982,353.772,224.417z"/>
			<path style="fill:#D1D3D4;" d="M352.899,221.974c-3.677,10.107-12.036,16.344-18.671,13.931
				c-6.638-2.413-9.038-12.564-5.362-22.67c3.677-10.108,12.036-16.345,18.671-13.932
				C354.175,201.716,356.573,211.865,352.899,221.974z"/>
			<path style="fill:#D1D3D4;" d="M352.899,221.974c-3.677,10.107-12.036,16.344-18.671,13.931
				c-6.638-2.413-9.038-12.564-5.362-22.67c3.677-10.108,12.036-16.345,18.671-13.932
				C354.175,201.716,356.573,211.865,352.899,221.974z"/>
			<path style="fill:#808285;" d="M348.566,219.94c-2.46,6.76-7.811,11.017-11.95,9.512c-4.145-1.506-5.508-8.208-3.05-14.967
				c2.456-6.758,7.808-11.017,11.95-9.51C349.658,206.482,351.023,213.184,348.566,219.94z"/>
			<g>
				<path style="fill:#D1D3D4;" d="M341.792,202.426c0.022,0.751-0.569,1.379-1.319,1.401c-0.751,0.021-1.378-0.569-1.399-1.318
					c-0.023-0.751,0.568-1.38,1.318-1.401C341.142,201.084,341.771,201.677,341.792,202.426z"/>
				<path style="fill:#FFFFFF;" d="M340.665,202.516c0.268,0.23,0.58,0.283,0.843,0.169c0.058-0.133,0.086-0.28,0.083-0.436
					c-0.017-0.555-0.469-0.994-1.02-0.996C340.305,201.637,340.283,202.186,340.665,202.516z"/>
				<path style="fill:#BCBEC0;" d="M340.384,202.84c-0.439-0.493-0.47-1.182-0.165-1.714c-0.667,0.102-1.167,0.689-1.146,1.383
					c0.021,0.749,0.648,1.34,1.399,1.318c0.457-0.015,0.855-0.251,1.089-0.605C341.162,203.326,340.715,203.215,340.384,202.84z"/>
			</g>
			<g>
				<path style="fill:#D1D3D4;" d="M348.205,201.781c0.023,0.751-0.569,1.377-1.32,1.399c-0.751,0.023-1.379-0.567-1.401-1.32
					c-0.021-0.749,0.569-1.376,1.322-1.399C347.555,200.438,348.182,201.032,348.205,201.781z"/>
				<path style="fill:#FFFFFF;" d="M347.079,201.871c0.267,0.23,0.578,0.282,0.841,0.167c0.058-0.133,0.089-0.28,0.085-0.436
					c-0.018-0.553-0.472-0.992-1.022-0.996C346.718,200.994,346.697,201.541,347.079,201.871z"/>
				<path style="fill:#BCBEC0;" d="M346.795,202.197c-0.439-0.497-0.467-1.182-0.162-1.718c-0.666,0.103-1.169,0.689-1.149,1.381
					c0.022,0.753,0.65,1.344,1.401,1.32c0.457-0.012,0.854-0.251,1.092-0.605C347.576,202.68,347.128,202.571,346.795,202.197z"/>
			</g>
			<g>
				<path style="fill:#D1D3D4;" d="M352.694,206.906c0.021,0.749-0.569,1.376-1.318,1.399c-0.751,0.023-1.379-0.569-1.401-1.32
					c-0.023-0.751,0.569-1.378,1.32-1.399C352.046,205.564,352.673,206.155,352.694,206.906z"/>
				<path style="fill:#FFFFFF;" d="M351.568,206.994c0.269,0.229,0.578,0.283,0.842,0.169c0.058-0.133,0.09-0.28,0.084-0.438
					c-0.016-0.553-0.47-0.992-1.021-0.993C351.207,206.115,351.186,206.663,351.568,206.994z"/>
				<path style="fill:#BCBEC0;" d="M351.286,207.32c-0.439-0.497-0.469-1.182-0.162-1.718c-0.668,0.104-1.171,0.691-1.149,1.383
					c0.022,0.751,0.65,1.344,1.401,1.32c0.457-0.013,0.853-0.253,1.09-0.605C352.064,207.805,351.617,207.694,351.286,207.32z"/>
			</g>
			<g>
				<path style="fill:#D1D3D4;" d="M353.638,214.848c0.022,0.751-0.569,1.378-1.318,1.399c-0.752,0.023-1.379-0.565-1.402-1.318
					c-0.021-0.751,0.57-1.38,1.319-1.403C352.987,213.506,353.616,214.099,353.638,214.848z"/>
				<path style="fill:#FFFFFF;" d="M352.511,214.934c0.268,0.232,0.58,0.285,0.843,0.172c0.058-0.134,0.086-0.281,0.083-0.435
					c-0.018-0.557-0.469-0.994-1.02-0.996C352.15,214.059,352.129,214.608,352.511,214.934z"/>
				<path style="fill:#BCBEC0;" d="M352.229,215.262c-0.439-0.497-0.47-1.183-0.164-1.714c-0.668,0.103-1.168,0.688-1.148,1.381
					c0.023,0.753,0.65,1.342,1.402,1.318c0.456-0.013,0.854-0.251,1.088-0.604C353.006,215.748,352.561,215.637,352.229,215.262z"/>
			</g>
			<g>
				<path style="fill:#D1D3D4;" d="M351.765,221.361c0.021,0.753-0.568,1.376-1.319,1.4c-0.751,0.022-1.378-0.567-1.403-1.318
					c-0.021-0.753,0.571-1.38,1.322-1.401C351.115,220.02,351.743,220.61,351.765,221.361z"/>
				<path style="fill:#FFFFFF;" d="M350.638,221.449c0.271,0.234,0.58,0.284,0.841,0.171c0.056-0.135,0.089-0.282,0.085-0.438
					c-0.019-0.555-0.47-0.992-1.022-0.996C350.277,220.572,350.256,221.121,350.638,221.449z"/>
				<path style="fill:#BCBEC0;" d="M350.354,221.775c-0.438-0.497-0.466-1.182-0.16-1.718c-0.67,0.105-1.172,0.691-1.152,1.385
					c0.025,0.751,0.652,1.341,1.403,1.318c0.457-0.013,0.854-0.249,1.089-0.605C351.135,222.262,350.686,222.151,350.354,221.775z"
					/>
			</g>
			<g>
				<path style="fill:#D1D3D4;" d="M348.538,227.641c0.023,0.749-0.569,1.377-1.318,1.398c-0.753,0.023-1.379-0.565-1.402-1.316
					c-0.023-0.751,0.57-1.38,1.319-1.403C347.888,226.297,348.517,226.89,348.538,227.641z"/>
				<path style="fill:#FFFFFF;" d="M347.412,227.729c0.269,0.23,0.578,0.283,0.842,0.17c0.058-0.134,0.09-0.281,0.082-0.435
					c-0.014-0.557-0.468-0.994-1.019-0.997C347.053,226.85,347.029,227.399,347.412,227.729z"/>
				<path style="fill:#BCBEC0;" d="M347.13,228.055c-0.439-0.497-0.47-1.182-0.164-1.718c-0.666,0.105-1.169,0.691-1.148,1.385
					c0.023,0.751,0.649,1.34,1.402,1.316c0.457-0.013,0.854-0.249,1.088-0.602C347.907,228.539,347.461,228.429,347.13,228.055z"/>
			</g>
			<g>
				<path style="fill:#D1D3D4;" d="M342.678,232.229c0.022,0.753-0.568,1.38-1.317,1.403c-0.751,0.021-1.38-0.569-1.401-1.32
					c-0.022-0.751,0.569-1.379,1.32-1.4C342.03,230.889,342.656,231.48,342.678,232.229z"/>
				<path style="fill:#FFFFFF;" d="M341.555,232.319c0.267,0.23,0.576,0.282,0.839,0.171c0.058-0.136,0.088-0.283,0.083-0.437
					c-0.017-0.556-0.469-0.993-1.02-0.995C341.19,231.44,341.171,231.989,341.555,232.319z"/>
				<path style="fill:#BCBEC0;" d="M341.27,232.645c-0.439-0.495-0.468-1.181-0.162-1.718c-0.668,0.106-1.17,0.691-1.148,1.385
					c0.021,0.751,0.65,1.342,1.401,1.32c0.457-0.015,0.853-0.252,1.087-0.605C342.048,233.128,341.602,233.02,341.27,232.645z"/>
			</g>
			<g>
				<path style="fill:#D1D3D4;" d="M336.582,232.866c0.023,0.751-0.568,1.38-1.319,1.403c-0.751,0.02-1.38-0.569-1.401-1.32
					c-0.021-0.753,0.569-1.38,1.318-1.401C335.933,231.524,336.559,232.115,336.582,232.866z"/>
				<path style="fill:#FFFFFF;" d="M335.457,232.956c0.267,0.23,0.576,0.283,0.839,0.17c0.058-0.134,0.089-0.281,0.083-0.437
					c-0.017-0.556-0.468-0.992-1.02-0.995C335.093,232.077,335.073,232.625,335.457,232.956z"/>
				<path style="fill:#BCBEC0;" d="M335.173,233.282c-0.44-0.497-0.469-1.182-0.162-1.718c-0.669,0.105-1.171,0.691-1.149,1.385
					c0.021,0.751,0.65,1.34,1.401,1.32c0.457-0.017,0.854-0.254,1.091-0.605C335.95,233.765,335.504,233.655,335.173,233.282z"/>
			</g>
			<g>
				<path style="fill:#D1D3D4;" d="M332.039,228.584c0.022,0.753-0.567,1.378-1.318,1.401c-0.753,0.021-1.379-0.569-1.4-1.32
					c-0.022-0.751,0.568-1.376,1.319-1.4C331.391,227.242,332.018,227.835,332.039,228.584z"/>
				<path style="fill:#FFFFFF;" d="M330.913,228.674c0.269,0.23,0.58,0.283,0.842,0.17c0.058-0.132,0.088-0.281,0.084-0.438
					c-0.016-0.555-0.47-0.993-1.021-0.994C330.554,227.797,330.53,228.343,330.913,228.674z"/>
				<path style="fill:#BCBEC0;" d="M330.631,228.998c-0.439-0.493-0.468-1.181-0.162-1.716c-0.668,0.107-1.169,0.689-1.148,1.383
					c0.021,0.751,0.647,1.342,1.4,1.32c0.458-0.015,0.853-0.252,1.09-0.605C331.409,229.484,330.962,229.376,330.631,228.998z"/>
			</g>
			<g>
				<path style="fill:#D1D3D4;" d="M330.656,221.24c0.021,0.751-0.569,1.378-1.32,1.401c-0.751,0.02-1.378-0.569-1.4-1.32
					c-0.025-0.753,0.567-1.379,1.318-1.399C330.006,219.898,330.635,220.487,330.656,221.24z"/>
				<path style="fill:#FFFFFF;" d="M329.528,221.33c0.271,0.23,0.58,0.281,0.843,0.17c0.058-0.136,0.089-0.285,0.083-0.438
					c-0.016-0.557-0.468-0.992-1.022-0.994C329.169,220.45,329.148,220.999,329.528,221.33z"/>
				<path style="fill:#BCBEC0;" d="M329.248,221.654c-0.44-0.495-0.469-1.183-0.162-1.716c-0.67,0.102-1.171,0.689-1.15,1.383
					c0.022,0.751,0.648,1.34,1.4,1.32c0.456-0.017,0.855-0.252,1.09-0.607C330.024,222.137,329.575,222.029,329.248,221.654z"/>
			</g>
			<g>
				<path style="fill:#D1D3D4;" d="M332.399,213.819c0.023,0.751-0.569,1.378-1.318,1.397c-0.751,0.023-1.378-0.565-1.401-1.316
					c-0.021-0.751,0.569-1.38,1.318-1.401C331.751,212.478,332.378,213.066,332.399,213.819z"/>
				<path style="fill:#FFFFFF;" d="M331.273,213.907c0.268,0.23,0.578,0.283,0.841,0.17c0.058-0.136,0.091-0.283,0.083-0.437
					c-0.015-0.555-0.468-0.993-1.019-0.997C330.913,213.03,330.894,213.578,331.273,213.907z"/>
				<path style="fill:#BCBEC0;" d="M330.991,214.233c-0.439-0.497-0.469-1.183-0.162-1.718c-0.668,0.105-1.169,0.691-1.149,1.385
					c0.023,0.751,0.65,1.34,1.401,1.316c0.457-0.013,0.854-0.25,1.088-0.604C331.769,214.716,331.322,214.61,330.991,214.233z"/>
			</g>
			<g>
				<path style="fill:#D1D3D4;" d="M335.941,207.103c0.023,0.753-0.571,1.381-1.32,1.4c-0.751,0.023-1.379-0.566-1.4-1.317
					c-0.022-0.751,0.568-1.38,1.321-1.401C335.291,205.761,335.918,206.354,335.941,207.103z"/>
				<path style="fill:#FFFFFF;" d="M334.815,207.19c0.267,0.232,0.58,0.285,0.843,0.171c0.057-0.135,0.087-0.28,0.083-0.438
					c-0.018-0.555-0.472-0.992-1.022-0.994C334.456,206.314,334.435,206.863,334.815,207.19z"/>
				<path style="fill:#BCBEC0;" d="M334.533,207.519c-0.441-0.499-0.47-1.184-0.164-1.718c-0.668,0.105-1.169,0.691-1.148,1.385
					c0.021,0.751,0.649,1.34,1.4,1.317c0.458-0.014,0.854-0.25,1.092-0.602C335.311,208.001,334.862,207.893,334.533,207.519z"/>
			</g>
			<path style="fill:#E6E7E8;" d="M346.435,219.166c-1.761,4.837-5.59,7.884-8.554,6.805c-2.968-1.078-3.943-5.872-2.183-10.709
				c1.758-4.839,5.59-7.886,8.55-6.807C347.215,209.531,348.192,214.329,346.435,219.166z"/>
		</g>
		<polygon style="fill:#FFFFFF;" points="68.669,296.418 68.669,309.471 92.32,324.873 92.32,310.675 		"/>
		<g>
			<path style="fill:#008E98;" d="M201.091,268.589c0,0,0.604-0.443,1.737-1.274c1.137-0.825,2.784-2.067,4.921-3.584
				c4.258-3.061,10.361-7.398,17.765-12.479c3.697-2.548,7.702-5.308,11.979-8.163c4.269-2.868,8.754-5.917,13.452-8.981
				c4.695-3.069,9.505-6.306,14.468-9.476c4.953-3.187,9.984-6.424,15.015-9.661c5.064-3.186,10.128-6.371,15.112-9.507
				c4.97-3.16,9.944-6.138,14.712-9.092c4.767-2.955,9.426-5.732,13.835-8.379c4.399-2.663,8.595-5.124,12.471-7.391
				c3.864-2.285,7.437-4.331,10.605-6.143c3.159-1.827,5.942-3.373,8.228-4.656c2.28-1.292,4.103-2.257,5.333-2.936
				c1.233-0.673,1.892-1.032,1.892-1.032s-0.604,0.443-1.736,1.275c-1.137,0.826-2.784,2.068-4.92,3.586
				c-2.131,1.526-4.711,3.393-7.704,5.479c-2.983,2.102-6.352,4.471-10.059,7.002c-3.695,2.551-7.703,5.307-11.979,8.163
				c-4.266,2.872-8.756,5.916-13.453,8.98c-4.696,3.067-9.501,6.311-14.47,9.473c-4.953,3.186-9.984,6.423-15.016,9.659
				c-5.064,3.185-10.129,6.369-15.114,9.505c-4.975,3.151-9.944,6.137-14.714,9.088c-4.766,2.957-9.429,5.729-13.836,8.379
				c-4.399,2.663-8.596,5.122-12.471,7.391c-7.739,4.553-14.255,8.242-18.831,10.802c-2.279,1.293-4.103,2.258-5.332,2.939
				C201.749,268.229,201.091,268.589,201.091,268.589z"/>
		</g>
		<g>
			<path style="fill:#008E98;" d="M236.419,266.596c0,0,0.898-0.794,2.523-2.09c1.623-1.302,3.975-3.103,6.846-5.182
				c2.875-2.07,6.279-4.402,9.984-6.802c1.851-1.201,3.777-2.423,5.751-3.632c1.967-1.223,3.992-2.42,6.013-3.622
				c2.036-1.178,4.067-2.363,6.095-3.483c2.017-1.137,4.026-2.215,5.977-3.248c3.902-2.063,7.6-3.895,10.811-5.393
				c3.216-1.49,5.938-2.662,7.867-3.44c1.925-0.785,3.057-1.18,3.057-1.18s-0.897,0.795-2.522,2.092
				c-1.621,1.304-3.972,3.107-6.843,5.186c-2.875,2.071-6.278,4.404-9.985,6.802c-1.854,1.197-3.775,2.425-5.753,3.63
				c-1.967,1.223-3.994,2.416-6.015,3.618c-2.036,1.177-4.069,2.359-6.097,3.48c-2.02,1.133-4.025,2.217-5.978,3.246
				c-3.903,2.063-7.6,3.893-10.811,5.392c-3.216,1.49-5.936,2.663-7.864,3.443C237.55,266.199,236.419,266.596,236.419,266.596z"/>
		</g>
		<path style="fill:none;stroke:#BCBEC0;stroke-width:0.9384;stroke-miterlimit:10;" d="M344.493,160.838
			c0,0,20.695,10.585,19.081,44.477"/>
		<path style="fill:none;stroke:#BCBEC0;stroke-width:0.9384;stroke-miterlimit:10;" d="M206.333,248.998c0,0-4.537,2.644,0,7.099
			c0,0,26.097-0.236,27.741,25.889"/>
		
			<line style="fill:none;stroke:#BCBEC0;stroke-width:0.9384;stroke-miterlimit:10;" x1="234.074" y1="281.985" x2="311.191" y2="232.546"/>
		<path style="fill:#008B95;" d="M210.755,239.259c-3.751,1.533-5.733,1.311-5.733,1.311c-3.862,5.568,1.28,9.623,1.28,9.623
			c3.484-1.769,6.564-0.079,6.564-0.079c6.555,5.167,16.506-0.973,16.506-0.973c10.268-4.941,6.533-14.102,6.533-14.102
			c-1.261-5.748-6.238-5.678-6.238-5.678c-7.325-0.355-14.201,4.17-14.201,4.17S211.011,235.809,210.755,239.259z"/>
		<g>
			<path style="fill:#FFFFFF;" d="M141.89,153.98c0,0,0.218,0.29,0.646,0.803c0.413,0.518,1.078,1.243,1.914,2.149
				c0.428,0.443,0.901,0.935,1.417,1.47c0.549,0.506,1.111,1.075,1.724,1.669c0.595,0.608,1.316,1.18,2.024,1.819
				c0.354,0.319,0.717,0.646,1.089,0.982c0.374,0.333,0.783,0.647,1.186,0.982c0.811,0.659,1.656,1.346,2.53,2.057
				c0.902,0.675,1.835,1.372,2.793,2.09c0.938,0.736,1.955,1.429,2.996,2.132c1.046,0.695,2.068,1.463,3.161,2.172
				c1.104,0.693,2.227,1.397,3.363,2.11c0.565,0.359,1.134,0.72,1.706,1.083c0.589,0.337,1.181,0.677,1.775,1.017
				c2.383,1.351,4.752,2.805,7.262,4.026c1.231,0.652,2.462,1.305,3.688,1.954c1.236,0.632,2.502,1.198,3.738,1.799
				c1.244,0.587,2.472,1.181,3.682,1.779c1.196,0.628,2.458,1.075,3.649,1.631c2.417,1.026,4.71,2.144,6.946,3.058
				c2.245,0.892,4.357,1.783,6.31,2.612c1.947,0.846,3.758,1.558,5.372,2.173c1.614,0.612,3.01,1.2,4.165,1.674
				c2.308,0.955,3.618,1.563,3.618,1.563s-1.422-0.157-3.896-0.543c-1.236-0.196-2.743-0.422-4.459-0.743
				c-0.861-0.154-1.776-0.318-2.742-0.491c-0.963-0.186-1.948-0.476-2.993-0.728c-2.084-0.521-4.345-1.094-6.725-1.75
				c-2.373-0.676-4.816-1.58-7.367-2.456c-2.565-0.841-5.124-1.958-7.723-3.099c-1.294-0.583-2.629-1.102-3.91-1.755
				c-1.278-0.66-2.561-1.322-3.845-1.985c-1.265-0.699-2.579-1.302-3.797-2.079c-1.229-0.755-2.452-1.506-3.666-2.252
				c-0.605-0.376-1.206-0.751-1.805-1.124c-0.576-0.411-1.149-0.82-1.719-1.227c-1.134-0.817-2.253-1.625-3.355-2.42
				c-1.076-0.83-2.1-1.696-3.104-2.535c-1.001-0.842-1.996-1.643-2.878-2.534c-0.896-0.865-1.768-1.707-2.612-2.521
				c-0.803-0.858-1.555-1.712-2.285-2.515c-0.738-0.794-1.41-1.593-2.01-2.386c-0.597-0.795-1.204-1.503-1.693-2.244
				c-0.5-0.73-0.979-1.4-1.392-2.04c-0.389-0.656-0.747-1.26-1.07-1.805c-0.331-0.534-0.576-1.049-0.793-1.488
				c-0.22-0.438-0.402-0.812-0.532-1.126C141.999,154.32,141.89,153.98,141.89,153.98z"/>
		</g>
		<g>
			<path style="fill:#FFFFFF;" d="M258.505,180.179c0,0,0.06,0.34,0.233,0.907c0.161,0.569,0.447,1.369,0.918,2.246
				c0.208,0.452,0.537,0.881,0.833,1.354c0.368,0.425,0.717,0.899,1.187,1.281c0.413,0.447,0.98,0.726,1.487,1.096
				c0.281,0.143,0.577,0.263,0.865,0.397l0.436,0.199c0.151,0.052,0.311,0.083,0.467,0.126l0.932,0.262
				c0.308,0.096,0.641,0.087,0.957,0.137c0.32,0.034,0.637,0.073,0.95,0.118c0.315,0.025,0.632-0.001,0.942,0.002
				c0.619-0.031,1.225,0.043,1.794-0.063c0.57-0.072,1.113-0.127,1.617-0.177c0.507-0.031,0.955-0.162,1.365-0.223
				c0.408-0.076,0.763-0.142,1.056-0.196c0.588-0.104,0.932-0.151,0.932-0.151s-0.313,0.136-0.873,0.351
				c-0.282,0.105-0.624,0.233-1.017,0.38c-0.396,0.136-0.83,0.349-1.341,0.438c-0.504,0.119-1.053,0.246-1.638,0.366
				c-0.579,0.16-1.22,0.153-1.874,0.211c-0.329,0.016-0.662,0.06-1.001,0.051c-0.34-0.028-0.685-0.058-1.032-0.087
				c-0.346-0.047-0.702-0.036-1.047-0.133l-1.039-0.271c-0.171-0.052-0.347-0.092-0.515-0.152l-0.489-0.23
				c-0.323-0.157-0.652-0.301-0.964-0.469c-0.578-0.417-1.175-0.793-1.619-1.31c-0.506-0.453-0.842-1.018-1.197-1.515
				c-0.285-0.54-0.571-1.041-0.73-1.547c-0.204-0.486-0.301-0.961-0.4-1.372c-0.074-0.418-0.142-0.779-0.165-1.081
				C258.471,180.523,258.505,180.179,258.505,180.179z"/>
		</g>
	</g>
</g>
</svg>
