<svg version="1.2" xmlns="http://www.w3.org/2000/svg" viewBox="0 0 683 485" width="683" height="485"><style>.a{fill:#fefefe}.b{fill:#038a94}.c{fill:#05b8c4}.d{fill:#0499a3}.e{fill:#403f40}.f{mix-blend-mode:multiply;fill:#e6e7e8}.g{fill:#0b0d10}.h{fill:#004c52}.i{mix-blend-mode:multiply;fill:#939598}.j{fill:#038d97}.k{fill:#bbbdbf}.l{fill:#a6a9ab}.m{mix-blend-mode:multiply;fill:none;stroke:#bbbdbf;stroke-miterlimit:10;stroke-width:1.9}.n{fill:#373b3d}.o{fill:#4dc2c5}.p{fill:#363a3c}.q{fill:#d1d2d3}.r{fill:#808284}.s{fill:#e6e7e8}</style><path class="a" d="m6.1 332.4c-1.5-12.7-1-24.6 0.1-34.5q-0.7-2.3-1.1-4.6c-1.7 11.1-2.9 25.8-1 41.6 5.6 10.6 14.2 21.1 24.4 31.1v-4.6c-9.3-9.3-17.2-19.1-22.4-29z"/><path class="b" d="m119.1 189.1c-34.4 40.8-103.4 127.9-103.4 127.9 0 0-18.1-19.2-8-33z"/><path class="c" d="m320.7 305.1c25.9-25.4 31.8-47.8 46.4-80.7 14.9-33.4 33.9-41.6 33.9-41.6 117.4-93.8 169.3-74 169.3-74 36.6 7.8 88.1-28.3 88.1-28.3l-163.6-74.4c-15.7-6.8-25-3-25-3-48.1 17.4-88.7-0.7-107.7 3-103.7 20.2-160.8 84.4-160.8 84.4l-82.2 98.6-100.6 92.2c-37.2 59.3 107.3 123.4 107.3 123.4 41.5 35.1 80.3-2.2 80.3-2.2z"/><path class="d" d="m455.4 7.3c4.7-1 14.7-4.5 19.6-6.2 0 0 9.3-3.8 25 3l166.9 76.2c0 0-15.7 5.2-26.7 11.2z"/><path class="e" d="m401.3 9.1c-16.8-2-29.9-7.4-38.7-5.4-45.1 10.2-82.6 30.8-109.7 47.6q0.2 0.1 0.4 0.3c55.5 38.7 110.3 78.4 165.6 117.3 104.8-77.9 151.4-60.1 151.4-60.1 10.2 2.1 16 2.2 27.1-0.7z"/><path class="c" d="m214.8 76.6c65.2 85.2 193.2 105.5 176.2 102.3 0 0 100.9-74.5 169.9-73.8l-198.3-101.4c0 0-81.4 15.2-147.8 72.9z"/><path class="c" d="m414.4 159.3c0 0 85.6-80.9 158.8-63.5 36.5 7.8 84.3-12 84.3-12 22.7-3.9 22.7 71.9 22.7 71.9 0.9 33.9-29.6 52-29.6 52l-399.4 255c-48.8 35.5-98.3 11.2-98.3 11.2-85.1-30.3-137.1-88.7-137.1-88.7-21.9-23.5-15.6-62.9-11.6-88.5 8.5 48.6 127.1 108.4 127.1 108.4 36.1 18.3 61.7-6.5 61.7-6.5l103.1-90.3c0 0 20.7-15.9 24.7-25.5l62-86.9c0 0 14.6-26.7 31.6-36.6z"/><path class="f" d="m660 86.5c0 0-15.6 6.5-35.7 10.6 4.9 1.4 9.6 3.7 12.6 7.7 5.1 7 2.5 16-2.8 22.1-8 9.2-20.1 15.1-25.1 26.6 11.9-1.1 22.5-9 34.7-7.3 0.7 0.1 0.9 0.8 0.8 1.3-2.4 11.6-8.9 21.6-17.3 29.8-16.7 16.3-37.9 26.4-56.7 39.9-27.7 19.8-53.4 42.4-80.3 63.3-18.1 14-36.1 28.7-55.8 40.6-17.4 10.5-39.2 21.7-60.2 16.4-0.5-0.1-0.9-0.8-0.7-1.3 3.4-11.5 11.7-20.6 16.4-31.5-17.2 1-33.2 7.4-47.7 16.5-20 12.5-38.9 27.8-56.2 43.8-6.1 5.7-12.3 11.4-19.1 16.2-3.7 2.7-10 7.7-15 6.2-5.5-1.6-4.7-9-4.2-13.3 1.1-8.6 4.1-17.2 7.7-25.2l-60 52.4c0 0-25.5 24.8-61.6 6.6 0 0-118.7-59.8-127.1-108.5-4 25.6-10.3 65 11.6 88.6 0 0 51.9 58.3 137.1 88.6 0 0 49.4 24.4 98.2-11.1l399.5-255.1c0 0 30.4-18.1 29.5-51.9 0 0 0-75.8-22.6-72z"/><path class="g" d="m278.1 446.4c0 0-18.1-60.9 41.3-98 0 0 51.4-33.6 60.5 34.7z"/><path class="h" d="m494.2 197.7l-167 104.2 68.5-106.7c1-1.5 29.1-42.7 72-62.4 0 0 50-29.5 84.6-27.5 29.1 1.8 45.8 14.5 46.5 15.1l5.2 4.9-109.8 72.4-38.6-57.1"/><path class="e" d="m466 208.4v-66.2c-41.9 19.3-65.5 56.1-65.5 56.1l-55 85.5z"/><path class="e" d="m478.7 136.7v64.5l116.2-76.7c0 0-40.1-37.4-116.2 12.2z"/><path class="i" d="m449.3 197.8c-8.3 0.7-17.4 0.1-24.2-5.3-4.5-3.6-7.2-8.5-8.6-13.9-10.5 11.1-16 19.7-16 19.7l-55 85.5 120.5-75.4v-14c-5.5 1.7-11.1 3-16.7 3.4z"/><path class="i" d="m562.3 111.6c-3.4 7.5-7.7 14.5-11.2 19.6-9.1 13.6-20.1 27.9-33.5 37.6-9.9 7.2-21.6 13-32.7 18.1q-3.1 1.4-6.2 2.7v11.6l116.2-76.7c0 0-11.1-10.3-32.6-12.9z"/><path class="j" d="m191.3 448.6c0 0-3.3 0-9.1-0.1-3-0.2-6.5-0.3-10.6-0.7q-3-0.4-6.4-0.8c-2.3-0.3-4.6-0.8-7.1-1.3q-1.9-0.3-3.8-0.7-1.9-0.4-3.9-0.9c-2.6-0.6-5.3-1.2-8.1-2.1-2.8-0.8-5.6-1.5-8.5-2.6-2.8-0.9-5.8-1.9-8.7-3.1-2.9-1.1-5.9-2.2-8.9-3.5q-2.2-1-4.4-2-2.3-1-4.5-2.1c-6-2.8-11.8-6-17.7-9.3-2.9-1.7-5.7-3.5-8.6-5.2-2.8-1.8-5.6-3.5-8.3-5.4-2.7-1.8-5.5-3.7-8-5.6-2.7-1.9-5.2-3.8-7.7-5.7-5-3.7-9.7-7.6-14-11.4-4.4-3.7-8.4-7.3-12.1-10.7-3.7-3.4-6.9-6.7-9.7-9.6-2.9-2.9-5.3-5.5-7.2-7.7-4-4.3-6-6.9-6-6.9 0 0 2.3 2.4 6.5 6.4 4.1 4.1 10.3 9.7 17.8 16.2 3.8 3.3 7.9 6.7 12.4 10.3 4.4 3.5 9.2 7.1 14.2 10.8 5 3.7 10.3 7.3 15.8 10.9 2.7 1.9 5.5 3.6 8.2 5.3 2.9 1.7 5.7 3.5 8.6 5.1 5.7 3.3 11.5 6.5 17.4 9.3q2.2 1.1 4.3 2.1 2.2 1 4.4 2c2.9 1.4 5.8 2.6 8.7 3.7 2.8 1.3 5.7 2.2 8.5 3.3 2.8 1.1 5.6 2 8.3 2.8 2.7 1 5.3 1.7 7.9 2.4q2 0.6 3.8 1.1 1.9 0.4 3.7 0.8c4.9 1.2 9.3 2 13.3 2.7 4 0.6 7.5 1 10.4 1.4 5.8 0.5 9.1 0.8 9.1 0.8z"/><path class="j" d="m188.5 458.7c0 0-3.4 0-9.2 0-2.9-0.2-6.5-0.4-10.5-0.8q-3-0.4-6.5-0.8c-2.2-0.2-4.6-0.8-7.1-1.2q-1.8-0.4-3.7-0.8-1.9-0.4-3.9-0.9c-2.6-0.6-5.4-1.2-8.1-2.1-2.8-0.8-5.7-1.5-8.5-2.5-2.9-1-5.8-1.9-8.7-3.1-3-1.2-5.9-2.3-8.9-3.6q-2.2-1-4.5-1.9-2.2-1.1-4.4-2.2c-6-2.8-11.9-6-17.7-9.3-2.9-1.7-5.8-3.4-8.6-5.2-2.8-1.8-5.6-3.5-8.4-5.4-2.7-1.8-5.4-3.6-8-5.6q-3.9-2.8-7.7-5.6c-5-3.8-9.6-7.7-14-11.4-4.3-3.8-8.4-7.4-12-10.8-3.7-3.4-7-6.7-9.8-9.6-2.8-2.9-5.2-5.5-7.2-7.7-3.9-4.3-6-6.9-6-6.9 0 0 2.3 2.4 6.5 6.4 4.2 4.1 10.3 9.7 17.9 16.2 3.7 3.3 7.9 6.7 12.3 10.3 4.5 3.5 9.3 7.2 14.3 10.8 5 3.7 10.3 7.3 15.7 11 2.7 1.8 5.5 3.5 8.3 5.3 2.8 1.7 5.7 3.4 8.5 5 5.8 3.3 11.6 6.5 17.4 9.3q2.2 1.1 4.4 2.2 2.2 1 4.4 1.9c2.9 1.4 5.8 2.6 8.7 3.8 2.8 1.2 5.7 2.2 8.5 3.2 2.7 1.1 5.5 2 8.2 2.9 2.7 0.9 5.4 1.6 8 2.3q1.9 0.6 3.8 1.1 1.9 0.4 3.7 0.8c4.8 1.2 9.3 2 13.3 2.7 4 0.7 7.5 1.1 10.3 1.4 5.9 0.5 9.2 0.8 9.2 0.8z"/><path class="k" d="m207 422.6l-7 5c0 0-27.5 26.7-66.4 7 0 0-104.7-52.4-129.5-99.7-1.9-15.8-0.7-30.5 1-41.6 8.5 48.7 127.1 108.5 127.1 108.5 36.2 18.2 61.7-6.6 61.7-6.6l13.1-9.2c0 0 19.1 0.7 0 36.6z"/><path class="a" d="m28.5 332.7c-12-12.7-21.1-26.2-23.4-39.4-1.7 11.1-2.9 25.8-1 41.6 5.6 10.6 14.2 21.1 24.4 31.1z"/><path class="a" d="m206.9 385.9l-13.1 9.3c0 0-25.4 24.8-61.6 6.7 0 0-0.2-0.1-0.4-0.2l0.1 32.1c1.1 0.6 1.8 0.9 1.8 0.9 38.9 19.6 66.3-7.2 66.3-7.2l7-5c19-36-0.1-36.6-0.1-36.6z"/><path class="b" d="m211.6 387.7c2.2 4.8 2.1 13.9-7.3 31.5l-6.9 5c0 0-27 26.3-65.5 7.6v2c1.1 0.6 1.8 0.9 1.8 0.9 38.9 19.6 66.3-7.2 66.3-7.2l7-5c12.3-23.2 8.7-31.7 4.6-34.8z"/><path class="l" d="m37 341.1v32.8c22.1 19.8 66.1 43 82.1 52.5v-32.1c-15.8-9.3-60.6-33-82.1-53.2z"/><path class="m" d="m473 117.2v192.7"/><path class="n" d="m431.9 244.5l23.7-15.4v10.3l-23.7 16.6z"/><path class="n" d="m565.1 160.5l23.7-15.5v10.4l-23.7 16.6z"/><path class="n" d="m40.2 351.2c0 0 50 36.2 73.3 47.4v3.2c0 0-47.8-23.6-73.3-47.7z"/><path class="n" d="m40.2 356.6c0 0 50 36.1 73.3 47.3v3.2c0 0-47.8-23.6-73.3-47.7z"/><path class="n" d="m40.2 362c0 0 50 36.1 73.3 47.3v3.2c0 0-47.8-23.6-73.3-47.7z"/><path class="n" d="m40.2 367.3c0 0 50 36.2 73.3 47.4v3.2c0 0-47.8-23.6-73.3-47.7z"/><path class="b" d="m6.1 332.4c-1.5-12.7-1-24.6 0.1-34.5q-0.7-2.3-1.1-4.6c-1.7 11.1-2.9 25.8-1 41.6 5.6 10.6 14.2 21.1 24.4 31.1v-4.6c-9.3-9.3-17.2-19.1-22.4-29z"/><path class="o" d="m119.1 189.1l-74.7 73.1c0 0-36.1 32.7 0 66.3l87.5 51.2c0 0 31 18.6 56.6 0l124.5-86.4z"/><path class="e" d="m201.3 89c0 0 48.9 68.4 177.4 104.6l-65.7 99.7c0 0-149.4-14.1-193.9-104.2z"/><path class="i" d="m307.2 247c-24 1.9-49.6-0.9-72.5-8.5-22.8-7.5-44.8-20.9-56.7-42.6-12.3-22.6-13.2-51-4.2-75.4l-54.7 68.6c44.5 90.1 193.9 104.2 193.9 104.2l40-60.7c-13.7 8.7-29.6 13.1-45.8 14.4z"/><path class="j" d="m5.1 293.3c2.1 8.7 6.6 16.5 11.9 23.5 5.4 7 11.5 13.4 18.1 19.4 13 11.9 27.5 22.2 42.4 31.7q11.2 7.1 22.8 13.6c7.7 4.4 15.4 8.6 23.3 12.6 3.9 2 7.9 4 11.9 5.8l1.5 0.7 1.4 0.5q1.4 0.6 3 1.1 1.5 0.5 3 0.9 1.5 0.5 3 0.8c4.1 0.9 8.3 1.2 12.4 1.1 4.2-0.2 8.3-0.8 12.3-2 3.9-1.2 7.8-2.9 11.3-5q2.7-1.5 5.2-3.4c0.8-0.6 1.6-1.3 2.3-1.9 1-0.9 1.7-1.5 2.6-2.3l20.1-17.4 40.3-34.9 20.2-17.4 10.1-8.6 5.1-4.4 2.5-2.2 1-0.8 1.2-1.2c6.2-6.2 12.4-12.5 18.4-19 2.9-3.2 5.9-6.5 8.7-9.8 1.3-1.6 2.7-3.3 3.9-4.9 1.2-1.6 2.5-3.5 2.9-4.6l0.3-0.5 0.2-0.4 25.5-37.4c8.5-12.4 16.9-24.9 25.5-37.3l-0.4 0.6c3.2-6.1 6.6-11.7 10.4-17.3 3.8-5.6 7.8-11 12.4-16.1q3.5-3.8 7.4-7.3c0.6-0.6 1.3-1.1 2-1.7l1.8-1.4c1.4-1.2 2.6-2.2 4-3.2 5.2-4.2 10.5-8.1 16-11.8 10.9-7.5 22.3-14.4 34.2-20.4 11.8-6 24.1-11.2 36.9-15.1 12.8-4 26.1-6.6 39.6-7.1 6.7-0.3 13.6 0 20.3 1 3.4 0.5 6.7 1.1 10 1.9 1.2 0.2 3.2 0.7 4.5 0.8l2.2 0.4 2.3 0.2c6.2 0.5 12.5 0.3 18.8-0.3 6.3-0.7 12.6-1.8 18.8-3.2q9.4-2.2 18.5-5.2c6.1-2 12.2-4.3 18-6.8l0.4-0.2 0.3-0.1c2.3-0.4 4.9-0.2 7 0.9 2.2 1 3.8 2.5 5.1 4.1 2.6 3.2 4 6.7 5.2 10.2 2.2 7 3.3 14 4.1 21.1 0.8 7 1.2 14 1.4 21.1 0.1 7-0.1 14-0.4 21-0.3-7-1-13.9-1.7-20.9-0.7-7-1.6-13.9-2.8-20.7-1.3-6.8-2.9-13.6-5.5-19.8-1.3-3.1-2.8-6.1-4.7-8.2-1-1.1-2.1-1.9-3.1-2.3-1.1-0.5-2.1-0.5-3.3-0.2l0.7-0.3c-6.1 2.9-12.2 5.4-18.4 7.6-6.2 2.3-12.6 4.3-19 5.9-6.5 1.6-13 2.9-19.7 3.8-6.7 0.8-13.5 1.1-20.3 0.7l-2.6-0.2-2.6-0.4q-1.4-0.1-2.5-0.3l-2.6-0.5c-3.1-0.7-6.1-1.2-9.2-1.6-6.3-0.7-12.5-0.9-18.8-0.6-12.6 0.7-25.1 3.3-37.2 7.2-12.1 3.9-23.8 9-35.2 15-11.3 5.9-22.3 12.6-32.9 19.9-5.2 3.7-10.4 7.5-15.4 11.4-1.2 1-2.5 2.1-3.7 3l-1.9 1.7c-0.6 0.4-1.2 0.9-1.8 1.4-2.2 2-4.4 4.2-6.4 6.5-4.2 4.6-8 9.7-11.5 14.9-3.5 5.3-6.8 10.8-9.7 16.3l-0.1 0.3-0.2 0.3c-8.5 12.5-17.1 24.8-25.6 37.3l-25.6 37.2 0.5-0.9c-1.4 2.9-2.8 4.7-4.2 6.7-1.4 1.9-2.9 3.7-4.3 5.4-3 3.5-6 6.9-9.1 10.1-6.2 6.6-12.5 12.9-18.9 19.1l-1.2 1.2-0.4 0.4-0.2 0.1-0.3 0.3-0.6 0.5-2.6 2.2-5.1 4.2-10.2 8.6-20.4 17.2-40.9 34.1-20.5 17.1c-0.8 0.7-1.8 1.5-2.4 2.1-1 0.8-1.9 1.6-2.9 2.3q-2.9 2.1-6 3.8c-4.2 2.3-8.6 4.1-13.1 5.4-4.6 1.3-9.4 1.9-14.1 1.9-4.7 0.1-9.5-0.5-14-1.6q-1.7-0.4-3.4-1c-1.1-0.3-2.2-0.7-3.3-1.1q-1.7-0.6-3.3-1.3-1.7-0.7-3.2-1.4c-4-2-8-4.1-11.9-6.2-7.9-4.3-15.6-8.7-23.2-13.4q-11.5-7-22.5-14.5c-14.7-10.2-28.9-21.1-41.7-33.5-6.4-6.3-12.4-13-17.5-20.3-5-7.4-9.2-15.5-10.9-24.3z"/><path class="g" d="m348.2 438.3c-12.6 31.8-30.9 38.9-51.8 30.6-20.8-8.2-27.5-40.6-15-72.4 12.6-31.7 39.6-50.8 60.5-42.5 20.8 8.2 18.8 52.6 6.3 84.3z"/><path class="p" d="m368.9 426.5c-12.6 31.7-39.7 50.7-60.6 42.4-20.8-8.3-27.5-40.7-14.8-72.4 12.6-31.8 39.7-50.8 60.5-42.5 20.8 8.3 27.5 40.7 14.9 72.5z"/><path class="g" d="m360.3 421.3c-8.4 22.9-27.3 37-42.3 31.6-15-5.5-20.4-28.5-12.1-51.3 8.3-22.9 27.2-37 42.2-31.5 15 5.4 20.5 28.4 12.2 51.2z"/><path class="q" d="m358.5 416.5c-7.3 20.2-24.1 32.6-37.3 27.8-13.3-4.8-18.1-25.1-10.8-45.3 7.4-20.2 24.1-32.7 37.4-27.9 13.3 4.8 18.1 25.1 10.7 45.4z"/><path class="q" d="m358.5 416.5c-7.3 20.2-24.1 32.6-37.3 27.8-13.3-4.8-18.1-25.1-10.8-45.3 7.4-20.2 24.1-32.7 37.4-27.9 13.3 4.8 18.1 25.1 10.7 45.4z"/><path class="r" d="m349.8 412.4c-4.9 13.5-15.6 22-23.9 19-8.2-3-11-16.4-6.1-29.9 5-13.5 15.7-22 23.9-19 8.3 3 11.1 16.4 6.1 29.9z"/><path class="q" d="m336.3 377.4c0 1.5-1.1 2.7-2.6 2.8-1.5 0-2.8-1.2-2.8-2.7-0.1-1.5 1.1-2.7 2.6-2.8 1.5 0 2.8 1.2 2.8 2.7z"/><path class="a" d="m334 377.5c0.6 0.5 1.2 0.6 1.7 0.4q0.2-0.4 0.2-0.9c0-1.1-0.9-2-2-2-0.6 0.8-0.6 1.9 0.1 2.5z"/><path class="k" d="m333.5 378.2c-0.9-1-1-2.4-0.3-3.4-1.4 0.2-2.4 1.3-2.3 2.7 0 1.5 1.3 2.7 2.8 2.7 0.9-0.1 1.7-0.5 2.1-1.2-0.8 0.2-1.7-0.1-2.3-0.8z"/><path class="q" d="m349.1 376.1c0.1 1.5-1.1 2.7-2.6 2.8-1.5 0-2.8-1.2-2.8-2.7-0.1-1.5 1.1-2.7 2.6-2.8 1.5 0 2.8 1.2 2.8 2.7z"/><path class="a" d="m346.9 376.3c0.5 0.4 1.1 0.5 1.7 0.3q0.1-0.4 0.1-0.9c0-1.1-0.9-2-2-2-0.6 0.8-0.6 1.9 0.2 2.6z"/><path class="k" d="m346.3 376.9c-0.9-1-0.9-2.4-0.3-3.4-1.4 0.2-2.4 1.3-2.3 2.7 0 1.5 1.3 2.7 2.8 2.7 0.9-0.1 1.7-0.5 2.2-1.2-0.8 0.2-1.7 0-2.4-0.8z"/><path class="q" d="m358.1 386.3c0 1.5-1.1 2.8-2.6 2.8-1.5 0.1-2.8-1.1-2.8-2.6-0.1-1.5 1.1-2.8 2.6-2.8 1.5-0.1 2.8 1.1 2.8 2.6z"/><path class="a" d="m355.9 386.5c0.5 0.5 1.1 0.6 1.6 0.3q0.2-0.4 0.2-0.8c0-1.1-0.9-2-2-2-0.6 0.7-0.6 1.8 0.2 2.5z"/><path class="k" d="m355.3 387.1c-0.9-0.9-1-2.3-0.3-3.4-1.4 0.2-2.4 1.4-2.3 2.8 0 1.5 1.3 2.7 2.8 2.6 0.9 0 1.7-0.5 2.1-1.2-0.8 0.2-1.7 0-2.3-0.8z"/><path class="q" d="m360 402.2c0 1.5-1.1 2.8-2.7 2.8-1.4 0.1-2.7-1.1-2.8-2.6 0-1.5 1.2-2.8 2.7-2.8 1.5-0.1 2.7 1.1 2.8 2.6z"/><path class="a" d="m357.7 402.4c0.6 0.4 1.2 0.5 1.7 0.3q0.2-0.4 0.2-0.8c0-1.2-1-2-2.1-2-0.5 0.7-0.5 1.8 0.2 2.5z"/><path class="k" d="m357.2 403c-0.9-1-1-2.3-0.4-3.4-1.3 0.2-2.3 1.4-2.3 2.8 0.1 1.5 1.4 2.7 2.8 2.6 1 0 1.8-0.5 2.2-1.2-0.8 0.2-1.7 0-2.3-0.8z"/><path class="q" d="m356.2 415.2c0.1 1.5-1.1 2.8-2.6 2.8-1.5 0.1-2.8-1.1-2.8-2.6 0-1.5 1.1-2.8 2.6-2.8 1.5-0.1 2.8 1.1 2.8 2.6z"/><path class="a" d="m354 415.4c0.5 0.5 1.1 0.6 1.7 0.4q0.2-0.5 0.1-0.9c0-1.1-0.9-2-2-2-0.5 0.8-0.6 1.8 0.2 2.5z"/><path class="k" d="m353.4 416.1c-0.9-1-0.9-2.4-0.3-3.5-1.3 0.2-2.3 1.4-2.3 2.8 0 1.5 1.3 2.7 2.8 2.6 0.9 0 1.7-0.5 2.2-1.2-0.8 0.2-1.7 0-2.4-0.7z"/><path class="q" d="m349.8 427.8c0 1.5-1.1 2.7-2.6 2.8-1.5 0-2.8-1.1-2.9-2.6 0-1.5 1.2-2.8 2.7-2.8 1.5-0.1 2.7 1.1 2.8 2.6z"/><path class="a" d="m347.5 428c0.6 0.4 1.2 0.5 1.7 0.3q0.2-0.4 0.2-0.9c0-1.1-1-1.9-2.1-2-0.5 0.8-0.5 1.9 0.2 2.6z"/><path class="k" d="m347 428.6c-0.9-1-1-2.3-0.4-3.4-1.3 0.2-2.3 1.4-2.3 2.8 0.1 1.5 1.4 2.6 2.9 2.6 0.9 0 1.7-0.5 2.1-1.2-0.8 0.2-1.7 0-2.3-0.8z"/><path class="q" d="m338.1 437c0 1.5-1.2 2.7-2.7 2.8-1.5 0-2.7-1.2-2.8-2.7 0-1.5 1.2-2.7 2.7-2.8 1.5 0 2.7 1.2 2.8 2.7z"/><path class="a" d="m335.8 437.2c0.6 0.4 1.2 0.5 1.7 0.3q0.2-0.4 0.2-0.9c-0.1-1.1-1-2-2.1-2-0.5 0.8-0.5 1.9 0.2 2.6z"/><path class="k" d="m335.3 437.8c-0.9-1-1-2.4-0.4-3.4-1.3 0.2-2.3 1.4-2.3 2.7 0.1 1.5 1.3 2.7 2.8 2.7 0.9-0.1 1.7-0.5 2.2-1.2-0.8 0.2-1.7-0.1-2.3-0.8z"/><path class="q" d="m325.9 438.2c0 1.5-1.2 2.8-2.7 2.8-1.5 0.1-2.7-1.1-2.8-2.6 0-1.5 1.2-2.7 2.7-2.8 1.5 0 2.7 1.1 2.8 2.6z"/><path class="a" d="m323.6 438.4c0.6 0.5 1.2 0.6 1.7 0.4q0.2-0.4 0.2-0.9c-0.1-1.1-1-2-2.1-2-0.5 0.8-0.5 1.9 0.2 2.5z"/><path class="k" d="m323.1 439.1c-0.9-1-1-2.4-0.4-3.5-1.3 0.3-2.3 1.4-2.3 2.8 0.1 1.5 1.3 2.7 2.8 2.6 1 0 1.7-0.5 2.2-1.2-0.8 0.2-1.7 0-2.3-0.7z"/><path class="q" d="m316.8 429.7c0 1.5-1.1 2.7-2.6 2.8-1.5 0-2.8-1.2-2.8-2.7-0.1-1.5 1.1-2.7 2.6-2.8 1.5 0 2.7 1.2 2.8 2.7z"/><path class="a" d="m314.5 429.9c0.6 0.4 1.2 0.5 1.7 0.3q0.2-0.4 0.2-0.9c0-1.1-1-2-2.1-2-0.5 0.8-0.5 1.9 0.2 2.6z"/><path class="k" d="m314 430.5c-0.9-1-1-2.4-0.3-3.4-1.4 0.2-2.4 1.4-2.3 2.7 0 1.5 1.3 2.7 2.8 2.7 0.9 0 1.7-0.5 2.1-1.2-0.8 0.2-1.7 0-2.3-0.8z"/><path class="q" d="m314 415c0.1 1.5-1.1 2.7-2.6 2.8-1.5 0-2.8-1.1-2.8-2.6-0.1-1.5 1.1-2.8 2.6-2.8 1.5-0.1 2.8 1.1 2.8 2.6z"/><path class="a" d="m311.8 415.2c0.5 0.4 1.1 0.5 1.7 0.3q0.1-0.4 0.1-0.9c0-1.1-0.9-1.9-2-2-0.6 0.8-0.6 1.9 0.2 2.6z"/><path class="k" d="m311.2 415.8c-0.9-1-0.9-2.3-0.3-3.4-1.4 0.2-2.4 1.4-2.3 2.8 0 1.5 1.3 2.6 2.8 2.6 0.9 0 1.7-0.5 2.2-1.2-0.8 0.2-1.7 0-2.4-0.8z"/><path class="q" d="m317.5 400.2c0.1 1.5-1.1 2.7-2.6 2.7-1.5 0.1-2.8-1.1-2.8-2.6-0.1-1.5 1.1-2.7 2.6-2.8 1.5 0 2.8 1.1 2.8 2.7z"/><path class="a" d="m315.3 400.3c0.5 0.5 1.1 0.6 1.6 0.4q0.2-0.4 0.2-0.9c0-1.1-0.9-2-2-2-0.6 0.8-0.6 1.9 0.2 2.5z"/><path class="k" d="m314.7 401c-0.9-1-0.9-2.4-0.3-3.5-1.4 0.3-2.4 1.4-2.3 2.8 0 1.5 1.3 2.7 2.8 2.6 0.9 0 1.7-0.5 2.2-1.2-0.8 0.2-1.7 0-2.4-0.7z"/><path class="q" d="m324.6 386.7c0 1.5-1.1 2.8-2.6 2.8-1.5 0.1-2.8-1.1-2.8-2.6-0.1-1.5 1.1-2.8 2.6-2.8 1.5-0.1 2.8 1.1 2.8 2.6z"/><path class="a" d="m322.3 386.9c0.6 0.5 1.2 0.6 1.7 0.3q0.2-0.4 0.2-0.8c0-1.1-0.9-2-2-2-0.6 0.7-0.6 1.8 0.1 2.5z"/><path class="k" d="m321.8 387.6c-0.9-1-1-2.4-0.3-3.5-1.4 0.2-2.4 1.4-2.3 2.8 0 1.5 1.3 2.7 2.8 2.6 0.9 0 1.7-0.5 2.1-1.2-0.8 0.2-1.7 0-2.3-0.7z"/><path class="s" d="m345.6 410.8c-3.5 9.7-11.2 15.8-17.1 13.7-6-2.2-7.9-11.8-4.4-21.5 3.5-9.6 11.2-15.7 17.1-13.6 5.9 2.2 7.9 11.8 4.4 21.4z"/><path class="g" d="m540.3 277.5c0 0-18-60.9 41.4-98 0 0 51.4-33.7 60.4 34.7z"/><path class="g" d="m610.5 269.4c-12.6 31.8-30.9 38.9-51.8 30.6-20.8-8.2-27.5-40.6-15-72.4 12.5-31.7 39.6-50.8 60.5-42.5 20.8 8.2 18.8 52.6 6.3 84.3z"/><path class="p" d="m631.2 257.5c-12.7 31.8-39.8 50.8-60.6 42.5-20.8-8.3-27.5-40.7-14.9-72.5 12.7-31.7 39.8-50.7 60.6-42.4 20.8 8.3 27.5 40.7 14.9 72.4z"/><path class="g" d="m622.5 252.4c-8.3 22.9-27.2 37-42.2 31.6-15-5.5-20.4-28.5-12.1-51.3 8.3-22.9 27.2-37 42.2-31.6 15 5.5 20.5 28.5 12.1 51.3z"/><path class="q" d="m620.8 247.5c-7.4 20.3-24.1 32.7-37.3 27.9-13.3-4.8-18.1-25.1-10.8-45.3 7.4-20.2 24.1-32.7 37.4-27.9 13.2 4.8 18 25.1 10.7 45.3z"/><path class="q" d="m620.8 247.5c-7.4 20.3-24.1 32.7-37.3 27.9-13.3-4.8-18.1-25.1-10.8-45.3 7.4-20.2 24.1-32.7 37.4-27.9 13.2 4.8 18 25.1 10.7 45.3z"/><path class="r" d="m612.1 243.5c-4.9 13.5-15.6 22-23.9 19-8.3-3-11-16.4-6.1-29.9 4.9-13.5 15.6-22.1 23.9-19 8.3 3 11 16.4 6.1 29.9z"/><path class="q" d="m598.6 208.5c0 1.5-1.2 2.7-2.7 2.8-1.5 0-2.7-1.2-2.8-2.7 0-1.5 1.2-2.7 2.7-2.8 1.5 0 2.7 1.2 2.8 2.7z"/><path class="a" d="m596.3 208.6c0.6 0.5 1.2 0.6 1.7 0.4q0.2-0.4 0.2-0.9c-0.1-1.1-1-2-2.1-2-0.5 0.8-0.5 1.9 0.2 2.5z"/><path class="k" d="m595.8 209.3c-0.9-1-1-2.4-0.4-3.4-1.3 0.2-2.3 1.3-2.3 2.7 0.1 1.5 1.3 2.7 2.8 2.7 1-0.1 1.8-0.5 2.2-1.3-0.8 0.3-1.7 0-2.3-0.7z"/><path class="q" d="m611.4 207.2c0.1 1.5-1.1 2.7-2.6 2.8-1.5 0-2.8-1.2-2.8-2.7-0.1-1.5 1.1-2.7 2.6-2.8 1.5 0 2.8 1.2 2.8 2.7z"/><path class="a" d="m609.2 207.3c0.5 0.5 1.1 0.6 1.6 0.4q0.2-0.4 0.2-0.9c0-1.1-0.9-2-2-2-0.6 0.8-0.6 1.9 0.2 2.5z"/><path class="k" d="m608.6 208c-0.9-1-0.9-2.4-0.3-3.4-1.4 0.2-2.4 1.3-2.3 2.7 0 1.5 1.3 2.7 2.8 2.7 0.9-0.1 1.7-0.5 2.2-1.3-0.8 0.3-1.7 0-2.4-0.7z"/><path class="q" d="m620.4 217.4c0 1.5-1.2 2.8-2.6 2.8-1.6 0.1-2.8-1.1-2.9-2.6 0-1.5 1.2-2.8 2.7-2.8 1.5-0.1 2.7 1.1 2.8 2.6z"/><path class="a" d="m618.1 217.6c0.6 0.4 1.2 0.6 1.7 0.3q0.2-0.4 0.2-0.8c0-1.2-1-2-2.1-2-0.5 0.7-0.5 1.8 0.2 2.5z"/><path class="k" d="m617.6 218.2c-0.9-1-1-2.3-0.4-3.4-1.3 0.2-2.3 1.4-2.3 2.8 0.1 1.5 1.3 2.7 2.9 2.6 0.9 0 1.7-0.5 2.1-1.2-0.8 0.2-1.7 0-2.3-0.8z"/><path class="q" d="m622.3 233.3c0 1.5-1.2 2.8-2.7 2.8-1.5 0-2.7-1.1-2.8-2.6 0-1.5 1.2-2.8 2.7-2.8 1.5-0.1 2.7 1.1 2.8 2.6z"/><path class="a" d="m620 233.5c0.6 0.4 1.2 0.5 1.7 0.3q0.2-0.4 0.2-0.9c-0.1-1.1-1-1.9-2.1-2-0.5 0.8-0.5 1.9 0.2 2.6z"/><path class="k" d="m619.5 234.1c-0.9-1-1-2.3-0.4-3.4-1.3 0.2-2.3 1.4-2.3 2.8 0.1 1.5 1.3 2.6 2.8 2.6 1 0 1.7-0.5 2.2-1.2-0.8 0.2-1.7 0-2.3-0.8z"/><path class="q" d="m618.5 246.3c0.1 1.5-1.1 2.8-2.6 2.8-1.5 0.1-2.8-1.1-2.8-2.6-0.1-1.5 1.1-2.8 2.6-2.8 1.5-0.1 2.8 1.1 2.8 2.6z"/><path class="a" d="m616.3 246.5c0.5 0.5 1.1 0.6 1.7 0.3q0.1-0.4 0.1-0.8c0-1.1-0.9-2-2-2-0.5 0.7-0.6 1.8 0.2 2.5z"/><path class="k" d="m615.7 247.2c-0.9-1-0.9-2.4-0.3-3.5-1.4 0.2-2.4 1.4-2.3 2.8 0 1.5 1.3 2.7 2.8 2.6 0.9 0 1.7-0.5 2.2-1.2-0.8 0.2-1.7 0-2.4-0.7z"/><path class="q" d="m612.1 258.9c0 1.5-1.2 2.7-2.7 2.8-1.5 0-2.7-1.2-2.8-2.7 0-1.5 1.2-2.7 2.7-2.8 1.5 0 2.7 1.2 2.8 2.7z"/><path class="a" d="m609.8 259.1c0.6 0.4 1.2 0.5 1.7 0.3q0.2-0.4 0.2-0.9c-0.1-1.1-1-2-2.1-2-0.5 0.8-0.5 1.9 0.2 2.6z"/><path class="k" d="m609.3 259.7c-0.9-1-1-2.4-0.4-3.4-1.3 0.2-2.3 1.4-2.3 2.7 0.1 1.5 1.3 2.7 2.8 2.7 1 0 1.7-0.5 2.2-1.2-0.8 0.2-1.7 0-2.3-0.8z"/><path class="q" d="m600.4 268.1c0 1.5-1.2 2.7-2.7 2.8-1.5 0-2.7-1.2-2.8-2.7 0-1.5 1.2-2.7 2.7-2.8 1.5 0 2.7 1.2 2.8 2.7z"/><path class="a" d="m598.1 268.2c0.5 0.5 1.2 0.6 1.7 0.4q0.2-0.4 0.2-0.9c-0.1-1.1-1-2-2.1-2-0.5 0.8-0.6 1.9 0.2 2.5z"/><path class="k" d="m597.5 268.9c-0.8-1-0.9-2.4-0.3-3.4-1.3 0.2-2.3 1.3-2.3 2.7 0.1 1.5 1.3 2.7 2.8 2.7 0.9-0.1 1.7-0.5 2.2-1.2-0.8 0.2-1.7-0.1-2.4-0.8z"/><path class="q" d="m588.2 269.3c0 1.5-1.2 2.8-2.7 2.8-1.5 0.1-2.7-1.1-2.8-2.6 0-1.5 1.2-2.8 2.7-2.8 1.5-0.1 2.7 1.1 2.8 2.6z"/><path class="a" d="m585.9 269.5c0.5 0.5 1.2 0.6 1.7 0.4q0.2-0.5 0.2-0.9c-0.1-1.1-1-2-2.1-2-0.5 0.8-0.6 1.8 0.2 2.5z"/><path class="k" d="m585.3 270.2c-0.8-1-0.9-2.4-0.3-3.5-1.3 0.2-2.3 1.4-2.3 2.8 0.1 1.5 1.3 2.7 2.8 2.6 0.9 0 1.7-0.5 2.2-1.2-0.8 0.2-1.7 0-2.4-0.7z"/><path class="q" d="m579.1 260.8c0 1.5-1.2 2.7-2.7 2.8-1.5 0-2.7-1.2-2.8-2.7 0-1.5 1.2-2.7 2.7-2.8 1.5 0 2.7 1.2 2.8 2.7z"/><path class="a" d="m576.8 260.9c0.6 0.5 1.2 0.6 1.7 0.4q0.2-0.4 0.2-0.9c-0.1-1.1-1-2-2.1-2-0.5 0.8-0.5 1.9 0.2 2.5z"/><path class="k" d="m576.3 261.6c-0.9-1-1-2.4-0.4-3.4-1.3 0.2-2.3 1.3-2.3 2.7 0.1 1.5 1.3 2.7 2.8 2.7 1-0.1 1.7-0.5 2.2-1.2-0.8 0.2-1.7 0-2.3-0.8z"/><path class="q" d="m576.3 246.1c0.1 1.5-1.1 2.7-2.6 2.8-1.5 0-2.8-1.2-2.8-2.7-0.1-1.5 1.1-2.7 2.6-2.8 1.5 0 2.8 1.2 2.8 2.7z"/><path class="a" d="m574.1 246.3c0.5 0.4 1.1 0.5 1.6 0.3q0.2-0.4 0.2-0.9c0-1.1-0.9-2-2-2-0.6 0.8-0.6 1.9 0.2 2.6z"/><path class="k" d="m573.5 246.9c-0.9-1-0.9-2.4-0.3-3.4-1.4 0.2-2.4 1.4-2.3 2.7 0 1.5 1.3 2.7 2.8 2.7 0.9-0.1 1.7-0.5 2.2-1.2-0.9 0.2-1.7 0-2.4-0.8z"/><path class="q" d="m579.8 231.2c0 1.5-1.1 2.8-2.6 2.8-1.5 0.1-2.8-1.1-2.8-2.6-0.1-1.5 1.1-2.8 2.6-2.8 1.5 0 2.8 1.1 2.8 2.6z"/><path class="a" d="m577.5 231.4c0.6 0.5 1.2 0.6 1.7 0.4q0.2-0.5 0.2-0.9c0-1.1-0.9-2-2-2-0.6 0.8-0.6 1.9 0.1 2.5z"/><path class="k" d="m577 232.1c-0.9-1-1-2.4-0.3-3.5-1.4 0.2-2.4 1.4-2.3 2.8 0 1.5 1.3 2.7 2.8 2.6 0.9 0 1.7-0.5 2.1-1.2-0.8 0.2-1.7 0-2.3-0.7z"/><path class="q" d="m586.9 217.8c0 1.5-1.2 2.8-2.7 2.8-1.5 0.1-2.7-1.1-2.8-2.6 0-1.5 1.2-2.8 2.7-2.8 1.5-0.1 2.7 1.1 2.8 2.6z"/><path class="a" d="m584.6 218c0.6 0.4 1.2 0.6 1.7 0.3q0.2-0.4 0.2-0.9c-0.1-1.1-1-1.9-2.1-1.9-0.5 0.7-0.5 1.8 0.2 2.5z"/><path class="k" d="m584.1 218.6c-0.9-1-1-2.3-0.4-3.4-1.3 0.2-2.3 1.4-2.3 2.8 0.1 1.5 1.3 2.7 2.8 2.6 1 0 1.7-0.5 2.2-1.2-0.8 0.2-1.7 0-2.3-0.8z"/><path class="s" d="m607.9 241.9c-3.6 9.7-11.2 15.8-17.1 13.6-6-2.1-7.9-11.7-4.4-21.4 3.5-9.7 11.2-15.7 17.1-13.6 5.9 2.2 7.9 11.8 4.4 21.4z"/><path class="a" d="m52.3 396.4v26.1l47.3 30.8v-28.4z"/><path class="j" d="m317.2 340.8c0 0 1.2-0.9 3.5-2.6 2.2-1.6 5.5-4.1 9.8-7.1 8.5-6.2 20.7-14.8 35.5-25 7.4-5.1 15.4-10.6 24-16.3 8.5-5.8 17.5-11.9 26.9-18 9.4-6.1 19-12.6 28.9-18.9 9.9-6.4 20-12.9 30.1-19.4 10.1-6.3 20.2-12.7 30.2-19 9.9-6.3 19.9-12.2 29.4-18.2 9.5-5.9 18.9-11.4 27.7-16.7 8.8-5.3 17.2-10.3 24.9-14.8 7.7-4.6 14.9-8.7 21.2-12.3 6.3-3.6 11.9-6.7 16.5-9.3 4.5-2.6 8.2-4.5 10.6-5.9 2.5-1.3 3.8-2 3.8-2 0 0-1.2 0.9-3.4 2.5-2.3 1.7-5.6 4.2-9.9 7.2-4.2 3-9.4 6.8-15.4 11-6 4.2-12.7 8.9-20.1 14-7.4 5.1-15.4 10.6-24 16.3-8.5 5.7-17.5 11.8-26.9 17.9-9.4 6.2-19 12.7-28.9 19-9.9 6.4-20 12.8-30 19.3-10.2 6.4-20.3 12.7-30.3 19-9.9 6.3-19.9 12.3-29.4 18.2-9.5 5.9-18.9 11.4-27.7 16.7-8.8 5.4-17.2 10.3-24.9 14.8-15.5 9.1-28.5 16.5-37.7 21.6-4.5 2.6-8.2 4.5-10.6 5.9-2.5 1.4-3.8 2.1-3.8 2.1z"/><path class="j" d="m387.8 336.8c0 0 1.8-1.6 5.1-4.2 3.2-2.6 7.9-6.2 13.7-10.4 5.7-4.1 12.5-8.8 19.9-13.6 3.7-2.4 7.6-4.8 11.5-7.2 4-2.5 8-4.9 12.1-7.3 4-2.3 8.1-4.7 12.2-6.9 4-2.3 8-4.5 11.9-6.5 7.8-4.2 15.2-7.8 21.6-10.8 6.5-3 11.9-5.3 15.8-6.9 3.8-1.6 6.1-2.4 6.1-2.4 0 0-1.8 1.6-5.1 4.2-3.2 2.6-7.9 6.2-13.6 10.4-5.8 4.1-12.6 8.8-20 13.6-3.7 2.4-7.6 4.9-11.5 7.3-4 2.4-8 4.8-12.1 7.2-4 2.4-8.1 4.7-12.1 7-4.1 2.2-8.1 4.4-12 6.5-7.8 4.1-15.2 7.7-21.6 10.7-6.5 3-11.9 5.4-15.8 6.9-3.8 1.6-6.1 2.4-6.1 2.4z"/><path class="m" d="m604 125.3c0 0 41.4 21.1 38.1 88.9"/><path class="m" d="m327.7 301.6c0 0-9.1 5.3 0 14.2 0 0 52.2-0.5 55.4 51.8"/><path class="m" d="m383.1 367.6l154.3-98.9"/><path class="b" d="m336.5 282.1c-7.5 3.1-11.5 2.6-11.5 2.6-7.7 11.2 2.6 19.3 2.6 19.3 7-3.6 13.1-0.2 13.1-0.2 13.1 10.4 33-1.9 33-1.9 20.6-9.9 13.1-28.2 13.1-28.2-2.5-11.5-12.5-11.4-12.5-11.4-14.6-0.7-28.4 8.4-28.4 8.4 0 0-8.9 4.5-9.4 11.4z"/><path class="a" d="m198.8 111.6c0 0 0.4 0.5 1.3 1.6 0.8 1 2.1 2.5 3.8 4.3q1.3 1.3 2.8 2.9c1.1 1 2.3 2.2 3.5 3.3 1.2 1.3 2.6 2.4 4 3.7q1.1 0.9 2.2 1.9c0.8 0.7 1.6 1.3 2.4 2q2.4 2 5 4.1 2.7 2 5.6 4.2c1.9 1.5 3.9 2.9 6 4.3 2.1 1.4 4.2 2.9 6.3 4.3q3.4 2.1 6.8 4.2 1.7 1.1 3.4 2.2 1.7 1 3.5 2c4.8 2.7 9.5 5.6 14.6 8.1q3.6 1.9 7.3 3.9c2.5 1.3 5 2.4 7.5 3.6q3.7 1.7 7.4 3.5c2.4 1.3 4.9 2.2 7.3 3.3 4.8 2.1 9.4 4.3 13.9 6.1 4.4 1.8 8.7 3.6 12.6 5.2 3.9 1.7 7.5 3.2 10.7 4.4 3.3 1.2 6 2.4 8.4 3.3 4.6 2 7.2 3.2 7.2 3.2 0 0-2.9-0.3-7.8-1.1-2.5-0.4-5.5-0.9-8.9-1.5q-2.6-0.5-5.5-1c-1.9-0.4-3.9-0.9-6-1.4-4.2-1.1-8.7-2.2-13.4-3.5-4.8-1.4-9.7-3.2-14.8-5-5.1-1.6-10.2-3.9-15.4-6.2-2.6-1.1-5.3-2.2-7.8-3.5q-3.9-1.9-7.7-3.9c-2.6-1.4-5.2-2.6-7.6-4.2q-3.7-2.3-7.4-4.5-1.8-1.1-3.6-2.2-1.7-1.3-3.4-2.5-3.4-2.4-6.7-4.8c-2.2-1.7-4.2-3.4-6.2-5.1-2-1.7-4-3.3-5.8-5.1q-2.7-2.6-5.2-5c-1.6-1.7-3.1-3.4-4.6-5q-2.2-2.4-4-4.8c-1.2-1.6-2.4-3-3.4-4.5-1-1.5-1.9-2.8-2.8-4.1q-1.1-2-2.1-3.6c-0.7-1.1-1.2-2.1-1.6-3q-0.7-1.3-1.1-2.2c-0.5-1.3-0.7-1.9-0.7-1.9z"/><path class="a" d="m432 164c0 0 0.1 0.6 0.5 1.8 0.3 1.1 0.9 2.7 1.8 4.5 0.4 0.9 1.1 1.7 1.7 2.7 0.7 0.8 1.4 1.8 2.4 2.5 0.8 0.9 1.9 1.5 2.9 2.2 0.6 0.3 1.2 0.6 1.8 0.8l0.8 0.4c0.3 0.1 0.7 0.2 1 0.3l1.8 0.5c0.6 0.2 1.3 0.2 1.9 0.3q1 0.1 1.9 0.2c0.7 0.1 1.3 0 1.9 0 1.3-0.1 2.5 0.1 3.6-0.1q1.7-0.2 3.2-0.4c1.1 0 2-0.3 2.8-0.4q1.2-0.2 2.1-0.4c1.2-0.2 1.9-0.3 1.9-0.3 0 0-0.7 0.3-1.8 0.7q-0.8 0.3-2 0.8c-0.8 0.2-1.7 0.6-2.7 0.8q-1.5 0.4-3.3 0.8c-1.1 0.3-2.4 0.3-3.7 0.4-0.7 0-1.4 0.1-2 0.1q-1.1-0.1-2.1-0.2c-0.7-0.1-1.4-0.1-2.1-0.3l-2.1-0.5c-0.3-0.1-0.7-0.2-1-0.3l-1-0.5c-0.6-0.3-1.3-0.6-1.9-0.9-1.2-0.8-2.4-1.6-3.2-2.6-1.1-0.9-1.7-2.1-2.4-3.1-0.6-1-1.2-2-1.5-3-0.4-1-0.6-2-0.8-2.8-0.1-0.8-0.3-1.5-0.3-2.2-0.2-1.2-0.1-1.8-0.1-1.8z"/></svg>