<svg version="1.2" xmlns="http://www.w3.org/2000/svg" viewBox="0 0 2264 1813" width="2264" height="1813"><style>.a{fill:#ce2e2e}.b{fill:#ba2d2d}.c{fill:#d8d8d8}</style><path class="a" d="m259.9 850.4c100.5-12.9 154.2-36.4 159.8-70 15.4-93.7 85.1-461.7 85.8-465.4l58.1 0.7 35 697.4 2.6-13.2c0.1-0.5 12.5-56.8 37.3-116.3 14.7-35.2 30.7-64.7 47.8-87.7 23-31 47.9-50.6 76.4-59.7l46.6-15v127.7c7.3 12.4 43.1 39.7 89.1 41.7 74.9 3.1 328.1-3.3 330.6-3.3l2.1-0.1 2 0.1c2.8 0 74.1 1.6 125.7-27.6l66.7-44.6 25.8 10q0.6 0.3 1.9 0.8l63.2-489.1 56.9 0.6v664.8l19.2-68.7c0.6-1.7 16-41.9 43.7-88.5 37.9-63.8 80.8-106.6 126.9-127.1l34.9-15.5 74 103.3c0.4 0.6 46.4 70.6 143.4 77.1h152.7c179.2-259.1 101.2-602.4-182.9-779-272.1-169.1-637.7-125.4-852.7 90.1-215.2-215.5-581.3-258.1-853.4-89-274.9 170.8-356.5 497.8-199.3 754.7 22.4 0 110.3-0.3 180.1-9.2z"/><path class="b" d="m2004.6 910.4c-131-13.6-185.5-91.7-188.5-96.2l-42.2-59.9c-62.8 48.5-108.5 144.4-122.5 182.7l-76.9 290.2-59.1-1.3v-446.9l-14 114.5-57.6-0.6c0-16-6-27.6-13.1-35.5l-24.5 16.3c-66.1 37.8-158.8 38.1-175.2 37.9-24 0.6-261.1 6.4-338.3 3.2-96.1-4.1-136.4-58-138.1-60.3l0.4-1.8v-61.7c-21.7 19.8-38 50.2-57.3 96.6-24.1 57.8-37.2 112.4-37.7 114.5l-49.2 248.6-58.3-0.7-34.7-688.9c-16.8 90.6-33.4 181-40 221.1-7.3 44.2-77.2 75.9-202.2 91.8-89.4 11.3-175.5 10.3-179.1 10.2l-8.4-11.3q13.2 20.3 28.4 39.9l1016 900.2 1015.6-899.3c0.7-0.9 1.4-1.8 2.1-1.8h-142.1z"/><path class="c" d="m78.4 856.9l9.7 13.1c-2.8-4.4-5.6-3.4-8.3-13.1q-0.7 0-1.4 0z"/><path class="c" d="m2150.2 911.9h2.5l17.1-29.1h-1.7c-5.7 9.7-11.7 22.6-17.9 29.1z"/><path class="c" d="m77.1 859.8h-2.6c0.2 0 1.5 0 3.9 0 0 0-1.3 0-1.3 0z"/><path class="c" d="m2015.4 882.8c-97-6.5-142.9-76.5-143.4-77.1l-73.8-103.9-34.7 15.8c-46.1 20.5-88.7 63.4-126.6 127.2-27.7 46.6-43.8 86.9-44.4 88.6l-19.2 68.8v-664.8l-56.9-0.6-63.9 489.1c-0.8-0.3-1.1-0.6-1.5-0.8l-25.6-10-66.7 44.6c-51.6 29.2-122.8 27.6-125.6 27.6l-2-0.1-2 0.1c-2.6 0-255.8 6.4-330.7 3.3-46-2-81.8-29.3-89.1-41.7v-127.7l-46.6 15c-28.5 9.1-53.4 28.7-76.4 59.7-17.1 23-33.2 52.5-47.8 87.7-24.8 59.5-37.2 115.8-37.3 116.3l-2.6 13.2-35-697.4-58.1-0.7c-0.7 3.7-70.4 371.7-85.8 465.4-5.6 33.6-59.3 57.1-159.8 70-69.8 8.9-157.7 9.4-180.1 9.4q4.1 6.6 8.3 13.1l8.4 11.3c3.6 0.1 89.7 1.1 179.1-10.2 124.9-15.9 194.8-47.6 202.1-91.8 6.6-40.1 23.2-130.5 40-221.1l34.6 688.9 58.1 0.7 48.9-248.6c0.4-2.1 14.3-56.7 38.4-114.5 19.3-46.4 35.6-76.8 57.3-96.6v61.7l-0.4 1.8c1.7 2.3 42.8 56.2 138.9 60.3 77.2 3.2 313.9-2.6 337.9-3.2 16.5 0.2 108.9-0.1 175-37.9l24.4-16.3c7.1 7.9 13.2 19.5 13.2 35.5l57.4 0.6 14-114.5v446.9l59.1 1.3 76.8-290.3c13.9-38.3 59.7-134.4 122.6-182.9l42.1 59.7c3.1 4.6 57.5 83.1 188.6 96.7l3.5 1.5h142.1c6.2-6.5 12.2-19.4 17.9-29.1z"/><path class="b" d="m2080.6 655.2q-0.3 0-0.7 0c-31.4-0.4-56.6-23.4-56.2-51.6 1.8-136.7-61.8-245-189.2-321.7-98-59-196.1-76.3-197.1-76.5-30.8-5.3-51.1-32-45.1-59.6 5.9-27.6 35.7-45.7 66.6-40.4 4.9 0.8 122.2 21.5 239.2 92 70.1 42.2 125.8 93.6 165.8 152.7 50.2 74.1 74.9 159.9 73.7 254.8-0.4 27.9-25.8 50.3-57 50.3z"/></svg>