<svg version="1.2" xmlns="http://www.w3.org/2000/svg" viewBox="0 0 617 615" width="617" height="615"><defs><clipPath clipPathUnits="userSpaceOnUse" id="cp1"><path d="m210.32 502.25v-68.77l-39.7-23.24v68.77z"/></clipPath><clipPath clipPathUnits="userSpaceOnUse" id="cp2"><path d="m130.91 456.7v-68.78l-39.7-23.24v68.78z"/></clipPath><clipPath clipPathUnits="userSpaceOnUse" id="cp3"><path d="m130.91 341.88v-68.77l-39.7-23.24v68.77z"/></clipPath><clipPath clipPathUnits="userSpaceOnUse" id="cp4"><path d="m210.32 387.5v-68.77l-39.7-23.24v68.78z"/></clipPath><clipPath clipPathUnits="userSpaceOnUse" id="cp5"><path d="m210.32 385.38v-65.96l-38.03-22.29v65.96z"/></clipPath><clipPath clipPathUnits="userSpaceOnUse" id="cp6"><path d="m299.08 519.47l70.07-40.46-0.03-68.78-70.04 40.46z"/></clipPath><clipPath clipPathUnits="userSpaceOnUse" id="cp7"><path d="m488.26 473.47l77.53-44.61-0.02-100.85-77.51 44.62z"/></clipPath><clipPath clipPathUnits="userSpaceOnUse" id="cp8"><path d="m454.13 337.16v-79.86l-50.93 29.38v79.85z"/></clipPath><clipPath clipPathUnits="userSpaceOnUse" id="cp9"><path d="m210.32 496v-62.59l-33.24-19.48v62.58z"/></clipPath><clipPath clipPathUnits="userSpaceOnUse" id="cp10"><path d="m130.91 449.2v-61.63l-33.24-19.19v61.64z"/></clipPath></defs><style>.a{fill:#ffe4b5}.b{fill:#d6ac7c}.c{fill:#273d50}.d{fill:#e0e0e0}.e{fill:#ad8c53}.f{fill:#edd4a9}.g{fill:#ccc}.h{mix-blend-mode:multiply;fill:#c4c4c4}.i{fill:#515052}.j{fill:#c7a260}.k{fill:#3d3c3d}.l{fill:#969699}.m{fill:#59697f}.n{fill:#e6e6e6}.o{fill:#fff}.p{fill:#ffefd4}.q{fill:#f5f5f5}.r{fill:#414042}.s{mix-blend-mode:multiply;fill:#d6c0ae}.t{mix-blend-mode:multiply;fill:#ccc}.u{fill:#4f3c34}.v{fill:#bf5250}.w{fill:#9e413e}.x{fill:#62748c}.y{fill:#853734}.z{fill:#b5978b}.A{fill:#e3e3e3}.B{fill:#803532}.C{fill:#943d3a}.D{fill:#823633}.E{fill:#805b37}.F{fill:#6b4d2e}.G{fill:#94704d}.H{fill:#b5895e}.I{fill:#6e5339}.J{fill:#d1bb94}</style><path class="a" d="m389 352.9v-68.7l39.7-74.1 39.7 28.2v68.8l119.1-68.8v164.9l-317.6 183.4v-164.9z"/><path class="b" d="m150.8 192.5l119.1 229.2v183.4l-238.3-137.5v-183.4z"/><path class="c" d="m210.3 502.3v-68.8l-39.7-23.3v68.8z"/><g clip-path="url(#cp1)"><path class="d" d="m193.5 512.7h-6.1v-120.5h6.1z"/></g><path class="e" d="m170.6 410.2v68.8l6.5-3.7v-61.3z"/><path class="f" d="m170.6 479l39.7 23.3v-8l-33.2-19z"/><path class="c" d="m130.9 456.7v-68.8l-39.7-23.2v68.8z"/><g clip-path="url(#cp2)"><path class="d" d="m114.1 472.8h-6.1v-116.3h6.1z"/></g><path class="e" d="m91.2 364.7v68.8l6.5-3.8v-61.2z"/><path class="f" d="m91.2 433.5l39.7 23.2v-8l-33.2-19z"/><path class="c" d="m130.9 341.9v-68.8l-39.7-23.2v68.7z"/><g clip-path="url(#cp3)"><path class="d" d="m116 358.4h-6.1v-112.3h6.1z"/><path class="g" d="m116 358.4h-2.7v-112.3h2.7z"/><path class="d" d="m165.6 314.7l-1.2 1.9-96.6-57.1 1.1-2z"/><path class="d" d="m165.6 337.3l-1.2 1.9-96.6-57.1 1.1-1.9z"/></g><path class="e" d="m91.2 249.9v68.7l6.5-3.7v-61.2z"/><path class="f" d="m91.2 318.6l39.7 23.3v-8l-33.2-19z"/><path class="c" d="m210.3 387.5v-68.8l-39.7-23.2v68.8z"/><g clip-path="url(#cp4)"><path class="d" d="m193.5 392.2h-6.1v-107.9h6.1z"/></g><path class="c" d="m210.3 385.4v-66l-38-22.3v66z"/><g clip-path="url(#cp5)"><path class="d" d="m194.3 399.4h-5.9v-107.6h5.9z"/><path class="g" d="m194.3 399.4h-3v-107.6h3z"/><path class="d" d="m243.5 359.3l-1.1 1.9-92.5-54.8 1.1-1.9z"/><path class="d" d="m243.5 381l-1.1 1.9-92.5-54.8 1.1-1.9z"/></g><path class="e" d="m170.6 295.5v68.8l6.5-3.8v-61.2z"/><path class="f" d="m170.6 364.3l39.7 23.2v-8l-33.2-19z"/><path class="h" d="m170.6 295.5l6.5 8.9 18 10.4-3.7-7.2z"/><path class="i" d="m448.5 465.5l-39.6 22.6v-77.9l39.7-22.9z"/><path class="j" d="m448.5 473l-6.4-3.8v-78.2l6.5-3.7z"/><path class="k" d="m431.3 443.4c1.1 0.6 2.8-0.4 3.9-2.3 1.1-1.9 1.1-3.9 0-4.5-1.1-0.7-2.8 0.4-3.9 2.2-1.1 1.9-1.1 4 0 4.6z"/><path class="l" d="m431.8 440.1c1.1 0.7 2.8-0.3 3.9-2.2 1.1-1.9 1.1-3.9 0-4.6-1.1-0.6-2.8 0.4-3.9 2.3-1.1 1.9-1.1 3.9 0 4.5z"/><path class="m" d="m299.1 519.5l70-40.5v-68.8l-70 40.5z"/><g clip-path="url(#cp6)"><path class="n" d="m316.5 506.3h6.2v-73.7h-6.2z"/><path class="o" d="m318.8 504h6.2v-73.7h-6.2z"/><path class="n" d="m340.2 494.5h6.1v-73.8h-6.1z"/><path class="o" d="m342.5 492.2h6.2v-73.8h-6.2z"/></g><path class="j" d="m369.1 479l-6.4-3.8v-61.3l6.4-3.7z"/><path class="p" d="m362.7 475.2l-63.6 36.5v7.8l70-40.5z"/><path class="o" d="m369.1 433.5l-70 36.1v7.8l70-40.5z"/><path class="q" d="m362.7 429.7l-63.6 36.5v7.8l70-40.5z"/><path class="i" d="m488.3 473.5l77.5-44.6v-100.9l-77.5 44.6z"/><g clip-path="url(#cp7)"><path class="r" d="m456.2 405l-1-1.8 137.5-79.4 1.1 1.8z"/><path class="r" d="m456.2 413.6l-1-1.7 137.5-79.5 1.1 1.8z"/><path class="r" d="m456.2 422.3l-1-1.8 137.5-79.4 1.1 1.8z"/><path class="r" d="m456.2 431l-1-1.8 137.5-79.4 1.1 1.8z"/><path class="r" d="m456.2 439.6l-1-1.7 137.5-79.5 1.1 1.8z"/><path class="r" d="m456.2 448.3l-1-1.8 137.5-79.4 1.1 1.8z"/><path class="r" d="m456.2 457l-1-1.8 137.5-79.4 1.1 1.8z"/><path class="r" d="m456.2 465.6l-1-1.7 137.5-79.5 1.1 1.8z"/><path class="r" d="m456.2 474.3l-1-1.8 137.5-79.4 1.1 1.8z"/><path class="r" d="m456.2 483l-1-1.8 137.5-79.4 1.1 1.8z"/></g><path class="j" d="m565.8 436.2l-6.5-3.7 0.1-100.8 6.4-3.7z"/><path class="m" d="m454.1 337.2v-79.9l-50.9 29.4v79.8z"/><g clip-path="url(#cp8)"><path class="o" d="m424.2 355.5h6.2v-87.2h-6.2z"/></g><path class="p" d="m454.1 337.2l-6.8-3.8-44.1 25.5v7.6z"/><path class="j" d="m454.1 337.2l-6.8-3.8 0.4-72.4 6.4-3.7z"/><path class="h" d="m131 388v4.8l-33.3-19.2-6.4-8.9z"/><path class="h" d="m130.9 273.5v4.8l-33.2-19.2-6.5-8.9z"/><path class="h" d="m210.3 433.6v4.9l-33.2-19.2-6.5-8.9z"/><path class="s" d="m269.9 456.7l317.6-183.6v22.9l-123.4 70.5 21.4 12.3-76.9 43.6-21-12-117.7 67.9z"/><path class="p" d="m468.4 328.9l-79.4 45.9 39.7 22.9 79.4-45.9z"/><path class="a" d="m508.1 351.8v5.6l-79.4 45.8v-5.5z"/><path class="j" d="m389 374.8v5.5l39.7 22.9v-5.5z"/><path class="n" d="m497.7 353.6c-0.9 0-1.5-0.6-1.5-1.5v-26.5c0-0.8 0.6-1.5 1.5-1.5 0.8 0 1.5 0.7 1.5 1.5v26.5c0 0.9-0.7 1.5-1.5 1.5z"/><path class="n" d="m487.9 359.3c-0.8 0-1.5-0.7-1.5-1.6v-26.5c0-0.8 0.7-1.5 1.5-1.5 0.9 0 1.6 0.7 1.6 1.5v26.5c0 0.9-0.7 1.6-1.6 1.6z"/><path class="n" d="m478.2 364.9c-0.9 0-1.6-0.7-1.6-1.5v-26.5c0-0.9 0.7-1.6 1.6-1.6 0.8 0 1.5 0.7 1.5 1.6v26.5c0 0.8-0.7 1.5-1.5 1.5z"/><path class="n" d="m468.4 370.5c-0.8 0-1.5-0.6-1.5-1.5v-26.5c0-0.8 0.7-1.5 1.5-1.5 0.9 0 1.6 0.7 1.6 1.5v26.5c0 0.9-0.7 1.5-1.6 1.5z"/><path class="n" d="m458.7 376.2c-0.9 0-1.6-0.7-1.6-1.6v-26.5c0-0.8 0.7-1.5 1.6-1.5 0.8 0 1.5 0.7 1.5 1.5v26.5c0 0.9-0.7 1.6-1.5 1.6z"/><path class="n" d="m448.9 381.8c-0.8 0-1.5-0.7-1.5-1.5v-26.5c0-0.9 0.7-1.6 1.5-1.6 0.9 0 1.5 0.7 1.5 1.6v26.5c0 0.8-0.6 1.5-1.5 1.5z"/><path class="n" d="m439.2 387.4c-0.9 0-1.6-0.6-1.6-1.5v-26.5c0-0.8 0.7-1.5 1.6-1.5 0.8 0 1.5 0.7 1.5 1.5v26.5c0 0.9-0.7 1.5-1.5 1.5z"/><path class="n" d="m429.4 393.1c-0.9 0-1.5-0.7-1.5-1.6v-26.5c0-0.8 0.6-1.5 1.5-1.5 0.8 0 1.5 0.7 1.5 1.5v26.5c0 0.9-0.7 1.6-1.5 1.6z"/><path class="n" d="m429.4 393.1c-0.9 0-1.5-0.7-1.5-1.6v-26.5c0-0.8 0.6-1.5 1.5-1.5 0.8 0 1.5 0.7 1.5 1.5v26.5c0 0.9-0.7 1.6-1.5 1.6z"/><path class="n" d="m420.6 388.1c-0.9 0-1.5-0.6-1.5-1.5v-26.5c0-0.8 0.6-1.5 1.5-1.5 0.8 0 1.5 0.7 1.5 1.5v26.5c0 0.9-0.7 1.5-1.5 1.5z"/><path class="n" d="m411.8 383.2c-0.9 0-1.5-0.7-1.5-1.5v-26.5c0-0.9 0.6-1.6 1.5-1.6 0.8 0 1.5 0.7 1.5 1.6v26.5c0 0.8-0.7 1.5-1.5 1.5z"/><path class="n" d="m403 378.3c-0.9 0-1.5-0.7-1.5-1.6v-26.5c0-0.8 0.6-1.5 1.5-1.5 0.8 0 1.5 0.7 1.5 1.5v26.5c0 0.9-0.7 1.6-1.5 1.6z"/><path class="n" d="m394.2 373.3c-0.9 0-1.5-0.7-1.5-1.5v-26.5c0-0.8 0.6-1.5 1.5-1.5 0.8 0 1.5 0.7 1.5 1.5v26.5c0 0.8-0.7 1.5-1.5 1.5z"/><path class="t" d="m468.4 254.9l-29.5-20.4-49.9 97.5v-21.1l49.4-89.2 30 21z"/><path class="o" d="m499.7 353.6c-0.9 0-1.5-0.6-1.5-1.5v-26.5c0-0.8 0.6-1.5 1.5-1.5 0.8 0 1.5 0.7 1.5 1.5v26.5c0 0.9-0.7 1.5-1.5 1.5z"/><path class="o" d="m489.9 359.3c-0.8 0-1.5-0.7-1.5-1.6v-26.5c0-0.8 0.7-1.5 1.5-1.5 0.9 0 1.6 0.7 1.6 1.5v26.5c0 0.9-0.7 1.6-1.6 1.6z"/><path class="o" d="m480.2 364.9c-0.9 0-1.6-0.7-1.6-1.5v-26.5c0-0.9 0.7-1.6 1.6-1.6 0.8 0 1.5 0.7 1.5 1.6v26.5c0 0.8-0.7 1.5-1.5 1.5z"/><path class="o" d="m470.4 370.5c-0.8 0-1.5-0.6-1.5-1.5v-26.5c0-0.8 0.7-1.5 1.5-1.5 0.9 0 1.6 0.7 1.6 1.5v26.5c0 0.9-0.7 1.5-1.6 1.5z"/><path class="o" d="m460.7 376.2c-0.9 0-1.6-0.7-1.6-1.6v-26.5c0-0.8 0.7-1.5 1.6-1.5 0.8 0 1.5 0.7 1.5 1.5v26.5c0 0.9-0.7 1.6-1.5 1.6z"/><path class="o" d="m450.9 381.8c-0.8 0-1.5-0.7-1.5-1.5v-26.5c0-0.9 0.7-1.6 1.5-1.6 0.9 0 1.5 0.7 1.5 1.6v26.5c0 0.8-0.6 1.5-1.5 1.5z"/><path class="o" d="m441.2 387.4c-0.9 0-1.6-0.6-1.6-1.5v-26.5c0-0.8 0.7-1.5 1.6-1.5 0.8 0 1.5 0.7 1.5 1.5v26.5c0 0.9-0.7 1.5-1.5 1.5z"/><path class="o" d="m431.4 393.1c-0.9 0-1.5-0.7-1.5-1.6v-26.5c0-0.8 0.6-1.5 1.5-1.5 0.8 0 1.5 0.7 1.5 1.5v26.5c0 0.9-0.7 1.6-1.5 1.6z"/><path class="o" d="m431.4 393.1c-0.9 0-1.5-0.7-1.5-1.6v-26.5c0-0.8 0.6-1.5 1.5-1.5 0.8 0 1.5 0.7 1.5 1.5v26.5c0 0.9-0.7 1.6-1.5 1.6z"/><path class="o" d="m422.6 388.1c-0.9 0-1.5-0.6-1.5-1.5v-26.5c0-0.8 0.6-1.5 1.5-1.5 0.8 0 1.5 0.7 1.5 1.5v26.5c0 0.9-0.7 1.5-1.5 1.5z"/><path class="o" d="m413.8 383.2c-0.9 0-1.5-0.7-1.5-1.5v-26.5c0-0.9 0.6-1.6 1.5-1.6 0.8 0 1.5 0.7 1.5 1.6v26.5c0 0.8-0.7 1.5-1.5 1.5z"/><path class="o" d="m405 378.3c-0.9 0-1.5-0.7-1.5-1.6v-26.5c0-0.8 0.6-1.5 1.5-1.5 0.8 0 1.5 0.7 1.5 1.5v26.5c0 0.9-0.7 1.6-1.5 1.6z"/><path class="o" d="m396.2 373.3c-0.9 0-1.5-0.7-1.5-1.5v-26.5c0-0.8 0.6-1.5 1.5-1.5 0.8 0 1.5 0.7 1.5 1.5v26.5c0 0.8-0.7 1.5-1.5 1.5z"/><path class="u" d="m134.1 202.1l-133.8 100.2 31.3-18.1 103.7-79.8z"/><path class="v" d="m484.3-0.1l132.2 254.4-134.8 77.9-13.3-25.1v-68.8l-39.7-28.2-39.7 74.1v68.7l13.1 25.2-135.8 78.4-132.2-254.4z"/><path class="j" d="m327.1 150.3l10.5 104 20.3 38.9 16 30.8 15.1 28.9v-20.9-27.7-3.4-17.1l39.7-73.7z"/><path class="t" d="m357.9 293.2l16 30.8 15.1 8v-31.1z"/><path class="u" d="m438.9 216.1l-0.5 0.9 30 21.3v1.6l22.4 12.9z"/><path class="w" d="m438.9 216.1l-52.3 96.8-61.6-35.5 2.1-127.1z"/><path class="x" d="m291.1 301.3l-29.5-56.3-39.4 22.4 29.2 56.7z"/><path class="y" d="m261.6 245l-2.6 8.5 26.7 50.9 5.4-3.1z"/><path class="z" d="m261.6 245l-2.6 8.5-33.9 19.6-2.9-5.7z"/><path class="o" d="m274 268.8l-2.9-4.3-39.1 22 2.2 5.1z"/><path class="A" d="m273 266.7l-1.9-2.2-39.1 22 1.3 2.9z"/><path class="y" d="m261.6 245l-2.6 8.5 26.7 50.9 5.4-3.1z"/><path class="z" d="m261.6 245l-2.6 8.5-33.9 19.6-2.9-5.7z"/><path class="x" d="m519 169.5l-29.5-56.3-39.4 22.4 29.2 56.7z"/><path class="z" d="m489.5 113.2l-2.6 8.5-33.9 19.6-2.9-5.7z"/><path class="o" d="m502.4 138.3l-2.9-4.2-39.1 21.9 2.3 5.1z"/><path class="A" d="m501.4 136.2l-1.9-2.1-39.1 21.9 1.3 3z"/><path class="y" d="m489.5 113.2l-2.6 8.5 26.7 50.9 5.4-3.1z"/><path class="B" d="m0.3 302.3v7l135-100.9 131 250.3v-2.2l-132.2-254.4z"/><path class="C" d="m402.1 378.1v2.2l-135.8 78.4v-2.2z"/><path class="D" d="m490.8 252.8v5.5l-52.4-36.6-51.5 94.2-0.3-3 52.3-96.8z"/><path class="D" d="m386.6 312.9l0.3 3-61.9-36v-2.5z"/><path class="n" d="m463 333.6c-0.8 0-1.5-0.7-1.5-1.6v-26.5c0-0.8 0.7-1.5 1.5-1.5 0.9 0 1.5 0.7 1.5 1.5v26.5c0 0.9-0.6 1.6-1.5 1.6z"/><path class="n" d="m471.7 338.6c-0.9 0-1.6-0.7-1.6-1.5v-26.5c0-0.9 0.7-1.6 1.6-1.6 0.8 0 1.5 0.7 1.5 1.6v26.5c0 0.8-0.7 1.5-1.5 1.5z"/><path class="n" d="m480.4 343.6c-0.9 0-1.6-0.7-1.6-1.5v-26.5c0-0.9 0.7-1.6 1.6-1.6 0.8 0 1.5 0.7 1.5 1.6v26.5c0 0.8-0.7 1.5-1.5 1.5z"/><path class="n" d="m489 348.6c-0.8 0-1.5-0.7-1.5-1.5v-26.5c0-0.9 0.7-1.5 1.5-1.5 0.9 0 1.6 0.6 1.6 1.5v26.5c0 0.8-0.7 1.5-1.6 1.5z"/><path class="n" d="m497.7 353.6c-0.9 0-1.5-0.6-1.5-1.5v-26.5c0-0.8 0.6-1.5 1.5-1.5 0.8 0 1.5 0.7 1.5 1.5v26.5c0 0.9-0.7 1.5-1.5 1.5z"/><path class="o" d="m465 333.6c-0.8 0-1.5-0.7-1.5-1.6v-26.5c0-0.8 0.7-1.5 1.5-1.5 0.9 0 1.5 0.7 1.5 1.5v26.5c0 0.9-0.6 1.6-1.5 1.6z"/><path class="o" d="m473.7 338.6c-0.9 0-1.6-0.7-1.6-1.5v-26.5c0-0.9 0.7-1.6 1.6-1.6 0.8 0 1.5 0.7 1.5 1.6v26.5c0 0.8-0.7 1.5-1.5 1.5z"/><path class="o" d="m482.4 343.6c-0.9 0-1.6-0.7-1.6-1.5v-26.5c0-0.9 0.7-1.6 1.6-1.6 0.8 0 1.5 0.7 1.5 1.6v26.5c0 0.8-0.7 1.5-1.5 1.5z"/><path class="o" d="m491 348.6c-0.8 0-1.5-0.7-1.5-1.5v-26.5c0-0.9 0.7-1.5 1.5-1.5 0.9 0 1.6 0.6 1.6 1.5v26.5c0 0.8-0.7 1.5-1.6 1.5z"/><path class="o" d="m499.7 353.6c-0.9 0-1.5-0.6-1.5-1.5v-26.5c0-0.8 0.6-1.5 1.5-1.5 0.8 0 1.5 0.7 1.5 1.5v26.5c0 0.9-0.7 1.5-1.5 1.5z"/><path class="C" d="m616.5 254.3v2.2l-121.8 69.9v-2.5z"/><path class="o" d="m429.4 367.6q-0.7 0-1.3-0.3l-35.2-19.8c-1.2-0.7-1.6-2.2-0.9-3.5 0.6-1.2 2.2-1.6 3.4-0.9l34 19 63.2-36.5-30.9-17.8c-1.2-0.7-1.6-2.3-0.9-3.5 0.7-1.3 2.3-1.7 3.5-1l34.7 20.1c0.8 0.4 1.3 1.3 1.3 2.2 0 0.9-0.5 1.8-1.3 2.2l-68.3 39.5q-0.6 0.3-1.3 0.3z"/><path class="E" d="m415.3 530.4l-145.4 84.1v-37l145.6-84.1z"/><path class="E" d="m455 470.6l39.6-22.9 0.1 36.8-39.7 23z"/><path class="E" d="m572.1 403.5l29.9-17.8v36.9l-29.9 17.2z"/><path class="F" d="m269.9 577.5v36.8l-253.6-146.4v-36.8z"/><path class="G" d="m16.3 431.1l15.3-8.9v9.2l238.3 137.6v8.5z"/><path class="H" d="m455 470.6l39.6-22.9-6.3-3.7-39.8 22.8z"/><path class="H" d="m408.9 489.7l-139 79.3v8.5l145.5-84.1z"/><path class="H" d="m572.1 403.5l29.9-17.8-14.5-8.4v9.5l-21.7 13z"/><path class="I" d="m565.8 399.8l6.3 3.7v36.3l-6.3-3.6z"/><path class="I" d="m455 507.5v-36.9l-6.5-3.8v35.2z"/><path class="J" d="m467.7 475.5v4.9l-54 31.3v-5.1z"/><path class="j" d="m413.7 506.6v5.1l5.2 3v5.1h-0.1 0.1l5.2 3v5.1h-0.1l5.2 3v5 0.1l5.2 3v5l5.1 3.1v5l-31-17.7v-30.8z"/><path class="p" d="m415.3 499.7v-6.3l-6.4-3.7v-1.6l33.2-18.9 12.9 7.5 7.4-4.2 5.3 3-54 31.1-5.2-3z"/><path class="p" d="m467.7 480.4l-54 31.3 5.2 3 54-31.3z"/><path class="p" d="m478.1 491.5l-54 31.3-5.2-3 54-31.3z"/><path class="p" d="m483.1 499.5l-53.9 31.4-5.2-3.1 53.9-31.3z"/><path class="p" d="m483.1 504.6l-53.9 31.3 5.2 3.1 53.9-31.4z"/><path class="p" d="m493.5 515.7l-54 31.4-5.1-3.1 53.9-31.3z"/><path class="J" d="m472.9 483.4v5.1l-54 31.3v-5.1z"/><path class="J" d="m424.1 522.8l-0.1 5 53.9-31.3 0.2-5z"/><path class="J" d="m483.1 499.5v5.1l-53.9 31.3v-5z"/><path class="J" d="m488.3 507.6v5.1l-53.9 31.3v-5z"/><path class="J" d="m493.5 515.7v5.3l-54 31.1v-5z"/><path class="I" d="m405.4 536.2v-30.5l3.1-2.1v30.8z"/><path class="c" d="m210.3 496v-62.6l-33.2-19.5v62.6z"/><g clip-path="url(#cp9)"><path class="d" d="m194.1 507.8h-5.6v-102.2h5.6z"/><path class="g" d="m194.1 507.8h-2.8v-102.2h2.8z"/><path class="d" d="m242.1 471.2l-1 1.8-88.7-52 1-1.8z"/><path class="d" d="m242.1 491.8l-1 1.8-88.7-52 1-1.8z"/></g><path class="c" d="m130.9 449.2v-61.6l-33.2-19.2v61.6z"/><g clip-path="url(#cp10)"><path class="d" d="m115.9 461h-5.7v-100.6h5.7z"/><path class="g" d="m115.9 461h-2.8v-100.6h2.8z"/><path class="d" d="m162.7 424.8l-1 1.8-88.7-51.2 1-1.8z"/><path class="d" d="m162.7 445.1l-1 1.7-88.7-51.2 1-1.7z"/></g></svg>