<svg version="1.2" xmlns="http://www.w3.org/2000/svg" viewBox="0 0 33 33" width="33" height="33"><style>.a{fill:#fff;stroke:#fff;stroke-width:.4}</style><path class="a" d="m12.9 8.8h15.6c2.2 0 3.9-1.7 3.9-3.9 0-2.2-1.7-3.9-3.9-3.9h-15.7c-2.1 0-3.9 1.7-3.9 3.9 0 2.2-1.7 3.9-3.9 3.9h-0.2c-2 0-3.7 1.7-3.7 3.8 0 2.1 1.7 3.8 3.7 3.8h0.5c2.1 0 3.8-1.7 3.8-3.8 0-2.1 1.7-3.8 3.8-3.8z"/><path class="a" d="m12.9 24.4h10.1c2.2 0 3.9-1.7 3.9-3.9 0-2.1-1.7-3.9-3.9-3.9h-10.2c-2.1 0-3.9 1.8-3.9 3.9 0 2.2-1.7 3.9-3.9 3.9h-0.2c-2 0-3.7 1.7-3.7 3.8 0 2.1 1.7 3.8 3.7 3.8h0.5c2.1 0 3.8-1.7 3.8-3.8 0-2.1 1.7-3.8 3.8-3.8z"/></svg>