<svg version="1.2" xmlns="http://www.w3.org/2000/svg" viewBox="0 0 142 211" width="142" height="211"><style>.a{fill:#d3c7ba}.b{fill:#473029}.c{fill:#5e3c36}.d{fill:#704c47}.e{fill:#563b35}.f{fill:#c1b3a7}.g{fill:#eae0d6}.h{fill:#a5c845}.i{fill:#8ab135}.j{fill:#fff}.k{fill:#ffc5b3}.l{fill:#ffa08d}</style><path fill-rule="evenodd" class="a" d="m72.9 16.6v108.7h-3.7v-20.2l-37.3 21.5v30.6h-3.7v-64.2c0-3 1.6-5.8 4.3-7.3l36.7-21.2v-47.9zm-3.8 84.8v-33.2l-32.9 19.1c-2.7 1.5-4.3 4.3-4.3 7.3v28.3z"/><path class="a" d="m31 149.3l-8.3 4.8c-2.7 1.5-4.3 4.3-4.3 7.4v9h3.7v-7.5c0-3 1.6-5.8 4.3-7.3l4.6-2.7z"/><path class="a" d="m63.8 139.3l-29.2 16.9v3.7l29.2-16.9z"/><path class="b" d="m90.7 117.5c0 13.3-8.1 28.8-18.1 34.6-4.6 2.7-8.8 2.8-12 0.8-3.7-2.3-6.1-7.4-6.1-14.5 0-13.3 8.1-28.8 18.1-34.6 10-5.8 18.1 0.4 18.1 13.7z"/><path class="b" d="m64.8 155.4l-4-2.4 2.8-1.2z"/><path class="b" d="m83.8 102.5l4.6 2.7c0 0-3.1 0.8-3.2 0.8 0 0-1.4-3.5-1.4-3.5z"/><path class="c" d="m94.5 119.7c0 13.3-8.1 28.8-18.1 34.6-10 5.8-18.1-0.4-18.1-13.7 0-13.3 8.1-28.8 18.1-34.6 10-5.7 18.1 0.4 18.1 13.7z"/><path class="a" d="m80.2 128c0 2.8-1.7 6-3.8 7.2-2.1 1.2-3.8-0.1-3.8-2.9 0-2.7 1.7-6 3.8-7.2 2.1-1.2 3.8 0.1 3.8 2.9z"/><path class="b" d="m40.7 157.5c0 6.6-4.1 14.4-9.1 17.2-4.9 2.9-9-0.1-9-6.8 0-6.6 4.1-14.4 9-17.2 5-2.9 9.1 0.1 9.1 6.8z"/><path class="b" d="m25.7 175.2l3.1 1.8v-2.6z"/><path class="b" d="m37.4 150.1l3.3 1.9-1.5 0.7-2.4-2.3z"/><path class="c" d="m43.6 159.2c0 6.7-4 14.4-9 17.3-5 2.8-9-0.2-9-6.9 0-6.6 4-14.3 9-17.2 5-2.9 9 0.2 9 6.8z"/><path class="a" d="m38.4 162.2c0 2.8-1.7 6.1-3.8 7.3-2.1 1.2-3.8-0.1-3.8-2.9 0-2.8 1.7-6 3.8-7.2 2.1-1.2 3.8 0 3.8 2.8z"/><path class="d" d="m31.9 80.2l6.1 3.5 29.9-17.2-6.2-3.5z"/><path class="e" d="m31.9 80.2v3.7l6.1 3.5v-3.7z"/><path class="b" d="m67.9 66.5l-29.9 17.2v3.7l29.9-17.3z"/><path class="c" d="m78.2 1.4l-3.8 2.2c-2.9 1.7-5.2 5.8-5.2 9.1v9c0 0 0.8 0.7 2.1 0.7 1.3 0 1.6-0.7 1.6-0.7v-7.4c0-3.1 1.6-5.9 4.2-7.4l4.6-2.6v-0.8c0-1.8-1.9-3-3.5-2.1z"/><path class="e" d="m29.4 124.5v4l46.8 27.2v-4.1z"/><path class="d" d="m29.4 124.5l46.8 27.1 39.9-23.2-46.9-27z"/><path class="a" d="m47.1 206.6v4.1l22-12.8v-4.1z"/><path class="f" d="m0.2 179.5v4l46.9 27.2v-4.1z"/><path class="g" d="m0.2 179.5l46.9 27.1 22-12.8-46.7-27z"/><path class="h" d="m21.1 167.9c0 0-4.2 5.9-7.6 9.8-4.1 4.5-5.8 5.6-6.8 8.1-0.9 2.5 3.6 8.5 11.6 3.9 7.9-4.5 9.3-5.8 12-8.3 3.4-3.2 7-5.3 7.6-9.9 0.5-4-2.6-6.5-2.6-6.5 0 0-0.7 2.7-5.5 5.4-3.5 2-8.7-2.5-8.7-2.5z"/><path class="i" d="m6.7 185.8c0 0 5.3 3.2 6 3.5 4.5 2.1 8.9-2.7 13.3-5.7 4.3-2.9 7-5.9 8.7-9.1 1.7-3.2 3.2-4.7 3.2-4.7 0 0 2.7 6.2-1 8.4-4.5 2.7-11.8 8-13.9 9.3-1.7 1-10.5 7.7-15.5 2.7-1.2-1.2-1.4-2.3-0.8-4.4z"/><path class="j" d="m18.1 172c0 0 2 0.8 4 3 1.5 1.8 2.5 3.2 2.5 3.2l-1.6 1.2c0 0-2.7-2.7-4-4.1-0.4-0.5-2.3-1.5-2.3-1.5z"/><path class="j" d="m15.2 175.7c0 0 2.1 0.9 4.1 3.1 1.5 1.8 1.9 2.6 1.9 2.6l-1.4 1.6c0 0-2.3-2.5-3.6-3.9-0.4-0.5-2.5-1.7-2.5-1.7z"/><path class="h" d="m47.2 182.3c0 0-4.1 5.9-7.6 9.7-4 4.6-5.8 5.7-6.7 8.2-1 2.4 3.6 8.4 11.5 3.9 7.9-4.6 9.3-5.9 12-8.4 3.5-3.2 7.1-5.3 7.6-9.9 0.5-3.9-2.6-6.4-2.6-6.4 0 0-0.7 2.7-5.4 5.4-3.6 2-8.8-2.5-8.8-2.5z"/><path class="i" d="m32.9 200.2c0 0 5.2 3.2 5.9 3.5 4.6 2 8.9-2.8 13.3-5.7 4.3-3 7-6 8.7-9.2 1.7-3.1 3.3-4.6 3.3-4.6 0 0 2.6 6.1-1.1 8.3-4.5 2.8-11.8 8.1-13.8 9.3-1.8 1.1-10.6 7.7-15.6 2.7-1.2-1.1-1.4-2.3-0.7-4.3z"/><path class="j" d="m44.2 186.4c0 0 2 0.7 4 3 1.5 1.7 2.5 3.1 2.5 3.1l-1.6 1.3c0 0-2.7-2.8-4-4.2-0.4-0.4-2.3-1.5-2.3-1.5z"/><path class="j" d="m41.3 190.1c0 0 2.1 0.8 4.1 3 1.5 1.8 2 2.6 2 2.6l-1.5 1.6c0 0-2.3-2.5-3.6-3.9-0.4-0.4-2.4-1.7-2.4-1.7z"/><path class="b" d="m68.3 90c0 0-30.6 21.6-36.6 25.6-3 2.1-3.4 7.4-4.2 11.6-0.8 4.1-6 31.6-8.9 41.4 3.9 2.8 13.8 12.6 17.1 10.6 3.2-1.9 3.2-1.9 3.2-1.9l7.9-44.4c0 0 19.7-10.7 22.8-12.4-5.7 4.7-12.1 9-15.4 13.1-2.4 3-1.9 7.5-2.5 11.5-1.9 12.5-7.1 38.5-7.1 38.5 0 0 6.8 6.4 11.9 8.5 4.2 1.8 10.4 0.8 10.4 0.8l6.5-46.1c0 0 21.1-14 30-17.2 11.4-4.3 8.8-27.2 8.8-27.2z"/><path class="k" d="m58.5 54.6c0 0-5.1 14.3-6.6 22.3-0.9 4.8-2 23.8-2 27 0 2.2 1.2 6.2 2.7 11 1.6 4.8 8.5 3.8 9.1-2.7 0.7-6.4-2.4-7.3-3-10.8-0.2-1.5 2.2-9 2.6-14 0.4-4.8 2-9.1 2.9-10.5 5.3-7.6 5.4-12.4 5.4-12.4 0 0 6-8.1-11.1-9.9z"/><path class="i" d="m77.5 30.1c0 0-7-0.1-12.1 9.4-5.1 9.5-7.1 15.7-7.1 15.7 0 0 8.2 0.9 16.2 8.3 11-9.9 11.2-28.8 3-33.4z"/><path class="h" d="m77.1 33c0 0-9.5 9.4-8.8 25.9 1 24.5-6.1 31.4-6.1 31.4 0 0 9.7 18.3 27.3 18.3 12.2 0 20.5-1.5 22.7-6.2-1.5-16.7 4.8-44.9 3.9-51.2-0.8-6.3-15.5-15.5-15.5-15.5 0 0-12.9-6.9-23.5-2.7z"/><path class="k" d="m94.3 72.9c0 0-4.2 14.5-7.4 20.6-1.9 3.7-12.1 14-15.2 17.3-7.3 7.9-7.9 14.3-7.9 14.3 0 0 7.2 1.4 11.4-4.2 3.5-4.6 18.9-18.3 23-22.9 4.1-4.5 11.8-19.6 11.8-19.6z"/><path class="l" d="m84.6 31l-1.9 10.7c0 0 5.5 6.1 10.8 1.6 5.3-4.6 6.1-6.7 6.1-6.7l-2.6-14.6z"/><path class="k" d="m92.1 6c-4.6-3.5-18.9-5.2-19.3 6.5-0.4 13.8 6.5 26.3 12.1 23.8 3.2-1.4 9.8-6.3 11.7-12.4 2.1-7-1-15.2-4.5-17.9z"/><path class="g" d="m87.9 0.5c-12-1.7-17.7 7-17.1 13.7 0.1 1.6 2.5 5.8 2.5 5.8 0 0-0.1-2.9-0.1-3.9 0-6.2 3.2-8.9 13.8-5.1 5.9 2.1 4.5 9.6 4.5 13 1-0.3 1.8-1 1.8-1 0 0-0.2-4.5 2.2-3.7 1.7 0.6 1.5 2.7 1.5 2.7 0 0 2.6-3.2 3-7.2 0.1-1.3-0.1-12.5-12.1-14.3z"/><path fill-rule="evenodd" class="a" d="m119.9 43.6v108.7h-3.8v-20.2l-37.2 21.5v30.6h-3.7v-64.1c0-3.1 1.6-5.9 4.3-7.4l36.6-21.2v-47.9zm-3.7 84.8v-33.1l-32.9 19c-2.7 1.5-4.3 4.3-4.3 7.4v28.2z"/><path class="a" d="m78 176.3l-8.4 4.8c-2.6 1.5-4.2 4.4-4.2 7.4v9h3.7v-7.4c0-3.1 1.6-5.9 4.2-7.4l4.7-2.7z"/><path class="a" d="m110.8 166.3l-29.2 16.9v3.7l29.2-16.9z"/><path class="b" d="m137.7 144.5c0 13.3-8.1 28.8-18.1 34.6-4.6 2.7-8.9 2.8-12.1 0.8-3.7-2.3-6-7.4-6-14.5 0-13.3 8.1-28.8 18.1-34.6 10-5.7 18.1 0.4 18.1 13.7z"/><path class="b" d="m111.7 182.4l-3.9-2.4 2.8-1.2z"/><path class="b" d="m130.8 129.6l4.6 2.6c0 0-3.2 0.8-3.2 0.8-0.1 0.1-1.4-3.4-1.4-3.4z"/><path class="c" d="m141.5 146.7c0 13.4-8.1 28.8-18.1 34.6-10 5.8-18.1-0.3-18.1-13.7 0-13.3 8.1-28.8 18.1-34.5 10-5.8 18.1 0.3 18.1 13.6z"/><path class="j" d="m127.2 155c0 2.8-1.7 6-3.8 7.2-2.1 1.3-3.8 0-3.8-2.8 0-2.8 1.7-6.1 3.8-7.3 2.1-1.2 3.8 0.1 3.8 2.9z"/><path class="b" d="m87.6 184.5c0 6.7-4 14.4-9 17.3-5 2.8-9-0.2-9-6.9 0-6.6 4-14.3 9-17.2 5-2.9 9 0.2 9 6.8z"/><path class="b" d="m72.7 202.2l3.1 1.8v-2.6z"/><path class="b" d="m84.4 177.1l3.2 1.9-1.4 0.7-2.4-2.2z"/><path class="c" d="m90.6 186.2c0 6.7-4 14.4-9 17.3-5 2.9-9-0.2-9-6.8 0-6.7 4-14.4 9-17.3 5-2.9 9 0.2 9 6.8z"/><path class="j" d="m85.4 189.3c0 2.8-1.7 6-3.8 7.2-2.1 1.2-3.8-0.1-3.8-2.9 0-2.8 1.7-6 3.8-7.2 2.1-1.2 3.8 0.1 3.8 2.9z"/><path class="d" d="m78.9 107.3l6.1 3.5 29.8-17.3-6.1-3.5z"/><path class="e" d="m78.9 107.3v3.6l6.1 3.5v-3.6z"/><path class="b" d="m114.8 93.5l-29.8 17.3v3.6l29.8-17.3z"/><path class="i" d="m112.6 44.4c4 2.4 4.9 8.4 2.2 19.7-1.3 5.7-2.5 9.9-4.8 14.3-5.2 1.3-15.7-5.5-15.7-5.5 0 0 3-8.3 5.4-13.9 3.7-8.8 8.5-17.1 12.9-14.6z"/><path class="c" d="m125.1 28.9l-3.7 2.2c-2.9 1.6-5.3 5.7-5.3 9.1v9c0 0 0.9 0.7 2.2 0.7 1.3 0 1.6-0.7 1.6-0.7v-7.4c0-3.1 1.6-5.9 4.2-7.4l4.6-2.7v-0.7c0-1.8-2-3-3.6-2.1z"/></svg>