<svg version="1.2" xmlns="http://www.w3.org/2000/svg" viewBox="0 0 130 121" width="130" height="121"><style>.a{fill:#1d2936}.b{fill:#121a21}.c{fill:#f1c40f}.d{fill:#ffe578}.e{fill:#d35400}.f{fill:#34495e}.g{fill:#1c2833}.h{fill:#0f161c}.i{fill:#ecf0f1}.j{fill:#f39c12}.k{fill:#273747}.l{fill:#ffe780}.m{fill:#4c6b8a}.n{fill:#c0392b}.o{fill:#e74c3c}.p{fill:#5b81a6}.q{fill:#425c78}.r{fill:#2c3e50}.s{fill:#e67e22}</style><path class="a" d="m37.3 28.8l-7.1 3.6-12.7 21.5v11.8l18.1 20.4 20.5-0.5 14.7-18.1 9.1-5.3 23.7-54.4v-6.2l-4.5 2.6v-4.1l-17.4 10c0 0-3.6 6.8-10.3 10.7-6.7 3.9-11.5 6.6-11.5 6.6l-6.9 13.4v4.3l4.3-2.5 3.2 6.9-11.4 19.8-11.1 6.4-11.4-12.1v-7.4z"/><path class="b" d="m74.1 57.3l-13.6-7.8 10.4 0.9z"/><path class="c" d="m17.5 65.7v-11.8l12.7-21.5 5.7-2.9-11.5 27.4v8.8l12.2 12.9 5.5 1-4.1 5.1-2.4 1.4z"/><path class="d" d="m30.2 32.4l13.6 7.8 5.7-2.8-10.7-9.6z"/><path class="e" d="m45.7 39.2l3.8-1.8-10.7-9.6-6.7 3.6z"/><path class="c" d="m34.5 30.4v-2l-3.3 1.9v-4.5l5-8.6 3.7-1.4-4 13.7z"/><path class="f" d="m35.9 29.5l4-13.7 1.2 0.6-3.4 10.9z"/><path class="g" d="m105.8 29.3c-2.8-1.6-6.6-1.4-10.8 1-8.3 4.9-15.1 16.6-15.1 26.2 0 4.9 1.7 8.2 4.4 9.8l13.5 7.8 21.4-37z"/><path class="h" d="m102.3 37.7l5.6-6.1-9.7-2.6v5.5l-11 16.5-14.7 26.7 15.1-12 6.4-16.2z"/><path class="f" d="m92.8 64c0 9.6 6.8 13.5 15.1 8.7 8.4-4.8 15.1-16.5 15.1-26.2 0-9.6-6.7-13.5-15.1-8.7-8.3 4.8-15.1 16.5-15.1 26.2z"/><path class="i" d="m101.1 67c9.9 3.1 21.2-16.5 13.6-23.5-9.9-3.1-21.2 16.5-13.6 23.5z"/><path class="f" d="m107.9 59.2c1.9-1.1 3.4-3.8 3.4-5.9 0-2.2-1.5-3.1-3.4-2-1.9 1.1-3.4 3.7-3.4 5.9 0 2.2 1.5 3.1 3.4 2z"/><path class="g" d="m26.6 75c-2.7-1.7-6.5-1.4-10.7 1-8.3 4.8-15.1 16.5-15.1 26.2 0 4.8 1.7 8.2 4.4 9.8l13.5 7.8 21.4-37.1z"/><path class="j" d="m18.5 66.9c-8.2 0.9-13 12.4-12.7 15.4l13.6 7.9c1.2-5.3 9.3-15.5 12.7-15.4z"/><path class="f" d="m13.6 109.7c0 9.7 6.7 13.6 15.1 8.8 8.3-4.9 15.1-16.6 15.1-26.2 0-9.7-6.8-13.6-15.1-8.8-8.4 4.9-15.1 16.6-15.1 26.2z"/><path class="i" d="m21.9 112.7c9.9 3.1 21.2-16.4 13.6-23.4-9.9-3.1-21.2 16.4-13.6 23.4z"/><path class="f" d="m28.7 104.9c1.9-1.1 3.4-3.7 3.4-5.9 0-2.2-1.5-3-3.4-2-1.9 1.1-3.4 3.8-3.4 6 0 2.1 1.5 3 3.4 1.9z"/><path class="k" d="m50.8 36.7l-7 3.5-12.8 21.6v11.8l18.2 20.3 22.5-13 31-46.3 9.2-5.3 5.3-13.6v-6.3l-4.6 2.7v-4.2l-17.3 10c0 0-3.6 6.8-10.3 10.7-6.8 3.9-11.6 6.7-11.6 6.7l-6.9 13.3v4.3l4.4-2.5 3.2 6.9-11.4 19.8-11.1 6.4-11.4-12.1v-7.4z"/><path class="l" d="m117.2 9.4l-4.6 2.7-13.5-7.9 4.5-2.6z"/><path class="m" d="m66.5 52.9l-13.5-7.8v-4.3l6.9-13.3c0 0 4.8-2.8 11.5-6.7 6.8-3.9 10.4-10.7 10.4-10.7l17.3-10 2.1 16.8-25.9 21.9z"/><path class="f" d="m70.9 50.4l-4.4 2.5v-4.3l6.9-13.3c0 0 4.8-2.8 11.6-6.7 6.7-3.9 10.3-10.7 10.3-10.7l17.3-10v4.2l-31.1 30.9z"/><path class="l" d="m103.6 1.6l13.6 7.8z"/><path class="c" d="m81.5 40.5l31.1-28.4 4.6-2.7v6.3l-5.3 13.6-9.2 5.3-21.2 10z"/><path class="c" d="m31 73.6v-11.8l12.8-21.6 5.7-2.8-11.5 27.4v8.8l12.2 12.8 8.4-4.5-7.1 10.7-2.3 1.3z"/><path class="n" d="m119.3 13.5l-2.1 1.2v-5.3l2.1-1.2z"/><path class="o" d="m105.7 0.4l-2.1 1.2 13.6 7.8 2.1-1.2z"/><path class="c" d="m32.1 74.8c-8.3 0.8-13.1 12.3-12.7 15.4l2.2-1.3c1.2-5.2 9.4-11.1 12.9-11.1z"/><path class="f" d="m107.9 31.6l21.6 2.1-15.3-8.5 3-3.5-1.1-3.2z"/><path class="c" d="m48 38.2l0.1-2-3.3 1.9v-4.5l5-8.5 3.7-1.4-4 13.7z"/><path class="f" d="m49.5 37.4l4-13.7 1.2 0.5-3.4 10.9z"/><path class="p" d="m99.1 0.1l13.5 7.8-17.3 10-13.5-7.8z"/><path class="q" d="m59.9 27.5l13.5 7.8-6.9 13.3-13.5-7.8z"/><path class="r" d="m66.5 48.6v4.3l-13.5-7.8v-4.3z"/><path class="d" d="m39.9 15.8l13.6 7.9-3.7 1.4-13.6-7.9z"/><path class="j" d="m36.2 17.2l13.6 7.9-5 8.5-13.6-7.8z"/><path class="i" d="m34 25.1l2.9-5.1 10.1 5.8-2.9 5.1z"/><path class="f" d="m41.1 16.4l13.6 7.8-1.2-0.5-13.6-7.9z"/><path class="s" d="m31.2 30.3l13.6 7.8v-4.5l-13.6-7.8z"/><path class="j" d="m30.2 32.4l13.6 7.8-12.8 21.6-13.5-7.9z"/><path class="s" d="m31 61.8v11.8l-13.5-7.9v-11.8z"/><path class="e" d="m17.5 65.7l13.5 7.9 1.1 1.2-13.6-7.9z"/><path class="f" d="m21.3 13.9c-0.3-0.1-0.7-0.1-1.2 0.2-1 0.5-1.8 1.9-1.8 3 0 0.6 0.2 1 0.5 1.1l12.6 7.3 2.5-4.3z"/><path class="g" d="m18.5 16.1q-0.2 0.5-0.2 1c0 0.6 0.2 1 0.5 1.1l12.6 7.3 0.9-1.5z"/><path class="g" d="m48.6 30.8q-0.3-0.1-0.8 0.1c-0.5 0.3-1 1.2-1 1.8q0 0.5 0.3 0.7l6.2 3.6 1.5-2.6z"/><path class="f" d="m53.1 32.3c-0.4-0.2-0.8-0.2-1.3 0.1-1 0.5-1.8 1.9-1.8 3 0 0.6 0.2 1 0.6 1.2l10.3 5.9 2.4-4.3z"/><path class="g" d="m50.2 34.4q-0.1 0.5-0.2 1c0 0.6 0.2 1 0.6 1.2l10.3 5.9 0.8-1.5z"/><path class="r" d="m63.9 39.3c0 1.2-0.8 2.5-1.8 3.1-1 0.5-1.8 0.1-1.8-1 0-1.1 0.8-2.5 1.8-3.1 1-0.5 1.8-0.1 1.8 1z"/><path class="i" d="m62.9 40.8c-1.2 1.7-2.5 0.9-1.6-0.9 1.2-1.7 2.5-0.9 1.6 0.9z"/></svg>