<svg version="1.2" xmlns="http://www.w3.org/2000/svg" viewBox="0 0 821 628" width="821" height="628"><style>.a{fill:#407bff}.b{opacity:.5;fill:#fff}.c{opacity:.2}.d{opacity:.1}.e{fill:#263238}.f{fill:#fff}.g{opacity:.3}</style><path class="a" d="m723.1 188.9l-308.9-114.1v-1.5l-2 0.7-2-0.7v1.5l-308.9 114.1-97.9 62.7c0 0 20.4-13 43 7.2 0 0 14.5 8.3 7.9 28.1 0 0 34.6-19.8 120.8-9.5 86.2 10.3 95.6 27.2 95.6 27.2 0 0 46.2-23.7 140.5-17.9 101.5 0.4 142.5 17.9 142.5 17.9 0 0 9.5-16.9 95.6-27.2 86.2-10.3 120.8 9.5 120.8 9.5-6.6-19.8 7.9-28.1 7.9-28.1 23.6-21 44.3-6.4 43.1-7.2z"/><path class="b" d="m180.1 159.8l-125.8 127.1c0 0 34.6-19.8 120.8-9.5 86.2 10.3 95.6 27.2 95.6 27.2q0 0 1.4-0.7l43.1-194z"/><path class="b" d="m649.3 277.4c86.2-10.3 120.8 9.5 120.8 9.5q-0.2-0.6-0.3-1.2l-141.3-131.7-127.4-47.1 52.6 197.7c0 0 9.5-16.9 95.6-27.2z"/><path class="c" d="m723.1 188.9l-308.9-114.1v-1.5l-2 0.7-2-0.7v1.5l-308.9 114.1-97.9 62.7c0 0 20.4-13 43 7.2 0 0 14.5 8.3 7.9 28.1 0 0 34.6-19.8 120.8-9.5 86.2 10.3 95.6 27.2 95.6 27.2 0 0 46.2-23.7 140.5-17.9 101.5 0.4 142.5 17.9 142.5 17.9 0 0 9.5-16.9 95.6-27.2 86.2-10.3 120.8 9.5 120.8 9.5-6.6-19.8 7.9-28.1 7.9-28.1 23.6-21 44.3-6.4 43.1-7.2z"/><path class="d" d="m432 208.9v21.1 57c0 0-16.4 1.1-16.4 0 0-1.1-4.1-78.3-4.1-78.3z"/><path class="e" d="m271.5 312.7c7.2-26.5 13.6-53.4 20.2-80.1q10.4-42.6 20.6-85.2 2.2-9 4.3-17.9c0.5-1.9-2.4-2.7-2.9-0.8q-6 25.1-12 50.1c-7.6 31.2-15.1 62.4-22.9 93.5-3.3 13.2-6.6 26.5-10.2 39.7-0.5 1.8 2.4 2.6 2.9 0.7z"/><path class="e" d="m555.5 310.8c-7.7-25-14.1-50.5-20.6-75.9-6.7-26.2-13.3-52.5-19.8-78.8q-2-8.2-4-16.5c-0.5-1.8-3.4-1.1-2.9 0.8q5.6 23.1 11.4 46.2c7.2 29.1 14.6 58.1 22.3 87.1 3.4 12.7 6.8 25.4 10.7 37.9 0.6 1.8 3.5 1.1 2.9-0.8z"/><path class="e" d="m771.2 285.8q-7-6.9-13.9-13.8-16.7-16.6-33.4-33.2-20.2-20-40.4-40.1-17.5-17.4-35-34.7-5.8-5.8-11.6-11.5c-1.8-1.8-3.5-3.8-5.5-5.4q-0.1-0.2-0.2-0.3c-1.4-1.4-3.5 0.8-2.1 2.1q6.9 6.9 13.9 13.8 16.7 16.6 33.4 33.2 20.2 20.1 40.4 40.1 17.5 17.4 35 34.8 5.8 5.7 11.6 11.4c1.8 1.8 3.5 3.8 5.4 5.5q0.2 0.1 0.3 0.2c1.3 1.4 3.5-0.7 2.1-2.1z"/><path class="e" d="m54.2 288.2c17.6-20.5 37.2-39.6 56.2-58.8 20.6-20.7 41.4-41.2 62.2-61.6q6.6-6.4 13.2-12.9c1.4-1.3-0.8-3.4-2.1-2.1q-18.6 18.1-37 36.3c-22.8 22.5-45.4 45-67.6 68-9.2 9.5-18.4 19-27 29-1.3 1.5 0.8 3.6 2.1 2.1z"/><path class="e" d="m409.1 190.4q0 34.7 0 69.3 0 36.8 0 73.6 0 37.6 0 75.1 0 37.1 0 74.3 0 35 0 70 0 4 0 8.1c0 6.1 9.4 6.1 9.4 0q0-34.7 0-69.3 0-36.8 0-73.6 0-37.6 0-75.1 0-37.2 0-74.3 0-35 0-70 0-4.1 0-8.1c0-6.1-9.4-6.1-9.4 0z"/><g style="opacity:.6"><path class="f" d="m409.1 190.4q0 34.7 0 69.3 0 36.8 0 73.6 0 37.6 0 75.1 0 37.1 0 74.3 0 35 0 70 0 4 0 8.1c0 6.1 9.4 6.1 9.4 0q0-34.7 0-69.3 0-36.8 0-73.6 0-37.6 0-75.1 0-37.2 0-74.3 0-35 0-70 0-4.1 0-8.1c0-6.1-9.4-6.1-9.4 0z"/></g><path class="e" d="m405.1 492.1q-0.7 35.3-1.3 70.6c-0.3 13.4-1.2 28.3 5.3 40.5 9.9 18.6 34.5 29.1 54.8 22.5 13.6-4.5 23.9-15.6 29.1-28.7 5.9-15 3.4-32-3.5-46.2-1.8-3.8-7.3-4.9-10.8-2.8-3.9 2.3-4.7 6.9-2.8 10.8 4.9 10.1 6.3 22.2 2.3 32.9-3.2 8.5-10.5 16.5-19.5 19.1-8.4 2.4-18.6 0.4-25.9-4.4-2.9-1.9-5.4-4.7-7.7-7.4-1-1.2-0.3-0.4-0.1-0.1q-0.3-0.4-0.6-0.8c-0.4-0.7-0.8-1.3-1.2-2q-0.5-0.9-1-1.8c-0.1-0.2-0.6-1.3 0 0.1q-0.3-0.7-0.5-1.3c-2.4-7.7-2.3-15.6-2.3-24.5 0.1-2.6 0.1-5.2 0.2-7.8q0.3-19.5 0.7-39 0.3-14.9 0.5-29.7c0.2-10.2-15.6-10.2-15.7 0z"/><g style="opacity:.3"><path class="f" d="m411.6 560.5c-0.8 13.7-0.9 28.5 6 40.9 5.5 9.8 15.3 17.6 26.9 17.9 1.9 0 1.9-3 0-3-11.1-0.3-20.2-8.2-25-17.7-5.9-11.6-5.7-25.4-4.9-38.1 0.1-1.9-2.9-1.9-3 0z"/></g><g style="opacity:.3"><path class="f" d="m450.7 619c3 0.2 6-0.5 8.8-1.7 0.7-0.3 0.9-1.4 0.5-2.1-0.5-0.7-1.3-0.9-2.1-0.5q-0.1 0-0.2 0.1 0.2-0.1-0.1 0-0.2 0.1-0.4 0.2-0.5 0.2-0.9 0.3-1 0.3-1.9 0.5-0.3 0-0.5 0.1c-0.1 0-0.5 0-0.2 0q-0.5 0.1-1 0.1-1 0.1-2 0c-0.8 0-1.6 0.7-1.5 1.5 0 0.9 0.6 1.5 1.5 1.5z"/></g><g style="opacity:.3"><path class="f" d="m481.7 548.6c-2.2 0-4.4 1.3-5.4 3.2-1.1 2.1-0.9 4.7 0.4 6.5 0.5 0.7 1.3 1 2.1 0.6 0.6-0.4 1-1.4 0.5-2.1q-0.2-0.2-0.3-0.5-0.1-0.1-0.2-0.3c-0.1-0.2 0.1 0.2 0 0q-0.1-0.3-0.1-0.6-0.1-0.1-0.1-0.3c0-0.1 0 0.3 0 0q0-0.2 0-0.5c0 0 0-0.4 0-0.4 0 0-0.1 0.4 0 0q0.1-0.2 0.2-0.5c0-0.1 0-0.2 0-0.3-0.1 0.3 0 0 0.1 0q0.1-0.3 0.3-0.5c0.2-0.3-0.2 0.1 0 0q0.1-0.1 0.1-0.2 0.3-0.2 0.5-0.4c0.1-0.2-0.3 0.1 0 0q0.1-0.1 0.2-0.2 0.3-0.2 0.5-0.3c0.3-0.1-0.1 0.1 0 0q0.2 0 0.3-0.1 0.3-0.1 0.5-0.1c0.4-0.1-0.3 0 0.1 0q0.1 0 0.3 0c0.8-0.1 1.5-0.7 1.5-1.5-0.1-0.8-0.7-1.6-1.5-1.5z"/></g><g style="opacity:.3"><path class="f" d="m409.6 557.7q0.2-0.1 0.5-0.3c0.3-0.1-0.1 0.1 0.1 0q0.1 0 0.3-0.1 0.2-0.1 0.5-0.1 0.2-0.1 0.3-0.1c0.1 0 0.4 0 0.1 0q0.6-0.1 1.1 0 0.2 0 0.4 0c0 0 0.3 0 0.1 0-0.2 0 0.2 0 0.2 0q0.1 0.1 0.3 0.1 0.6 0.1 1.1 0.3c-0.3-0.1 0 0 0.1 0.1q0.1 0 0.2 0.1 0.3 0.2 0.6 0.3 0.1 0.1 0.2 0.2c0.1 0 0.3 0.2 0.1 0q0.2 0.2 0.4 0.4 0.2 0.2 0.4 0.4c0.1 0.1 0.2 0.2 0 0.1q0.2 0.1 0.3 0.3c0.4 0.6 1.3 1 2 0.5 0.7-0.4 1-1.3 0.5-2-2.4-3.7-7.5-5-11.3-2.8-0.7 0.4-1 1.4-0.6 2.1 0.5 0.7 1.3 0.9 2.1 0.5z"/></g><path class="e" d="m406.8 5.4q0 24.1 0 48.2 0 6.9 0 13.7c0 2.5 2.2 4.9 4.7 4.8 2.6-0.2 4.8-2.1 4.8-4.8q0-24.1 0-48.2 0-6.9 0-13.7c0-2.5-2.2-4.9-4.8-4.8-2.5 0.2-4.7 2.1-4.7 4.8z"/><g style="opacity:.6"><path class="f" d="m406.8 5.4q0 24.1 0 48.2 0 6.9 0 13.7c0 2.5 2.2 4.9 4.7 4.8 2.6-0.2 4.8-2.1 4.8-4.8q0-24.1 0-48.2 0-6.9 0-13.7c0-2.5-2.2-4.9-4.8-4.8-2.5 0.2-4.7 2.1-4.7 4.8z"/></g><path class="e" d="m402.5 63.5c0.2-0.6 3.5-8.1 3.5-8.1v-7.3h11.3v6.7l4.6 10.4z"/><path class="e" d="m420.8 224.2h-14l-1.7-15.5h17.2z"/><path class="g" d="m815.6 249.2c-27.9-33.3-106-107.8-197.1-145.2 0 0-64.3-26.4-120.4-25.6 0 0-15.6-9-86.6-9-70.9 0-86.5 9-86.5 9-56.1-0.8-120.4 25.6-120.4 25.6-91.2 37.5-171.3 113.4-199.2 146.6 11.6-5.2 21.1-3.3 30.3 0.8 122.1-44.9 192.8-6.4 192.8-6.4 47.8-23.9 183-23.1 183-23.1 0 0 135.3-0.8 183.1 23.1 0 0 71-38.7 193.6 6.7 0 0 4.7-3 13.4-3.8 8.5-0.9 14 1.3 14 1.3z"/><path class="e" d="m228.2 241.7q1.1-4.8 2.1-9.6c0.2-0.8-0.2-1.7-1-1.9-0.8-0.2-1.7 0.2-1.9 1.1q-1 4.8-2.1 9.6c-0.1 0.8 0.3 1.7 1.1 1.8 0.7 0.2 1.7-0.2 1.8-1z"/><path class="e" d="m598.5 239q-1.4-4.7-2.8-9.4c-0.2-0.8-1.1-1.3-1.9-1.1-0.7 0.3-1.2 1.1-1 1.9q1.4 4.7 2.8 9.4c0.2 0.8 1.1 1.3 1.9 1.1 0.7-0.3 1.2-1.1 1-1.9z"/><path class="e" d="m3 256.2q3.5-3.5 7-7c0.5-0.6 0.5-1.6 0-2.2-0.6-0.5-1.6-0.6-2.2 0q-3.4 3.5-6.9 7c-0.6 0.6-0.6 1.6 0 2.2 0.6 0.5 1.5 0.6 2.1 0z"/><path class="a" d="m618.5 90.8c0 0-64.3-26.4-120.4-25.6 0 0-15.6-9-86.6-9-70.9 0-86.5 9-86.5 9-56.1-0.8-120.4 25.6-120.4 25.6-120.4 49.5-201.2 160.8-201.2 160.8 141.8-65.2 225.1-19.8 225.1-19.8 47.8-23.9 183-23.1 183-23.1 0 0 135.3-0.8 183.1 23.1 0 0 84.1-45.4 226 19.8 0 0-81.7-111.3-202.1-160.8z"/><path class="b" d="m411.5 56.2c-70.9 0-86.5 9-86.5 9-66.9 67.2-96.5 166.6-96.5 166.6 47.8-23.9 183-23.1 183-23.1 0 0 135.3-0.8 183.1 23.1-22.2-77-96.5-166.6-96.5-166.6 0 0-15.6-9-86.6-9z"/><g style="opacity:.3"><path class="f" d="m159.8 125c32.4-21.4 68.6-36.7 106.4-44.9q16.1-3.5 32.5-5.3c1.9-0.2 1.9-3.3 0-3-38.9 4.2-76.9 15.7-111.7 33.7q-14.8 7.7-28.7 16.9c-1.6 1.1-0.1 3.7 1.5 2.6z"/></g><g style="opacity:.3"><path class="f" d="m515.6 74.6c37.5 2.1 74.6 11.6 108.4 27.9q14.3 6.9 27.7 15.4c1.7 1 3.2-1.6 1.5-2.6-32.1-20.2-68.3-34-105.7-40.2q-15.9-2.6-31.9-3.5c-1.9-0.1-1.9 2.9 0 3z"/></g><path class="a" d="m48 189c24.3-24.2 50.8-46.2 79.1-65.6 1.6-1.1 0.1-3.7-1.5-2.6-28.5 19.6-55.2 41.7-79.7 66-1.4 1.4 0.7 3.5 2.1 2.2z"/><path class="a" d="m136.8 117.5q5.7-3.5 11.3-7.1c0.7-0.4 1-1.3 0.6-2-0.4-0.7-1.4-1-2.1-0.6q-5.6 3.6-11.3 7.1c-0.7 0.4-0.9 1.3-0.5 2 0.4 0.7 1.3 1 2 0.6z"/><path class="d" d="m744.7 171.7c0 0-4.5 25.1-85.2 18.7-80.7-6.4-106-46.4-106-46.4 0 0-38.5 45-148.4 46.4-110 1.4-141.6-42.5-141.6-42.5 0 0-84.8 37.6-137.2 53.2-52.3 15.5-53.1-24.8-52.4-25.4-44.5 40-70.5 75.9-70.5 75.9 141.8-65.2 225.1-19.8 225.1-19.8 47.8-23.9 183-23.1 183-23.1 0 0 135.3-0.8 183.1 23.1 0 0 84.1-45.4 226 19.8 0 0-28.7-38.3-75.9-79.9z"/></svg>