<svg version="1.2" xmlns="http://www.w3.org/2000/svg" viewBox="0 0 350 306" width="350" height="306"><defs><clipPath clipPathUnits="userSpaceOnUse" id="cp1"><path d="m399 350h-450v-450h450z"/></clipPath><clipPath clipPathUnits="userSpaceOnUse" id="cp2"><path d="m2.43 121.73c0 0 9.51-2.37 8.66 6 12.09-2.15 39.65-2.66 52.8 7.34 23.11-2.56 60.22-2.31 77.39 3.85 18.24-3.59 64.67-5.9 83.55 0 20.14-5.9 54.92-8.98 76.12-3.85 12.51-8.98 37.32-9.55 47.5-4.9-8.91-10.23-115.11-96.41-173.01-96.93-57.9-0.51-166.02 82.54-173.01 88.49z"/></clipPath><linearGradient id="P" gradientUnits="userSpaceOnUse"/><linearGradient id="g1" x2="1" href="#P" gradientTransform="matrix(5.182,0,0,246.867,172.482,2.676)"><stop stop-color="#adb1bf"/><stop offset=".17" stop-color="#fff"/><stop offset=".73" stop-color="#4b5780"/><stop offset="1" stop-color="#adb1bf"/></linearGradient><clipPath clipPathUnits="userSpaceOnUse" id="cp3"><path d="m175.07 2.68c-1.43 0-2.59 0.26-2.59 0.6v246.26h5.18v-246.26c0-0.34-1.16-0.6-2.59-0.6z"/></clipPath><linearGradient id="g2" x2="1" href="#P" gradientTransform="matrix(1.592,.545,-2.456,7.175,101.755,111.792)"><stop stop-color="#adb1bf"/><stop offset=".17" stop-color="#fff"/><stop offset=".73" stop-color="#4b5780"/><stop offset="1" stop-color="#adb1bf"/></linearGradient><linearGradient id="g3" x2="1" href="#P" gradientTransform="matrix(2.606,.892,-1.351,3.948,100,115.691)"><stop stop-color="#adb1bf"/><stop offset=".17" stop-color="#fff"/><stop offset=".73" stop-color="#4b5780"/><stop offset="1" stop-color="#adb1bf"/></linearGradient><linearGradient id="g4" x2="1" href="#P" gradientTransform="matrix(1.194,.999,-3.861,4.615,3.789,120.253)"><stop stop-color="#adb1bf"/><stop offset=".17" stop-color="#fff"/><stop offset=".73" stop-color="#4b5780"/><stop offset="1" stop-color="#adb1bf"/></linearGradient><linearGradient id="g5" x2="1" href="#P" gradientTransform="matrix(1.891,1.582,-2.128,2.543,1.419,122.67)"><stop stop-color="#adb1bf"/><stop offset=".17" stop-color="#fff"/><stop offset=".73" stop-color="#4b5780"/><stop offset="1" stop-color="#adb1bf"/></linearGradient><linearGradient id="g6" x2="1" href="#P" gradientTransform="matrix(1.596,-0.282,1.336,7.568,238.005,111.518)"><stop stop-color="#adb1bf"/><stop offset=".17" stop-color="#fff"/><stop offset=".73" stop-color="#4b5780"/><stop offset="1" stop-color="#adb1bf"/></linearGradient><linearGradient id="g7" x2="1" href="#P" gradientTransform="matrix(2.664,-0.47,.734,4.161,238.144,115.875)"><stop stop-color="#adb1bf"/><stop offset=".17" stop-color="#fff"/><stop offset=".73" stop-color="#4b5780"/><stop offset="1" stop-color="#adb1bf"/></linearGradient><linearGradient id="g8" x2="1" href="#P" gradientTransform="matrix(1.439,-1.156,4.507,5.614,331.444,119.787)"><stop stop-color="#adb1bf"/><stop offset=".17" stop-color="#fff"/><stop offset=".73" stop-color="#4b5780"/><stop offset="1" stop-color="#adb1bf"/></linearGradient><linearGradient id="g9" x2="1" href="#P" gradientTransform="matrix(2.284,-1.834,2.484,3.093,333.377,123.413)"><stop stop-color="#adb1bf"/><stop offset=".17" stop-color="#fff"/><stop offset=".73" stop-color="#4b5780"/><stop offset="1" stop-color="#adb1bf"/></linearGradient><linearGradient id="g10" x2="1" href="#P" gradientTransform="matrix(1.077,-0.865,3.374,4.202,345.708,128.844)"><stop stop-color="#adb1bf"/><stop offset=".17" stop-color="#fff"/><stop offset=".73" stop-color="#4b5780"/><stop offset="1" stop-color="#adb1bf"/></linearGradient><linearGradient id="g11" x2="1" href="#P" gradientTransform="matrix(1.01,.981,-3.692,3.797,12.395,125.558)"><stop stop-color="#adb1bf"/><stop offset=".17" stop-color="#fff"/><stop offset=".73" stop-color="#4b5780"/><stop offset="1" stop-color="#adb1bf"/></linearGradient><linearGradient id="g12" x2="1" href="#P" gradientTransform="matrix(1.601,1.556,-2.033,2.091,10.149,127.515)"><stop stop-color="#adb1bf"/><stop offset=".17" stop-color="#fff"/><stop offset=".73" stop-color="#4b5780"/><stop offset="1" stop-color="#adb1bf"/></linearGradient><linearGradient id="g13" x2="1" href="#P" gradientTransform="matrix(.846,.473,-1.977,3.539,63.925,133.903)"><stop stop-color="#adb1bf"/><stop offset=".17" stop-color="#fff"/><stop offset=".73" stop-color="#4b5780"/><stop offset="1" stop-color="#adb1bf"/></linearGradient><linearGradient id="g14" x2="1" href="#P" gradientTransform="matrix(1.355,.757,-1.089,1.949,62.652,135.799)"><stop stop-color="#adb1bf"/><stop offset=".17" stop-color="#fff"/><stop offset=".73" stop-color="#4b5780"/><stop offset="1" stop-color="#adb1bf"/></linearGradient><linearGradient id="g15" x2="1" href="#P" gradientTransform="matrix(.875,.194,-0.905,4.092,141.682,137.064)"><stop stop-color="#adb1bf"/><stop offset=".17" stop-color="#fff"/><stop offset=".73" stop-color="#4b5780"/><stop offset="1" stop-color="#adb1bf"/></linearGradient><linearGradient id="g16" x2="1" href="#P" gradientTransform="matrix(1.452,.321,-0.498,2.251,140.935,139.309)"><stop stop-color="#adb1bf"/><stop offset=".17" stop-color="#fff"/><stop offset=".73" stop-color="#4b5780"/><stop offset="1" stop-color="#adb1bf"/></linearGradient><linearGradient id="g17" x2="1" href="#P" gradientTransform="matrix(.872,-0.267,1.219,3.986,224.32,137.75)"><stop stop-color="#adb1bf"/><stop offset=".17" stop-color="#fff"/><stop offset=".73" stop-color="#4b5780"/><stop offset="1" stop-color="#adb1bf"/></linearGradient><linearGradient id="g18" x2="1" href="#P" gradientTransform="matrix(1.432,-0.438,.669,2.187,224.658,140.094)"><stop stop-color="#adb1bf"/><stop offset=".17" stop-color="#fff"/><stop offset=".73" stop-color="#4b5780"/><stop offset="1" stop-color="#adb1bf"/></linearGradient><linearGradient id="g19" x2="1" href="#P" gradientTransform="matrix(.796,-0.615,2.417,3.127,299.977,133.767)"><stop stop-color="#adb1bf"/><stop offset=".17" stop-color="#fff"/><stop offset=".73" stop-color="#4b5780"/><stop offset="1" stop-color="#adb1bf"/></linearGradient><linearGradient id="g20" x2="1" href="#P" gradientTransform="matrix(1.263,-0.976,1.333,1.725,301.006,135.776)"><stop stop-color="#adb1bf"/><stop offset=".17" stop-color="#fff"/><stop offset=".73" stop-color="#4b5780"/><stop offset="1" stop-color="#adb1bf"/></linearGradient></defs><style>.a{fill:#ee8d00}.b{fill:#b0b5bf}.c{fill:#bfa391}.d{fill:#fff}.e{fill:#fef6eb}.f{fill:#feeed7}.g{fill:#fde5c3}.h{fill:#fcddaf}.i{fill:#fcd49b}.j{fill:#fbcc88}.k{fill:#fbc374}.l{fill:#fabb60}.m{fill:#f9b24c}.n{fill:#f9aa38}.o{fill:#f8a124}.p{fill:#30363f}.q{fill:url(#g1)}.r{fill:#fff2c7}.s{fill:#fff2bf}.t{fill:#fff2b6}.u{fill:#fff2ae}.v{fill:#fff2a6}.w{fill:#fff19d}.x{fill:#ffe295}.y{fill:#ffd28c}.z{fill:#ffc384}.A{fill:#ffb37c}.B{fill:#ffa473}.C{fill:#ff946b}.D{fill:#ffcf33}.E{fill:url(#g2)}.F{fill:url(#g3)}.G{fill:url(#g4)}.H{fill:url(#g5)}.I{fill:url(#g6)}.J{fill:url(#g7)}.K{fill:url(#g8)}.L{fill:url(#g9)}.M{fill:url(#g10)}.N{fill:url(#g11)}.O{fill:url(#g12)}.P{fill:url(#g13)}.Q{fill:url(#g14)}.R{fill:url(#g15)}.S{fill:url(#g16)}.T{fill:url(#g17)}.U{fill:url(#g18)}.V{fill:url(#g19)}.W{fill:url(#g20)}</style><g clip-path="url(#cp1)"><g clip-path="url(#cp2)"><path class="a" d="m2.4 121.7c0 0 9.5-2.3 8.7 6 12.1-2.1 39.6-2.6 52.8 7.4 23.1-2.6 60.2-2.3 77.4 3.8 18.2-3.6 64.7-5.9 83.5 0 20.2-5.9 54.9-9 76.1-3.8 12.6-9 37.4-9.6 47.5-4.9-8.9-10.3-115.1-96.4-173-97-57.9-0.5-166 82.6-173 88.5z"/><g style="opacity:.2;mix-blend-mode:multiply"><path class="b" d="m8 129.5l0.6-0.8c0.2-0.3 22.5-28.9 54.1-55.7 25.6-21.9 64.1-47.9 101.5-47.9 3.9 0 7.7 0.3 11.4 0.8l0.8 0.1-0.3 3.1-0.8-0.1c-3.6-0.6-7.3-0.8-11.1-0.8-36.7 0-74.7 25.7-100.1 47.3-31.2 26.6-53.4 55-53.6 55.3l-0.6 0.8z"/><path class="b" d="m349.8 133.3c-0.2-0.3-22.9-29.3-54.9-56.6-25.9-22.1-64.6-48.5-101.5-48.5-3.7 0-7.3 0.2-10.8 0.8l-0.9 0.1-0.3-3.1 0.9-0.1c3.6-0.5 7.3-0.8 11.1-0.8 37.6 0 76.8 26.7 103 49.1 32.1 27.5 55 56.7 55.2 57l0.6 0.7-1.8 2.2z"/><path class="b" d="m60.5 138.4l0.4-0.9c0.1-0.3 15.4-31 37.1-60 17.9-23.9 44.8-52.4 71.2-52.4 2.6 0 5.1 0.3 7.5 0.8l0.9 0.2-0.5 3-0.8-0.2c-2.3-0.4-4.7-0.7-7.1-0.7-25.5 0-51.7 27.9-69.3 51.3-21.5 28.7-36.7 59.3-36.8 59.6l-0.5 0.9z"/><path class="b" d="m301.6 137.7c-0.2-0.3-17.1-30.5-40.2-58.8-18.9-23.2-46.9-50.7-72.6-50.7q-3.7 0-7.2 0.7l-0.9 0.2-0.4-3 0.8-0.2c2.5-0.5 5.1-0.8 7.7-0.8 26.6 0 55.1 28.1 74.4 51.6 23.4 28.6 40.3 59 40.5 59.3l0.5 0.9-2.1 1.7z"/><path class="b" d="m140 143.1l0.1-1c0.5-4.2 13.4-104.1 31.4-115.8q1.9-1.2 3.8-1.2 1.6 0 3.2 0.9l0.8 0.5-1.1 2.8-0.7-0.5q-1.1-0.6-2.2-0.6-1.2 0-2.6 0.9c-14 9.1-26.5 85-30.1 113.5l-0.1 1z"/><path class="b" d="m224.7 142.7c-5.8-28.6-24-104.7-39.4-113.7q-1.4-0.8-2.7-0.8-1.1 0-2.2 0.6l-0.8 0.5-1.1-2.8 0.8-0.5q1.6-0.9 3.3-0.9 1.9 0 3.8 1.2c19.5 11.3 39.9 111.4 40.7 115.7l0.2 1-2.4 0.7z"/></g><path class="b" d="m9.8 130.1l-0.6-0.7c0.2-0.3 22.5-28.8 53.9-55.6 29.1-24.7 72.2-52.9 112.4-46.9l-0.1 1c-40-5.9-82.8 22.1-111.8 46.7-31.3 26.7-53.5 55.2-53.8 55.5z"/><path class="b" d="m350.4 132.6c-0.2-0.3-23-29.4-55-56.7-29.5-25.2-73-53.9-112.9-48l-0.1-1c40.2-6 83.9 22.9 113.5 48.2 32 27.3 54.9 56.5 55.1 56.8z"/><path class="b" d="m62.3 138.6l-0.7-0.5c0.2-0.4 15.4-31.1 37-59.9 20.1-26.7 49.8-57.3 78-51.3l-0.2 1c-27.7-5.9-57.2 24.4-77.1 50.9-21.6 28.9-36.8 59.5-37 59.8z"/><path class="b" d="m302.3 137.2c-0.2-0.3-17.1-30.6-40.3-59.1-21.5-26.2-52.8-56.1-80.6-50.2l-0.1-1c28.1-6 59.7 24.2 81.3 50.5 23.3 28.5 40.2 58.9 40.4 59.2z"/><path class="b" d="m141.8 142.4l-0.9-0.1c0.6-4.3 13.3-103.6 31-115 2.1-1.4 4.2-1.5 6.3-0.3l-0.4 0.9c-1.8-1-3.6-0.9-5.5 0.3-17.3 11.2-30.4 113.2-30.5 114.2z"/><path class="b" d="m225.5 142.5c-0.2-1.1-21-103.4-39.8-114.4-2-1.1-3.9-1.2-5.7-0.2l-0.3-0.9c2-1.2 4.1-1.1 6.3 0.2 19.2 11.1 39.4 110.8 40.3 115z"/><path class="c" d="m9.5 129.4c1.7-2.3 23.4-29.6 53.7-55.4 25.6-21.8 63.9-47.7 101-47.7 3.8 0 7.5 0.3 11.1 0.8l-0.1 0.6c-3.5-0.5-7.2-0.8-11-0.8-37 0-75.1 25.9-100.7 47.6-30.1 25.6-51.9 53.1-53.7 55.3z"/><path class="c" d="m350.4 132.3c-1.8-2.3-24-30.2-54.9-56.6-26.1-22.2-64.9-48.8-102.1-48.8-3.7 0-7.3 0.3-10.8 0.8v-0.6c3.5-0.5 7.1-0.8 10.8-0.8 37.3 0 76.3 26.6 102.4 48.9 30.9 26.4 53.2 54.4 55 56.7z"/><path class="c" d="m61.9 138c1.2-2.6 16.1-31.9 36.9-59.7 17.7-23.7 44.4-51.9 70.4-51.9q3.7 0 7.2 0.7l-0.1 0.6q-3.5-0.7-7.1-0.7c-25.8 0-52.3 28.1-70 51.7-20.8 27.7-35.6 57.1-36.9 59.6z"/><path class="c" d="m302.3 136.9c-1.4-2.5-17.9-31.6-40.2-58.9-19.1-23.3-47.2-51-73.3-51-2.5 0-4.9 0.2-7.2 0.7l-0.1-0.6q3.5-0.7 7.3-0.8c26.3 0 54.5 27.9 73.7 51.3 22.4 27.4 38.9 56.4 40.3 58.9z"/><path class="c" d="m141.1 142.1c0.9-6.5 13.5-103.4 30.9-114.7q1.7-1 3.3-1 1.3 0 2.7 0.7l-0.3 0.5q-1.2-0.6-2.4-0.6-1.5 0-3 1c-17.1 11-30 109-30.7 114.2z"/><path class="c" d="m225.6 142.2c-1-5.1-21.3-103.5-39.8-114.3q-1.7-0.9-3.2-0.9-1.3 0-2.5 0.6l-0.2-0.5q1.3-0.7 2.7-0.7 1.7 0 3.4 1c18.8 10.9 38.8 108.2 40.1 114.7z"/><g style="mix-blend-mode:multiply"><path class="d" d="m2.4 121.7c0 0 9.5-2.3 8.7 6 12.1-2.1 39.6-2.6 52.8 7.4 23.1-2.6 60.2-2.3 77.4 3.8 18.2-3.6 64.7-5.9 83.5 0 20.2-5.9 54.9-9 76.1-3.8 12.6-9 37.4-9.6 47.5-4.9-8.9-10.3-115.1-96.4-173-97-57.9-0.5-166 82.6-173 88.5z"/><path class="e" d="m3.7 119.6c0 0 9.5-2.4 8.6 6 12-2.2 39.4-2.7 52.4 7.3 23-2.5 59.8-2.3 76.8 3.9 18.1-3.6 64.2-5.9 83 0 20-5.9 54.5-9 75.5-3.9 12.4-9 37.1-9.5 47.2-4.9-8.9-10.2-114.3-96.4-171.8-96.9-57.4-0.5-164.7 82.5-171.7 88.5z"/><path class="f" d="m5 117.4c0 0 9.4-2.3 8.5 6 11.9-2.1 39.1-2.6 52 7.4 22.8-2.6 59.4-2.3 76.3 3.8 18-3.6 63.7-5.9 82.3 0 19.8-5.9 54.1-8.9 75-3.8 12.3-9 36.7-9.6 46.8-4.9-8.8-10.3-113.4-96.4-170.5-96.9-57-0.6-163.5 82.5-170.4 88.4z"/><path class="g" d="m6.3 115.3c0 0 9.3-2.4 8.5 6 11.8-2.2 38.7-2.7 51.6 7.3 22.6-2.5 58.9-2.3 75.6 3.9 17.9-3.6 63.3-5.9 81.7 0 19.7-5.9 53.7-9 74.5-3.9 12.2-8.9 36.4-9.5 46.4-4.9-8.7-10.2-112.6-96.4-169.2-96.9-56.6-0.5-162.3 82.5-169.1 88.5z"/><path class="h" d="m7.6 113.1c0 0 9.2-2.3 8.4 6 11.7-2.1 38.4-2.6 51.2 7.4 22.4-2.6 58.4-2.3 75.1 3.8 17.7-3.6 62.7-5.9 81.1 0 19.5-5.9 53.2-8.9 73.8-3.8 12.2-9 36.2-9.6 46.1-4.9-8.6-10.2-111.7-96.4-167.9-96.9-56.1-0.5-161 82.5-167.8 88.4z"/><path class="i" d="m8.9 111c0 0 9.1-2.4 8.3 6 11.6-2.1 38.2-2.7 50.8 7.3 22.3-2.5 58-2.3 74.6 3.9 17.5-3.6 62.2-5.9 80.4 0 19.4-5.9 52.9-9 73.3-3.9 12-8.9 35.9-9.5 45.7-4.9-8.6-10.2-110.8-96.4-166.6-96.9-55.7-0.5-159.8 82.6-166.5 88.5z"/><path class="j" d="m10.1 108.9c0 0 9.1-2.4 8.3 6 11.6-2.2 37.9-2.7 50.5 7.3 22-2.6 57.5-2.3 73.9 3.8 17.4-3.5 61.8-5.9 79.8 0 19.3-5.9 52.5-8.9 72.8-3.8 11.9-9 35.6-9.5 45.3-4.9-8.5-10.2-109.9-96.4-165.3-96.9-55.3-0.5-158.6 82.5-165.3 88.5z"/><path class="k" d="m11.4 106.7c0 0 9-2.4 8.2 6 11.5-2.1 37.6-2.6 50.1 7.4 21.9-2.6 57.1-2.4 73.4 3.8 17.2-3.6 61.3-5.9 79.2 0 19.1-5.9 52-9 72.1-3.8 11.9-9 35.4-9.6 45-4.9-8.4-10.3-109.1-96.5-164-97-54.9-0.5-157.3 82.6-164 88.5z"/><path class="l" d="m12.7 104.6c0 0 9-2.4 8.2 6 11.3-2.2 37.3-2.7 49.6 7.3 21.8-2.6 56.7-2.3 72.8 3.9 17.2-3.6 60.8-5.9 78.6 0 18.9-5.9 51.6-9 71.6-3.9 11.8-9 35.1-9.5 44.7-4.9-8.4-10.2-108.3-96.4-162.8-96.9-54.4-0.5-156.1 82.5-162.7 88.5z"/><path class="m" d="m14 102.4c0 0 8.9-2.3 8.1 6 11.3-2.1 37-2.6 49.2 7.4 21.6-2.6 56.2-2.3 72.3 3.8 17-3.6 60.3-5.9 77.9 0 18.8-5.9 51.3-9 71.1-3.8 11.6-9 34.8-9.6 44.3-4.9-8.3-10.3-107.4-96.4-161.5-97-54-0.5-154.9 82.6-161.4 88.5z"/><path class="n" d="m15.3 100.3c0 0 8.8-2.4 8 6 11.2-2.2 36.7-2.7 48.9 7.3 21.4-2.5 55.7-2.3 71.6 3.9 16.9-3.6 59.9-5.9 77.4 0 18.6-5.9 50.8-9 70.4-3.9 11.6-9 34.6-9.5 44-4.9-8.3-10.2-106.6-96.4-160.2-96.9-53.6-0.5-153.6 82.5-160.1 88.5z"/><path class="o" d="m16.6 98.1c0 0 8.7-2.3 7.9 6 11.1-2.1 36.4-2.6 48.5 7.4 21.2-2.6 55.3-2.3 71.1 3.8 16.7-3.6 59.4-5.9 76.7 0 18.5-5.9 50.4-9 69.9-3.8 11.5-9 34.3-9.6 43.6-4.9-8.2-10.3-105.7-96.4-158.9-97-53.1-0.5-152.4 82.6-158.8 88.5z"/></g></g><path class="p" d="m178.2 2.7c0-1.1-1.4-1.9-3.1-1.9-1.7 0-3.1 0.8-3.1 1.9 0 1 1.4 1.9 3.1 1.9 1.7 0 3.1-0.9 3.1-1.9z"/><path class="q" d="m175.1 2.7c-1.5 0-2.6 0.2-2.6 0.6v246.2h5.2v-246.2c0-0.4-1.2-0.6-2.6-0.6z"/><g clip-path="url(#cp3)"><g style="mix-blend-mode:multiply"><path class="r" d="m171.2 40.1v95.6q4.1-0.1 8.3-0.2v-95.4z"/><path class="s" d="m171.2 40.1v93.5q4.1-0.2 8.3-0.3v-93.2z"/><path class="t" d="m171.2 40.1v91.3q4.1-0.1 8.3-0.2v-91.1z"/><path class="u" d="m171.2 40.1v89.2q4.1-0.2 8.3-0.3v-88.9z"/><path class="v" d="m171.2 40.1v87q4.1-0.1 8.3-0.2v-86.8z"/><path class="w" d="m171.2 40.1v84.9q4.1-0.2 8.3-0.3v-84.6z"/><path class="x" d="m171.2 40.1v82.7q4.1-0.1 8.3-0.2v-82.5z"/><path class="y" d="m171.2 40.1v80.6q4.1-0.1 8.3-0.2v-80.4z"/><path class="z" d="m171.2 40.1v78.4q4.1-0.1 8.3-0.2v-78.2z"/><path class="A" d="m171.2 40.1v76.3q4.1-0.1 8.3-0.2v-76.1z"/><path class="B" d="m171.2 40.1v74.2q4.1-0.2 8.3-0.3v-73.9z"/><path class="C" d="m171.2 40.1v72q4.1-0.1 8.3-0.2v-71.8z"/></g></g><path class="D" d="m183.9 29.7c0-1.8-4-6.9-8.8-6.9-4.9 0-8.8 5.1-8.8 6.9 0 1.8 3.9-0.4 8.8-0.4 4.8 0 8.8 2.2 8.8 0.4z"/><path class="E" d="m102.1 116c-0.6 2-1.4 3.5-1.8 3.3-0.4-0.2-0.3-1.9 0.3-4 0.5-2 1.3-3.5 1.8-3.3 0.4 0.2 0.2 1.9-0.3 4z"/><path class="F" d="m101.9 118.6c-0.3 1.1-1.1 1.8-1.8 1.5-0.7-0.3-1.1-1.4-0.7-2.5 0.3-1.1 1.1-1.8 1.8-1.5 0.7 0.3 1 1.4 0.7 2.5z"/><path class="G" d="m3 123.6c-1 1.4-2 2.2-2.3 1.9-0.2-0.2 0.3-1.6 1.2-3 1-1.3 2-2.2 2.3-1.9 0.3 0.3-0.3 1.6-1.2 3z"/><path class="H" d="m2.2 125.6c-0.6 0.8-1.4 1-1.8 0.5-0.5-0.5-0.5-1.5 0-2.2 0.6-0.8 1.4-1 1.8-0.5 0.5 0.4 0.5 1.5 0 2.2z"/><path class="I" d="m240.3 115c0.3 2.1 0.2 3.9-0.3 4-0.4 0.1-1-1.6-1.3-3.7-0.3-2.1-0.2-3.9 0.2-3.9 0.4-0.1 1.1 1.5 1.4 3.6z"/><path class="J" d="m241.2 117.4c0.1 1.2-0.3 2.3-1 2.4-0.8 0.2-1.5-0.6-1.7-1.8-0.1-1.2 0.3-2.2 1-2.4 0.8-0.1 1.5 0.7 1.7 1.8z"/><path class="K" d="m335 121.4c1.1 1.7 1.8 3.3 1.4 3.6-0.3 0.4-1.5-0.7-2.6-2.4-1.1-1.6-1.7-3.3-1.4-3.6 0.4-0.3 1.5 0.7 2.6 2.4z"/><path class="L" d="m336.8 123c0.6 0.9 0.6 2.1 0.1 2.7-0.6 0.6-1.6 0.3-2.2-0.6-0.6-1-0.6-2.2 0-2.7 0.5-0.6 1.5-0.3 2.1 0.6z"/><path class="M" d="m348.4 130.1c0.8 1.2 1.3 2.4 1 2.7-0.2 0.2-1.1-0.6-1.9-1.8-0.9-1.3-1.3-2.5-1.1-2.7 0.3-0.3 1.2 0.5 2 1.8z"/><path class="N" d="m11.5 128.4c-0.9 1.2-1.9 1.9-2.1 1.6-0.2-0.3 0.3-1.4 1.2-2.6 0.9-1.1 1.9-1.8 2.1-1.5 0.3 0.3-0.3 1.4-1.2 2.5z"/><path class="O" d="m10.7 130.2c-0.6 0.6-1.3 0.7-1.7 0.3-0.4-0.5-0.3-1.4 0.2-2 0.5-0.6 1.3-0.8 1.6-0.3 0.4 0.5 0.4 1.4-0.1 2z"/><path class="P" d="m63.7 136.2c-0.4 1-1 1.7-1.2 1.6-0.2-0.2 0-1.1 0.5-2.1 0.4-1.1 1-1.8 1.2-1.6 0.2 0.1 0 1-0.5 2.1z"/><path class="Q" d="m63.4 137.6c-0.2 0.5-0.7 0.8-1.1 0.6-0.3-0.3-0.4-0.9-0.2-1.5 0.3-0.5 0.8-0.8 1.2-0.6 0.3 0.3 0.4 0.9 0.1 1.5z"/><path class="R" d="m142.1 139.3c-0.2 1.2-0.6 2-0.8 2-0.2-0.1-0.3-1.1-0.1-2.2 0.2-1.1 0.6-2 0.8-2 0.3 0.1 0.3 1.1 0.1 2.2z"/><path class="S" d="m142.1 140.8c-0.1 0.6-0.5 1-0.9 0.9-0.4-0.1-0.6-0.7-0.5-1.3 0.1-0.6 0.5-1 0.9-0.9 0.4 0.1 0.6 0.7 0.5 1.3z"/><path class="T" d="m225.8 139.5c0.3 1.1 0.3 2 0.1 2.1-0.3 0.1-0.7-0.7-1-1.8-0.2-1.2-0.3-2.1 0-2.2 0.2-0.1 0.6 0.7 0.9 1.9z"/><path class="U" d="m226.4 140.7c0.2 0.6 0 1.2-0.4 1.4-0.4 0.1-0.8-0.3-1-0.9-0.1-0.6 0-1.2 0.4-1.3 0.4-0.2 0.9 0.2 1 0.8z"/><path class="V" d="m301.9 134.7c0.6 0.9 0.9 1.8 0.8 2-0.2 0.2-0.9-0.4-1.5-1.4-0.6-0.9-0.9-1.8-0.7-1.9 0.2-0.2 0.8 0.4 1.4 1.3z"/><path class="W" d="m302.9 135.6c0.3 0.5 0.3 1.2 0 1.5-0.3 0.3-0.9 0.1-1.2-0.4-0.3-0.5-0.3-1.2 0-1.5 0.3-0.3 0.9-0.1 1.2 0.4z"/><path class="p" d="m158.3 305.3c-12.1 0-21.9-9.8-21.9-21.9 0-2.8 2.3-5.1 5.2-5.1 2.8 0 5.1 2.3 5.1 5.1 0 6.4 5.2 11.6 11.6 11.6 15.4 0 11.6-17 11.6-48.1 0-2.8 2.3-2 5.2-2 2.8 0 5.1-0.8 5.1 2v29.1c0 21.2-9.2 29.3-21.9 29.3z"/></g></svg>