<svg version="1.2" xmlns="http://www.w3.org/2000/svg" viewBox="0 0 2788 2800" width="2788" height="2800"><defs><linearGradient id="P" gradientUnits="userSpaceOnUse"/><linearGradient id="g1" x2="1" href="#P" gradientTransform="matrix(-3437.342,-4268.963,4320.192,-3478.591,2284.101,5633.083)"><stop stop-color="#dae3fe"/><stop offset="1" stop-color="#e9effd"/></linearGradient><linearGradient id="g2" x2="1" href="#P" gradientTransform="matrix(-31.519,420.25,-676.306,-50.724,2619.602,221.75)"><stop stop-color="#4f52ff"/><stop offset="1" stop-color="#4042e2"/></linearGradient><linearGradient id="g3" x2="1" href="#P" gradientTransform="matrix(16.969,-1513.649,13479.874,151.119,2228.818,1677.065)"><stop stop-color="#4f52ff"/><stop offset="1" stop-color="#4042e2"/></linearGradient><linearGradient id="g4" x2="1" href="#P" gradientTransform="matrix(-35.456,405.211,-567.941,-49.694,826.33,252.398)"><stop stop-color="#4f52ff"/><stop offset="1" stop-color="#4042e2"/></linearGradient><linearGradient id="g5" x2="1" href="#P" gradientTransform="matrix(18.171,-1620.891,19273.182,216.066,673.381,1698.299)"><stop stop-color="#4f52ff"/><stop offset="1" stop-color="#4042e2"/></linearGradient><linearGradient id="g6" x2="1" href="#P" gradientTransform="matrix(964.286,-1355.073,1215.251,864.787,874.049,1779.489)"><stop stop-color="#4f52ff"/><stop offset="1" stop-color="#4042e2"/></linearGradient><linearGradient id="g7" x2="1" href="#P" gradientTransform="matrix(105.614,2587.542,-1653.352,67.484,1960.101,-1238.167)"><stop stop-color="#4f52ff"/><stop offset="1" stop-color="#4042e2"/></linearGradient><linearGradient id="g8" x2="1" href="#P" gradientTransform="matrix(35.814,877.44,-2541.306,103.727,1869.318,581.501)"><stop stop-color="#4f52ff"/><stop offset="1" stop-color="#4042e2"/></linearGradient><linearGradient id="g9" x2="1" href="#P" gradientTransform="matrix(905.968,-1284.692,1673.779,1180.354,1974.552,-276.101)"><stop stop-color="#4f52ff"/><stop offset="1" stop-color="#4042e2"/></linearGradient><linearGradient id="g10" x2="1" href="#P" gradientTransform="matrix(-249.525,907.001,-1515.575,-416.95,2433.78,399.577)"><stop stop-color="#2b3582"/><stop offset="1" stop-color="#150e42"/></linearGradient><linearGradient id="g11" x2="1" href="#P" gradientTransform="matrix(-216.755,787.885,-222.56,-61.228,34068.031,9265.531)"><stop stop-color="#2b3582"/><stop offset="1" stop-color="#150e42"/></linearGradient><linearGradient id="g12" x2="1" href="#P" gradientTransform="matrix(-200.425,728.528,-690.519,-189.969,2550.795,543.267)"><stop stop-color="#2b3582"/><stop offset="1" stop-color="#150e42"/></linearGradient><linearGradient id="g13" x2="1" href="#P" gradientTransform="matrix(2539.965,1772.069,-1474.071,2112.834,1225.176,-648.66)"><stop stop-color="#fe7062"/><stop offset="1" stop-color="#ff928e"/></linearGradient><linearGradient id="g14" x2="1" href="#P" gradientTransform="matrix(7.575,-352.247,323.824,6.964,1596.377,106.234)"><stop stop-color="#e1473d"/><stop offset="1" stop-color="#e9605a"/></linearGradient><linearGradient id="g15" x2="1" href="#P" gradientTransform="matrix(-128.674,467.719,-190.375,-52.374,2862.042,526.624)"><stop stop-color="#e1473d"/><stop offset="1" stop-color="#e9605a"/></linearGradient><linearGradient id="g16" x2="1" href="#P" gradientTransform="matrix(-140.111,509.293,-570.561,-156.967,2689.938,416.033)"><stop stop-color="#e1473d"/><stop offset="1" stop-color="#e9605a"/></linearGradient><linearGradient id="g17" x2="1" href="#P" gradientTransform="matrix(-155.44,565.012,-1318.536,-362.742,2665.513,356.245)"><stop stop-color="#e1473d"/><stop offset="1" stop-color="#e9605a"/></linearGradient><linearGradient id="g18" x2="1" href="#P" gradientTransform="matrix(-72.039,659.429,-1131.567,-123.617,2306.6,-232.813)"><stop stop-color="#09005d"/><stop offset="1" stop-color="#1a0f91"/></linearGradient><linearGradient id="g19" x2="1" href="#P" gradientTransform="matrix(-71.243,652.144,-655.805,-71.643,2682.791,-211.285)"><stop stop-color="#09005d"/><stop offset="1" stop-color="#1a0f91"/></linearGradient><linearGradient id="g20" x2="1" href="#P" gradientTransform="matrix(319.253,-1331.124,3914.994,938.96,2134.36,1008.755)"><stop stop-color="#09005d"/><stop offset="1" stop-color="#1a0f91"/></linearGradient><linearGradient id="g21" x2="1" href="#P" gradientTransform="matrix(-289.069,430.242,-362.416,-243.498,2702.757,1364.426)"><stop stop-color="#ff928e"/><stop offset="1" stop-color="#fe7062"/></linearGradient><linearGradient id="g22" x2="1" href="#P" gradientTransform="matrix(13.225,137.515,-108.358,10.421,647.083,1695.957)"><stop stop-color="#a22b25"/><stop offset="1" stop-color="#c0423c"/></linearGradient><linearGradient id="g23" x2="1" href="#P" gradientTransform="matrix(-190.405,-523.565,202.123,-73.506,434.646,2207.421)"><stop stop-color="#a22b25"/><stop offset="1" stop-color="#c0423c"/></linearGradient><linearGradient id="g24" x2="1" href="#P" gradientTransform="matrix(-199.641,246.924,-75.586,-61.112,840.684,2526.871)"><stop stop-color="#a22b25"/><stop offset="1" stop-color="#c0423c"/></linearGradient><linearGradient id="g25" x2="1" href="#P" gradientTransform="matrix(-579.787,609.469,-615.297,-585.332,1997.979,2887.056)"><stop stop-color="#a22b25"/><stop offset="1" stop-color="#c0423c"/></linearGradient><linearGradient id="g26" x2="1" href="#P" gradientTransform="matrix(67.186,113.699,-89.594,52.942,610.777,2663.065)"><stop stop-color="#4f52ff"/><stop offset="1" stop-color="#4042e2"/></linearGradient><linearGradient id="g27" x2="1" href="#P" gradientTransform="matrix(-78.278,106.368,-83.82,-61.685,487.073,2517.175)"><stop stop-color="#4f52ff"/><stop offset="1" stop-color="#4042e2"/></linearGradient><linearGradient id="g28" x2="1" href="#P" gradientTransform="matrix(230.85,-361.665,293.206,187.153,135.193,2657.166)"><stop stop-color="#4f52ff"/><stop offset="1" stop-color="#4042e2"/></linearGradient><linearGradient id="g29" x2="1" href="#P" gradientTransform="matrix(49.85,0,0,94.176,656.728,1903.642)"><stop stop-color="#a22b25"/><stop offset="1" stop-color="#c0423c"/></linearGradient><linearGradient id="g30" x2="1" href="#P" gradientTransform="matrix(-260.702,388.021,-362.21,-243.36,-207.511,3738.878)"><stop stop-color="#ff928e"/><stop offset="1" stop-color="#fe7062"/></linearGradient><linearGradient id="g31" x2="1" href="#P" gradientTransform="matrix(-115.282,-168.572,124.608,-85.216,679.259,2005.173)"><stop stop-color="#a22b25"/><stop offset="1" stop-color="#c0423c"/></linearGradient><linearGradient id="g32" x2="1" href="#P" gradientTransform="matrix(315.623,0,0,325.378,422.266,1827.008)"><stop stop-color="#09005d"/><stop offset="1" stop-color="#1a0f91"/></linearGradient><linearGradient id="g33" x2="1" href="#P" gradientTransform="matrix(75.049,0,0,98.451,438.662,1977.448)"><stop stop-color="#dae3fe"/><stop offset="1" stop-color="#e9effd"/></linearGradient><linearGradient id="g34" x2="1" href="#P" gradientTransform="matrix(99.165,0,0,150.383,574.482,1950.53)"><stop stop-color="#dae3fe"/><stop offset="1" stop-color="#e9effd"/></linearGradient><linearGradient id="g35" x2="1" href="#P" gradientTransform="matrix(77.108,0,0,35.038,647.792,1858.817)"><stop stop-color="#dae3fe"/><stop offset="1" stop-color="#e9effd"/></linearGradient><linearGradient id="g36" x2="1" href="#P" gradientTransform="matrix(-46.971,129.919,-102.372,-37.012,815.102,1706.646)"><stop stop-color="#a22b25"/><stop offset="1" stop-color="#c0423c"/></linearGradient><linearGradient id="g37" x2="1" href="#P" gradientTransform="matrix(314.487,-459.862,177.525,121.404,893.828,2254.844)"><stop stop-color="#a22b25"/><stop offset="1" stop-color="#c0423c"/></linearGradient><linearGradient id="g38" x2="1" href="#P" gradientTransform="matrix(-52.907,-46.771,74.92,-84.749,870.878,2479.991)"><stop stop-color="#09005d"/><stop offset="1" stop-color="#1a0f91"/></linearGradient><linearGradient id="g39" x2="1" href="#P" gradientTransform="matrix(-22.469,20.958,-21.251,-22.784,922.586,2442.258)"><stop stop-color="#febbba"/><stop offset="1" stop-color="#ff928e"/></linearGradient><linearGradient id="g40" x2="1" href="#P" gradientTransform="matrix(-37.407,375.167,-81.596,-8.136,1909.436,1779.74)"><stop stop-color="#febbba"/><stop offset="1" stop-color="#ff928e"/></linearGradient><linearGradient id="g41" x2="1" href="#P" gradientTransform="matrix(-39.16,392.748,-258.58,-25.782,1409.437,1733.05)"><stop stop-color="#febbba"/><stop offset="1" stop-color="#ff928e"/></linearGradient><linearGradient id="g42" x2="1" href="#P" gradientTransform="matrix(7.175,82.508,-148.034,12.872,1255.557,2125.817)"><stop stop-color="#09005d"/><stop offset="1" stop-color="#1a0f91"/></linearGradient><linearGradient id="g43" x2="1" href="#P" gradientTransform="matrix(30.726,0,0,31.156,1236.477,2722.151)"><stop stop-color="#febbba"/><stop offset="1" stop-color="#ff928e"/></linearGradient><linearGradient id="g44" x2="1" href="#P" gradientTransform="matrix(-122.113,633.462,-276.008,-53.206,213.725,2240.306)"><stop stop-color="#09005d"/><stop offset="1" stop-color="#1a0f91"/></linearGradient><linearGradient id="g45" x2="1" href="#P" gradientTransform="matrix(-127.103,659.348,-636.722,-122.741,922.265,2391.183)"><stop stop-color="#09005d"/><stop offset="1" stop-color="#1a0f91"/></linearGradient><linearGradient id="g46" x2="1" href="#P" gradientTransform="matrix(9.018,360.739,-87.941,2.199,513.652,2052.011)"><stop stop-color="#febbba"/><stop offset="1" stop-color="#ff928e"/></linearGradient><linearGradient id="g47" x2="1" href="#P" gradientTransform="matrix(267.578,398.255,-410.559,275.845,843.601,2074.524)"><stop stop-color="#ff928e"/><stop offset="1" stop-color="#fe7062"/></linearGradient><linearGradient id="g48" x2="1" href="#P" gradientTransform="matrix(-143.573,332.013,-354.814,-153.433,1367.011,1750.672)"><stop stop-color="#febbba"/><stop offset="1" stop-color="#ff928e"/></linearGradient><linearGradient id="g49" x2="1" href="#P" gradientTransform="matrix(169.375,97.759,-82.552,143.027,1642.209,2062.302)"><stop stop-color="#febbba"/><stop offset="1" stop-color="#ff928e"/></linearGradient><linearGradient id="g50" x2="1" href="#P" gradientTransform="matrix(63.76,-143.461,99.284,44.126,-16.45,4372.846)"><stop stop-color="#09005d"/><stop offset="1" stop-color="#1a0f91"/></linearGradient><linearGradient id="g51" x2="1" href="#P" gradientTransform="matrix(165.515,95.531,-73.803,127.869,1583.792,2147.681)"><stop stop-color="#febbba"/><stop offset="1" stop-color="#ff928e"/></linearGradient><linearGradient id="g52" x2="1" href="#P" gradientTransform="matrix(9.127,365.075,-235.511,5.888,999.413,2044.297)"><stop stop-color="#febbba"/><stop offset="1" stop-color="#ff928e"/></linearGradient><linearGradient id="g53" x2="1" href="#P" gradientTransform="matrix(8.867,0,0,25.522,1210.789,1847.579)"><stop stop-color="#dae3fe"/><stop offset="1" stop-color="#e9effd"/></linearGradient></defs><style>.a{fill:url(#g1)}.b{fill:#bdd0fb}.c{opacity:.4;fill:#fff}.d{fill:#91b3fa}.e{fill:url(#g2)}.f{fill:url(#g3)}.g{fill:#fff}.h{fill:#7d97f4}.i{fill:url(#g4)}.j{fill:url(#g5)}.k{fill:url(#g6)}.l{opacity:.5;fill:#fff}.m{opacity:.9;fill:#7d97f4}.n{fill:url(#g7)}.o{fill:url(#g8)}.p{fill:url(#g9)}.q{fill:url(#g10)}.r{fill:url(#g11)}.s{fill:url(#g12)}.t{fill:url(#g13)}.u{fill:url(#g14)}.v{fill:url(#g15)}.w{fill:url(#g16)}.x{fill:url(#g17)}.y{fill:url(#g18)}.z{fill:url(#g19)}.A{fill:url(#g20)}.B{fill:url(#g21)}.C{fill:url(#g22)}.D{fill:url(#g23)}.E{fill:url(#g24)}.F{fill:url(#g25)}.G{fill:url(#g26)}.H{fill:url(#g27)}.I{fill:url(#g28)}.J{fill:url(#g29)}.K{fill:url(#g30)}.L{fill:url(#g31)}.M{fill:url(#g32)}.N{fill:url(#g33)}.O{fill:url(#g34)}.P{fill:url(#g35)}.Q{fill:url(#g36)}.R{fill:url(#g37)}.S{fill:url(#g38)}.T{fill:url(#g39)}.U{fill:url(#g40)}.V{fill:url(#g41)}.W{fill:url(#g42)}.X{fill:url(#g43)}.Y{fill:url(#g44)}.Z{fill:url(#g45)}.a0{fill:url(#g46)}.a1{fill:url(#g47)}.a2{fill:url(#g48)}.a3{fill:url(#g49)}.a4{fill:url(#g50)}.a5{fill:url(#g51)}.a6{fill:url(#g52)}.a7{fill:url(#g53)}</style><path class="a" d="m2464.4 2404.1c-57.3 60-111.4 98.7-154.2 129.3-502.8 359.2-1097.9 254.5-1224.3 228.9-186.8-37.8-547.7-110.8-808.7-416.3-394.8-462.2-333.3-1190.5-27.1-1671.2 56-88 351.9-576 953.4-654.3 363.9-47.4 788.2 48.2 1095.5 304.5 644.9 537.9 599 1624.6 165.4 2079.1z"/><path class="b" d="m78.2 392.9c3.7-19.7 31.3-21.3 37.2-2.2 56.9 184.8 221.2 664.5 461.8 915.2 391.7 408.2 662.5 1080.3 427.2 1437.9 0 0-1331.5-210.6-926.2-2350.9z"/><path class="c" d="m129.1 657.3c0.7 4.4 1.9 9.9 2.9 15l3.3 15.6 7.1 31.2 14.6 62.3c10.1 41.4 20.7 82.7 31.7 123.9 21.8 82.5 45 164.6 69.8 246.1 50.1 163 104.3 324.8 167.2 483.2 31.8 79 63.8 157.9 99.1 235.4 35.4 77.5 72.5 154.1 112.6 229.2 79.5 150.5 170.4 295.1 276.8 428.4 1.5 1.8 1.2 4.4-0.6 5.9-1.7 1.4-4.3 1.1-5.7-0.5-56.5-64.4-108.1-133-156.6-203.6-48-71-91.8-144.7-133.7-219.5-81.9-150.5-153.2-306.7-215.4-466.1-31.3-79.7-60-160.4-87.4-241.4-27.5-81.1-53.2-162.7-76.4-245-23.4-82.3-45.6-164.9-65.5-248.1-9.8-41.6-19.3-83.3-28.2-125.1-4.4-20.9-8.8-41.8-12.9-62.8l-5.9-31.6-2.7-15.8c-0.9-5.4-1.8-10.3-2.4-16.6-0.3-2.3 1.4-4.3 3.7-4.5 2.2-0.2 4.1 1.3 4.5 3.5z"/><path class="d" d="m395.1 4.2c251.5 163.7 1676.6 1176.4 966.5 2684.3 0 0-1109.8-425.2-1005.8-2664.3 0.9-19.6 22.8-30.7 39.3-20z"/><path class="c" d="m498.9 287.3c30.5 40.4 59.8 81.6 88.6 123q43.3 62.2 84.8 125.6c55.5 84.4 108.9 170.2 160.2 257.2 102.4 174.1 196.7 353.2 278.9 537.9 82 184.7 152.3 375.2 201.3 571.7 12.4 49 22.9 98.6 32.2 148.3 2.2 12.5 4.7 24.9 6.6 37.4l5.9 37.5c3.5 25.1 7.1 50.2 9.7 75.4 11.4 100.7 14 202.5 6.6 303.7-0.3 4.3-4 7.5-8.3 7.1-4.2-0.3-7.4-4-7.1-8.2v-0.1c7.7-100.1 5.5-201-5.4-301-2.5-25-6-49.9-9.4-74.8l-5.7-37.3c-1.9-12.5-4.3-24.8-6.5-37.2-9-49.5-19.3-98.8-31.4-147.7-48.1-195.7-117.4-385.8-198.5-570.3-81.3-184.6-174.8-363.7-276.5-537.9-50.8-87.2-103.9-173-159-257.5q-41.2-63.5-84.2-125.8c-28.7-41.4-57.8-82.7-88-123-1.1-1.5-0.8-3.5 0.7-4.6 1.4-1.1 3.5-0.8 4.5 0.6z"/><path class="d" d="m2607.8 2725.8h-523.6v-1137.9h590v1071.5c0 36.7-29.7 66.4-66.4 66.4z"/><path class="e" d="m2753.2 1686.3h-697.1l-127.6-512.8h675.5l176.7 469.8c9.3 20-5.4 43-27.5 43z"/><path class="f" d="m2607.6 1180.4l-718.4 19.3-19.1-63.1 687.2-12.3c25.8 0 46.7 15.3 46.7 34.1z"/><g style="opacity:.9"><path class="g" d="m2548.4 2416.8h-334.9c-0.6 0-1.1-0.5-1.1-1.2v-517.5c0-0.6 0.5-1.1 1.1-1.1h334.9c0.6 0 1.1 0.5 1.1 1.1v517.5c0 0.7-0.5 1.2-1.1 1.2z"/><path class="h" d="m2367.2 2388.7h-129.6c-0.4 0-0.6-0.3-0.6-0.7v-462.3c0-0.3 0.2-0.6 0.6-0.6h129.6c0.4 0 0.7 0.3 0.7 0.6v462.3c0 0.4-0.3 0.7-0.7 0.7z"/><path class="h" d="m2524.3 2388.7h-129.6c-0.4 0-0.7-0.3-0.7-0.7v-462.3c0-0.3 0.3-0.6 0.7-0.6h129.6c0.4 0 0.6 0.3 0.6 0.6v462.3c0 0.4-0.2 0.7-0.6 0.7z"/></g><path class="d" d="m272.6 2725.8h543.8v-1137.9h-590v1091.7c0 25.5 20.6 46.2 46.2 46.2z"/><path class="i" d="m147.3 1686.3h697.2l135.6-512.8h-683.5l-176.7 469.8c-9.3 20 5.3 43 27.4 43z"/><path class="j" d="m296.6 1180.5l768.2 5.3 3.1-61.5h-721c-27.8 0-50.3 15.3-50.3 34.1z"/><g style="opacity:.9"><path class="g" d="m352.1 2416.8h335c0.6 0 1.1-0.5 1.1-1.2v-517.5c0-0.6-0.5-1.1-1.1-1.1h-335c-0.6 0-1.1 0.5-1.1 1.1v517.5c0 0.7 0.5 1.2 1.1 1.2z"/><path class="h" d="m533.3 2388.7h129.7c0.3 0 0.6-0.3 0.6-0.7v-462.3c0-0.3-0.3-0.6-0.6-0.6h-129.7c-0.3 0-0.6 0.3-0.6 0.6v462.3c0 0.4 0.3 0.7 0.6 0.7z"/><path class="h" d="m376.2 2388.7h129.7c0.3 0 0.6-0.3 0.6-0.7v-462.3c0-0.3-0.3-0.6-0.6-0.6h-129.7c-0.3 0-0.6 0.3-0.6 0.6v462.3c0 0.4 0.3 0.7 0.6 0.7z"/></g><path class="b" d="m1440.4 876.2c0 0-799.9 603.9-819.7 603.9v1240.7c0 30.5 24.8 55.2 55.3 55.2h1544.9c21.7 0 39.3-17.5 39.3-39.2v-1256.7z"/><path class="d" d="m1657.9 2725.8h-508.3v-75.6c0-5.8 4.8-10.6 10.7-10.6h487c5.9 0 10.6 4.8 10.6 10.6z"/><path class="h" d="m1657.9 2780.7h-508.3v-83.1c0-1.7 1.5-3.2 3.2-3.2h502c1.7 0 3.1 1.5 3.1 3.2z"/><path class="k" d="m1577.3 2639.6h-347v-673.3c0-1.9 1.6-3.5 3.6-3.5h339.8c2 0 3.6 1.6 3.6 3.5z"/><path class="l" d="m1552.8 1917.2h-298c-13.5 0-24.5-10.9-24.5-24.5v-21.4c0-12.8 10-23.5 22.8-24.4l298-20.7c14.1-1 26.2 10.2 26.2 24.4v42.1c0 13.6-11 24.5-24.5 24.5z"/><path class="m" d="m1852.8 1616.6h-3.3c-85.7 0-160.7 60.6-160.7 146.3v154.3h164z"/><path class="m" d="m1688.8 1962.8v454c0 15.2 17.9 38.9 33.2 38.9h130.8v-492.9z"/><path class="m" d="m1897.5 1616.6h-8.3v300.6h164v-154.3c0-85.7-70-146.3-155.7-146.3z"/><path class="m" d="m1889.2 2455.7h135.8c15.3 0 28.2-23.7 28.2-38.9v-454h-164z"/><path class="h" d="m949.5 1616.6h-3.3c-85.7 0-160.7 60.6-160.7 146.3v154.3h164z"/><path class="h" d="m785.5 1962.8v454c0 15.2 17.9 38.9 33.2 38.9h130.8v-492.9z"/><path class="h" d="m994.3 1616.6h-8.4v300.6h164v-154.3c0-85.7-69.9-146.3-155.6-146.3z"/><path class="h" d="m985.9 2455.7h135.8c15.3 0 28.2-23.7 28.2-38.9v-454h-164z"/><path fill-rule="evenodd" class="g" d="m2067.4 2484.1h-394.8c-22.6 0-41-18.4-41-41.1v-683.5c0-108.1 87.9-196 196-196h84.8c108.1 0 196 87.9 196 196v683.5c0 22.7-18.4 41.1-41 41.1zm-239.8-916.8c-106 0-192.2 86.2-192.2 192.2v683.5c0 20.6 16.7 37.3 37.2 37.3h394.8c20.5 0 37.2-16.7 37.2-37.3v-683.5c0-106-86.2-192.2-192.2-192.2z"/><path fill-rule="evenodd" class="g" d="m1164.3 2484.1h-394.8c-22.6 0-41-18.4-41-41.1v-683.5c0-108.1 87.9-196 196-196h84.8c108.1 0 196 87.9 196 196v683.5c0 22.7-18.4 41.1-41 41.1zm-239.8-916.8c-106 0-192.2 86.2-192.2 192.2v683.5c0 20.6 16.7 37.3 37.2 37.3h394.8c20.5 0 37.2-16.7 37.2-37.3v-683.5c0-106-86.2-192.2-192.2-192.2z"/><path class="h" d="m1242.6 2639.6h-8.4c-3.3 0-5.9-2.7-5.9-5.9v-665.9c0-2.8 2.2-5 5-5h9.3z"/><path class="n" d="m1935 1110.2h-135.6v-220.8h135.6z"/><path class="o" d="m1979.7 925.2h-219.2v-61.7c0-3.4 2.7-6.1 6.1-6.1h203.8c5.1 0 9.3 4.1 9.3 9.3z"/><path class="p" d="m570.5 1543.4l869.9-667.2 825.8 640.6c30.1 23.3 74.1 7 81.7-30.3l11.6-56.6-919.1-700.1-889.5 679.5c-16 12.1-21.8 33.5-14.1 52z"/><path class="q" d="m2115.3 1101.3l-2.3-2-674.8-589 4.5-5.1 672.4 587.1 639.9-603.1 4.6 4.9z"/><path class="r" d="m2114.9 1320.5l-6.8-0.1 3.8-223.6-3.8-620.9h6.8l3.7 620.9z"/><path class="s" d="m2115.2 1117l-327.6-600 5.9-3.3 321.7 589.3 322.3-589.3 5.9 3.3z"/><path class="t" d="m2768 507.7l-168-86.8-164.1 107.1-163.1-121.2-157.6 121.2-151.7-115.6-172.3 112.8-166.7-104.3-196.4 103.4c36.8-148.7 177.1-498.3 683.4-498.3 488.3 0 621 325.1 656.5 481.7z"/><path class="u" d="m1624.5 420.9c0 0 121.7-379.9 473.6-394.9 0 0-330.1 203.1-306.9 499.2-48.5-48.5-166.7-104.3-166.7-104.3z"/><path class="v" d="m2115.2 528l-3.7-502c0 0-166.3 221.9-148 386.4 86.2 86.2 151.7 115.6 151.7 115.6z"/><path class="w" d="m2111.5 26c0 0 159.1 204.9 161.3 380.8l163.1 121.2c0 0 68.7-330.9-324.4-502z"/><path class="x" d="m2122.7 27.8c0 0 433.8 139.2 477.3 393.1l168 86.8c0 0-68-472.3-645.3-479.9z"/><path class="y" d="m2010.3 1135.1c0 0-114.8-160.3-55-147.7 59.7 12.6 66 45.6 133.6 9.4 67.5-36.1 83.3-69.1 95.8-20.4 12.6 48.7 0 66 51.9 56.6 51.9-9.4 62.9 4.7-18.9 86.4-88 0-207.4 15.7-207.4 15.7z"/><path class="z" d="m2001.9 1147.9c0 0-354.2 307.4-249.4 561 0 0 54.5 161 350 161 295.4 0 316.4-108.5 347.8-165 25.2-81.8 97.5-187.5-232.6-557z"/><path class="A" d="m2236.7 1135.4c0 8.3-6.7 15-15 15h-223.1c-8.3 0-15-6.7-15-15v-2.2c0-8.3 6.7-15 15-15h223.1c8.3 0 15 6.7 15 15z"/><path class="B" d="m2097 1694.8v-29.2c-30.4-1.2-60.5-8.4-81.8-17.7-7.6-3.3-11.5-11.9-9.3-19.9l7.4-27.2c2.7-10 13.5-15.1 23.1-11.1 21.1 8.9 47.3 15.9 75.5 15.9 29.3 0 51.1-9.9 51.1-30.3 0-18.4-16.9-29.3-57.6-40.2-58-15.9-99.7-41.2-99.7-92.3 0-46.1 33.7-81.4 92.3-90.8v-29.2c0-9.4 7.6-17 17-17h17.1c9.4 0 17 7.6 17 17v26.2c28.1 1.1 48.6 5.9 64.9 11.7 8.3 2.9 12.8 11.9 10.5 20.4l-6.8 25.1c-2.6 9.7-13 15-22.3 11.4-15-5.6-36.2-11.5-63.6-11.5-34.8 0-44.7 14.4-44.7 27.3 0 15.9 20.8 26.8 66 40.7 64.5 19.3 91.3 46.1 91.3 94.3 0 44.1-32.8 83.8-96.3 93.8v32.6c0 9.4-7.6 17-17 17h-17.1c-9.4 0-17-7.6-17-17z"/><path fill-rule="evenodd" class="g" d="m2131.1 1715.8h-17.1c-11.6 0-21-9.4-21-21v-25.3c-27.8-1.6-57.2-8.2-79.4-17.9-9.3-4.1-14.3-14.7-11.6-24.7l7.4-27.2c1.6-5.8 5.6-10.6 11-13.3 5.5-2.6 11.9-2.8 17.5-0.4 17 7.1 43.6 15.6 74 15.6 11 0 47.1-1.9 47.1-26.3 0-15.6-15.3-25.8-54.6-36.3-92.1-25.2-102.7-67-102.7-96.2 0-48 35.3-83.9 92.3-94.2v-25.8c0-11.6 9.4-21 21-21h17.1c11.6 0 21 9.4 21 21v22.4c23 1.2 43.3 5 62.2 11.7 10.2 3.6 16 14.7 13.1 25.2l-6.8 25.1c-1.5 5.8-5.5 10.6-10.7 13.3-5.3 2.6-11.4 3-17 0.9-20.1-7.6-40.4-11.3-62.1-11.3-25.9 0-40.7 8.5-40.7 23.3 0 12.5 17.7 22.8 63.2 36.8 66.8 20.1 94.1 48.5 94.1 98.2 0 48.9-37.6 86.8-96.3 97.2v29.2c0 11.6-9.4 21-21 21zm-101.4-123.5c-2 0-4 0.5-5.8 1.4-3.3 1.6-5.8 4.5-6.7 8.2l-7.5 27.1c-1.6 6.2 1.4 12.7 7.1 15.2 22.3 9.8 52.4 16.3 80.4 17.4l3.8 0.2v33c0 7.1 5.8 13 13 13h17.1c7.2 0 13-5.9 13-13v-36.1l3.4-0.5c57.3-9 92.9-43.4 92.9-89.8 0-46-24.8-71.4-88.5-90.5-43.6-13.4-68.8-25-68.8-44.5 0-29.1 37.2-31.3 48.7-31.3 22.7 0 44 3.8 65 11.8 3.4 1.3 7.2 1.1 10.4-0.6 3.3-1.7 5.7-4.6 6.6-8.2l6.9-25.1c1.7-6.5-1.8-13.3-8.1-15.6-19.1-6.7-40-10.4-63.6-11.4l-3.9-0.1v-30.1c0-7.1-5.8-12.9-13-12.9h-17.1c-7.2 0-13 5.8-13 12.9v32.6l-3.4 0.6c-55.6 8.9-88.9 41.4-88.9 86.8 0 42.9 29.9 70.1 96.8 88.4 36.3 9.8 60.5 21 60.5 44.1 0 21.5-20.6 34.3-55.1 34.3-25.1 0-51.8-5.6-77.1-16.2-1.7-0.7-3.4-1.1-5.1-1.1z"/><path class="C" d="m596.3 1781.8c0 0-18.2-35.4-1.1-46.1 17.1-10.6 30.7 5.2 37.6 13.1 6.8 7.9-16.2 38.9-22.3 41.4-6.1 2.5-14.2-8.4-14.2-8.4z"/><path class="D" d="m614.9 1775.6c0 0-59.4 156.3 44 217.8 14.6 8.7 18.7 28 9.4 42.2-2 3.1-4.3 6.2-6.8 9.2-12 14.3-33.9 14.4-46.1 0.2-33.2-38.8-89.2-131.9-17.6-264.3z"/><path class="E" d="m716.3 2416l-76.5-21.4-19.1 109.8c0 0-31.1 0.5-56.8 16.5-25.7 15.9-116.2 99.6-116.2 99.6l-15.9-3.6-6.1 3.9-8.8 67.2 25.3-35.8c4-5.6 15.1-14.4 14.9-15 48.9-23.1 166.4-90.3 197.7-108.2 5-2.9 9-7.2 11.6-12.4z"/><path class="F" d="m711.4 2737.7c-0.6 0-1.3 0-1.9 0 2.8-35.3 15.8-191 28.7-249.3 14.7-66-22-197.9-22-197.9l-65.9 65.9 36.6 124.7c-25.1 37.7 4.1 258.3 3.5 258.2v0.5l-9.5 13.2 1.1 7.1 58.5 34.5-23-37.3c-3.7-6-5.7-12.7-6.1-19.6z"/><path class="G" d="m744.3 2800h-18.6c-3.5 0-6.8-1.6-8.9-4.4-5.9-7.5-17.9-22.3-23.7-22.6-7.7-0.6-6.7 27-6.7 27h-4.4l-5.5-34.2c-1.4-8.7 2.9-17.2 10.7-21.2 0 0 1.7 13.1 11.3 18.9 9.7 5.8 39.1 26.5 39.1 26.5 0 0 3.7-0.5 7.6 0.2 5.9 1.1 5.1 9.8-0.9 9.8z"/><path class="H" d="m413.4 2693.7l-7.3-17.2c-1.4-3.2-1.2-6.8 0.5-9.9 4.7-8.3 13.5-25.1 11.6-30.6-2.5-7.3-27.5 4.4-27.5 4.4l-1.7-4 29.4-18.5c7.3-4.6 16.9-4.1 23.6 1.5 0 0-11.3 6.8-12.9 17.9-1.6 11.1-9.1 46.3-9.1 46.3 0 0 1.9 3.2 2.8 7.1 1.3 5.8-7 8.5-9.4 3z"/><path class="I" d="m733.1 2178.9c0 0-2.2 13.2 1 49.5 3.1 36.4 18.2 121.7 15.1 203.3 0 0-42.9 10-117.5 5.2 0 0-31.5-127.4-23.8-175.8 7.7-48.5 49.3-83.2 49.3-83.2z"/><path class="J" d="m701.3 1936.1l5.3 61.7h-49.9l12.4-94.2z"/><path class="K" d="m642 1989.3c17.2-1 55.6-2.7 82.9-1.2 14.3 0.7 26.3 11 29.3 25.1l6.6 31.9c2.5 11.8 2.1 24.1-1.1 35.8l-26.6 98c0 0-23.8 14.3-75.9-1 0 0-45.8-109.2-27.1-179 1.5-5.4 6.3-9.3 11.9-9.6z"/><path class="L" d="m722.4 1864.9c1.8 1 15.8 50.5 4.1 71.2-11.8 20.8-47.7-2.5-57.4-32.5-9.7-29.9 5.9-66.7 53.3-38.7z"/><path class="M" d="m629.4 1903.6c-8 39.5-34.7 28.7-53.6 46.2-30.6 28.5-74.4-0.8-117 26.1-30.7 19.5-45.5 69.2-30.8 109.4 20.4 55.7 90.3 78.6 126.5 61.6 34.5-16.2 29.6-64.7 76.1-83.5 19.8-7.9 29.5-2.7 41.4-14.5 20.7-20.7 15.1-60.8 12.9-76.2-4.6-33.5-15.9-39.6-10.5-54.3 10.4-28.7 59.2-22.8 63.2-43 3.7-18.4-31.6-53.3-64.8-47.8-51.4 8.5-39.8 58.5-43.4 76z"/><path class="N" d="m443.4 2075.9c-0.6 0-1.2-0.4-1.3-1-6.6-27.4-3.6-49.8 8.8-66.6 20.7-28 61-30.8 61.4-30.8 0.6-0.1 1.4 0.5 1.4 1.2 0.1 0.8-0.5 1.4-1.3 1.4-0.3 0.1-39.4 2.8-59.3 29.8-12 16.2-14.8 37.8-8.4 64.3 0.1 0.8-0.3 1.5-1 1.7q-0.2 0-0.3 0z"/><path class="O" d="m575.2 2100.9q-0.1 0-0.2 0c-0.4-0.1-0.6-0.5-0.5-0.8 6.4-24.6 17.7-41.7 33.4-50.8 11.5-6.6 22.3-7.2 31.7-7.8 9.2-0.5 17.1-1 23.4-6.6 13.2-11.7 12.4-39.8-2.2-83.5-0.2-0.3 0-0.7 0.4-0.8 0.3-0.2 0.7 0 0.8 0.4 14.9 44.3 15.5 72.8 1.9 84.9-6.7 5.9-14.8 6.4-24.2 7-9.3 0.5-19.9 1.1-31.1 7.6-15.4 8.9-26.5 25.7-32.8 49.9-0.1 0.3-0.3 0.5-0.6 0.5z"/><path class="P" d="m648.5 1893.9q-0.1 0-0.2-0.1c-0.4-0.1-0.6-0.5-0.5-0.8 5.1-15.2 19.8-12.9 35.4-10.6 9.8 1.6 20 3.1 28.6 0.6 6.5-1.9 10.3-4.9 11.4-8.8 1.9-6.7-4.7-14.2-4.8-14.3-0.2-0.2-0.2-0.7 0.1-0.9 0.2-0.3 0.7-0.2 0.9 0 0.3 0.4 7.2 8.1 5.1 15.5-1.2 4.4-5.4 7.7-12.3 9.8-8.9 2.6-19.2 1-29.2-0.5-15.7-2.4-29.2-4.5-33.9 9.6-0.1 0.3-0.4 0.5-0.6 0.5z"/><path class="Q" d="m843 1802.4c0 0 26.4-29.8 12.5-44.3-13.9-14.6-31.1-2.6-39.7 3.3-8.6 6 6 41.7 11.3 45.6 5.3 4 15.9-4.6 15.9-4.6z"/><path class="R" d="m826.5 1791.8c0 0 18.7 166.1-96.7 200-16.3 4.8-25.1 22.5-19.6 38.6 1.2 3.5 2.6 7 4.3 10.6 8 16.8 29.3 22.4 44.6 11.6 41.7-29.4 119.2-105.6 82.7-251.6z"/><path class="S" d="m910.2 2432.4c0 0-11.5-17-24.1-32.7-4.9-6.2-13.5-7.5-18.8-2.9-18.3 15.4-57.1 48.7-69.9 61.9-1.9 1.9-1.1 5.5 1.7 6.9 2.2 1.2 4.7 1.5 7 0.8l91.3-25.8z"/><path class="T" d="m920 2439.5l-18.6-15.8c0 0-17.4 5.7-19.7 19.7l23.4 15.1z"/><path class="U" d="m1333.3 2018.2c29.1-65.3 56.6-162.8 24.6-260.4l-18.5-18.5c0 0 0 152.7-38 228.6 10.6 16.8 21.2 33.6 31.9 50.3z"/><path class="V" d="m1334.9 1710.1l-7 10.5c-1.9 2.9-2.4 6.5-1.3 9.8 2.8 8.6 9.3 25.5 18.3 34.5 12.5 12.5 24.9-17.4 27.4-27.4 2.5-10-14.9-34.9-19.9-39.9-5-5-25-2.5-17.5 12.5z"/><path class="W" d="m1239.4 2737.8c0 0-3.6 20.3-5.3 40.4-0.7 7.8 5.3 14.6 13.2 15 26.7 1.1 83.9 3.2 104.4 2.3 3.1-0.1 5.1-3.3 4-6.1-1-2.5-2.8-4.4-5.1-5.5l-94.5-43.4z"/><path class="X" d="m1236.5 2725.9l2.9 24.3c0 0 16.5 7.7 27.8-1l-6.8-27z"/><path class="Y" d="m1238.6 2269.8c-1.2 6.4-6.6 316.2 26.5 455 0.5 2.3-0.6 4.6-2.8 5.5-5.1 2-15 5-27 5.5-3.6 0.1-7-2.3-8-5.9-9.5-32.2-74.5-218.6-80.4-372.7-6.6-172.3 23.5-87.4 23.5-87.4z"/><path class="Z" d="m1095.6 2275.4c-27.8 70-36.9 81-49.3 160.9-14.8 95.9-87.4 29.7-126.1-1.4-4.9-4-19.5 10.1-20.9 29.9-1.8 25.9 154.7 148.5 197 61.8 27-55.4 34.5-117.7 52.5-152.2 2.2-4.3 5.9-7.7 10.3-9.6l55.3-23.6 15.6-54.2z"/><path class="a0" d="m1065.3 2026.7c-29.1-65.3-56.5-162.9-24.5-260.5l18.5-18.5c0 0 0 152.8 38 228.6-10.6 16.8-21.2 33.6-32 50.4z"/><path class="a1" d="m1238.7 2003.3h-91.4c-9.2 0-18-3.5-24.6-9.9-8.6-8.1-19.5-21.8-27.3-43.4-1.2-3.3-4.7-5.1-8-4.1-11.8 3.5-37.5 13.4-51 36.7-1.3 2.2-1.2 4.8 0.1 7l57 88.2-5.6 217.6c0 0 143.2 22.5 162.9 0l19.7-199.4c0 0 70.2-42.2 89.8-109.6l-58.9-33.7c0 0-6.9 0.3-12.8 16.1-7.7 20.8-27.7 34.5-49.9 34.5z"/><path class="a2" d="m1160.4 1936.8l-2.1 70.5c-0.1 4.6 2.7 8.6 7 10.1 8.8 2.9 24.7 6.5 42.5 2.6 5.3-1.1 8.7-6.4 7.7-11.7l-9.6-55.6z"/><path class="a3" d="m1208.8 1872.2c0.6 0.8 21.9 58.8 31.3 84.4 2.4 6.5-1.1 13.6-7.7 15.7l-20.6 3.7c-13.7 2.5-27.3-4.8-32.8-17.5l-24.8-29c-13.5-15.7-8.9-40 9.6-49.4 18.2-9.3 38.1-16.5 45-7.9z"/><path class="a4" d="m1167.7 1936l5.9-2.9c0 0-23.6-38.4 3-41.3 26.6-3 50.2-8.9 50.2-23.7 0-14.7 0-41.3-32.5-29.5-32.5 11.8-29.5 32.5-47.2 35.4-17.7 3-32.5 6-26.6 23.7 5.9 17.7 17.7 29.5 11.8 35.4-5.9 5.9 20.7 35.4 35.4 2.9z"/><path class="a5" d="m1174 1947.5c0 0-4.9-25.9-15.8-26.6-11-0.6-21 8.9-9.4 23 14.6 17.5 25.2 3.6 25.2 3.6z"/><path class="a6" d="m1063.7 1718.5l7 10.5c2 2.9 2.5 6.5 1.4 9.8-2.9 8.6-9.3 25.5-18.3 34.6-12.5 12.4-25-17.5-27.4-27.5-2.5-9.9 14.9-34.9 19.9-39.9 5-4.9 24.9-2.4 17.4 12.5z"/><path class="a7" d="m1211.6 1873.1c-0.4 0-0.7-0.3-0.8-0.7-0.1-0.4 0.2-0.9 0.7-1 0.1 0 3.3-0.7 5.2-4.3 2.1-4.1 1.5-10.4-1.8-18.4-0.2-0.4 0-0.9 0.5-1.1 0.4-0.1 0.9 0.1 1.1 0.5 3.5 8.5 4.1 15.2 1.7 19.8-2.3 4.3-6.2 5.1-6.4 5.2q-0.1 0-0.2 0z"/></svg>