<?xml version="1.0" encoding="utf-8"?>
<!-- Generator: Adobe Illustrator 26.0.3, SVG Export Plug-In . SVG Version: 6.00 Build 0)  -->
<svg version="1.0" id="katman_1" xmlns="http://www.w3.org/2000/svg" xmlns:xlink="http://www.w3.org/1999/xlink" x="0px" y="0px"
	 viewBox="0 0 800 600" style="enable-background:new 0 0 800 600;" xml:space="preserve">
<style type="text/css">
	.st0{fill-rule:evenodd;clip-rule:evenodd;fill:#FFFFFF;filter:url(#Adobe_OpacityMaskFilter);}
	.st1{mask:url(#mask0_00000152244805855849528510000005307484866023300269_);}
	.st2{fill-rule:evenodd;clip-rule:evenodd;fill:#7C47E1;}
	.st3{fill-rule:evenodd;clip-rule:evenodd;fill:#FFFFFF;}
	.st4{fill-rule:evenodd;clip-rule:evenodd;fill:#44CB86;}
</style>
<defs>
	<filter id="Adobe_OpacityMaskFilter" filterUnits="userSpaceOnUse" x="87.8" y="199.7" width="624.1" height="199.7">
		<feColorMatrix  type="matrix" values="1 0 0 0 0  0 1 0 0 0  0 0 1 0 0  0 0 0 1 0"/>
	</filter>
</defs>
<mask maskUnits="userSpaceOnUse" x="87.8" y="199.7" width="624.1" height="199.7" id="mask0_00000152244805855849528510000005307484866023300269_">
	<path class="st0" d="M87.8,199.7h624.1v199.7H87.8V199.7z"/>
</mask>
<g class="st1">
	<path class="st2" d="M612,199.7H187.6c-55.1,0-99.8,45-99.8,100.4s43.5,99.3,98.7,99.3h424.4c55.1,0,101-43.8,101-99.3
		S667.2,199.7,612,199.7z"/>
	<path class="st3" d="M608.1,374.8c-41,0-74.4-33.6-74.4-74.9c0-41.3,33.4-74.9,74.4-74.9c41,0,74.4,33.6,74.4,74.9
		C682.5,341.2,649.2,374.8,608.1,374.8z"/>
	<path class="st4" d="M608.1,351c-28,0-50.8-22.9-50.8-51.1c0-28.2,22.7-51.1,50.8-51.1c28,0,50.8,22.9,50.8,51.1
		C658.9,328.1,636.2,351,608.1,351z"/>
	<path class="st3" d="M191.4,350.7c-27.8,0-50.5-22.8-50.5-50.8c0-28,22.6-50.8,50.5-50.8c27.8,0,50.5,22.8,50.5,50.8
		C241.9,327.9,219.2,350.7,191.4,350.7z M265.8,299.9c0-41.2-33.3-74.8-74.3-74.8c-41,0-74.3,33.6-74.3,74.8
		c0,41.2,33.3,74.8,74.3,74.8c19.5,0,37.2-7.6,50.5-19.9v7.9c0,6.6,5.3,12,11.9,12c6.6,0,11.9-5.4,11.9-12v-60.4c0-0.2,0-0.5,0-0.7
		C265.7,301,265.8,300.5,265.8,299.9z"/>
	<path class="st3" d="M356.2,374.8c-41.3,0-74.9-33.8-74.9-75.3c0-41.5,33.6-75.3,74.9-75.3c18.5,0,36.3,6.8,50,19.3
		c4.9,4.5,5.3,12.1,0.9,17.1c-4.4,5-12,5.4-17,0.9c-9.3-8.4-21.4-13.1-34-13.1c-28,0-50.8,22.9-50.8,51.1
		c0,28.2,22.8,51.1,50.8,51.1c12.6,0,24.7-4.7,34-13.1c4.9-4.5,12.5-4.1,17,0.9c4.4,5,4,12.6-0.9,17.1
		C392.5,367.9,374.7,374.8,356.2,374.8z"/>
	<path class="st3" d="M534.8,352.8l-64.4-54.4l64.4-53.2c5.1-4.2,5.8-11.8,1.6-16.9c-4.2-5.1-11.7-5.8-16.8-1.6L449.7,285v-49
		c0-6.6-5.3-12-11.9-12c-6.6,0-11.9,5.4-11.9,12v126.1c0,6.6,5.3,12,11.9,12c6.6,0,11.9-5.4,11.9-12v-49l69.8,58.2
		c2.2,1.9,4.9,2.8,7.6,2.8c3.4,0,6.8-1.5,9.2-4.3C540.5,364.6,539.8,357.1,534.8,352.8z"/>
</g>
</svg>
