<?xml version="1.0" encoding="UTF-8"?>
<svg version="1.1" xmlns="http://www.w3.org/2000/svg" width="400" height="400">
<path d="M0 0 C132 0 264 0 400 0 C400 132 400 264 400 400 C268 400 136 400 0 400 C0 268 0 136 0 0 Z " fill="#015CAA" transform="translate(0,0)"/>
<path d="M0 0 C0.98613281 0.3403125 1.97226562 0.680625 2.98828125 1.03125 C17.83557046 6.61549092 29.89230468 17.4417532 38 31 C39.96516899 35.58539432 41.52820863 40.23664421 43 45 C43.34385742 45.93424805 43.68771484 46.86849609 44.04199219 47.83105469 C48.94298768 64.04280838 45.16152437 84.23556496 38.3125 99.25 C29.45446704 115.76723439 15.00984336 127.07378752 -2.6875 132.875 C-21.96894944 138.56998935 -41.04235795 135.55111742 -58.75 126.875 C-75.16782519 117.42662288 -85.41895098 102.93908612 -91 85 C-91.24492187 84.23042969 -91.48984375 83.46085937 -91.7421875 82.66796875 C-96.74737921 63.09286965 -91.95488284 43.05645532 -82 26 C-77.26928798 18.53345452 -71.04217634 13.25596835 -64 8 C-63.34257812 7.505 -62.68515625 7.01 -62.0078125 6.5 C-45.42889109 -4.88466706 -18.68480194 -7.01033416 0 0 Z " fill="#025CA9" transform="translate(316,135)"/>
<path d="M0 0 C24.0384375 -0.0928125 24.0384375 -0.0928125 48.5625 -0.1875 C53.59443604 -0.21481201 58.62637207 -0.24212402 63.81079102 -0.27026367 C70.02722168 -0.28381348 70.02722168 -0.28381348 72.95127869 -0.28633118 C74.96313985 -0.29089251 76.9749936 -0.30134766 78.98680115 -0.31672668 C97.53268633 -0.45122501 117.01521087 -0.22444396 131.53515625 13.23046875 C137.75922789 20.74914729 139.43734774 29.28891081 139.34375 38.80078125 C138.46771002 46.95392605 134.07401413 54.55245369 128 60 C123.8830222 63.098492 119.64188761 65.76307226 115 68 C115.65226562 68.30292969 116.30453125 68.60585937 116.9765625 68.91796875 C126.62712227 73.54397454 133.84474828 78.93438457 137.8125 89.1875 C140.79240617 99.30890544 139.22462853 109.46333855 135 119 C128.77670849 128.8508578 119.43565082 133.27691954 108.52734375 136.23828125 C101.31273257 137.79625376 94.38192345 138.140896 87.03125 138.09765625 C85.64987854 138.09553383 85.64987854 138.09553383 84.24060059 138.09336853 C81.32703266 138.08781407 78.41354432 138.07527025 75.5 138.0625 C73.51302195 138.05747911 71.52604269 138.05291723 69.5390625 138.04882812 C64.69267812 138.0378596 59.84635251 138.02062683 55 138 C54.88343217 133.79190116 54.81262389 129.58422004 54.75 125.375 C54.71648437 124.18519531 54.68296875 122.99539062 54.6484375 121.76953125 C54.52348276 110.58608234 54.52348276 110.58608234 59 106 C62.5299001 103.67937568 65.61781777 103.76032714 69.77734375 103.76171875 C71.09541016 103.74560547 72.41347656 103.72949219 73.77148438 103.71289062 C75.85626457 103.69644023 77.94030669 103.68750952 80.02514648 103.69458008 C82.04680254 103.69720716 84.06841778 103.66733145 86.08984375 103.63671875 C87.29503662 103.63373779 88.50022949 103.63075684 89.74194336 103.62768555 C94.04402166 102.79886252 95.30869038 101.43054141 98 98 C99.60422253 95.30166507 100.97559949 92.52619388 102.3125 89.6875 C102.67150391 88.94693359 103.03050781 88.20636719 103.40039062 87.44335938 C104.27619585 85.63336192 105.13940791 83.81728007 106 82 C99.80644203 82.04412016 93.61390667 82.11392 87.42089844 82.20751953 C85.3142104 82.23574279 83.2074162 82.25695056 81.10058594 82.27099609 C78.0717122 82.29240661 75.04411669 82.3390476 72.015625 82.390625 C71.07382385 82.39185364 70.13202271 82.39308228 69.16168213 82.39434814 C64.00721646 82.44655264 64.00721646 82.44655264 59.56152344 84.78808594 C59.0462207 85.51801758 58.53091797 86.24794922 58 87 C57.4225 87.7425 56.845 88.485 56.25 89.25 C55.63125 90.11625 55.63125 90.11625 55 91 C54.90064912 86.69504985 54.82830732 82.39071817 54.78027344 78.08496094 C54.76023668 76.62227748 54.73299896 75.15967334 54.69824219 73.69726562 C54.64936775 71.5870399 54.62695341 69.47787864 54.609375 67.3671875 C54.58842773 66.09987793 54.56748047 64.83256836 54.54589844 63.52685547 C55.18766067 58.54250216 57.3588612 55.76817207 60.71264648 52.15478516 C64.21931676 50.38442008 67.75349615 50.5390458 71.59765625 50.5234375 C72.42833115 50.50785797 73.25900604 50.49227844 74.11485291 50.47622681 C76.7640592 50.4287709 79.41300337 50.40096839 82.0625 50.375 C84.7153816 50.33847813 87.36811573 50.29783017 90.02085876 50.25234985 C91.67015458 50.22518472 93.31955804 50.2038068 94.9690094 50.18881226 C98.22716603 50.1440913 100.88774364 50.03741879 104 49 C107.63 42.4 111.26 35.8 115 29 C86.62 29 58.24 29 29 29 C29 64.97 29 100.94 29 138 C19.43 138 9.86 138 0 138 C0 92.46 0 46.92 0 0 Z " fill="#FAFDFD" transform="translate(39,132)"/>
<path d="M0 0 C5.61 0.33 11.22 0.66 17 1 C17 1.66 17 2.32 17 3 C18.299375 3.020625 19.59875 3.04125 20.9375 3.0625 C27.03478766 3.71543789 30.53170721 7.07491143 35 11 C35.86625 11.598125 36.7325 12.19625 37.625 12.8125 C45.1286162 19.72372545 48.83983108 28.48246 52 38 C52.2475 38.67417969 52.495 39.34835938 52.75 40.04296875 C57.14385494 53.86530407 53.70460027 71.0886409 47.4375 83.75 C41.87535837 93.06237349 33.77851527 102.14120503 24 107 C23.02804687 107.48339844 22.05609375 107.96679688 21.0546875 108.46484375 C7.26962588 114.13273355 -11.56476837 114.98178224 -25.625 109.875 C-28.4609375 108.49609375 -28.4609375 108.49609375 -31 107 C-31.89976562 106.49597656 -32.79953125 105.99195313 -33.7265625 105.47265625 C-39.72256206 101.82493516 -39.72256206 101.82493516 -40.734375 98.81640625 C-40.82203125 98.21699219 -40.9096875 97.61757812 -41 97 C-37.27933528 94.51955685 -34.13459526 94.55618827 -29.8125 94.375 C-29.06291016 94.33632812 -28.31332031 94.29765625 -27.54101562 94.2578125 C-25.69440801 94.16371784 -23.8472381 94.08077681 -22 94 C-21.99191315 93.21961365 -21.98382629 92.43922729 -21.97549438 91.63519287 C-21.89753057 84.27821935 -21.81023465 76.92144366 -21.71247292 69.56470871 C-21.66254216 65.78259698 -21.61621197 62.00051274 -21.578125 58.21826172 C-21.54123129 54.56768953 -21.4948605 50.91734915 -21.44193649 47.2669754 C-21.4234142 45.87477945 -21.40829822 44.48253385 -21.39665604 43.09026337 C-21.37975732 41.13917793 -21.34958829 39.18822113 -21.31884766 37.23730469 C-21.30552399 36.1269989 -21.29220032 35.01669312 -21.2784729 33.8727417 C-21.00091098 31.00939767 -20.36844888 29.47677158 -19 27 C-18.61250787 24.67504723 -18.27017161 22.34148732 -18 20 C-17.34 20 -16.68 20 -16 20 C-16 44.09 -16 68.18 -16 93 C-8.41 93.33 -0.82 93.66 7 94 C6.67 66.61 6.34 39.22 6 11 C4.68 10.34 3.36 9.68 2 9 C3.32 9 4.64 9 6 9 C6.66 7.68 7.32 6.36 8 5 C8.66 5 9.32 5 10 5 C10 4.34 10 3.68 10 3 C9.01 3.33 8.02 3.66 7 4 C4.66700175 4.03954234 2.33291811 4.04401732 0 4 C0 2.68 0 1.36 0 0 Z " fill="#085EA8" transform="translate(296,146)"/>
<path d="M0 0 C0.98613281 0.3403125 1.97226562 0.680625 2.98828125 1.03125 C17.83557046 6.61549092 29.89230468 17.4417532 38 31 C39.96516899 35.58539432 41.52820863 40.23664421 43 45 C43.34385742 45.93424805 43.68771484 46.86849609 44.04199219 47.83105469 C48.94298768 64.04280838 45.16152437 84.23556496 38.3125 99.25 C29.45446704 115.76723439 15.00984336 127.07378752 -2.6875 132.875 C-21.96894944 138.56998935 -41.04235795 135.55111742 -58.75 126.875 C-75.16782519 117.42662288 -85.41895098 102.93908612 -91 85 C-91.24492187 84.23042969 -91.48984375 83.46085937 -91.7421875 82.66796875 C-96.74737921 63.09286965 -91.95488284 43.05645532 -82 26 C-77.26928798 18.53345452 -71.04217634 13.25596835 -64 8 C-63.34257812 7.505 -62.68515625 7.01 -62.0078125 6.5 C-45.42889109 -4.88466706 -18.68480194 -7.01033416 0 0 Z M-66.90234375 25.37109375 C-78.54820602 39.96637366 -82.59854762 56.57343688 -81 75 C-80.4752529 78.94324522 -79.49791065 82.31869416 -78 86 C-77.75781738 86.60021973 -77.51563477 87.20043945 -77.26611328 87.81884766 C-70.99690126 102.88500017 -62.06517537 112.83885 -47.2265625 119.6953125 C-32.79510553 125.53079268 -13.58545661 125.5280412 0.9140625 119.60546875 C15.1710031 112.18825028 26.05690468 100.60817781 31.25390625 85.30859375 C36.33089991 68.08224114 34.9751054 51.21492297 26.33203125 35.234375 C18.55966785 22.1968622 6.69885827 14.19815488 -7.44921875 9.12109375 C-28.44333721 3.88172387 -52.03319264 9.42251243 -66.90234375 25.37109375 Z " fill="#F1F9FA" transform="translate(316,135)"/>
<path d="M0 0 C3.58326501 -0.05814085 7.16640838 -0.09364357 10.75 -0.125 C11.76578125 -0.14175781 12.7815625 -0.15851563 13.828125 -0.17578125 C14.8078125 -0.18222656 15.7875 -0.18867188 16.796875 -0.1953125 C17.69760742 -0.20578613 18.59833984 -0.21625977 19.52636719 -0.22705078 C22.17627581 0.01618007 23.76840556 0.57060042 26 2 C27.53634851 5.07269702 27.12967825 8.29201118 27.11352539 11.66259766 C27.11367142 12.45292892 27.11381744 13.24326019 27.1139679 14.05754089 C27.11326983 16.67640911 27.10548239 19.29520667 27.09765625 21.9140625 C27.09579169 23.72724366 27.09436797 25.54042533 27.09336853 27.35360718 C27.08954632 32.13103623 27.07971855 36.90843499 27.06866455 41.68585205 C27.05844407 46.55879303 27.05386954 51.4317389 27.04882812 56.3046875 C27.03809603 65.86980713 27.02050161 75.43489631 27 85 C20.07 85 13.14 85 6 85 C5.67 60.25 5.34 35.5 5 10 C3.35 9.67 1.7 9.34 0 9 C0 6.03 0 3.06 0 0 Z " fill="#EEF6F8" transform="translate(276,155)"/>
<path d="M0 0 C0.66 0 1.32 0 2 0 C2 24.09 2 48.18 2 73 C9.92 73 17.84 73 26 73 C26.99 72.01 27.98 71.02 29 70 C29.66 70 30.32 70 31 70 C31.33 71.65 31.66 73.3 32 75 C37.94 75 43.88 75 50 75 C50 76.65 50 78.3 50 80 C49.01 80 48.02 80 47 80 C47 80.66 47 81.32 47 82 C46.01 82.495 46.01 82.495 45 83 C45 83.66 45 84.32 45 85 C43.6902013 85.61000081 42.37694391 86.21257432 41.0625 86.8125 C40.33160156 87.14894531 39.60070312 87.48539062 38.84765625 87.83203125 C37.90792969 88.21746094 36.96820313 88.60289062 36 89 C35.38656738 89.26022949 34.77313477 89.52045898 34.14111328 89.78857422 C27.3948759 92.37661713 20.91893903 92.53881558 13.75 92.5 C12.54939941 92.49500488 11.34879883 92.49000977 10.11181641 92.48486328 C1.41669047 92.31330344 -5.39692244 91.47996724 -13 87 C-13.89976562 86.49597656 -14.79953125 85.99195313 -15.7265625 85.47265625 C-21.72256206 81.82493516 -21.72256206 81.82493516 -22.734375 78.81640625 C-22.82203125 78.21699219 -22.9096875 77.61757812 -23 77 C-19.27933528 74.51955685 -16.13459526 74.55618827 -11.8125 74.375 C-11.06291016 74.33632812 -10.31332031 74.29765625 -9.54101562 74.2578125 C-7.69440801 74.16371784 -5.8472381 74.08077681 -4 74 C-3.99191315 73.21961365 -3.98382629 72.43922729 -3.97549438 71.63519287 C-3.89753057 64.27821935 -3.81023465 56.92144366 -3.71247292 49.56470871 C-3.66254216 45.78259698 -3.61621197 42.00051274 -3.578125 38.21826172 C-3.54123129 34.56768953 -3.4948605 30.91734915 -3.44193649 27.2669754 C-3.4234142 25.87477945 -3.40829822 24.48253385 -3.39665604 23.09026337 C-3.37975732 21.13917793 -3.34958829 19.18822113 -3.31884766 17.23730469 C-3.30552399 16.1269989 -3.29220032 15.01669312 -3.2784729 13.8727417 C-3.00091098 11.00939767 -2.36844888 9.47677158 -1 7 C-0.61250787 4.67504723 -0.27017161 2.34148732 0 0 Z " fill="#045CA8" transform="translate(278,166)"/>
<path d="M0 0 C15 0 15 0 20 3 C20.60127258 5.82841492 20.60127258 5.82841492 20.56762695 9.30737305 C20.5672493 10.60849533 20.56687164 11.90961761 20.56648254 13.25016785 C20.54094909 14.67069451 20.5148691 16.09121143 20.48828125 17.51171875 C20.47895464 18.96473475 20.47183781 20.41776649 20.46684265 21.87080383 C20.44776018 25.69348637 20.3986506 29.51521754 20.34332275 33.33752441 C20.29215602 37.23855722 20.26933424 41.13974391 20.24414062 45.04101562 C20.19053101 52.69449417 20.10258723 60.34699254 20 68 C13.4 68 6.8 68 0 68 C0 45.56 0 23.12 0 0 Z " fill="#FAFEFD" transform="translate(311,172)"/>
<path d="M0 0 C5.28 0 10.56 0 16 0 C16 22.11 16 44.22 16 67 C9.73 67 3.46 67 -3 67 C-3.06779472 58.85489851 -3.12282669 50.71001662 -3.15543652 42.56470871 C-3.17108812 38.78245302 -3.19231679 35.00040049 -3.22631836 31.21826172 C-3.25893041 27.56781265 -3.27685682 23.91755891 -3.28463173 20.2669754 C-3.29017198 18.87470678 -3.30099084 17.48244877 -3.31719017 16.09026337 C-3.33898623 14.13938332 -3.34022559 12.18830646 -3.34057617 10.23730469 C-3.34723801 9.1269989 -3.35389984 8.01669312 -3.36076355 6.8727417 C-3 4 -3 4 0 0 Z " fill="#FAFEFE" transform="translate(257,172)"/>
<path d="M0 0 C5.61 0.33 11.22 0.66 17 1 C17 1.66 17 2.32 17 3 C19.97 3.33 22.94 3.66 26 4 C26.33 5.32 26.66 6.64 27 8 C28.65697379 8.69040574 30.3255761 9.3530635 32 10 C33.70586575 11.62652316 35.3777546 13.29006566 37 15 C37.66 15.33 38.32 15.66 39 16 C39 16.66 39 17.32 39 18 C38.01 18 37.02 18 36 18 C36 18.66 36 19.32 36 20 C37.65 19.67 39.3 19.34 41 19 C40.67 21.97 40.34 24.94 40 28 C38.68 28 37.36 28 36 28 C36 27.01 36 26.02 36 25 C30.42289352 23.93204344 25.60563042 24.17377329 20 25 C20.33 24.01 20.66 23.02 21 22 C19.02 22 17.04 22 15 22 C15 23.32 15 24.64 15 26 C14.01 26.33 13.02 26.66 12 27 C12.33 27.66 12.66 28.32 13 29 C13.09110781 30.87919548 13.11752837 32.76166792 13.11352539 34.64306641 C13.11344986 35.82413971 13.11337433 37.00521301 13.11329651 38.22207642 C13.10813522 39.50230682 13.10297394 40.78253723 13.09765625 42.1015625 C13.0962413 43.40829926 13.09482635 44.71503601 13.09336853 46.06137085 C13.08954894 49.53676258 13.07972342 53.01211257 13.06866455 56.48748779 C13.05843843 60.03331945 13.05386833 63.57915785 13.04882812 67.125 C13.03810066 74.08335049 13.02103092 81.04167324 13 88 C11.02 88.99 11.02 88.99 9 90 C9.00333092 88.83821983 9.00333092 88.83821983 9.00672913 87.65296936 C9.02673134 80.36878979 9.04197377 73.08462345 9.05181217 65.80042362 C9.05704014 62.05516963 9.06413622 58.30993824 9.07543945 54.56469727 C9.08627141 50.95318313 9.09227749 47.34169079 9.09487724 43.73016167 C9.09673094 42.34939671 9.10035049 40.968633 9.10573006 39.58787727 C9.11294447 37.66024048 9.11340809 35.73258193 9.11352539 33.80493164 C9.115746 32.70572891 9.11796661 31.60652618 9.12025452 30.47401428 C9.28046633 28.0564853 9.28046633 28.0564853 8 27 C7.76321284 24.30764224 7.57801975 21.63501844 7.4375 18.9375 C7.39431641 18.17888672 7.35113281 17.42027344 7.30664062 16.63867188 C7.20026367 14.75934562 7.09960066 12.87969756 7 11 C5.35 10.67 3.7 10.34 2 10 C2.928125 9.87625 2.928125 9.87625 3.875 9.75 C6.18437567 9.18741541 6.18437567 9.18741541 7.25 6.9375 C7.4975 6.298125 7.745 5.65875 8 5 C8.66 5 9.32 5 10 5 C10 4.34 10 3.68 10 3 C9.01 3.33 8.02 3.66 7 4 C4.66700175 4.03954234 2.33291811 4.04401732 0 4 C0 2.68 0 1.36 0 0 Z " fill="#035DA9" transform="translate(296,146)"/>
<path d="M0 0 C1.65 0 3.3 0 5 0 C5 53.46 5 106.92 5 162 C3.35 162 1.7 162 0 162 C0 108.54 0 55.08 0 0 Z " fill="#F3FEFD" transform="translate(198,120)"/>
<path d="M0 0 C2 1 2 1 3.11499023 3.8449707 C4.45275603 8.9997584 4.22827765 14.19149069 4.16015625 19.48046875 C4.15495468 20.57087967 4.14975311 21.66129059 4.14439392 22.78474426 C4.12665068 26.25246803 4.095479 29.71989032 4.0625 33.1875 C4.03485827 36.66579126 4.01015974 40.14404041 3.99131775 43.62239075 C3.97908505 45.78265667 3.96150539 47.94290041 3.93800354 50.10307312 C3.93147263 51.08121475 3.92494171 52.05935638 3.91821289 53.06713867 C3.90995987 53.92538742 3.90170685 54.78363617 3.89320374 55.66789246 C3.91758007 57.99165573 3.91758007 57.99165573 4.56370544 60.13642883 C5.19901855 62.85007989 4.15899212 64.54566375 3 67 C2.67 67 2.34 67 2 67 C1.67 64.36 1.34 61.72 1 59 C0.01 61.31 -0.98 63.62 -2 66 C-2.66 65.67 -3.32 65.34 -4 65 C-4 64.01 -4 63.02 -4 62 C-4.66 62 -5.32 62 -6 62 C-9.57033785 55.35956394 -9.79556321 48.74410847 -10.25 41.3125 C-10.34023437 40.10916016 -10.43046875 38.90582031 -10.5234375 37.66601562 C-11.91997059 16.81938056 -11.91997059 16.81938056 -8 11 C-4.875 10.25 -4.875 10.25 -2 10 C-2.66 10 -3.32 10 -4 10 C-3.29445932 6.33118845 -1.72264494 3.29549466 0 0 Z " fill="#035CAA" transform="translate(248,165)"/>
<path d="M0 0 C-0.99 0.66 -1.98 1.32 -3 2 C-4.32 1.34 -5.64 0.68 -7 0 C-7 -0.66 -7 -1.32 -7 -2 C-7.8353125 -1.98259766 -7.8353125 -1.98259766 -8.6875 -1.96484375 C-13.89778343 -1.90323567 -18.8437951 -2.25000656 -24 -3 C-24 -1.68 -24 -0.36 -24 1 C-20.7 0.67 -17.4 0.34 -14 0 C-14 2 -14 2 -15.62011719 4.10058594 C-18.65186948 6.52026514 -20.23717964 6.46593765 -24.078125 6.390625 C-25.23828125 6.37773437 -26.3984375 6.36484375 -27.59375 6.3515625 C-28.8003125 6.31804687 -30.006875 6.28453125 -31.25 6.25 C-33.08304687 6.22292969 -33.08304687 6.22292969 -34.953125 6.1953125 C-37.96954078 6.148181 -40.98437491 6.08239413 -44 6 C-44 8.64 -44 11.28 -44 14 C-46.02350324 10.96474514 -46.32124018 9.80573798 -46.625 6.3125 C-46.69976562 5.50425781 -46.77453125 4.69601563 -46.8515625 3.86328125 C-46.90054687 3.24839844 -46.94953125 2.63351563 -47 2 C-52.32170494 1.70437633 -52.32170494 1.70437633 -57 4 C-57 4.99 -57 5.98 -57 7 C-57.639375 7.28875 -58.27875 7.5775 -58.9375 7.875 C-61.15206079 8.82823451 -61.15206079 8.82823451 -62 11 C-64.31 11 -66.62 11 -69 11 C-62.33894637 2.27215215 -52.14015276 -3.38842443 -41.390625 -5.6015625 C-27.66003811 -7.21506465 -12.19980723 -7.31988434 0 0 Z " fill="#055BA5" transform="translate(320,149)"/>
<path d="M0 0 C0.99 0.33 1.98 0.66 3 1 C3.94921875 2.9609375 3.94921875 2.9609375 4.6875 5.375 C5.06455078 6.56222656 5.06455078 6.56222656 5.44921875 7.7734375 C6 10 6 10 6 13 C6.99 13 7.98 13 9 13 C9.08842548 17.24986479 9.14086428 21.49948746 9.1875 25.75 C9.21263672 26.93722656 9.23777344 28.12445313 9.26367188 29.34765625 C9.32920608 37.34282932 8.33913101 44.35233378 6 52 C3.625 52.625 3.625 52.625 1 53 C-1.85889492 50.14110508 -1.96579431 48.03591947 -2.09765625 44.04248047 C-2.08605469 42.91213379 -2.07445312 41.78178711 -2.0625 40.6171875 C-2.05476563 39.36679688 -2.04703125 38.11640625 -2.0390625 36.828125 C-2.01325241 34.21614353 -1.98721493 31.60416431 -1.9609375 28.9921875 C-1.92125537 22.53722735 -2.00222622 16.33398017 -3.07421875 9.95751953 C-3 8 -3 8 -1.51953125 6.23388672 C-1.01808594 5.8267041 -0.51664062 5.41952148 0 5 C-0.66 3.68 -1.32 2.36 -2 1 C-1.34 0.67 -0.68 0.34 0 0 Z " fill="#F7FCFB" transform="translate(352,173)"/>
<path d="M0 0 C0.99 0.33 1.98 0.66 3 1 C3 6.28 3 11.56 3 17 C3.66 17.33 4.32 17.66 5 18 C5 38.13 5 58.26 5 79 C6.485 78.505 6.485 78.505 8 78 C7.89247906 70.35907968 7.77984163 62.71824936 7.66066074 55.07750225 C7.60548208 51.52964549 7.55207023 47.98178041 7.50268555 44.43383789 C7.44584148 40.35554042 7.38133199 36.27739562 7.31640625 32.19921875 C7.29969376 30.92414963 7.28298126 29.64908051 7.26576233 28.33537292 C7.24581711 27.15437515 7.22587189 25.97337738 7.20532227 24.7565918 C7.18977798 23.71512497 7.1742337 22.67365814 7.15821838 21.60063171 C7.10531325 18.88588267 7.10531325 18.88588267 6 16 C7.32 16 8.64 16 10 16 C10 38.44 10 60.88 10 84 C16.6 84 23.2 84 30 84 C30 62.88 30 41.76 30 20 C30.33 20 30.66 20 31 20 C31 40.46 31 60.92 31 82 C33.475 81.505 33.475 81.505 36 81 C34.44997253 84.88397689 31.99523379 87.02979619 28.875 89.75 C27.96492188 90.54921875 27.05484375 91.3484375 26.1171875 92.171875 C25.41851562 92.77515625 24.71984375 93.3784375 24 94 C22.515 93.505 22.515 93.505 21 93 C22.485 92.505 22.485 92.505 24 92 C24 91.34 24 90.68 24 90 C24.99 90 25.98 90 27 90 C27 89.01 27 88.02 27 87 C23.43913342 85.81304447 20.02668976 85.64904582 16.3125 85.4375 C15.61060547 85.39431641 14.90871094 85.35113281 14.18554688 85.30664062 C12.45724794 85.2008264 10.7286489 85.09993419 9 85 C8.505 82.525 8.505 82.525 8 80 C6.35 81.32 4.7 82.64 3 84 C1.04278477 82.04278477 1.82567744 78.26521885 1.81054688 75.59033203 C1.80225357 74.81471924 1.79396027 74.03910645 1.78541565 73.23999023 C1.76797585 71.55011189 1.75281989 69.86020883 1.73963928 68.1702919 C1.71867089 65.49772977 1.69164226 62.82529129 1.66296387 60.15280151 C1.60315975 54.47691489 1.55107561 48.80097099 1.5 43.125 C1.44081484 36.55669454 1.37850477 29.98844955 1.30812073 23.42025375 C1.28151454 20.78402377 1.26071624 18.14778788 1.2401123 15.51150513 C1.22350889 13.89715283 1.20663701 12.28280326 1.18945312 10.66845703 C1.18526871 9.93275482 1.18108429 9.19705261 1.17677307 8.4390564 C1.13874151 5.3586149 0.98187392 2.94562176 0 0 Z " fill="#0C589B" transform="translate(301,156)"/>
<path d="M0 0 C0.33 0 0.66 0 1 0 C1 22.77 1 45.54 1 69 C-3.95 69.33 -8.9 69.66 -14 70 C-15.98 70.495 -15.98 70.495 -18 71 C-18.33 71.66 -18.66 72.32 -19 73 C-29.04589481 64.87778717 -36.33913583 50.82647578 -38 38 C-38.61381154 28.85959239 -38.61853203 19.83754559 -36 11 C-35.67 11 -35.34 11 -35 11 C-35.01015137 11.71760498 -35.02030273 12.43520996 -35.03076172 13.17456055 C-35.09079606 20.76400339 -34.74104233 28.24989081 -34.125 35.8125 C-34.04636719 36.89208984 -33.96773437 37.97167969 -33.88671875 39.08398438 C-33.44335649 44.64647555 -32.7961505 49.70965755 -31 55 C-30.34 55 -29.68 55 -29 55 C-28.67 55.99 -28.34 56.98 -28 58 C-26.68 55.69 -25.36 53.38 -24 51 C-23.67 51 -23.34 51 -23 51 C-22.67 53.64 -22.34 56.28 -22 59 C-21.10113192 55.90206257 -20.85048451 53.08510617 -20.79467773 49.86425781 C-20.77473251 48.84350159 -20.75478729 47.82274536 -20.73423767 46.77105713 C-20.70916893 45.12868073 -20.70916893 45.12868073 -20.68359375 43.453125 C-20.66281265 42.3267865 -20.64203156 41.200448 -20.62062073 40.03997803 C-20.55525667 36.44338051 -20.49630115 32.84671023 -20.4375 29.25 C-20.3943023 26.8111904 -20.3506876 24.37238816 -20.30664062 21.93359375 C-20.1995887 15.955806 -20.09779783 9.97794593 -20 4 C-19.67 4 -19.34 4 -19 4 C-19 24.79 -19 45.58 -19 67 C-12.73 67 -6.46 67 0 67 C0 44.89 0 22.78 0 0 Z " fill="#5F99C5" transform="translate(273,172)"/>
<path d="M0 0 C28.38 0 56.76 0 86 0 C84.43625021 3.90937449 82.76952365 7.56463799 80.875 11.3125 C80.33617187 12.38113281 79.79734375 13.44976562 79.2421875 14.55078125 C78.83226562 15.35902344 78.42234375 16.16726562 78 17 C76 15 76 15 75.875 11.375 C75.91625 10.26125 75.9575 9.1475 76 8 C77.65 8 79.3 8 81 8 C81 6.35 81 4.7 81 3 C80.07149734 2.98969254 79.14299469 2.97938507 78.18635559 2.96876526 C69.43174543 2.87074629 60.67720202 2.76822554 51.92270374 2.66066074 C47.422045 2.6055205 42.92137967 2.55211489 38.4206543 2.50268555 C34.07639212 2.45491054 29.73220679 2.40256329 25.38803673 2.34705925 C23.73149215 2.32669512 22.07492654 2.30797242 20.4183445 2.29092598 C18.09628336 2.26675 15.77436584 2.23671409 13.45239258 2.20532227 C12.42739906 2.19668907 12.42739906 2.19668907 11.38169861 2.18788147 C7.71799549 2.13166362 4.64136224 1.72827245 1 1 C1 36.64 1 72.28 1 109 C0.67 109 0.34 109 0 109 C0 73.03 0 37.06 0 0 Z " fill="#447FAF" transform="translate(68,161)"/>
<path d="M0 0 C3.3 0 6.6 0 10 0 C10.33 0.66 10.66 1.32 11 2 C7.7 2 4.4 2 1 2 C1 48.2 1 94.4 1 142 C2.32 142.33 3.64 142.66 5 143 C2.625 143.125 2.625 143.125 0 143 C-2 141 -2 141 -2.2332716 138.58867645 C-2.22535249 137.56808388 -2.21743338 136.5474913 -2.20927429 135.49597168 C-2.20505463 134.32654526 -2.20083496 133.15711884 -2.19648743 131.95225525 C-2.18151718 130.66283524 -2.16654694 129.37341522 -2.15112305 128.04492188 C-2.14233711 126.6784364 -2.13442336 125.31194508 -2.12731934 123.94544983 C-2.105378 120.22849839 -2.07082048 116.51175927 -2.03379035 112.79493141 C-1.9969366 108.91082199 -1.97068594 105.0266401 -1.94306946 101.14245605 C-1.89509403 94.61882635 -1.83932354 88.09529985 -1.77856445 81.57177734 C-1.70831026 74.02261347 -1.64849965 66.47342507 -1.59470528 58.9241271 C-1.53741248 50.89765417 -1.47261476 42.87125471 -1.40554833 34.84485817 C-1.38668769 32.52743314 -1.3692227 30.21000102 -1.3520565 27.89256287 C-1.32472974 24.25479937 -1.29238042 20.61711408 -1.25609589 16.97942924 C-1.23750392 15.00222904 -1.22374208 13.02498529 -1.21009827 11.04774475 C-1.19741913 9.87831833 -1.18473999 8.70889191 -1.17167664 7.50402832 C-1.16262645 6.48343575 -1.15357626 5.46284317 -1.14425182 4.41132355 C-1 2 -1 2 0 0 Z " fill="#115990" transform="translate(38,129)"/>
<path d="M0 0 C1.66611905 -0.042721 3.33382885 -0.04063832 5 0 C6 1 6 1 6.12025452 3.92958069 C6.1169236 5.89815285 6.1169236 5.89815285 6.11352539 7.90649414 C6.11367142 8.62840439 6.11381744 9.35031464 6.1139679 10.09410095 C6.11326869 12.49114947 6.10547595 14.88812123 6.09765625 17.28515625 C6.0957921 18.94282489 6.09436818 20.60049407 6.09336853 22.25816345 C6.08954312 26.62954214 6.07971265 31.00088781 6.06866455 35.37225342 C6.05845092 39.82954461 6.05387101 44.28684111 6.04882812 48.74414062 C6.0380904 57.49610893 6.02101371 66.24805036 6 75 C5.34 75 4.68 75 4 75 C4 50.91 4 26.82 4 2 C3.34 2 2.68 2 2 2 C2.04125 3.258125 2.0825 4.51625 2.125 5.8125 C2.2390374 9.29064073 2.05925681 9.91111478 0 13 C-0.32951298 15.85049895 -0.32951298 15.85049895 -0.31884766 19.1237793 C-0.33871735 20.38486008 -0.35858704 21.64594086 -0.37905884 22.94523621 C-0.39093522 24.32156194 -0.40259808 25.69788953 -0.4140625 27.07421875 C-0.43277289 28.48241819 -0.45234621 29.8906064 -0.4727478 31.29878235 C-0.52408893 35.00258773 -0.56370385 38.70642946 -0.60089111 42.41040039 C-0.64091847 46.1910096 -0.69201656 49.97146732 -0.7421875 53.75195312 C-0.83897017 61.16786484 -0.92336726 68.5838498 -1 76 C-1.33 76 -1.66 76 -2 76 C-2.02312589 67.1511761 -2.04091634 58.30236253 -2.05181217 49.45351505 C-2.05704046 45.34505715 -2.06413713 41.23661986 -2.07543945 37.12817383 C-2.08627025 33.16653172 -2.09227724 29.20490948 -2.09487724 25.24325371 C-2.09673114 23.72851689 -2.1003511 22.21378121 -2.10573006 20.69905281 C-2.11294307 18.58458187 -2.11399083 16.47019406 -2.11352539 14.35571289 C-2.115746 13.14992081 -2.11796661 11.94412872 -2.12025452 10.70179749 C-2 8 -2 8 -1 7 C-0.63239269 4.67182036 -0.29758419 2.3381615 0 0 Z " fill="#165E9A" transform="translate(276,164)"/>
<path d="M0 0 C0.33 0 0.66 0 1 0 C1 22.44 1 44.88 1 68 C7.6 68 14.2 68 21 68 C21 46.88 21 25.76 21 4 C21.33 4 21.66 4 22 4 C22 24.46 22 44.92 22 66 C24.475 65.505 24.475 65.505 27 65 C25.44997253 68.88397689 22.99523379 71.02979619 19.875 73.75 C18.96492188 74.54921875 18.05484375 75.3484375 17.1171875 76.171875 C16.41851562 76.77515625 15.71984375 77.3784375 15 78 C14.01 77.67 13.02 77.34 12 77 C13.485 76.505 13.485 76.505 15 76 C15 75.34 15 74.68 15 74 C15.99 74 16.98 74 18 74 C18 73.01 18 72.02 18 71 C12.27287157 69.09095719 6.02355259 69.40157017 0 69 C0 46.23 0 23.46 0 0 Z " fill="#2A6798" transform="translate(310,172)"/>
<path d="M0 0 C1 3 1 3 1 7 C1.66 7 2.32 7 3 7 C3 8.32 3 9.64 3 11 C9.6 11 16.2 11 23 11 C23 11.33 23 11.66 23 12 C21.86820312 12.03738281 20.73640625 12.07476562 19.5703125 12.11328125 C18.08850795 12.17893082 16.60673861 12.24537851 15.125 12.3125 C14.00544922 12.34633789 14.00544922 12.34633789 12.86328125 12.38085938 C10.900396 12.47811945 8.94671678 12.73042294 7 13 C6.01 14.485 6.01 14.485 5 16 C4.34 16 3.68 16 3 16 C3 31.84 3 47.68 3 64 C2.34 63.67 1.68 63.34 1 63 C1.00444122 62.3596431 1.00888245 61.71928619 1.01345825 61.05952454 C1.0577188 54.39232617 1.08787783 47.72516958 1.10986328 41.05786133 C1.11991832 38.56988835 1.13356416 36.08192718 1.15087891 33.59399414 C1.17514866 30.01706019 1.18648819 26.44028255 1.1953125 22.86328125 C1.21079636 21.19583611 1.21079636 21.19583611 1.22659302 19.4947052 C1.22674408 18.45400375 1.22689514 17.41330231 1.22705078 16.34106445 C1.231492 15.4283931 1.23593323 14.51572174 1.24050903 13.57539368 C0.97565816 10.73934529 0.17486628 8.58161072 -1 6 C-1.433125 6.86625 -1.433125 6.86625 -1.875 7.75 C-2.91666667 9.83333333 -3.95833333 11.91666667 -5 14 C-4.34 13.67 -3.68 13.34 -3 13 C-3.33 13.99 -3.66 14.98 -4 16 C-5.98 16 -7.96 16 -10 16 C-7.22450116 10.02381952 -4.47668506 4.86040092 0 0 Z " fill="#0B599B" transform="translate(250,160)"/>
<path d="M0 0 C1.65 0 3.3 0 5 0 C5 53.46 5 106.92 5 162 C3.35 162 1.7 162 0 162 C0.99 161.01 0.99 161.01 2 160 C2.94710361 155.8255497 3.12380622 151.81508137 3.12025452 147.54592896 C3.12162918 146.26714371 3.12300385 144.98835846 3.12442017 143.67082214 C3.12088171 142.2663877 3.11724691 140.8619535 3.11352539 139.45751953 C3.11324312 137.96896873 3.11340203 136.48041779 3.1139679 134.99186707 C3.11425431 130.96134691 3.10838272 126.93085664 3.10139394 122.90034342 C3.09513451 118.68428608 3.09455455 114.46822802 3.09336853 110.25216675 C3.09026285 102.27314254 3.08205975 94.29413207 3.07201904 86.3151139 C3.06083421 77.22929704 3.05534148 68.14347952 3.05032361 59.05765748 C3.0398765 40.37176387 3.02229183 21.68588304 3 3 C2.01 2.67 1.02 2.34 0 2 C0 1.34 0 0.68 0 0 Z " fill="#E1FEFE" transform="translate(198,120)"/>
<path d="M0 0 C15 0 15 0 20 3 C20.60127258 5.82841492 20.60127258 5.82841492 20.56762695 9.30737305 C20.5672493 10.60849533 20.56687164 11.90961761 20.56648254 13.25016785 C20.54094909 14.67069451 20.5148691 16.09121143 20.48828125 17.51171875 C20.47895464 18.96473475 20.47183781 20.41776649 20.46684265 21.87080383 C20.44776018 25.69348637 20.3986506 29.51521754 20.34332275 33.33752441 C20.29215602 37.23855722 20.26933424 41.13974391 20.24414062 45.04101562 C20.19053101 52.69449417 20.10258723 60.34699254 20 68 C13.4 68 6.8 68 0 68 C0 45.56 0 23.12 0 0 Z M2 1 C0.90704084 4.27887749 0.87958618 6.67267573 0.88647461 10.1237793 C0.88655014 11.38486008 0.88662567 12.64594086 0.88670349 13.94523621 C0.89181011 15.32156412 0.89702611 16.69789163 0.90234375 18.07421875 C0.90420914 19.48240611 0.90563247 20.89059411 0.90663147 22.29878235 C0.91044712 26.0026733 0.92026928 29.70652495 0.93133545 33.41040039 C0.94157003 37.19091256 0.94613348 40.97143109 0.95117188 44.75195312 C0.96189241 52.16798873 0.9794815 59.58398385 1 67 C6.94 67 12.88 67 19 67 C19 45.88 19 24.76 19 3 C16.525 2.505 16.525 2.505 14 2 C13.67 1.67 13.34 1.34 13 1 C11.14712498 0.92773498 9.29166122 0.9161878 7.4375 0.9375 C6.42558594 0.94652344 5.41367187 0.95554688 4.37109375 0.96484375 C3.58863281 0.97644531 2.80617188 0.98804688 2 1 Z " fill="#C1E6F8" transform="translate(311,172)"/>
<path d="M0 0 C0.33 0 0.66 0 1 0 C1.00238835 0.83821478 1.00477671 1.67642956 1.00723743 2.54004478 C1.06630723 22.9114656 1.14180551 43.28276731 1.23571491 63.65405846 C1.28072985 73.50536405 1.32013123 83.35663303 1.34643555 93.20800781 C1.36936962 101.79189121 1.40271584 110.37565929 1.44870156 118.95945132 C1.47269599 123.50685327 1.49138386 128.05414058 1.49761391 132.60160446 C1.50363681 136.87798676 1.52353431 141.15407547 1.55427551 145.43034935 C1.56310086 147.00334451 1.56676909 148.57637796 1.56500816 150.1493969 C1.56336752 152.29040215 1.57994863 154.4304994 1.60127258 156.57138062 C1.60588155 157.77155508 1.61049051 158.97172955 1.61523914 160.20827293 C1.74221023 161.12954287 1.86918131 162.0508128 2 163 C2.99 163.66 3.98 164.32 5 165 C3.02 165 1.04 165 -1 165 C-1.19412181 163.52168779 -1.38012131 162.04230684 -1.5625 160.5625 C-1.66691406 159.73878906 -1.77132812 158.91507813 -1.87890625 158.06640625 C-1.91886719 157.38449219 -1.95882812 156.70257813 -2 156 C-1.67 155.67 -1.34 155.34 -1 155 C-0.89101472 153.0007223 -0.85309356 150.99756013 -0.84178162 148.99534607 C-0.8319928 147.68977753 -0.82220398 146.38420898 -0.81211853 145.03907776 C-0.80621355 143.5787052 -0.80040316 142.11833226 -0.79467773 140.65795898 C-0.78510472 139.13073457 -0.77509499 137.60351284 -0.76467896 136.07629395 C-0.7375613 131.91741199 -0.71658902 127.7585186 -0.69667697 123.59959674 C-0.67485958 119.25803194 -0.64745018 114.91650263 -0.62062073 110.57496643 C-0.57063623 102.34788992 -0.52571884 94.12079376 -0.48259836 85.89367872 C-0.43327508 76.52984415 -0.37833881 67.16604519 -0.32291877 57.80224502 C-0.20901038 38.53486305 -0.10219073 19.2674475 0 0 Z " fill="#0D5C9C" transform="translate(196,119)"/>
<path d="M0 0 C0 3.9478088 -1.33724565 5.18508826 -4 8 C-4.99 8 -5.98 8 -7 8 C-7.33 9.32 -7.66 10.64 -8 12 C-7.01 12.495 -7.01 12.495 -6 13 C-11.47572816 16.11120918 -11.47572816 16.11120918 -14.0625 15.5625 C-14.701875 15.376875 -15.34125 15.19125 -16 15 C-17.6755893 15.64391204 -19.34079038 16.31498493 -21 17 C-30.05962954 19.67665558 -38.64976985 20.46814411 -48.0625 20.375 C-49.8269043 20.39240234 -49.8269043 20.39240234 -51.62695312 20.41015625 C-59.48546048 20.38409155 -66.47827671 19.26554821 -74 17 C-74 16.34 -74 15.68 -74 15 C-73.01 15.32484375 -73.01 15.32484375 -72 15.65625 C-52.57509632 21.11950416 -31.91664248 19.31809104 -14 10.125 C-8.99845404 7.18381524 -4.44993552 3.71377335 0 0 Z " fill="#1C63A0" transform="translate(341,251)"/>
<path d="M0 0 C12.51851623 -0.06982027 25.03698536 -0.12297293 37.55565739 -0.15543652 C43.36993907 -0.1710253 49.18408654 -0.19213829 54.99829102 -0.22631836 C60.61987547 -0.25915547 66.24133165 -0.27690392 71.86300468 -0.28463173 C73.9969732 -0.29013184 76.1309355 -0.30087086 78.26484871 -0.31719017 C94.66974014 -0.43754378 109.16021142 0.19445632 124 8 C123.67 8.66 123.34 9.32 123 10 C122.01 10 121.02 10 120 10 C120 9.34 120 8.68 120 8 C119.4225 7.855625 118.845 7.71125 118.25 7.5625 C115.125 6.78125 115.125 6.78125 112 6 C112 5.34 112 4.68 112 4 C110.50146484 3.90912109 110.50146484 3.90912109 108.97265625 3.81640625 C107.68230469 3.73261719 106.39195312 3.64882812 105.0625 3.5625 C103.13083984 3.44068359 103.13083984 3.44068359 101.16015625 3.31640625 C98 3 98 3 97 2 C93.98649762 1.90470388 90.99595894 1.87448096 87.98217773 1.88647461 C87.03593536 1.88632858 86.08969299 1.88618256 85.11477661 1.8860321 C81.97102608 1.88673164 78.82733399 1.89452591 75.68359375 1.90234375 C73.51025932 1.90420779 71.33692448 1.90563176 69.16358948 1.90663147 C63.43098805 1.91045779 57.69841177 1.92028903 51.96582031 1.93133545 C46.12109721 1.94154713 40.27637007 1.94612857 34.43164062 1.95117188 C22.954416 1.9619112 11.47721009 1.97898898 0 2 C0 1.34 0 0.68 0 0 Z " fill="#E4FDFE" transform="translate(40,132)"/>
<path d="M0 0 C0.54269531 0.30462158 1.08539063 0.60924316 1.64453125 0.9230957 C4.95118422 2.43487496 8.12249171 2.26652206 11.6875 2.23046875 C12.42701904 2.23001053 13.16653809 2.22955231 13.9284668 2.2290802 C15.48846038 2.22606581 17.04845117 2.21820385 18.60839844 2.20581055 C20.99164538 2.18756396 23.374503 2.18530097 25.7578125 2.18554688 C27.27604501 2.18063068 28.7942749 2.17480192 30.3125 2.16796875 C31.02301514 2.16685593 31.73353027 2.1657431 32.46557617 2.16459656 C35.20594493 2.13840429 37.69960199 2.08104644 40.35546875 1.36450195 C40.89816406 1.24421631 41.44085938 1.12393066 42 1 C42.66 1.66 43.32 2.32 44 3 C40.10794744 5.60765578 35.97535955 5.27908524 31.47265625 5.2734375 C29.77668608 5.293724 28.08072258 5.31457474 26.38476562 5.3359375 C23.72072705 5.35854117 21.05695236 5.37501218 18.39282227 5.38085938 C15.81478635 5.39039265 13.23792772 5.42417386 10.66015625 5.4609375 C9.86730728 5.45589203 9.07445831 5.45084656 8.25758362 5.44564819 C3.24001505 5.53467726 0.66525446 6.27298857 -3 10 C-4.76323505 12.12603185 -4.76323505 12.12603185 -6 14 C-6.33 12.02 -6.66 10.04 -7 8 C-5.35 7.67 -3.7 7.34 -2 7 C-2 5.02 -2 3.04 -2 1 C-1.34 0.67 -0.68 0.34 0 0 Z " fill="#14588E" transform="translate(100,178)"/>
<path d="M0 0 C3 2 3 2 4.43676758 3.59301758 C6.3853344 5.34681901 7.42182623 5.41435437 10.01171875 5.51171875 C11.14770508 5.56489258 11.14770508 5.56489258 12.30664062 5.61914062 C13.09232422 5.64169922 13.87800781 5.66425781 14.6875 5.6875 C15.48478516 5.72166016 16.28207031 5.75582031 17.10351562 5.79101562 C19.06851904 5.87338104 21.03423696 5.93837067 23 6 C23 6.33 23 6.66 23 7 C16.4 7 9.8 7 3 7 C3 9.64 3 12.28 3 15 C0.97649676 11.96474514 0.67875982 10.80573798 0.375 7.3125 C0.30023438 6.50425781 0.22546875 5.69601563 0.1484375 4.86328125 C0.09945313 4.24839844 0.05046875 3.63351563 0 3 C-5.32170494 2.70437633 -5.32170494 2.70437633 -10 5 C-10 5.99 -10 6.98 -10 8 C-10.639375 8.28875 -11.27875 8.5775 -11.9375 8.875 C-14.15206079 9.82823451 -14.15206079 9.82823451 -15 12 C-17.31 12 -19.62 12 -22 12 C-16.88489129 4.8388478 -9.28129373 -1.51531326 0 0 Z " fill="#19619D" transform="translate(273,148)"/>
<path d="M0 0 C0.67095703 0.58007812 0.67095703 0.58007812 1.35546875 1.171875 C4.1442105 3.57411736 6.93789285 5.95031428 9.8125 8.25 C12 10 12 10 14 12 C11 12 11 12 9 11 C8.01 13.31 7.02 15.62 6 18 C6.66 18 7.32 18 8 18 C8.33 18.66 8.66 19.32 9 20 C10.64363134 20.72159424 12.31050386 21.39351421 14 22 C14 22.66 14 23.32 14 24 C9.31812124 22.68018255 5.99625079 20.80204328 2.125 17.875 C1.15820312 17.15054687 0.19140625 16.42609375 -0.8046875 15.6796875 C-1.52914062 15.12539062 -2.25359375 14.57109375 -3 14 C-2.01 13.67 -1.02 13.34 0 13 C2.00781177 12.01577854 4.00892752 11.01765927 6 10 C4.10671854 7.95336824 4.10671854 7.95336824 1.875 6.6875 C0 5 0 5 -0.25 2.3125 C-0.1675 1.549375 -0.085 0.78625 0 0 Z " fill="#E5F3FA" transform="translate(248,239)"/>
<path d="M0 0 C0.495 1.485 0.495 1.485 1 3 C1.66 3 2.32 3 3 3 C1.80086322 7.39683488 0.5711885 10.09840934 -3 13 C-3.66 13 -4.32 13 -5 13 C-5.66 13.33 -6.32 13.66 -7 14 C-9.13093401 14.10697016 -11.26491653 14.15551615 -13.3984375 14.17578125 C-15.32429688 14.21155273 -15.32429688 14.21155273 -17.2890625 14.24804688 C-19.33214098 14.28314541 -21.37462561 14.31249754 -23.41796875 14.32592773 C-25.39084488 14.34143027 -27.36345813 14.38328796 -29.3359375 14.42578125 C-31.10783447 14.44765503 -31.10783447 14.44765503 -32.91552734 14.4699707 C-36.57750706 15.0992376 -37.59302126 16.27979364 -40 19 C-42.25 18.75 -42.25 18.75 -44 18 C-43 15 -43 15 -41.36108398 13.82739258 C-38.23478332 12.73184579 -35.53443151 12.76061076 -32.22265625 12.76171875 C-30.90458984 12.74560547 -29.58652344 12.72949219 -28.22851562 12.71289062 C-26.14373543 12.69644023 -24.05969331 12.68750952 -21.97485352 12.69458008 C-19.95319746 12.69720716 -17.93158222 12.66733145 -15.91015625 12.63671875 C-14.70496338 12.63373779 -13.49977051 12.63075684 -12.25805664 12.62768555 C-8.10995239 11.82852661 -6.66288922 10.19848621 -4 7 C-2.63754893 5.05913003 -2.63754893 5.05913003 -1.6875 3.1875 C-1.130625 2.135625 -0.57375 1.08375 0 0 Z " fill="#E5FEFF" transform="translate(141,223)"/>
<path d="M0 0 C0.33 0 0.66 0 1 0 C0.99057373 0.71760498 0.98114746 1.43520996 0.97143555 2.17456055 C0.91573252 9.75812918 1.22885501 17.25268892 1.8125 24.8125 C1.88275391 25.89208984 1.95300781 26.97167969 2.02539062 28.08398438 C2.48632278 34.09822715 3.46471359 38.55894121 6 44 C5.67 44.99 5.34 45.98 5 47 C-2.31088551 32.0712834 -4.81733325 16.2584997 0 0 Z " fill="#21669B" transform="translate(237,183)"/>
<path d="M0 0 C1.32 0 2.64 0 4 0 C4 27.06 4 54.12 4 82 C2.02 82 0.04 82 -2 82 C-1.02503067 81.23224243 -1.02503067 81.23224243 -0.03036499 80.44897461 C2.71934282 77.13234699 2.49526033 75.09244366 2.48583984 70.81640625 C2.49153488 69.74252151 2.49153488 69.74252151 2.49734497 68.64694214 C2.5047427 66.28501294 2.48338061 63.9243195 2.4609375 61.5625 C2.45855246 59.91870264 2.45764788 58.27490252 2.4581604 56.63110352 C2.45503374 53.18781441 2.43847933 49.74494208 2.41162109 46.30175781 C2.37764135 41.88988529 2.36999262 37.4784706 2.37151146 33.06648254 C2.37096738 29.6726851 2.35999415 26.27898758 2.34550858 22.88522339 C2.33914794 21.25854244 2.3352034 19.63185018 2.33372116 18.00515747 C2.32938028 15.73110711 2.31186288 13.45754006 2.29052734 11.18359375 C2.28290375 9.88993896 2.27528015 8.59628418 2.26742554 7.26342773 C2.01905389 4.23251704 1.60526456 2.53585199 0 0 Z " fill="#E7FCFE" transform="translate(298,157)"/>
<path d="M0 0 C0.33 0 0.66 0 1 0 C1.02923559 3.85415052 1.04687777 7.70827215 1.0625 11.5625 C1.07087891 12.64853516 1.07925781 13.73457031 1.08789062 14.85351562 C1.12430576 26.83409435 -1.28353928 35.61965088 -6.4375 46.4375 C-6.8698999 47.37928101 -6.8698999 47.37928101 -7.31103516 48.34008789 C-9.49215776 52.79204351 -9.49215776 52.79204351 -12.22265625 53.91015625 C-12.80917969 53.93980469 -13.39570313 53.96945313 -14 54 C-13.03197656 51.39378305 -12.01648119 49.02742324 -10.58203125 46.640625 C-1.66771468 31.76142005 -0.43077489 16.93587916 0 0 Z " fill="#12619A" transform="translate(361,192)"/>
<path d="M0 0 C0.99 0.33 1.98 0.66 3 1 C3.6875 3.0625 3.6875 3.0625 4 5 C4.66 5 5.32 5 6 5 C8.1838312 16.62177994 10.4557455 30.47131635 4 41 C3.01 41 2.02 41 1 41 C0 38 0 38 0.99609375 35.72265625 C1.70958984 34.40587891 1.70958984 34.40587891 2.4375 33.0625 C6.58717217 24.30079664 5.86613207 16.15843846 2.80078125 7.13671875 C1.46019632 3.54448243 1.46019632 3.54448243 0 0 Z " fill="#16619C" transform="translate(172,147)"/>
<path d="M0 0 C0.33 0 0.66 0 1 0 C1 8.375 1 8.375 0 12 C-0.66 12 -1.32 12 -2 12 C-2.144375 12.969375 -2.28875 13.93875 -2.4375 14.9375 C-3 18 -3 18 -4 19 C-4.15825258 20.99782126 -4.25119171 23.00088834 -4.31640625 25.00390625 C-4.35830078 26.21884766 -4.40019531 27.43378906 -4.44335938 28.68554688 C-4.48267578 29.96494141 -4.52199219 31.24433594 -4.5625 32.5625 C-4.60568359 33.84576172 -4.64886719 35.12902344 -4.69335938 36.45117188 C-4.799848 39.63399853 -4.90185962 42.81690674 -5 46 C-7.50822091 41.55463191 -7.38389676 37.69356517 -7.375 32.6875 C-7.37411377 31.79973877 -7.37322754 30.91197754 -7.37231445 29.99731445 C-7.18120306 19.20485606 -4.35123372 9.83702982 0 0 Z " fill="#D1EBF6" transform="translate(230,168)"/>
<path d="M0 0 C1 3 1 3 -0.125 5.625 C-2 8 -2 8 -4.6875 8.8125 C-5.450625 8.874375 -6.21375 8.93625 -7 9 C-7 9.66 -7 10.32 -7 11 C-7.66 11 -8.32 11 -9 11 C-9 11.66 -9 12.32 -9 13 C-8.34 13 -7.68 13 -7 13 C-7 14.65 -7 16.3 -7 18 C-6.01 18.33 -5.02 18.66 -4 19 C-4.66 19.66 -5.32 20.32 -6 21 C-7.03125 20.401875 -8.0625 19.80375 -9.125 19.1875 C-12.36007317 17.33606301 -15.64917836 15.63454714 -19 14 C-16.69528263 12.46352175 -14.66906524 11.33773241 -12.1875 10.1875 C-7.10086278 7.67696819 -3.18933705 4.78400557 0 0 Z " fill="#1560A0" transform="translate(171,186)"/>
<path d="M0 0 C1.875 0.3125 1.875 0.3125 4 1 C4.66 1.99 5.32 2.98 6 4 C8.31850007 4.61432869 8.31850007 4.61432869 11 5 C13.00744615 5.64389782 15.00945124 6.30562253 17 7 C17 7.66 17 8.32 17 9 C21.29 10.32 25.58 11.64 30 13 C30 13.33 30 13.66 30 14 C19.48513056 15.03086955 10.08635699 10.12558723 1.51171875 4.4296875 C1.01285156 3.95789063 0.51398438 3.48609375 0 3 C0 2.01 0 1.02 0 0 Z " fill="#2069A7" transform="translate(256,244)"/>
<path d="M0 0 C1.75666992 -0.00193359 1.75666992 -0.00193359 3.54882812 -0.00390625 C5.39444336 0.00189453 5.39444336 0.00189453 7.27734375 0.0078125 C8.48068359 0.00394531 9.68402344 0.00007812 10.92382812 -0.00390625 C17.43968013 0.00321101 23.75704569 0.25694323 30.21484375 1.1328125 C28.21484375 3.1328125 28.21484375 3.1328125 25.59204102 3.328125 C24.49947998 3.30492187 23.40691895 3.28171875 22.28125 3.2578125 C20.47043945 3.23460937 20.47043945 3.23460937 18.62304688 3.2109375 C16.09438644 3.15956807 13.56573998 3.10750485 11.03710938 3.0546875 C3.50784339 2.95912833 -3.43967853 3.43631861 -10.78515625 5.1328125 C-10.78515625 4.4728125 -10.78515625 3.8128125 -10.78515625 3.1328125 C-9.79515625 3.1328125 -8.80515625 3.1328125 -7.78515625 3.1328125 C-7.78515625 2.4728125 -7.78515625 1.8128125 -7.78515625 1.1328125 C-5.09799036 -0.21077045 -3.0061359 0.00318857 0 0 Z " fill="#236AA1" transform="translate(279.78515625,129.8671875)"/>
<path d="M0 0 C0 3 0 3 -1.57641602 4.65991211 C-4.77021493 6.4258799 -7.13549948 6.40071117 -10.77734375 6.44140625 C-12.09541016 6.46783203 -13.41347656 6.49425781 -14.77148438 6.52148438 C-16.1601438 6.53636696 -17.54881684 6.55002728 -18.9375 6.5625 C-21.65542587 6.59396704 -24.37212172 6.63962747 -27.08984375 6.69140625 C-28.89763306 6.70989624 -28.89763306 6.70989624 -30.74194336 6.72875977 C-33.90987105 6.99249657 -36.1455892 7.64642094 -39 9 C-38.34 7.02 -37.68 5.04 -37 3 C-36.02546875 3.24363281 -36.02546875 3.24363281 -35.03125 3.4921875 C-31.16065791 4.14061143 -27.41654874 4.145293 -23.5 4.125 C-22.75363281 4.12886719 -22.00726563 4.13273438 -21.23828125 4.13671875 C-17.33986835 4.1298189 -13.81962409 3.8564799 -10 3 C-8.4840625 3.061875 -8.4840625 3.061875 -6.9375 3.125 C-3.58891246 2.98250691 -2.42044844 2.2342601 0 0 Z " fill="#175B95" transform="translate(136,230)"/>
<path d="M0 0 C9.02215625 4.78726658 16.17143152 10.77171617 21 20 C20.67 20.99 20.34 21.98 20 23 C18.68 22.01 17.36 21.02 16 20 C15.67 20.99 15.34 21.98 15 23 C14.17361624 20.10765685 14 18.11257569 14 15 C12.68 15 11.36 15 10 15 C10 14.34 10 13.68 10 13 C10.99 13 11.98 13 13 13 C13 12.34 13 11.68 13 11 C12.278125 10.773125 11.55625 10.54625 10.8125 10.3125 C7.47870771 8.75673026 5.58291135 6.58291135 3 4 C2.01 4 1.02 4 0 4 C0 2.68 0 1.36 0 0 Z " fill="#1B66A0" transform="translate(322,151)"/>
<path d="M0 0 C0.93423645 3.01031744 1.04449911 3.86650268 0 7 C-4.90396795 10.24824926 -9.018828 10.40557949 -14.6796875 10.29296875 C-15.49245148 10.28872391 -16.30521545 10.28447906 -17.14260864 10.28010559 C-19.72041959 10.26340804 -22.2974282 10.22577362 -24.875 10.1875 C-26.63019699 10.17244158 -28.38540631 10.1587552 -30.140625 10.14648438 C-34.42738913 10.11353392 -38.71355886 10.06181453 -43 10 C-43 10.66 -43 11.32 -43 12 C-44.98 12.33 -46.96 12.66 -49 13 C-47.53735352 11.03588867 -47.53735352 11.03588867 -45 9 C-42.01564738 8.59386764 -39.38705944 8.41867134 -36.40234375 8.42578125 C-35.15633141 8.40453438 -35.15633141 8.40453438 -33.88514709 8.38285828 C-31.23579935 8.34098593 -28.58713191 8.32572532 -25.9375 8.3125 C-23.28461459 8.28342662 -20.63190079 8.24886317 -17.97914124 8.21000671 C-16.32983658 8.18755582 -14.68042589 8.17171421 -13.0309906 8.16316223 C-9.76793634 8.13246101 -7.11741588 8.03913863 -4 7 C-2.77554716 5.37051936 -2.77554716 5.37051936 -1.8125 3.4375 C-1.214375 2.303125 -0.61625 1.16875 0 0 Z " fill="#C7EBFB" transform="translate(147,174)"/>
<path d="M0 0 C1.16582108 0.00666183 1.16582108 0.00666183 2.35519409 0.01345825 C3.23595612 0.01360931 4.11671814 0.01376038 5.02416992 0.01391602 C6.4523555 0.02939987 6.4523555 0.02939987 7.90939331 0.04519653 C9.37008743 0.04944138 9.37008743 0.04944138 10.86029053 0.05377197 C13.9783443 0.0649899 17.09611349 0.09009734 20.21408081 0.11550903 C22.32475375 0.12553675 24.43543119 0.13466296 26.54611206 0.14285278 C31.72719916 0.16493445 36.90811966 0.19842774 42.08908081 0.24050903 C41.44882549 3.68094714 40.65756974 6.4488688 39.02658081 9.55300903 C38.66435425 10.25039185 38.30212769 10.94777466 37.92892456 11.66629028 C37.65177612 12.18578247 37.37462769 12.70527466 37.08908081 13.24050903 C36.75908081 13.24050903 36.42908081 13.24050903 36.08908081 13.24050903 C36.08908081 11.59050903 36.08908081 9.94050903 36.08908081 8.24050903 C36.74908081 8.24050903 37.40908081 8.24050903 38.08908081 8.24050903 C38.23345581 7.45675903 38.37783081 6.67300903 38.52658081 5.86550903 C39.08908081 3.24050903 39.08908081 3.24050903 40.08908081 1.24050903 C25.56908081 1.57050903 11.04908081 1.90050903 -3.91091919 2.24050903 C-1.91091919 0.24050903 -1.91091919 0.24050903 0 0 Z " fill="#216298" transform="translate(102.91091918945313,213.75949096679688)"/>
<path d="M0 0 C26.72983871 -0.76209677 26.72983871 -0.76209677 38 6 C37.01 6.66 36.02 7.32 35 8 C33.68 7.34 32.36 6.68 31 6 C31 5.34 31 4.68 31 4 C29.783125 4.04125 28.56625 4.0825 27.3125 4.125 C22.16411235 4.1331077 17.24544756 3.35169871 12.17578125 2.51171875 C8.12658294 1.8592649 4.07963155 1.41487778 0 1 C0 0.67 0 0.34 0 0 Z " fill="#206297" transform="translate(282,143)"/>
<path d="M0 0 C-0.53367187 0.21914062 -1.06734375 0.43828125 -1.6171875 0.6640625 C-10.73823563 4.54603108 -18.67244433 9.30962308 -26 16 C-25.67 14.35 -25.34 12.7 -25 11 C-24.34 11 -23.68 11 -23 11 C-23 10.34 -23 9.68 -23 9 C-22.01 9 -21.02 9 -20 9 C-20 8.34 -20 7.68 -20 7 C-19.01 7 -18.02 7 -17 7 C-17 6.34 -17 5.68 -17 5 C-16.34 5 -15.68 5 -15 5 C-15 4.34 -15 3.68 -15 3 C-13.35 3 -11.7 3 -10 3 C-10 2.01 -10 1.02 -10 0 C-3.375 -1.125 -3.375 -1.125 0 0 Z " fill="#2467A0" transform="translate(268,136)"/>
<path d="M0 0 C4.03715781 3.53958093 5.00755817 7.851708 6 13 C6.22652239 17.01605318 6.18634739 20.98317854 6 25 C5.67 25 5.34 25 5 25 C4.34 20.38 3.68 15.76 3 11 C1.02 11 -0.96 11 -3 11 C-2.505 10.484375 -2.01 9.96875 -1.5 9.4375 C0.49649241 6.19319983 0.21564385 3.73782666 0 0 Z " fill="#CCE7F2" transform="translate(172,149)"/>
<path d="M0 0 C5.28 0 10.56 0 16 0 C16.33 0.99 16.66 1.98 17 3 C20.50294871 4.71567661 20.50294871 4.71567661 24 6 C24 6.66 24 7.32 24 8 C22.824375 7.566875 21.64875 7.13375 20.4375 6.6875 C13.78229344 4.44776702 6.88970177 3.27990507 0 2 C0 1.34 0 0.68 0 0 Z " fill="#236A9E" transform="translate(138,131)"/>
<path d="M0 0 C0.66 0.33 1.32 0.66 2 1 C2.4140625 3.07421875 2.4140625 3.07421875 2.625 5.6875 C2.69976562 6.59113281 2.77453125 7.49476563 2.8515625 8.42578125 C3.01657275 11.28740637 3 14.13437073 3 17 C3.2475 17.66 3.495 18.32 3.75 19 C4 21 4 21 2.25 24.1875 C0 27 0 27 -3 28 C-2.67515625 26.85337891 -2.67515625 26.85337891 -2.34375 25.68359375 C-0.05432887 16.87568191 0.33726695 9.03125951 0 0 Z " fill="#19629B" transform="translate(177,223)"/>
<path d="M0 0 C-8.34301212 6.62143819 -18.25843955 10.42379449 -29 10 C-26.52589376 7.52589376 -25.16540495 7.52257562 -21.75 7 C-15.73705954 6.00397779 -15.73705954 6.00397779 -10 4 C-9.67 3.01 -9.34 2.02 -9 1 C-5.53568007 -0.87260537 -3.70820267 -1.10692617 0 0 Z " fill="#DCF1FA" transform="translate(167,259)"/>
<path d="M0 0 C1.98 0.66 3.96 1.32 6 2 C6 2.99 6 3.98 6 5 C6.66 5.33 7.32 5.66 8 6 C6.25 8 6.25 8 4 10 C2.68 10 1.36 10 0 10 C0 9.34 0 8.68 0 8 C-0.66 8 -1.32 8 -2 8 C-1.33333333 5.33333333 -0.66666667 2.66666667 0 0 Z " fill="#F8FBF8" transform="translate(256,249)"/>
<path d="M0 0 C2.475 0.99 2.475 0.99 5 2 C5 2.99 5 3.98 5 5 C4.01 5.33 3.02 5.66 2 6 C1.34 6.66 0.68 7.32 0 8 C-5.42307692 11 -5.42307692 11 -9 11 C-8 8 -8 8 -5.9375 6.8125 C-5.298125 6.544375 -4.65875 6.27625 -4 6 C-4 5.01 -4 4.02 -4 3 C-3.01 2.67 -2.02 2.34 -1 2 C-0.67 1.34 -0.34 0.68 0 0 Z " fill="#F9FCF6" transform="translate(329,251)"/>
<path d="M0 0 C2.97 0 5.94 0 9 0 C7.35433477 5.68502535 4.70967216 10.76681636 2 16 C0 14 0 14 -0.125 10.375 C-0.08375 9.26125 -0.0425 8.1475 0 7 C1.65 7 3.3 7 5 7 C5 5.35 5 3.7 5 2 C3.35 2 1.7 2 0 2 C0 1.34 0 0.68 0 0 Z " fill="#1B6299" transform="translate(144,162)"/>
<path d="M0 0 C0.33 0.99 0.66 1.98 1 3 C1.66 3 2.32 3 3 3 C1.80086322 7.39683488 0.5711885 10.09840934 -3 13 C-5.15634036 13 -6.92446352 12.5534764 -9 12 C-8.2575 11.319375 -7.515 10.63875 -6.75 9.9375 C-3.75618047 6.96926868 -1.96562715 3.71285128 0 0 Z " fill="#EBF6F7" transform="translate(141,223)"/>
<path d="M0 0 C0.97608217 2.92824652 1.08226668 4.95613276 1 8 C0.01 7.34 -0.98 6.68 -2 6 C-3.50930183 9.3863251 -3.50930183 9.3863251 -4 13 C-4 13.99 -4 14.98 -4 16 C-5.98 16 -7.96 16 -10 16 C-7.22450116 10.02381952 -4.47668506 4.86040092 0 0 Z " fill="#2067A5" transform="translate(250,160)"/>
<path d="M0 0 C-1.375 1.5 -1.375 1.5 -3 3 C-3.66 3 -4.32 3 -5 3 C-5 3.66 -5 4.32 -5 5 C-6.7015625 5.2165625 -6.7015625 5.2165625 -8.4375 5.4375 C-11.80777201 5.61171478 -11.80777201 5.61171478 -13 7 C-14.99958364 7.04080783 -17.00045254 7.04254356 -19 7 C-14.2067127 2.52626518 -6.68156434 -2.391784 0 0 Z " fill="#DDF2F2" transform="translate(274,135)"/>
<path d="M0 0 C3.63 0 7.26 0 11 0 C11 0.66 11 1.32 11 2 C8.69 2.33 6.38 2.66 4 3 C3.67 3.99 3.34 4.98 3 6 C4.32 6.66 5.64 7.32 7 8 C6.67 8.99 6.34 9.98 6 11 C4.02 10.34 2.04 9.68 0 9 C0 6.03 0 3.06 0 0 Z " fill="#CEECF8" transform="translate(276,155)"/>
<path d="M0 0 C0.33 0 0.66 0 1 0 C1.33 8.91 1.66 17.82 2 27 C3.485 24.525 3.485 24.525 5 22 C6 24 6 24 5.0625 27.125 C4.711875 28.07375 4.36125 29.0225 4 30 C3.34 30 2.68 30 2 30 C2 30.66 2 31.32 2 32 C1.34 32 0.68 32 0 32 C0 21.44 0 10.88 0 0 Z " fill="#2D73AE" transform="translate(93,194)"/>
<path d="M0 0 C0.33 0 0.66 0 1 0 C1 2.31 1 4.62 1 7 C1.66 7 2.32 7 3 7 C3 7.99 3 8.98 3 10 C2.43796875 9.81566406 1.8759375 9.63132812 1.296875 9.44140625 C-1.38260374 8.92647241 -3.11546311 9.27886578 -5.75 9.9375 C-6.94882813 10.22947266 -6.94882813 10.22947266 -8.171875 10.52734375 C-8.77515625 10.68332031 -9.3784375 10.83929688 -10 11 C-9.278125 10.29875 -8.55625 9.5975 -7.8125 8.875 C-5.8286838 6.9024876 -4.01682261 4.85610734 -2.25 2.6875 C-1.5075 1.800625 -0.765 0.91375 0 0 Z " fill="#1C66A1" transform="translate(173,251)"/>
<path d="M0 0 C0.99 1.32 1.98 2.64 3 4 C2 6 2 6 0 6.9375 C-2.34608221 7.8891846 -2.34608221 7.8891846 -3 11 C-5.0625 11.6875 -5.0625 11.6875 -7 12 C-6.67 9.36 -6.34 6.72 -6 4 C-5.34 4 -4.68 4 -4 4 C-3.34 3.01 -2.68 2.02 -2 1 C-1.34 1.33 -0.68 1.66 0 2 C0 1.34 0 0.68 0 0 Z " fill="#EAF5F4" transform="translate(241,228)"/>
<path d="M0 0 C4.4103647 3.49787545 5.93414557 7.62335655 7 13 C7.22656299 17.01546753 7.18348758 20.98366073 7 25 C6.67 25 6.34 25 6 25 C5.87625 23.824375 5.7525 22.64875 5.625 21.4375 C5.14146948 17.48516356 4.12382724 13.8210126 3 10 C3 9.01 3 8.02 3 7 C2.34 7 1.68 7 1 7 C0.67 4.69 0.34 2.38 0 0 Z " fill="#BDDCED" transform="translate(171,213)"/>
<path d="M0 0 C0.33 0 0.66 0 1 0 C1.02923559 3.85415052 1.04687777 7.70827215 1.0625 11.5625 C1.07087891 12.64853516 1.07925781 13.73457031 1.08789062 14.85351562 C1.13289854 29.66111991 1.13289854 29.66111991 -2.0625 33.4375 C-2.701875 33.953125 -3.34125 34.46875 -4 35 C-3.79503906 34.23300781 -3.59007812 33.46601563 -3.37890625 32.67578125 C-0.74396777 21.82084329 -0.2883578 11.12965506 0 0 Z " fill="#4E86B2" transform="translate(361,192)"/>
<path d="M0 0 C0.66 0 1.32 0 2 0 C2 1.32 2 2.64 2 4 C8.6 4 15.2 4 22 4 C22 4.33 22 4.66 22 5 C20.86820312 5.03738281 19.73640625 5.07476562 18.5703125 5.11328125 C17.08850795 5.17893082 15.60673861 5.24537851 14.125 5.3125 C13.00544922 5.34633789 13.00544922 5.34633789 11.86328125 5.38085938 C9.900396 5.47811945 7.94671678 5.73042294 6 6 C5.01 7.485 5.01 7.485 4 9 C3.01 9 2.02 9 1 9 C0.63877119 7.68942607 0.28619689 6.37646376 -0.0625 5.0625 C-0.35833984 3.96615234 -0.35833984 3.96615234 -0.66015625 2.84765625 C-0.77230469 2.23792969 -0.88445312 1.62820312 -1 1 C-0.67 0.67 -0.34 0.34 0 0 Z " fill="#165E9A" transform="translate(251,167)"/>
<path d="M0 0 C2.48389315 2.48389315 2.66770044 4.15711549 3.4375 7.5625 C4.68451209 12.83685215 6.21021223 17.88632066 8 23 C7.34 23.66 6.68 24.32 6 25 C5.67 22.69 5.34 20.38 5 18 C4.01 17.67 3.02 17.34 2 17 C0.7017874 11.23918159 -0.25706972 5.91260345 0 0 Z " fill="#27689D" transform="translate(223,212)"/>
<path d="M0 0 C0.66 0.66 1.32 1.32 2 2 C1.35546875 4.84375 1.35546875 4.84375 0.1875 8.5 C-2.43583996 17.26295607 -2.79159158 25.90297236 -3 35 C-3.33 35 -3.66 35 -4 35 C-4.47130935 8.2662862 -4.47130935 8.2662862 0 0 Z " fill="#165789" transform="translate(226,173)"/>
<path d="M0 0 C-0.99 1.485 -0.99 1.485 -2 3 C-0.35 3.33 1.3 3.66 3 4 C2.67 4.66 2.34 5.32 2 6 C-0.97 6 -3.94 6 -7 6 C-7 5.34 -7 4.68 -7 4 C-7.99 3.34 -8.98 2.68 -10 2 C-8.71211992 1.46987262 -7.41953322 0.9511671 -6.125 0.4375 C-5.40570313 0.14746094 -4.68640625 -0.14257812 -3.9453125 -0.44140625 C-2 -1 -2 -1 0 0 Z " fill="#F8FCF9" transform="translate(282,261)"/>
<path d="M0 0 C1.875 0.3125 1.875 0.3125 4 1 C4.66 1.99 5.32 2.98 6 4 C6.825 4.165 7.65 4.33 8.5 4.5 C9.7375 4.7475 9.7375 4.7475 11 5 C11.99 6.485 11.99 6.485 13 8 C11.296875 8.671875 11.296875 8.671875 9 9 C6.640625 7.890625 6.640625 7.890625 4.25 6.25 C3.45078125 5.71890625 2.6515625 5.1878125 1.828125 4.640625 C1.22484375 4.09921875 0.6215625 3.5578125 0 3 C0 2.01 0 1.02 0 0 Z " fill="#1B68AB" transform="translate(256,244)"/>
<path d="M0 0 C8.25 0.33 16.5 0.66 25 1 C25 1.33 25 1.66 25 2 C23.96359375 2.06058594 22.9271875 2.12117187 21.859375 2.18359375 C20.48957127 2.26803371 19.11978025 2.35267997 17.75 2.4375 C16.72712891 2.49647461 16.72712891 2.49647461 15.68359375 2.55664062 C10.75123333 2.80018667 10.75123333 2.80018667 6 4 C5.67 4.66 5.34 5.32 5 6 C3.35 4.02 1.7 2.04 0 0 Z " fill="#135B94" transform="translate(249,239)"/>
<path d="M0 0 C-2 3 -2 3 -5 4 C-5.33 4.66 -5.66 5.32 -6 6 C-8.31 6 -10.62 6 -13 6 C-9.04608494 0.06912741 -7.07897132 -0.71989539 0 0 Z " fill="#1562A3" transform="translate(264,154)"/>
<path d="M0 0 C8.06920186 1.04571862 14.7502133 3.32602686 22 7 C21.67 7.66 21.34 8.32 21 9 C20.01 9 19.02 9 18 9 C18 8.34 18 7.68 18 7 C17.4225 6.855625 16.845 6.71125 16.25 6.5625 C13.125 5.78125 13.125 5.78125 10 5 C10 4.34 10 3.68 10 3 C9.36191406 2.95101562 8.72382813 2.90203125 8.06640625 2.8515625 C7.24011719 2.77679688 6.41382813 2.70203125 5.5625 2.625 C4.73878906 2.55539063 3.91507813 2.48578125 3.06640625 2.4140625 C2.38449219 2.27742187 1.70257813 2.14078125 1 2 C0.67 1.34 0.34 0.68 0 0 Z " fill="#D2F1F9" transform="translate(142,133)"/>
<path d="M0 0 C0.99 0.33 1.98 0.66 3 1 C2.31164062 2.051875 2.31164062 2.051875 1.609375 3.125 C-1.94801049 8.62549521 -5.20520965 14.07504446 -8 20 C-9.00776049 16.85497566 -9.11131266 16.24912833 -7.6875 13.0625 C-7.130625 12.051875 -6.57375 11.04125 -6 10 C-5.67 9.113125 -5.34 8.22625 -5 7.3125 C-3.96613048 4.92167673 -2.89975358 3.73455762 -1 2 C-0.67 1.34 -0.34 0.68 0 0 Z " fill="#21649B" transform="translate(237,153)"/>
<path d="M0 0 C1.16161779 2.86578759 0.9946154 4.01630163 0.00390625 7.015625 C-0.70958984 8.61664063 -0.70958984 8.61664063 -1.4375 10.25 C-1.91058594 11.32765625 -2.38367188 12.4053125 -2.87109375 13.515625 C-3.24363281 14.33546875 -3.61617188 15.1553125 -4 16 C-4.33 16 -4.66 16 -5 16 C-5.33 14.02 -5.66 12.04 -6 10 C-5.34 10 -4.68 10 -4 10 C-3.896875 8.906875 -3.79375 7.81375 -3.6875 6.6875 C-3.02692273 3.14440371 -2.7972908 2.06756277 0 0 Z " fill="#20679B" transform="translate(347,214)"/>
<path d="M0 0 C0.33 0 0.66 0 1 0 C1.125 6.75 1.125 6.75 0 9 C-0.66 9 -1.32 9 -2 9 C-1.9175 9.928125 -1.835 10.85625 -1.75 11.8125 C-2 15 -2 15 -4 16.875 C-4.99 17.431875 -4.99 17.431875 -6 18 C-6.66 17.67 -7.32 17.34 -8 17 C-7.35160156 16.75765625 -6.70320312 16.5153125 -6.03515625 16.265625 C-3.81430622 15.20923302 -3.81430622 15.20923302 -3.49609375 13.046875 C-3.47675781 12.28890625 -3.45742187 11.5309375 -3.4375 10.75 C-3.16659335 6.55771961 -2.16013927 3.66284485 0 0 Z " fill="#E7F6FA" transform="translate(151,166)"/>
<path d="M0 0 C1.98 0 3.96 0 6 0 C6 0.66 6 1.32 6 2 C7.15628906 2.09087891 7.15628906 2.09087891 8.3359375 2.18359375 C9.33882813 2.26738281 10.34171875 2.35117188 11.375 2.4375 C12.87160156 2.55931641 12.87160156 2.55931641 14.3984375 2.68359375 C17 3 17 3 19 4 C18.67 4.66 18.34 5.32 18 6 C17.01 5.67 16.02 5.34 15 5 C12.43365139 4.77281504 9.88321893 4.58391816 7.3125 4.4375 C6.2596582 4.37272461 6.2596582 4.37272461 5.18554688 4.30664062 C3.45724794 4.2008264 1.7286489 4.09993419 0 4 C0 2.68 0 1.36 0 0 Z " fill="#15609A" transform="translate(311,168)"/>
<path d="M0 0 C0 3 0 3 -1.671875 4.67578125 C-4.44360178 6.25231712 -6.08852624 6.31229502 -9.25 6.1875 C-10.14203125 6.16042969 -11.0340625 6.13335937 -11.953125 6.10546875 C-12.62859375 6.07066406 -13.3040625 6.03585938 -14 6 C-14.33 5.34 -14.66 4.68 -15 4 C-12.1841408 3.33744489 -9.84420781 3.00635886 -6.9375 3.125 C-3.58891246 2.98250691 -2.42044844 2.2342601 0 0 Z " fill="#22659F" transform="translate(136,230)"/>
<path d="M0 0 C0.66 0.33 1.32 0.66 2 1 C-0.12732849 5.70251561 -2.56589296 9.20440801 -6 13 C-6.33 13 -6.66 13 -7 13 C-7.25 10.6875 -7.25 10.6875 -7 8 C-5.70264493 6.95374591 -4.36733028 5.95298777 -3 5 C-2.3574765 2.93125966 -2.3574765 2.93125966 -2 1 C-1.34 0.67 -0.68 0.34 0 0 Z " fill="#DAF4FB" transform="translate(174,178)"/>
<path d="M0 0 C1.32 0 2.64 0 4 0 C4.33 1.32 4.66 2.64 5 4 C2.36 4.99 -0.28 5.98 -3 7 C-3.33 5.68 -3.66 4.36 -4 3 C-3.01 3 -2.02 3 -1 3 C-0.67 2.01 -0.34 1.02 0 0 Z " fill="#FAFCF5" transform="translate(250,246)"/>
<path d="M0 0 C3.41281372 2.64803754 3.83195549 5.57273832 4.6875 9.6875 C4.93886719 10.86699219 5.19023437 12.04648438 5.44921875 13.26171875 C5.63097656 14.16535156 5.81273437 15.06898438 6 16 C5.34 16 4.68 16 4 16 C3.32586789 14.08594633 2.6609668 12.16863974 2 10.25 C1.62875 9.18265625 1.2575 8.1153125 0.875 7.015625 C0 4 0 4 0 0 Z " fill="#D6F2FA" transform="translate(354,170)"/>
<path d="M0 0 C0.969375 0.556875 1.93875 1.11375 2.9375 1.6875 C7.26982873 4.16438467 11.6334764 6.58405497 16 9 C13.34501768 10.0169313 12.30844625 10.13022151 9.640625 9.00390625 C8.85171875 8.52824219 8.0628125 8.05257813 7.25 7.5625 C6.45078125 7.08941406 5.6515625 6.61632812 4.828125 6.12890625 C4.22484375 5.75636719 3.6215625 5.38382812 3 5 C3 4.34 3 3.68 3 3 C2.01 2.67 1.02 2.34 0 2 C0 1.34 0 0.68 0 0 Z " fill="#256798" transform="translate(246,254)"/>
<path d="M0 0 C0.66 0.33 1.32 0.66 2 1 C1.34 2.65 0.68 4.3 0 6 C-0.66 6 -1.32 6 -2 6 C-1.979375 6.94875 -1.95875 7.8975 -1.9375 8.875 C-2 12 -2 12 -3 14 C-3.66 14 -4.32 14 -5 14 C-5.74737188 8.02102497 -3.3231898 4.67620279 0 0 Z " fill="#085B9E" transform="translate(141,216)"/>
<path d="M0 0 C2.475 0.495 2.475 0.495 5 1 C6.12880057 4.31114834 7.21302675 7.58978257 8 11 C7.01 11.495 7.01 11.495 6 12 C4 8 2 4 0 0 Z " fill="#1C659B" transform="translate(170,210)"/>
<path d="M0 0 C2.64 0 5.28 0 8 0 C7.67 1.32 7.34 2.64 7 4 C4.69 4 2.38 4 0 4 C0 2.68 0 1.36 0 0 Z " fill="#005EB4" transform="translate(296,146)"/>
<path d="M0 0 C2.97 0.495 2.97 0.495 6 1 C6 1.66 6 2.32 6 3 C6.99 3 7.98 3 9 3 C9.66 5.31 10.32 7.62 11 10 C7.19364503 6.79239749 3.45436433 3.59253891 0 0 Z " fill="#1D649E" transform="translate(334,144)"/>
<path d="M0 0 C1 3 1 3 -0.125 5.5625 C-2.26904464 8.34975803 -3.61648553 9.15412138 -7 10 C-7.99 9.67 -8.98 9.34 -10 9 C-9.44570312 8.60167969 -8.89140625 8.20335937 -8.3203125 7.79296875 C-7.59585938 7.26316406 -6.87140625 6.73335937 -6.125 6.1875 C-5.40570313 5.66542969 -4.68640625 5.14335937 -3.9453125 4.60546875 C-1.76971345 2.96727223 -1.76971345 2.96727223 0 0 Z " fill="#2F6EA6" transform="translate(171,186)"/>
<path d="M0 0 C2.24973447 -0.054138 4.49984383 -0.09285491 6.75 -0.125 C8.00296875 -0.14820313 9.2559375 -0.17140625 10.546875 -0.1953125 C13.72820492 -0.01537302 15.36521896 0.31001418 18 2 C17.67 2.66 17.34 3.32 17 4 C13.125 3.125 13.125 3.125 12 2 C10.15108054 1.76636119 8.29511969 1.58696365 6.4375 1.4375 C5.42558594 1.35371094 4.41367187 1.26992187 3.37109375 1.18359375 C2.19740234 1.09271484 2.19740234 1.09271484 1 1 C0.67 1.99 0.34 2.98 0 4 C0 2.68 0 1.36 0 0 Z " fill="#DEF9FD" transform="translate(312,172)"/>
<path d="M0 0 C0 0.66 0 1.32 0 2 C-4.1205746 3.99785435 -7.45194365 4.17835515 -12 4 C-12 3.34 -12 2.68 -12 2 C-7.8794254 0.00214565 -4.54805635 -0.17835515 0 0 Z " fill="#0A599E" transform="translate(320,150)"/>
<path d="M0 0 C1.33256282 3.64120668 0.65840377 5.66876554 -0.8125 9.1875 C-1.16957031 10.06792969 -1.52664062 10.94835937 -1.89453125 11.85546875 C-3 14 -3 14 -5 15 C-5.33 14.01 -5.66 13.02 -6 12 C-5.34 11.34 -4.68 10.68 -4 10 C-3.24223736 8.31301018 -2.53888218 6.60109367 -1.875 4.875 C-1.34519531 3.50988281 -1.34519531 3.50988281 -0.8046875 2.1171875 C-0.53914062 1.41851562 -0.27359375 0.71984375 0 0 Z " fill="#D3F1FB" transform="translate(176,239)"/>
<path d="M0 0 C0.99 0.495 0.99 0.495 2 1 C2.33926947 3.33247761 2.67240066 5.66585471 3 8 C3.66 8.66 4.32 9.32 5 10 C5.56520003 12.65537372 5.73788198 15.29144713 6 18 C3.65945446 15.65945446 3.00678935 13.78524936 1.875 10.6875 C1.52179688 9.74261719 1.16859375 8.79773438 0.8046875 7.82421875 C0.01600322 5.05616665 -0.15620348 2.85852371 0 0 Z " fill="#CFECF7" transform="translate(225,215)"/>
<path d="M0 0 C0.66 0 1.32 0 2 0 C3 3 3 3 1.6875 5.6875 C1.130625 6.450625 0.57375 7.21375 0 8 C-0.66 8 -1.32 8 -2 8 C-2 8.66 -2 9.32 -2 10 C-2.66 10 -3.32 10 -4 10 C-2.8905928 6.51329166 -1.73662334 3.22515763 0 0 Z " fill="#DEF5FB" transform="translate(146,213)"/>
<path d="M0 0 C4.81033104 2.54664585 8.32442148 4.99027798 12 9 C11.67 9.66 11.34 10.32 11 11 C6.27659574 7.29787234 6.27659574 7.29787234 4.375 5.25 C2.93973973 3.6636636 2.93973973 3.6636636 0 4 C0 2.68 0 1.36 0 0 Z " fill="#165E9B" transform="translate(322,151)"/>
<path d="M0 0 C1 3 1 3 -0.6875 6.5625 C-2.39805336 9.38759509 -3.7558811 10.95724749 -7 12 C-5.44298069 7.32894208 -2.91552627 3.91294315 0 0 Z " fill="#D3ECF6" transform="translate(238,156)"/>
<path d="M0 0 C2.125 0.9375 2.125 0.9375 4 2 C2 5 2 5 -1.125 5.6875 C-2.07375 5.790625 -3.0225 5.89375 -4 6 C-2.25 1.125 -2.25 1.125 0 0 Z " fill="#F0F7F8" transform="translate(156,160)"/>
<path d="M0 0 C3.88975419 3.59054233 6.89732195 7.73898882 10 12 C9.01 12.495 9.01 12.495 8 13 C7.4225 12.2575 6.845 11.515 6.25 10.75 C4.11440231 8.00643823 4.11440231 8.00643823 1.75 5.9375 C0 4 0 4 0 0 Z " fill="#23679B" transform="translate(234,240)"/>
<path d="M0 0 C0.33 0 0.66 0 1 0 C1.50423019 5.29441695 0.18923033 7.81413519 -3 12 C-3.66 11.34 -4.32 10.68 -5 10 C-4.625 7.375 -4.625 7.375 -4 5 C-2.68 5 -1.36 5 0 5 C0 3.35 0 1.7 0 0 Z " fill="#19639E" transform="translate(98,180)"/>
<path d="M0 0 C0 3 0 3 -1.6875 5.6875 C-4 8 -4 8 -6.75 8.3125 C-7.86375 8.1578125 -7.86375 8.1578125 -9 8 C-6.14723863 5.06799526 -3.34920216 2.35684596 0 0 Z " fill="#22649F" transform="translate(341,251)"/>
<path d="M0 0 C2.31 1.98 4.62 3.96 7 6 C6.01 6.66 5.02 7.32 4 8 C2 6.8125 2 6.8125 0 5 C-0.25 2.3125 -0.25 2.3125 0 0 Z " fill="#D0E8F2" transform="translate(248,239)"/>
<path d="M0 0 C-2.25 2.5625 -2.25 2.5625 -5 5 C-7.3125 4.8125 -7.3125 4.8125 -9 4 C-8 1 -8 1 -6.1875 -0.25 C-3.66056586 -1.11637742 -2.47778006 -0.88492145 0 0 Z " fill="#D8EEF6" transform="translate(106,237)"/>
<path d="M0 0 C0 0.33 0 0.66 0 1 C-1.08667969 1.29003906 -1.08667969 1.29003906 -2.1953125 1.5859375 C-7.18045615 2.92860286 -12.12594691 4.28749486 -17 6 C-16 3 -16 3 -14.1796875 2.05078125 C-9.24482262 0.46995165 -5.18102823 -0.33070393 0 0 Z " fill="#D8EFF9" transform="translate(279,144)"/>
<path d="M0 0 C10.55808656 0.77904328 10.55808656 0.77904328 15 3 C15 3.33 15 3.66 15 4 C4.44191344 3.22095672 4.44191344 3.22095672 0 1 C0 0.67 0 0.34 0 0 Z " fill="#D7F2FA" transform="translate(304,133)"/>
<path d="M0 0 C1.65 0.33 3.3 0.66 5 1 C1.777893 4.8665284 -1.14922412 5.88059018 -6 7 C-5.67 6.01 -5.34 5.02 -5 4 C-3.35 4 -1.7 4 0 4 C0 2.68 0 1.36 0 0 Z " fill="#D7F0F8" transform="translate(159,192)"/>
<path d="M0 0 C4.29 1.65 8.58 3.3 13 5 C13 5.33 13 5.66 13 6 C8.428721 5.45144652 4.32564205 4.58255197 0 3 C0 2.01 0 1.02 0 0 Z " fill="#E1F5FD" transform="translate(262,251)"/>
<path d="M0 0 C0.99 0.66 1.98 1.32 3 2 C1.71283353 3.00578589 0.42011342 4.00446798 -0.875 5 C-1.95394531 5.8353125 -1.95394531 5.8353125 -3.0546875 6.6875 C-5 8 -5 8 -7 8 C-6.67 7.01 -6.34 6.02 -6 5 C-5.01 5 -4.02 5 -3 5 C-2.814375 4.0409375 -2.814375 4.0409375 -2.625 3.0625 C-2.41875 2.381875 -2.2125 1.70125 -2 1 C-1.34 0.67 -0.68 0.34 0 0 Z " fill="#D8F0F9" transform="translate(337,251)"/>
<path d="M0 0 C1.32 0 2.64 0 4 0 C4 0.66 4 1.32 4 2 C4.66 2 5.32 2 6 2 C6 2.99 6 3.98 6 5 C6.99 5.33 7.98 5.66 9 6 C9.6875 8.0625 9.6875 8.0625 10 10 C2.51708428 3.84965831 2.51708428 3.84965831 0 0 Z " fill="#C3E3F0" transform="translate(328,154)"/>
<path d="M0 0 C1.45880109 0.14107747 2.91703551 0.28802415 4.375 0.4375 C5.59316406 0.55931641 5.59316406 0.55931641 6.8359375 0.68359375 C9 1 9 1 11 2 C11 2.99 11 3.98 11 5 C7.27566618 3.7874262 3.62197194 2.49140021 0 1 C0 0.67 0 0.34 0 0 Z " fill="#D8F1F9" transform="translate(311,145)"/>
<path d="M0 0 C2.64 0.99 5.28 1.98 8 3 C8 3.99 8 4.98 8 6 C4.20696275 4.99806563 1.28463659 4.18975773 -2 2 C-1.34 2 -0.68 2 0 2 C0 1.34 0 0.68 0 0 Z " fill="#DAEFF6" transform="translate(320,137)"/>
<path d="M0 0 C0.33 1.32 0.66 2.64 1 4 C-1.64 6.31 -4.28 8.62 -7 11 C-7.66 10.67 -8.32 10.34 -9 10 C-8.27683594 9.29423828 -8.27683594 9.29423828 -7.5390625 8.57421875 C-6.90742188 7.95160156 -6.27578125 7.32898438 -5.625 6.6875 C-4.68527344 5.76517578 -4.68527344 5.76517578 -3.7265625 4.82421875 C-1.81913393 2.91187472 -1.81913393 2.91187472 0 0 Z " fill="#CAE9F8" transform="translate(338,236)"/>
<path d="M0 0 C4.54805635 -0.17835515 7.8794254 0.00214565 12 2 C12 2.33 12 2.66 12 3 C3.42857143 3.28571429 3.42857143 3.28571429 0 1 C0 0.67 0 0.34 0 0 Z " fill="#2F6FA5" transform="translate(274,255)"/>
<path d="M0 0 C0.66 0 1.32 0 2 0 C2 0.66 2 1.32 2 2 C2.66 2 3.32 2 4 2 C4.33 1.34 4.66 0.68 5 0 C5 0.99 5 1.98 5 3 C5.99 3 6.98 3 8 3 C8 3.99 8 4.98 8 6 C2.33846154 4.52307692 2.33846154 4.52307692 0.625 1.875 C0.41875 1.25625 0.2125 0.6375 0 0 Z " fill="#1863A0" transform="translate(245,234)"/>
<path d="M0 0 C0.66 1.32 1.32 2.64 2 4 C0.25 6.0625 0.25 6.0625 -2 8 C-4.25 7.75 -4.25 7.75 -6 7 C-5.195625 6.21625 -4.39125 5.4325 -3.5625 4.625 C-1.01309583 2.28017144 -1.01309583 2.28017144 0 0 Z " fill="#CADFEF" transform="translate(138,228)"/>
<path d="M0 0 C0.75 1.625 0.75 1.625 1 4 C-0.8125 7.25 -0.8125 7.25 -3 10 C-3.66 10 -4.32 10 -5 10 C-3.84414715 6.08788267 -2.64465038 3.1254959 0 0 Z " fill="#2869A1" transform="translate(358,226)"/>
<path d="M0 0 C2.625 -0.1875 2.625 -0.1875 5 0 C3.02 2.31 1.04 4.62 -1 7 C-1.33 5.68 -1.66 4.36 -2 3 C-1.34 2.01 -0.68 1.02 0 0 Z " fill="#E2F5FA" transform="translate(97,187)"/>
<path d="M0 0 C0 0.66 0 1.32 0 2 C-2.75 4.1875 -2.75 4.1875 -6 6 C-8.203125 5.61328125 -8.203125 5.61328125 -10 5 C-8.71186658 4.16121545 -7.41936744 3.32913217 -6.125 2.5 C-5.40570313 2.0359375 -4.68640625 1.571875 -3.9453125 1.09375 C-2 0 -2 0 0 0 Z " fill="#2F6EA1" transform="translate(268,148)"/>
<path d="M0 0 C0.33 0 0.66 0 1 0 C1 3.3 1 6.6 1 10 C0.01 10 -0.98 10 -2 10 C-2.22036864 6.14354879 -1.60355101 3.50776784 0 0 Z " fill="#0F599F" transform="translate(252,227)"/>
<path d="M0 0 C0.33 0 0.66 0 1 0 C1 2.97 1 5.94 1 9 C0.01 9 -0.98 9 -2 9 C-3 6 -3 6 -1.5625 2.8125 C-1.046875 1.884375 -0.53125 0.95625 0 0 Z " fill="#1F69A6" transform="translate(175,179)"/>
<path d="M0 0 C2.125 0.9375 2.125 0.9375 4 2 C0.32612505 2.85298376 -3.0447393 3.10789471 -6.8125 3.0625 C-8.27623047 3.04896484 -8.27623047 3.04896484 -9.76953125 3.03515625 C-10.87361328 3.01775391 -10.87361328 3.01775391 -12 3 C-12 2.67 -12 2.34 -12 2 C-10.95199219 1.90912109 -10.95199219 1.90912109 -9.8828125 1.81640625 C-8.97273437 1.73261719 -8.06265625 1.64882812 -7.125 1.5625 C-6.22007812 1.48128906 -5.31515625 1.40007812 -4.3828125 1.31640625 C-1.98889139 1.13010715 -1.98889139 1.13010715 0 0 Z " fill="#19629C" transform="translate(140,179)"/>
<path d="M0 0 C0.93423645 3.01031744 1.04449911 3.86650268 0 7 C-3 9 -3 9 -5.1875 8.625 C-5.785625 8.41875 -6.38375 8.2125 -7 8 C-6.01 7.67 -5.02 7.34 -4 7 C-2.77554716 5.37051936 -2.77554716 5.37051936 -1.8125 3.4375 C-1.214375 2.303125 -0.61625 1.16875 0 0 Z " fill="#C5E5F3" transform="translate(147,174)"/>
<path d="M0 0 C0.99 0.33 1.98 0.66 3 1 C0.69 3.31 -1.62 5.62 -4 8 C-4.66 7.34 -5.32 6.68 -6 6 C-5.38125 5.7525 -4.7625 5.505 -4.125 5.25 C-1.64931313 3.79371361 -1.04874998 2.62187494 0 0 Z " fill="#DCF2FC" transform="translate(253,154)"/>
<path d="M0 0 C-1 3 -1 3 -3 4 C-4.99960012 4.039992 -7.00047242 4.04346799 -9 4 C-4.5 0 -4.5 0 0 0 Z " fill="#D3EDF4" transform="translate(264,138)"/>
<path d="M0 0 C0.99 0 1.98 0 3 0 C3.33 0.66 3.66 1.32 4 2 C5.64363134 2.72159424 7.31050386 3.39351421 9 4 C9 4.66 9 5.32 9 6 C5.59687262 4.94124926 2.98646769 3.99097846 0 2 C0 1.34 0 0.68 0 0 Z " fill="#D7EFF9" transform="translate(253,257)"/>
<path d="M0 0 C0.99 0 1.98 0 3 0 C2.39301257 4.12751449 0.96189209 7.3321148 -1 11 C-2.41687119 6.74938644 -1.19320039 4.28148375 0 0 Z " fill="#E0F4FC" transform="translate(354,225)"/>
<path d="M0 0 C0.66 0.66 1.32 1.32 2 2 C0.515 7.445 0.515 7.445 -1 13 C-1.33 13 -1.66 13 -2 13 C-2.05447047 11.58376784 -2.09300508 10.16691809 -2.125 8.75 C-2.14820313 7.96109375 -2.17140625 7.1721875 -2.1953125 6.359375 C-1.9828378 3.79268059 -1.28654105 2.2083933 0 0 Z " fill="#23639A" transform="translate(226,173)"/>
<path d="M0 0 C0.66 0.33 1.32 0.66 2 1 C0.68 4.3 -0.64 7.6 -2 11 C-2.33 11 -2.66 11 -3 11 C-3.36923077 4.6 -3.36923077 4.6 -1.5 1.5625 C-1.005 1.046875 -0.51 0.53125 0 0 Z " fill="#D1EFFA" transform="translate(240,172)"/>
<path d="M0 0 C0.66 1.32 1.32 2.64 2 4 C2.66 3.67 3.32 3.34 4 3 C3.67 3.99 3.34 4.98 3 6 C1.02 6 -0.96 6 -3 6 C-2.01 4.02 -1.02 2.04 0 0 Z " fill="#195F9D" transform="translate(243,170)"/>
<path d="M0 0 C1.46067199 0.45082469 2.91848032 0.91093537 4.375 1.375 C5.18710937 1.63023437 5.99921875 1.88546875 6.8359375 2.1484375 C9 3 9 3 11 5 C8 6 8 6 5.8125 5.0625 C5.214375 4.711875 4.61625 4.36125 4 4 C4 3.34 4 2.68 4 2 C2.68 1.67 1.36 1.34 0 1 C0 0.67 0 0.34 0 0 Z " fill="#2D6CA0" transform="translate(309,145)"/>
<path d="M0 0 C3.3 0.33 6.6 0.66 10 1 C10.33 2.32 10.66 3.64 11 5 C7.37 3.68 3.74 2.36 0 1 C0 0.67 0 0.34 0 0 Z " fill="#306CA3" transform="translate(316,135)"/>
<path d="M0 0 C-2 2 -2 2 -3.9453125 2.1953125 C-5.96354167 2.13020833 -7.98177083 2.06510417 -10 2 C-6.80505194 -1.19494806 -4.22040044 -1.35655728 0 0 Z " fill="#3071A4" transform="translate(278,146)"/>
<path d="M0 0 C1.32 0 2.64 0 4 0 C4 1.32 4 2.64 4 4 C2.35 4 0.7 4 -1 4 C-1 1 -1 1 0 0 Z " fill="#E5F3F6" transform="translate(327,247)"/>
<path d="M0 0 C3.2542015 2.83430453 4.5206753 4.68607774 5 9 C3.0625 8.4375 3.0625 8.4375 1 7 C0.25 3.375 0.25 3.375 0 0 Z " fill="#C6ECF9" transform="translate(171,213)"/>
<path d="M0 0 C0.33 0 0.66 0 1 0 C1 2.64 1 5.28 1 8 C0.34 8 -0.32 8 -1 8 C-1.625 5.6875 -1.625 5.6875 -2 3 C-1.34 2.01 -0.68 1.02 0 0 Z " fill="#0B579D" transform="translate(92,261)"/>
<path d="M0 0 C0.33 0.66 0.66 1.32 1 2 C0.67 2.99 0.34 3.98 0 5 C-1.98 4.34 -3.96 3.68 -6 3 C-3 1 -3 1 0 0 Z " fill="#3F77A0" transform="translate(158,197)"/>
<path d="M0 0 C0.99 0.33 1.98 0.66 3 1 C3 3.97 3 6.94 3 10 C1.19669467 6.39338934 0.53400897 3.91606575 0 0 Z " fill="#D8F6FD" transform="translate(347,182)"/>
<path d="M0 0 C0.99 0.33 1.98 0.66 3 1 C3.73046875 3.06640625 3.73046875 3.06640625 4.1875 5.5625 C4.34605469 6.38878906 4.50460937 7.21507812 4.66796875 8.06640625 C4.77753906 8.70449219 4.88710938 9.34257812 5 10 C2.35534962 6.8745041 1.15585285 3.91211733 0 0 Z " fill="#CBE9F5" transform="translate(341,168)"/>
<path d="M0 0 C0.66 0.33 1.32 0.66 2 1 C1.34 2.65 0.68 4.3 0 6 C-0.99 5.67 -1.98 5.34 -3 5 C-3 3.68 -3 2.36 -3 1 C-2.01 0.67 -1.02 0.34 0 0 Z " fill="#FAF8F1" transform="translate(249,149)"/>
<path d="M0 0 C2.31 0.33 4.62 0.66 7 1 C5 3 5 3 1.875 3.125 C0.451875 3.063125 0.451875 3.063125 -1 3 C-0.67 2.01 -0.34 1.02 0 0 Z " fill="#0261B8" transform="translate(308,148)"/>
</svg>
