<svg version="1.2" xmlns="http://www.w3.org/2000/svg" viewBox="0 0 1000 502" width="1000" height="502"><style>.a{fill:#fab29a}.b{opacity:.5;mix-blend-mode:multiply;fill:#cc8a79}.c{fill:#875c50}.d{opacity:.5;mix-blend-mode:multiply;fill:#875c50}.e{fill:#fff}.f{mix-blend-mode:multiply;fill:#b3b3b3}.g{fill:#333}</style><path class="a" d="m451.8 496.6c0 0 17 10 30.7 2.1 13.6-8 23.2-14 23.2-14l-30-17.6z"/><path class="b" d="m451.8 496.6c0 0 17 10 30.7 2.1 13.6-8 23.2-14 23.2-14l-30-17.6z"/><path class="c" d="m680.4 388.4c-6.3 9.2-19.4 19-45.9 4.2q0 0 0 0c0.6 1 8.7 13.8 5 29q-0.6 2.4-1.7 5-0.1 0.2-0.2 0.4c-7.9 17.9-32.1 19.3-38.8 17.1 0.2 0.4 4.5 9.5-2.4 20.7-0.9 1.4-1.8 2.7-3 4.1-11.1 13.1-26.5 10-31.2 8.6-4.6-1.5-9.9-5.7-9.9-5.7 0 0-0.9 7.7-5.6 14-3.3 4.5-8.5 8.3-16.5 8.3-12.9 0.1-23.1-3.5-34.8-9.8-2.6-1.5-5.3-3-8.1-4.7-3.7-2.2-7.6-4.6-11.8-7.1-21.8-13.4-106.9-55.4-106.9-55.4 0 0-15.7-13-33.7-27.5-15.4-12.5-32.6-26.2-42.7-33.7l-16.9-8.1-49.5-23.7-23.2-11.1-66.6-31.9 91.6-130.9 45.2 19.7 56.6 24.8 33.7 14.7 76.7-17.8 18.4-4.3 61.5 39 152.3 96.6 6.1 24.4 6 13.4q0 0 0 0c0.7 1.5 1.1 3.1 1.1 4.7q0 0.2 0.1 0.4c0.1 5-0.2 15.7-4.9 22.6z"/><path class="d" d="m487.3 479.6c-3.7-2.2-7.6-4.6-11.8-7.1-21.8-13.4-106.9-55.4-106.9-55.4 0 0-15.7-13-33.7-27.5-15.4-12.5-32.6-26.2-42.7-33.7l-16.9-8.1-49.5-23.7 10.5-18.3 74.8 35.3c0 0 92.8 78.2 119.7 95.1 26.8 16.9 55.5 38.8 55.5 38.8z"/><path class="d" d="m329.4 194.7l-54.1 153.1-72.7-34.8 70.2-143.1z"/><path class="d" d="m684.1 360.7q0 0 0 0l-6-13.4-6.1-24.4-152.3-96.6-61.5-39-18.4 4.3-11.6 16.6-51.6 70.9c0 0 8.8 22.2 37.1 19.9 28.4-2.4 52.3-41.7 62.3-46.4 4-1.9 26.1 6 53.6 17.6 40.7 22.5 119.9 66.7 136.8 78 9.2 6.2 15.1 12.3 18.8 17.2 0-1.6-0.4-3.2-1.1-4.7z"/><path class="d" d="m639.5 421.6c-16-11.3-42.9-29.6-56.6-39-22.5-15.4-19.7-34.8-19.7-34.8l71.3 44.8q0 0 0 0c0.6 1 8.7 13.8 5 29z"/><path class="d" d="m596.4 464.8c-11.4-7.6-30-20.2-41.4-27.9-17.2-11.7-17.9-34.1-17.9-34.1l61.7 41.3c0.2 0.4 4.5 9.5-2.4 20.7z"/><path class="d" d="m552.3 471.8c0 0-0.9 7.7-5.6 14-9.9-5.9-24.2-14.7-33.2-21.7-15-11.7-14.2-23.8-14.2-23.8z"/><path class="a" d="m900.9 246.8l-128.1 46.9-52 19q-0.6 0.7-1.2 1.3c-9.7 11.1-21.6 20.3-30.2 26.1-6.7 4.6-11.3 7.2-11.3 7.2l-3.6-4.7c-3.6-4.6-8.1-8.6-13.2-11.6l-21.7-13-41.2-24.7-7.6-4.6-4.9-2.9-87.2-52.3c-3.3-2-7.1-2.6-10.7-1.8q-0.9 0.2-1.8 0.5l-25.1 8.6-1.4 0.5q-0.7 0.3-1.4 0.6c-1.6 0.8-3.1 1.8-4.3 3q-1.1 1.1-2 2.5c-19.2 30.3-39.2 39.8-54.2 41.6q-2.8 0.4-5.4 0.4c-3.9 0-7.4-0.5-10.3-1.2-6.1-1.4-9.5-8-7.2-13.9l27.3-59.7c2.4-5.9 6.8-10.9 12.4-13.9l74-40c4.8-2.7 10.4-3.8 15.8-3.2l127.9 12.9 39.7-14.7 51.8-19.2 119.3-44 48.6 129.8z"/><path class="e" d="m320.9 181.6l-78.2 170.5-54.2-24.6-54.9-24.9 92-166.9 38.3 18.5z"/><path class="d" d="m495.4 484.3c-6-3.3-12.4-7.3-19.9-11.8-21.8-13.4-106.9-55.4-106.9-55.4 0 0-15.7-13-33.7-27.5 8.1 0.2 24.3 3.1 41 20l22.2-10.5c0 0 24.1 2 33.4 33.8l22.8-10.1c0 0 16.3 7.8 18.8 28.7 0 0 18.3 6.6 21.4 18.1 1.6 6.1 1.4 11.2 0.9 14.7z"/><path class="a" d="m352.2 428.7c-3.5 0.5-7.4 0-11.6-2-13.6-6.3-26.4-31-16.2-38.3 0 0 5.4-5.4 19.6 3.1 8.3 5 13.7 9.8 16.9 14.6 2.3 3.3 3.4 6.6 3.7 10 0.5 5.6-4.7 11.6-12.4 12.6z"/><path class="b" d="m352.2 428.7c2.2-8.7 6.3-17.7 8.7-22.6 2.3 3.3 3.4 6.6 3.7 10 0.5 5.6-4.7 11.6-12.4 12.6z"/><path class="a" d="m375.1 461.3c-12.2-2.6-19.7-14.9-16.9-27.1 1.9-7.7 5.3-18.3 11.4-27.8 12.1-18.8 47.4-10.9 43.9 20.7l-13.6 30.6c0 0-12.4 6.3-24.8 3.6z"/><path class="a" d="m457.8 447.5l-16.4 34.2c-0.9 0.4-17 5.9-30.6-3.8q-1.4-0.9-2.5-1.9c-10.6-9-8.4-18.3-8.4-18.3l13.6-30.6c0 0 9.7-18.7 26.7-14.4q0.5 0.1 1 0.3c17.6 5.4 21 21.6 16.6 34.5z"/><path class="a" d="m488.2 466.1c-1.8 8.9-9.3 31.7-9.3 31.7-3.1 3-8.2 6.2-22.2 1.1-2.8-1-5.1-2.3-6.9-3.7-7.6-5.7-8.4-13.5-8.4-13.5l13.4-28c6-5.2 11.7-6.3 16.7-5.3 10.4 2.1 17.4 13.7 16.7 17.7z"/><path class="b" d="m440.2 412.7c-4.9 3.6-13.8 12-19.9 28.2-4.6 12.1-8.9 25.3-12 35.1-10.6-9-8.4-18.3-8.4-18.3l13.6-30.6c0 0 9.7-18.7 26.7-14.4z"/><path class="b" d="m471.5 448.4c-3.2 2.8-8 8.6-12.5 20.4-3.7 9.9-6.9 19.4-9.2 26.4-7.6-5.7-8.4-13.5-8.4-13.5l13.4-28c6-5.2 11.7-6.3 16.7-5.3z"/><path class="b" d="m891.7 222.3c-94.2 31.8-203.2 69.1-212.9 75.1-8.4 5.1-17 7.9-23.6 9.4-10.2-6.5-23.3-14.7-37.5-23.6 23.8-18.8 21.7-49.2 21.7-49.2-7.3 23.3-19.4 36.3-30.9 43.5-50.3-31.4-110.8-68.1-115.2-68.3-7.4-0.2-39.2 10.2-39.2 10.2 0 0-2 32-28.1 52-11 8.4-20.7 14-28.2 17.6 15-1.8 35-11.3 54.2-41.6q0.9-1.4 2-2.5 0.4-0.4 0.9-0.8 0-0.1 0.1-0.1 0.5-0.4 1-0.8 0 0 0.1 0 0.4-0.3 0.9-0.6 0.1-0.1 0.2-0.1 0.5-0.3 1.1-0.6 0.3-0.1 0.6-0.3 0.4-0.1 0.8-0.3l1.4-0.5 25.1-8.6q0.5-0.2 0.9-0.3 0.1 0 0.2-0.1 0.3 0 0.6-0.1c3.7-0.8 7.5-0.2 10.8 1.8l87.2 52.3 12.5 7.5 41.2 24.7 21.7 13c5.1 3 9.6 7 13.2 11.6l3.6 4.7c0 0 4.6-2.6 11.3-7.2 8.9-6.1 21.4-15.7 31.4-27.4l180.1-65.9z"/><path class="b" d="m772.8 293.7l-52 19q-0.6 0.7-1.2 1.3l-47.6-158.3 51.8-19.2z"/><path class="e" d="m858.9 283.4l-53.3 18.2-60.2 20.5-61.2-177.3 59.9-22 39.3-14.4z"/><path class="f" d="m858.9 283.4l-53.3 18.2-61.5-178.8 39.3-14.4z"/><path  d="m1000 5.4v277.1l-148 68.1-23.3-56.9-7.4-17.8-10.7-26.1-17.2-41.8-4.3-10.6-30.4-73.8-2.2-5.3-3.1-7.6 115.2-42.4z"/><path class="f" d="m263.9 154.2l-75.4 173.3-54.9-24.9 92-166.9z"/><path  d="m255.3 140.9l-3.9 7.2-5.3 10.2-34.7 65.4-5.4 10.2-34.1 64.4-9.3 17.5-28.8 54.3-97.6-57-23.1-13.5-13.1-7.6v-291.9l144.7 87.5z"/><path class="g" d="m53 293.9c-0.5 11.3-10.2 20-21.5 19.5-11.3-0.6-20-10.2-19.5-21.5 0.6-11.3 10.2-20.1 21.5-19.5 11.3 0.5 20.1 10.2 19.5 21.5z"/></svg>