<svg version="1.2" xmlns="http://www.w3.org/2000/svg" viewBox="0 0 869 750" width="869" height="750"><defs><linearGradient id="P" gradientUnits="userSpaceOnUse"/><linearGradient id="g1" x2="1" href="#P" gradientTransform="matrix(.981,0,0,.98,430.047,231.315)"><stop stop-color="#dbdcdd"/><stop offset="1" stop-color="#dbdcdd"/></linearGradient></defs><style>.a{fill:#2c9390}.b{fill:#54565b}.c{fill:#2f3135}.d{fill:none}.e{fill:#989da0}.f{fill:#dbdcdd}.g{opacity:.5;fill:#b2b5b7}.h{fill:url(#g1)}.i{fill:#fff}.j{fill:#e5b15e}.k{fill:#f2c370}.l{fill:#f7d592}.m{fill:#e9f3f4}.n{fill:#e24040}.o{fill:#af1717}.p{fill:#f25a5a}.q{fill:#eae9e8}.r{fill:#cecbc8}.s{opacity:.3;fill:#bcbec0}.t{opacity:.3;mix-blend-mode:overlay;fill:#fff}.u{fill:#85888e}.v{fill:#bcbec0}.w{fill:#efeaea}.x{fill:#ffaf00}.y{fill:#ff7900}</style><path class="a" d="m180.4 202.8l9.3 17.1 17.2 9.4-17.2 9.3-9.3 17.1-9.4-17.1-17.1-9.3 17.1-9.4z"/><path class="a" d="m634.6 263.2l7.8 14.3 14.3 7.8-14.3 7.8-7.8 14.3-7.8-14.3-14.3-7.8 14.3-7.8z"/><path class="a" d="m66.6 405.9l7.4 13.5 13.4 7.3-13.4 7.3-7.4 13.4-7.3-13.4-13.4-7.3 13.4-7.3z"/><path class="a" d="m22.1 588.9l7.8 14.3 14.3 7.8-14.3 7.8-7.8 14.3-7.8-14.3-14.3-7.8 14.3-7.8z"/><path class="a" d="m262.4 709.7l7.1 13 13 7.1-13 7.1-7.1 12.9-7.1-12.9-13-7.1 13-7.1z"/><path class="a" d="m668.7 430.2l7.6 13.9 13.9 7.6-13.9 7.6-7.6 13.9-7.6-13.9-13.9-7.6 13.9-7.6z"/><path class="a" d="m428.4 361.6l8 14.8 14.8 8.1-14.8 8-8 14.8-8.1-14.8-14.8-8 14.8-8.1z"/><path class="a" d="m283.3 314.4l6.6 12.1 12.1 6.7-12.1 6.6-6.6 12.1-6.7-12.1-12.1-6.6 12.1-6.7z"/><path class="a" d="m400.1 126.1l9.3 17 16.9 9.2-16.9 9.3-9.3 16.9-9.3-16.9-16.9-9.3 16.9-9.2z"/><path class="a" d="m709.8 595.8l8.1 14.9 14.9 8.2-14.9 8.1-8.1 14.9-8.2-14.9-14.9-8.1 14.9-8.2z"/><path class="b" d="m724.3 136.8h144v97.8h-144z"/><path class="c" d="m724.3 190.1v44.5h144v-44.5z"/><path fill-rule="evenodd" class="c" d="m474.8 247l-15.9 31.3c-3.5 6.8-11.8 9.5-18.6 6l-7.5-3.8-33.3-16.9c-6.8-3.5-9.5-11.8-6.1-18.7l15.9-31.3c3.5-6.8 11.9-9.5 18.7-6l33.3 16.9q0 0 0.1 0.1l7.4 3.7c6.8 3.5 9.5 11.8 6 18.7zm-31.3-8.6c2.7 1.3 6 0.3 7.3-2.4l0.4-0.6c1.3-2.7 0.3-6-2.4-7.4l-23.8-12.1c-2.7-1.3-6-0.3-7.3 2.4l-0.4 0.7c-1.3 2.6-0.3 5.9 2.4 7.3z"/><path fill-rule="evenodd" class="d" d="m443.5 238.4q0.6 0.3 1.2 0.4-0.7-0.1-1.4-0.5l-6.9-3.5q-0.1 0 0-0.1zm0.9-12.5l-9.8-5c0.1-3.1 0.4-6.2 1-9.3l9 4.5h-0.1c-0.4 3.3-0.5 6.6-0.1 9.8zm22.4 36.8l-2.8 5.5"/><path class="c" d="m439 213.2l-9-4.6q-0.1 0.5-0.2 0.9-0.9 4.2-1.1 8.3l9.8 5c-0.3-3.2-0.1-6.4 0.5-9.6z"/><path fill-rule="evenodd" class="b" d="m467.3 243.1l-15.9 31.4c-3.5 6.8-11.8 9.5-18.6 6l-33.3-16.9-7.5-3.9c-6.8-3.4-9.6-11.8-6.1-18.6l16-31.3c3.4-6.8 11.8-9.5 18.6-6l7.5 3.8 33.3 16.9q0 0 0.1 0.1c6.7 3.4 9.4 11.8 5.9 18.5zm-18.5-15.1l-23.8-12.1c-2.7-1.3-6-0.3-7.3 2.4l-0.4 0.7c-1.3 2.6-0.3 5.9 2.4 7.3l23.8 12.1c2.7 1.3 6 0.3 7.3-2.4l0.4-0.6c1.3-2.7 0.3-6-2.4-7.4z"/><path class="b" d="m444.8 216.1l-9.1-4.6q-1 4.7-1 9.4l10 5.1q-0.6-4.9 0.1-9.9z"/><path class="c" d="m421.5 221.1l0.3-0.6c1.4-2.7 4.7-3.8 7.4-2.4l-4.2-2.2c-2.7-1.3-6-0.3-7.3 2.4l-0.4 0.7c-1.3 2.6-0.3 5.9 2.4 7.3l4.2 2.1c-2.7-1.3-3.8-4.6-2.4-7.3z"/><path class="e" d="m423.9 303.9v-4.4l9.5-18.7-28.5-14.5-35.3 69.4c-2.2 4.4-3 9.3-2.1 13.6l2.2 11.1-2.1 4.2 4.8 2.4c1 0.7 2.5 0.7 3.9 0.1l13.8-6.3c4.1-1.8 7.6-5.3 9.8-9.7l5.1-10-1.7-7.7 7.2-3.1 5.8-11.3-1.4-6 5.6-2.4z"/><path class="f" d="m398.3 330.9l7.2-3.1 5.8-11.4-1.4-6 5.6-2.4 3.4-6.7v-4.4l9.5-18.7-28.5-14.5-35.3 69.4c-2.2 4.4-3 9.3-2.1 13.6l2.9 14.8c0.6 2.9 3.2 4.3 5.9 3l13.8-6.2c4-1.8 7.6-5.4 9.8-9.8l5.1-10z"/><path class="f" d="m415.5 308l-5.6 2.4 1.4 6-5.8 11.4-7.2 3.1 1.7 7.6-5.1 10c-2.2 4.4-5.8 8-9.8 9.8l-13.8 6.2c-2.7 1.3-5.3-0.1-5.9-3l-3-14.8c-0.8-4.3 0-9.2 2.2-13.5l35.3-69.5 28.5 14.5-9.5 18.7v4.4z"/><path class="g" d="m418.9 301.3v-4.4l9.5-18.7-12.6-6.4-47.4 93.1c0.9 0.2 1.9 0.1 2.9-0.4l13.8-6.2c4-1.8 7.6-5.4 9.8-9.8l5.1-10-1.7-7.6 7.2-3.1 5.8-11.4-1.4-6 5.6-2.4z"/><path class="e" d="m417.2 272.5l-41.4 81.4c-0.4 0.8-1 1.4-1.7 1.8-0.7 0.3-1.4 0.3-2 0-1.3-0.6-1.6-2.5-0.8-4.1l41.4-81.4z"/><path class="e" d="m464.1 268.1c35.8 12.5 62-11.3 67.5-36.3 5.9-27-10.8-53.5-37.2-59.3-26.5-5.8-52.7 11.4-58.6 38.3q0 0.4-0.1 0.7c-0.7 3.1-1 6.3-1 9.4-0.1 4.7 0.5 9.4 1.7 13.8q-0.1 0.1 0 0.1l6.9 3.5q0.7 0.4 1.4 0.5c1.1 0.2 2.2 0.1 3.1-0.4-1.7-3.9-2.9-8.1-3.4-12.5q0 0 0-0.1c-0.3-3.2-0.3-6.4 0.2-9.7v-0.1q0.2-1.5 0.6-3.1c4.7-21.7 25.8-35.6 47.1-30.9 21.3 4.7 34.7 26 30 47.7-4.7 21.5-25.5 35.3-46.6 31l-8.8 1.9z"/><path class="h" d="m430 208.6q-0.1 0.5-0.2 0.9-0.9 4.2-1.1 8.3c-0.3 4.7 0.2 9.3 1.2 13.7q6.3 3.2 12.6 6.4c-2.3-4.7-3.7-9.8-4-15.1-0.3-3.2-0.1-6.4 0.5-9.6q0.1-0.8 0.3-1.6c4.7-21.7 26.2-35.5 47.9-30.7 21.7 4.7 35.5 26.2 30.7 47.9q-0.3 1.3-0.7 2.6c-0.8-5.4-1.2-10.8-2.1-16.2-0.8-5-1.9-10.1-3.5-15-3.1-9.5-7.5-19.2-14.5-26.5-14.9-5.8-32-4.2-45.5 4.4-10.5 6.8-18.5 17.4-21.6 30.5zm81.6-8.4c1.6 4.9 2.7 10 3.5 15 0.9 5.4 1.3 10.8 2.1 16.2-5.8 20.2-26.4 32.6-47.2 28.1q-0.7-0.2-1.4-0.3-2.2 4.4-4.5 8.8 1.9 0.6 3.8 1c13.5 2.9 26.9 0.2 37.7-6.7 10.7-6.9 18.9-17.9 21.8-31.4 3-13.5 0.2-26.9-6.7-37.7-5.5-8.6-13.7-15.5-23.6-19.5 7 7.3 11.4 17 14.5 26.5z"/><path fill-rule="evenodd" class="b" d="m530.7 269.5l-33-1.1c-3.3-0.1-5.9-2.9-5.8-6.2l0.4-12.6v-1.3c0.2-5.7 5-10.1 10.6-10l24.5 0.8c5.6 0.2 10.1 5 9.9 10.6l-0.1 1.4-0.4 12.6c-0.1 3.3-2.9 5.9-6.1 5.8zm-1.3-6.5l0.3-12.2 0.1-0.2c0-1.5-1.2-2.8-2.7-2.9l-24.5-0.8c-1.5 0-2.8 1.2-2.8 2.7v0.3l-0.4 12.2z"/><path class="b" d="m508.5 247.1l11.9 0.4c1.8-2.6 3.3-5.5 4.5-8.4l-10.6-0.4z"/><path class="c" d="m530.7 269.5l-33-1.1c-3.3-0.1-5.9-2.9-5.8-6.2l0.4-12.6 7.5 0.3-0.4 12.2 30 0.9 0.3-12.2 7.5 0.3-0.4 12.6c-0.1 3.3-2.9 5.9-6.1 5.8z"/><path class="c" d="m547.3 255.4l-47.9-1.6c-10.1-0.3-18.6 7.7-18.9 17.8l-2.4 76c-0.3 10 7.7 18.5 17.7 18.9l47.9 1.5c10 0.3 18.5-7.7 18.9-17.7l2.4-76.1c0.3-10-7.7-18.5-17.7-18.8z"/><path class="b" d="m537.9 255.1l-47.9-1.6c-10-0.3-18.5 7.7-18.9 17.8l-2.4 76c-0.3 10 7.7 18.5 17.7 18.9l47.9 1.5c10.1 0.3 18.6-7.7 18.9-17.7l2.4-76.1c0.3-10-7.7-18.5-17.7-18.8z"/><path class="c" d="m531.3 265.9l-35.4-1.2c-4-0.1-7.4 3-7.5 7l-0.3 11.3c-0.2 4 3 7.4 6.9 7.5l35.5 1.1c4 0.1 7.3-3 7.5-7l0.3-11.3c0.2-4-3-7.3-7-7.4z"/><path class="c" d="m530.3 297.6l-35.4-1.1c-4-0.1-7.4 3-7.5 7l-0.4 11.3c-0.1 4 3.1 7.3 7 7.5l35.5 1.1c4 0.1 7.3-3 7.5-7l0.3-11.3c0.1-4-3-7.3-7-7.5z"/><path class="c" d="m529.3 329.3l-35.5-1.1c-3.9-0.1-7.3 3-7.4 7l-0.4 11.3c-0.1 4 3.1 7.3 7 7.5l35.5 1.1c4 0.1 7.3-3 7.4-7l0.4-11.3c0.1-4-3-7.3-7-7.5z"/><path fill-rule="evenodd" class="i" d="m524.4 342.5l-0.1 0.9v0.5c-0.1 0.8-0.8 1.5-1.7 1.5l-2.2-0.1q0 0 0 0c0-1.5-1.1-2.7-2.6-2.7-1.4-0.1-2.6 1.1-2.7 2.5q0 0 0 0l-8.2-0.2q0 0 0-0.1c0.1-1.4-1-2.6-2.5-2.7-1.4 0-2.6 1.1-2.7 2.6q0 0 0 0h-1.2c-0.6 0-1-0.5-1-1.1v-2q0.1-0.6 0.4-0.9c0.3-0.4 0.7-0.7 1.3-0.7l1.2 0.1q0.2 0 0.3-0.2l2.7-2.5c0.4-0.4 0.9-0.6 1.4-0.6l7 0.3c0.6 0 1.1 0.2 1.5 0.6l2.1 2.4q0.1 0.1 0.3 0.1l5.3 0.7q0.1 0 0.1 0 0.4 0.1 0.7 0.4c0.4 0.3 0.6 0.7 0.6 1.2zm-14.5-2.7l0.1-1.5c0-0.2-0.2-0.4-0.4-0.4l-2.2-0.1c-0.4 0-0.9 0.1-1.2 0.5l-1.2 1.1c-0.2 0.2-0.1 0.7 0.3 0.7l4.2 0.1c0.2 0.1 0.4-0.1 0.4-0.4zm1.9 0.5l3.5 0.1c0.4 0 0.6-0.4 0.3-0.7l-1-1.2c-0.3-0.3-0.7-0.5-1.2-0.5l-1.5-0.1c-0.2 0-0.4 0.2-0.5 0.5v1.5c0 0.2 0.2 0.4 0.4 0.4z"/><path fill-rule="evenodd" class="i" d="m519.4 345.3c-0.1 0.9-0.8 1.6-1.7 1.5-0.9 0-1.6-0.7-1.5-1.6 0-0.9 0.7-1.6 1.6-1.6 0.9 0 1.6 0.8 1.6 1.7zm-0.9-0.1c0-0.4-0.3-0.7-0.7-0.7-0.4 0-0.8 0.3-0.8 0.7 0 0.4 0.3 0.7 0.7 0.8 0.4 0 0.8-0.4 0.8-0.8z"/><path fill-rule="evenodd" class="i" d="m505.8 344.8c0 0.9-0.7 1.6-1.6 1.6-0.9 0-1.6-0.8-1.6-1.7 0-0.8 0.8-1.5 1.7-1.5 0.9 0 1.6 0.8 1.5 1.6zm-0.9 0c0.1-0.4-0.3-0.7-0.7-0.7-0.4 0-0.7 0.3-0.7 0.7 0 0.4 0.3 0.7 0.7 0.7 0.4 0 0.7-0.3 0.7-0.7z"/><path fill-rule="evenodd" class="i" d="m518.7 306.1h-1.3c0-0.9-0.7-1.6-1.6-1.6-0.9-0.1-1.6 0.6-1.6 1.5l-0.1 1.3h0.1c0.7 0 1.3 0.6 1.2 1.3l-0.1 5.2c-0.1 0.7-0.7 1.2-1.4 1.2l-5.4-0.1c-0.7-0.1-1.3-0.7-1.3-1.4l0.2-5.2c0-0.7 0.6-1.2 1.3-1.2l4.1 0.1 0.1-1.2c0-1.6 1.4-2.9 3-2.8 1.6 0 2.8 1.3 2.8 2.9zm-6.2 4.1c0.1-0.6-0.5-1.2-1.1-1.2-0.6 0-1.2 0.5-1.2 1.1 0 0.5 0.2 0.9 0.6 1.1v1.6c-0.1 0.3 0.2 0.6 0.5 0.6 0.2 0 0.5-0.3 0.5-0.5l0.1-1.7c0.3-0.1 0.6-0.5 0.6-1z"/><path fill-rule="evenodd" class="i" d="m518.1 276.6l-0.2 5.2c0 0.7-0.6 1.3-1.3 1.3l-5.5-0.2c-0.7 0-1.3-0.6-1.3-1.3l0.2-5.3c0-0.6 0.5-1.1 1.1-1.2l0.1-1.3c0-1.6 1.4-2.9 3-2.8 1.6 0 2.9 1.4 2.9 3l-0.1 1.3c0.6 0.1 1.1 0.6 1.1 1.3zm-5.6-2.7l-0.1 1.2 3.3 0.1 0.1-1.2c0-0.9-0.7-1.7-1.6-1.7-0.9 0-1.7 0.7-1.7 1.6zm2.7 4.3c0-0.6-0.5-1.2-1.2-1.2-0.6 0-1.2 0.5-1.2 1.2 0 0.4 0.2 0.8 0.6 1v1.7c0 0.2 0.2 0.5 0.5 0.5 0.3 0 0.5-0.2 0.5-0.5l0.1-1.6c0.4-0.2 0.6-0.6 0.7-1.1z"/><path class="b" d="m527.4 239.1l-8.3-0.2c-1.5 3-3.3 5.9-5.5 8.4l11.5 0.4c1.7-2.7 3-5.5 4.2-8.3q-1-0.3-1.9-0.3z"/><path class="e" d="m529.3 239.4c-1.2 2.8-2.5 5.6-4.2 8.3l-11.5-0.4c2.2-2.5 4-5.4 5.5-8.4l8.3 0.2q0.9 0 1.9 0.3z"/><path class="f" d="m514.3 238.7c-1.6 3.1-3.6 5.9-5.8 8.4l11.9 0.4c1.8-2.6 3.3-5.5 4.5-8.4z"/><path class="j" d="m630.3 113.8c0 0-37-103.8-45.7-104.6-8.8-0.8-7.2 35-7.2 35l9.6 61.6z"/><path class="j" d="m605.3 87.1c0 0-27.5-36.1-41.8-44.9-14.3-8.7-75.5-41.7-75.5-41.7 0 0-6.8 27 7.2 35.4 13.9 8.3 67.1 43.7 67.1 43.7z"/><path class="k" d="m614 91.9c0 0-23.1-26.2-39.8-29.4-16.6-3.2-128.7-5.2-128.7-5.2 0 0-10.8 18.7 18.2 22.3 29.1 3.6 69.6 9.5 69.6 9.5l46.5 27.9z"/><path class="l" d="m655.2 233.7c0 0-67 0.6-81.9-5.1-15-5.6-97.8-29.5-106.5-31.3-8.6-1.7 7.8-28 32.5-26.5 24.8 1.5 59.3 14 64.4 9.6 5.1-4.5 30.1-22.7 27.4-27.2-2.6-4.4-29.2-20-29.2-20l-24.9 0.5c0 0-27.9 18.8-29.3 20.4-1.4 1.6-9.1 12.8-23.7 17.9-14.8 5.1-7.9-18.9-2.1-28 5.7-9.2 28.8-34.6 33.1-37.2 4.4-2.6 83.6-23.7 89.7-23 9.2 1 35.3 23.9 49.1 41.9 5.7 7.5 14.2 12.2 23.5 13l30.9 2.6v91.3z"/><path class="i" d="m732.2 131.1h-46v110.3h46z"/><path class="m" d="m686.2 211.2v30.2h46v-30.2z"/><path class="b" d="m663.4 600.2h-85.5v71.8h85.5z"/><path class="b" d="m633.7 574.2h-549.4v114.2h549.4z"/><path class="b" d="m549.2 670.7c0-28.5-23.1-51.6-51.6-51.6-28.5 0-51.6 23.1-51.6 51.6 0 28.5 23.1 51.6 51.6 51.6 28.5 0 51.6-23.1 51.6-51.6z"/><path class="b" d="m223.2 670.7c0-28.5-23.2-51.6-51.7-51.6-28.5 0-51.6 23.1-51.6 51.6 0 28.5 23.1 51.6 51.6 51.6 28.5 0 51.7-23.1 51.7-51.6z"/><path class="n" d="m677.2 557.8v100.2c0 7.5-6.1 13.6-13.7 13.6h-9.7q0-0.4 0-0.9c0-26.3-15.7-49-38.3-59.2-8.1-3.7-17.1-5.8-26.7-5.8h-21.2c-9.6 0-18.7 2.1-26.8 5.8-22.5 10.2-38.2 32.9-38.2 59.1q0 0.5 0 1h-73.1q0-0.4 0-0.9c0-26.3-15.7-49-38.3-59.2-8.1-3.7-17.1-5.8-26.7-5.8h-21.2c-9.9 0-18.3 2.2-25.4 5.8-19 9.5-29.4 28.7-34.7 42.9-3.8 10.3-13.6 17.2-24.6 17.2h-35v-133.3l126.7-112.7h171.5c32.4 0 62.1 18.1 76.9 46.8l31.6 61.5h22.9c11.5 0 21 8 23.4 18.7q0.6 2.6 0.6 5.2z"/><path class="o" d="m223.6 648.7v22.9h35c11 0 20.8-6.9 24.6-17.2q1.1-2.8 2.4-5.7z"/><path class="o" d="m649.9 648.7c2.5 6.9 3.9 14.3 3.9 22q0 0.5 0 0.9h9.7c7.6 0 13.7-6.1 13.7-13.6v-9.3z"/><path class="o" d="m506.5 648.7h-80.9c2.5 6.9 3.9 14.3 3.9 22q0 0.5 0 0.9h73.1q0-0.5 0-1c0-7.7 1.4-15 3.9-21.9z"/><path class="p" d="m267.9 585.2c-2.7 4.9-4.1 10.4-4.1 16.1v70.7h-191.9v-74.1c0-4.4 0.7-8.6 1.8-12.7z"/><path class="p" d="m277.1 574.3l46.4-36h-191.9l-36 19.7c-10.8 5.9-18.5 15.7-21.9 27.2h194.2c2.2-4.2 5.3-7.9 9.2-10.9z"/><path class="p" d="m350.2 424.7l-27 113.3h-192.9l19.6-79.6c4.7-19.3 22-32.8 41.8-32.9z"/><path class="i" d="m326.8 443.7l-3.8 17.2-14.1 63.9-1.9 8.8-1 4.4h-161.4l3.3-13.2 15.3-61.1c3-11.8 13.6-20 25.7-20z"/><path class="i" d="m471.1 443.7h-107.2l-20.3 81.1-3.3 13.2h130.8z"/><path class="i" d="m608.3 538.1h-116.5v-94.4h24.9c16.5 0 32.1 4.6 45.5 12.8 8.6 5.3 16.3 12.1 22.7 20 7.6 9.5 13.2 20.8 16.3 33.2l3.8 15.1z"/><path class="q" d="m264.5 645.2h-194.1c-3.1 0-5.7 2.6-5.7 5.7v17c0 3.2 2.6 5.7 5.7 5.7h194.1c3.1 0 5.7-2.5 5.7-5.7v-17c0-3.1-2.6-5.7-5.7-5.7z"/><path class="r" d="m264.5 645.2h-17.3c3.1 0 5.7 2.6 5.7 5.7v17c0 3.2-2.6 5.7-5.7 5.7h17.3c3.1 0 5.7-2.5 5.7-5.7v-17c0-3.1-2.6-5.7-5.7-5.7z"/><path class="s" d="m266.7 443.7l-76 94.4h-38.8l76-94.4z"/><path class="s" d="m464.3 443.7l-76.1 94.4h-38.8l76.1-94.4z"/><path class="s" d="m584.9 476.5l-49.6 61.6h-38.8l65.7-81.6c8.6 5.3 16.3 12.1 22.7 20z"/><path class="t" d=""/><path class="s" d="m304.2 443.7l-75.9 94.3h-21.1l76.1-94.3z"/><path class="u" d="m394.9 670.6c0-28.5-23.1-51.6-51.6-51.6-28.5 0-51.7 23.1-51.7 51.6 0 28.6 23.2 51.7 51.7 51.7q0.2 0 0.4 0h27.4c4.8 0 8.7-4 8.7-8.8 0-1.8-0.5-3.5-1.5-4.9 10.2-9.5 16.6-23 16.6-38z"/><path class="b" d="m416.2 670.7c0-28.5-23.1-51.6-51.7-51.6-28.5 0-51.6 23.1-51.6 51.6 0 28.5 23.1 51.6 51.6 51.6 28.6 0 51.7-23.1 51.7-51.6z"/><path class="v" d="m389.1 670.7c0-13.6-11-24.6-24.6-24.6-13.5 0-24.5 11-24.5 24.6 0 13.6 11 24.6 24.5 24.6 13.6 0 24.6-11 24.6-24.6z"/><path class="u" d="m364.5 646.1q-1.4 0-2.9 0.2c12.3 1.4 21.7 11.8 21.7 24.4 0 12.6-9.4 23-21.7 24.4q1.5 0.2 2.9 0.2c13.6 0 24.6-11 24.6-24.6 0-13.6-11-24.6-24.6-24.6z"/><path class="u" d="m619.2 670.6c0-28.5-23.1-51.6-51.6-51.6-28.5 0-51.7 23.1-51.7 51.6 0 28.6 23.2 51.7 51.7 51.7q0.2 0 0.4 0h27.4c4.8 0 8.7-4 8.7-8.8 0-1.8-0.5-3.5-1.5-4.9 10.2-9.5 16.6-23 16.6-38z"/><path class="b" d="m640.5 670.7c0-28.5-23.1-51.6-51.7-51.6-28.5 0-51.6 23.1-51.6 51.6 0 28.5 23.1 51.6 51.6 51.6 28.6 0 51.7-23.1 51.7-51.6z"/><path class="v" d="m613.4 670.7c0-13.6-11-24.6-24.6-24.6-13.5 0-24.5 11-24.5 24.6 0 13.6 11 24.6 24.5 24.6 13.6 0 24.6-11 24.6-24.6z"/><path class="u" d="m588.8 646.1q-1.4 0-2.9 0.2c12.3 1.4 21.7 11.8 21.7 24.4 0 12.6-9.4 23-21.7 24.4q1.5 0.2 2.9 0.2c13.6 0 24.6-11 24.6-24.6 0-13.6-11-24.6-24.6-24.6z"/><path class="b" d="m238.2 597.6c0-14.7-11.9-26.6-26.6-26.6-14.7 0-26.7 11.9-26.7 26.6 0 14.7 12 26.7 26.7 26.7 14.7 0 26.6-12 26.6-26.7z"/><path class="i" d="m227.8 597.6c0-10.2-8.3-18.5-18.5-18.5-10.3 0-18.6 8.3-18.6 18.5 0 10.3 8.3 18.6 18.6 18.6 10.2 0 18.5-8.3 18.5-18.6z"/><path class="w" d="m201.5 597.6c0-8.3 5.6-15.4 13.2-17.7q-2.6-0.8-5.4-0.8c-10.3 0-18.6 8.3-18.6 18.5 0 10.3 8.3 18.6 18.6 18.6q2.8 0 5.4-0.8c-7.6-2.3-13.2-9.4-13.2-17.8z"/><path class="b" d="m123.1 597.6c0-14.7-11.9-26.6-26.6-26.6-14.7 0-26.7 11.9-26.7 26.6 0 14.7 12 26.7 26.7 26.7 14.7 0 26.6-12 26.6-26.7z"/><path class="i" d="m112.7 597.6c0-10.2-8.3-18.5-18.5-18.5-10.2 0-18.5 8.3-18.5 18.5 0 10.3 8.3 18.6 18.5 18.6 10.2 0 18.5-8.3 18.5-18.6z"/><path class="w" d="m87.2 597.6c0-8.2 5.4-15.1 12.8-17.6-1.8-0.6-3.8-0.9-5.8-0.9-10.2 0-18.5 8.3-18.5 18.5 0 10.3 8.3 18.6 18.5 18.6 2 0 4-0.4 5.8-1-7.4-2.4-12.8-9.3-12.8-17.6z"/><path class="x" d="m206.1 641.4h11.1c3.4 0 6.1-2.8 6.1-6.1 0-3.4-2.7-6.1-6.1-6.1h-11.1c-3.4 0-6.1 2.7-6.1 6.1 0 3.3 2.7 6.1 6.1 6.1z"/><path class="y" d="m206.1 641.4h6.6c-3.4 0-6.2-2.8-6.2-6.1 0-3.4 2.8-6.1 6.2-6.1h-6.6c-3.4 0-6.1 2.7-6.1 6.1 0 3.3 2.7 6.1 6.1 6.1z"/><path class="x" d="m88.4 641.4h11.1c3.4 0 6.2-2.8 6.2-6.1 0-3.4-2.8-6.1-6.2-6.1h-11.1c-3.4 0-6.1 2.7-6.1 6.1 0 3.3 2.7 6.1 6.1 6.1z"/><path class="y" d="m88.4 641.4h6.6c-3.4 0-6.1-2.8-6.1-6.1 0-3.4 2.7-6.1 6.1-6.1h-6.6c-3.4 0-6.1 2.7-6.1 6.1 0 3.3 2.7 6.1 6.1 6.1z"/><path class="b" d="m169.6 596.4h-32.7c-5.5 0-10 4.5-10 9.9v3.9c0 5.4 4.5 9.9 10 9.9h32.7c5.5 0 9.9-4.5 9.9-9.9v-3.9c0-5.4-4.4-9.9-9.9-9.9z"/><path class="o" d="m425.9 554.4h-27.9c-3.5 0-6.3 2.8-6.3 6.3v4.2c0 3.4 2.8 6.3 6.3 6.3h27.9c3.4 0 6.3-2.9 6.3-6.3v-4.2c0-3.5-2.9-6.3-6.3-6.3z"/><path class="o" d="m560.5 554.4h-27.9c-3.5 0-6.3 2.8-6.3 6.3v4.2c0 3.4 2.8 6.3 6.3 6.3h27.9c3.4 0 6.3-2.9 6.3-6.3v-4.2c0-3.5-2.9-6.3-6.3-6.3z"/><path class="x" d="m677.2 565.9v36.6c-12.5-4-21.6-15.7-21.6-29.6v-5.6c0-3.6 2.9-6.6 6.6-6.6h14.4q0.6 2.5 0.6 5.2z"/></svg>