<svg version="1.2" xmlns="http://www.w3.org/2000/svg" viewBox="0 0 2342 1717" width="2342" height="1717"><style>.a{fill:#e1a67d}.b{fill:#060f1e}.c{fill:#01040d}.d{fill:#353e52}.e{fill:#565e74}.f{fill:#d6af3e}.g{fill:#ba8729}.h{fill:#bc922b}.i{fill:#c88c67}.j{fill:#fbc8a7}.k{fill:#d69570}.l{fill:#7a523a}.m{fill:#3d2216}.n{fill:#a57354}.o{fill:#bd805b}.p{fill:#e6b292}</style><path class="a" d="m945.9 271.6c27.2-6.8 97.9 41.5 176.6 114 23.1-12.3 47.6-25 58.3-29.3 0 0 0.2-0.1 0.5-0.3 0.2 0 0.4-0.2 0.5-0.3 0.3-0.1 0.5-0.2 0.8-0.4 0.4-0.3 0.9-0.6 1.4-0.9 0.2-0.1 0.4-0.2 0.7-0.4q0.9-0.5 2-1.1 0.4-0.3 0.9-0.5 1.1-0.7 2.3-1.4 0.7-0.3 1.3-0.7 1.3-0.7 2.7-1.5 0.8-0.4 1.6-0.9 1.4-0.7 2.8-1.5c0.9-0.5 1.8-0.9 2.6-1.4 0.8-0.4 1.6-0.8 2.4-1.3q0 0 0.1 0c16.7-8.8 39.7-19.5 57.9-22.9 32.4-6.2 54.1-10.9 75.7 0 1.8 0.9 5.4 2.3 10.3 4.1q2.4 0.9 5.3 1.9 0.1 0 0.1 0 2.9 1.1 6.3 2.3 0 0 0.1 0c22.5 7.8 59.1 19.6 99.3 32q0.5 0.1 1 0.3c3.5 1 7 2.1 10.5 3.2q1.2 0.4 2.5 0.7 4.8 1.5 9.6 2.9 1.7 0.6 3.5 1.1 4.5 1.4 9.1 2.7 1.9 0.6 3.9 1.2 4.4 1.3 8.9 2.6 2.1 0.7 4.2 1.3 4.3 1.3 8.6 2.5 2.2 0.7 4.4 1.3 4.1 1.2 8.3 2.4 2.3 0.7 4.7 1.4 4 1.2 7.9 2.3 2.3 0.6 4.6 1.3 5.9 1.7 11.8 3.3 4 1.1 7.9 2.2c1.6 0.5 3.1 0.9 4.6 1.3q3.6 1 7.2 2c1.7 0.4 3.3 0.9 4.9 1.3q3.3 0.9 6.5 1.8 2.4 0.6 4.7 1.2 3.1 0.8 6.2 1.6 2.2 0.6 4.4 1.2 2.9 0.7 5.8 1.4 2.1 0.6 4.2 1.1 2.7 0.6 5.3 1.3 2 0.5 3.9 0.9 2.5 0.6 5 1.1 1.7 0.5 3.4 0.8 2.4 0.5 4.6 1c1 0.2 2 0.4 3 0.6 1.4 0.3 2.8 0.6 4.1 0.8 0.8 0.2 1.7 0.4 2.5 0.5 1.4 0.2 2.6 0.4 3.8 0.6 0.6 0.1 1.2 0.2 1.8 0.3 1.7 0.2 3.2 0.4 4.5 0.5 0 0 7.1 7.7 40.2-9.3 0.9-0.5 2.1-1.1 3.6-1.9q0.1 0 0.2 0c1.5-0.8 3.2-1.7 5.2-2.6q0.2-0.2 0.5-0.3c1.8-0.9 3.9-1.9 6-3q0.9-0.5 1.9-0.9c2.3-1.2 4.8-2.4 7.6-3.8l0.3-0.2c2.3-1.1 4.9-2.4 7.4-3.6q11.4-5.7 25.9-12.8 0.6-0.4 1.3-0.7c12.9-6.4 27.5-13.7 43.2-21.5q0.8-0.4 1.7-0.8 7.6-3.8 15.5-7.8 0.3-0.1 0.6-0.2 8.2-4.1 16.7-8.4 0.5-0.2 1-0.4c11.1-5.6 22.7-11.4 34.5-17.4q1-0.4 2-0.9 8.5-4.3 17.2-8.7 0.9-0.4 1.8-0.9 8.8-4.4 17.7-8.9 0.9-0.4 1.7-0.9 9.2-4.6 18.5-9.3 0.2-0.1 0.4-0.2 9.6-4.9 19.2-9.7 0.3-0.2 0.6-0.4c12.9-6.5 25.8-13.1 38.6-19.7q0.1 0 0.2-0.1 9.4-4.8 18.7-9.6 0.5-0.3 1.1-0.5 9.1-4.7 18.1-9.4 0.5-0.3 1.1-0.5 8.9-4.7 17.7-9.3 0.5-0.2 1-0.5 8.9-4.6 17.5-9.2 0.2-0.1 0.4-0.2c17.7-9.3 34.6-18.3 50.2-26.7q0.2-0.2 0.5-0.3 7.6-4.1 14.7-8.1 0.3-0.1 0.6-0.3 7.2-3.9 13.8-7.6 0.2-0.1 0.4-0.2 6.7-3.8 13-7.4 0 0 0 0c8.4-4.8 15.9-9.2 22.6-13.3v0.1c9.2-5.6 16.6-10.4 21.9-14.3 1.6-1.2 3.6-2.6 5.7-4 0.7-0.5 1.5-1.1 2.3-1.6q2.2-1.5 4.6-3.1 1.7-1.1 3.4-2.2 2.2-1.4 4.6-2.9c1.4-0.9 2.8-1.9 4.3-2.8 1.1-0.7 2.3-1.4 3.4-2.1q4.3-2.7 9.1-5.7c1.1-0.7 2.3-1.4 3.5-2.2 2.1-1.2 4.2-2.5 6.4-3.9q2.1-1.3 4.4-2.6 3.1-1.9 6.4-3.9c1.6-1 3.1-1.9 4.8-2.8 0.5-0.4 1-0.7 1.5-1q0 0 0 0c21.4-12.8 46.2-27.3 72.9-42.5v482.5q-0.1 0.1-0.3 0.1-1.2 0.3-2.4 0.5-9.1 2-18.4 4.1-1.5 0.3-3 0.6-6.2 1.4-12.5 2.8c-27.2 6-54.9 12.1-82.9 18.3q-1.4 0.3-2.7 0.6-8.2 1.8-16.5 3.7-0.4 0-0.8 0.1c-64.9 14.4-130.5 29-191.9 42.9q-0.8 0.2-1.5 0.3c-21.9 5-43.3 9.8-63.9 14.5q-0.5 0.1-0.9 0.2-7.6 1.7-15 3.4-0.4 0.1-0.8 0.2c-20.1 4.6-39.3 9-57.6 13.2q-0.8 0.2-1.7 0.4c-3.7 0.9-7.4 1.7-11 2.6q-2.3 0.5-4.5 1-5 1.2-9.8 2.3-2.5 0.6-4.9 1.2c-3.2 0.7-6.3 1.4-9.4 2.2q-1.6 0.3-3.2 0.7c-7.1 1.7-14 3.3-20.7 4.9q-0.5 0.1-1.1 0.2c-2.9 0.8-5.7 1.4-8.6 2.1q-2.2 0.5-4.4 1-3.8 1-7.5 1.9-2.2 0.5-4.4 1c-2.3 0.6-4.7 1.2-7 1.7-1.6 0.4-3.2 0.8-4.8 1.2q-4.1 1-8 2c-2.6 0.6-5.2 1.2-7.6 1.8-1.4 0.4-2.7 0.7-4 1-1.8 0.5-3.7 1-5.4 1.4q-2.2 0.5-4.2 1.1-2.4 0.6-4.7 1.2-1.8 0.4-3.6 0.9c-1.7 0.4-3.4 0.9-5 1.3-0.8 0.2-1.7 0.5-2.5 0.7q-3.4 0.9-6.5 1.7c-0.5 0.2-0.9 0.3-1.4 0.4-1.5 0.5-2.9 0.9-4.2 1.2-0.7 0.2-1.2 0.4-1.8 0.6q-1.6 0.4-3 0.9-0.8 0.2-1.5 0.4-1.3 0.5-2.4 0.8c-0.3 0.1-0.7 0.3-1 0.4-0.9 0.3-1.7 0.6-2.3 0.9 0 0-23.2 26.3-60.3 44.8-35.8 17.9-156.7 9.9-252.6-22.7 17.1 34.4 28 66.3 30.2 93.5 5.7 71.9-37.8 169.3-94.6 258.3 67.1-20.9 142.1-49.1 209.9-76.4l-7.9-22.4c-1.7-4.7 2.1-10.4 8.4-12.6q0.1 0 0.2 0c0.6-0.3 1.2-0.3 1.8-0.4 1-0.2 1.9-0.5 2.9-0.5 0.4 0 0.8 0.1 1.3 0.2 1 0 2 0.1 2.9 0.4 0.4 0.1 0.6 0.3 0.9 0.4 0.9 0.4 1.8 0.8 2.5 1.4 1 0.8 1.7 1.8 2.1 3l7.5 21.3q0 0 0.1 0l-8.7-24.7c-1.7-4.7 2.1-10.4 8.4-12.7q0.1 0 0.2 0c0.4-0.1 0.7-0.1 1.1-0.2 1.2-0.3 2.4-0.6 3.5-0.6 0.4-0.1 0.7 0.1 1 0.1 1.2 0 2.3 0.1 3.3 0.4 0.3 0.1 0.6 0.3 0.9 0.5 0.9 0.4 1.8 0.8 2.5 1.4 0.6 0.5 0.9 1.2 1.3 1.8-0.7-4.5 2.7-9.3 8.6-11.4q0 0 0.1 0c0.5-0.2 1-0.2 1.6-0.3 1-0.3 2.1-0.6 3.1-0.6 0.3 0 0.6 0.1 0.9 0.1 1.1 0.1 2.3 0.1 3.3 0.5 0.6 0.1 1 0.5 1.5 0.8 8.4-7.6 24.9-19.9 55.7-35.3 24.7-12.3 51.9-22.6 74.9-31.9 11.4-4.7 21.8-9.1 30.2-13.2 8.3-4 14.6-8.1 17.4-10.8 4.3-4.1 11.2-4 15.3 0.3 3.2 3.4 3.8 8.2 2 12.1 5.4-2.2 10.4-4.4 14.7-6.4 4.6-2.1 8.4-4.1 10.9-5.6 1.3-0.7 2.3-1.4 2.8-1.8l0.5-0.4h0.1c3.6-4.4 10-5.4 14.7-2.1 4.9 3.6 6 10.4 2.5 15.2-1.5 2-3 3.3-4.5 4.4q-2 1.6-4.4 3c1.5 0.3 3 0.8 4.3 1.7 4.9 3.5 6.1 10.2 2.7 15.1-1.5 2.2-3.1 3.6-4.8 4.9-3.1 2.4-6.7 4.5-11 6.7-14.9 7.7-38.9 16.7-66 26.7-7.6 2.8-15.4 5.7-23.3 8.6q1.2 1.7 2.1 3.6l0.3 0.6 112.2-35.9c5.7-1.9 11.8 1.3 13.6 7 1.9 5.7-1.3 11.8-7 13.6l-5.8 1.9c2.5 0 4.9 0.7 7 2.4 2.7 2.2 3.9 5.5 3.7 8.8 2-0.4 3.9-0.8 5.8-1.2 11.2-2.2 20.3-3.6 27.5-3.6q1.7 0 3.4 0.1c6 0.5 10.4 5.8 9.9 11.8-0.5 5.9-5.8 10.4-11.7 9.9l-1.6-0.1c-4.3 0-12.8 1.1-23.3 3.2-31.8 6.3-83.7 21.2-131.2 36.6-20.4 6.5-39.8 11.1-57.3 14.4 13.6-1.5 29.9-4.1 49.6-8.5 38-8.4 68.3-14.7 91.4-19 23.2-4.3 38.9-6.6 49.3-6.6 2.6 0 4.9 0.1 7.3 0.6 5.9 1.1 9.7 6.8 8.6 12.7-1.2 5.9-6.9 9.7-12.8 8.6-0.2-0.1-1.4-0.2-3.1-0.2-7.2 0-22.7 2-45.3 6.2-6.2 1.1-12.9 2.5-20.1 3.9 7.9-0.8 15.5-1.4 22.7-1.4q5.9 0 11.5 0.5c5.9 0.5 10.3 5.8 9.8 11.7-0.5 6-5.8 10.4-11.8 9.9q-4.4-0.4-9.5-0.4c-16 0-36.3 2.9-58.5 7-22.2 4.1-46.6 9.3-71.3 13.6-15.8 2.8-29.2 3.8-40.3 3.8-13.9 0-24.2-1.6-31.4-3.3-0.3 0.1-0.6 0.3-0.9 0.5-0.3 0.1-0.6 0.3-0.9 0.4 0 0-0.1 0.1-0.1 0.1-5.8 2-11.4 0.4-13.8-3.4 0.2 0.8 0.4 1.6 0.2 2.4-0.1 0.7-0.5 1.4-0.8 2.1-0.3 0.5-0.3 1-0.7 1.5-0.4 0.7-1.1 1.3-1.7 1.9-0.4 0.4-0.7 0.9-1.2 1.2-0.8 0.6-1.8 1.1-2.8 1.5-0.5 0.3-0.9 0.6-1.4 0.8q-0.1 0-0.1 0c-6.4 2.3-12.9 0.3-14.6-4.5l-7.7-21.9q0 0-0.1 0l9 25.3c0.4 1.2 0.5 2.4 0.2 3.7-0.1 0.7-0.5 1.4-0.8 2-0.2 0.5-0.3 1.1-0.7 1.6-0.5 0.7-1.2 1.4-1.9 2-0.4 0.4-0.6 0.8-1 1.1-0.7 0.5-1.6 0.8-2.4 1.2-0.6 0.4-1.1 0.8-1.8 1q-0.1 0-0.1 0.1c-6.4 2.2-12.9 0.2-14.6-4.5l-8.5-24.3c-81.7 33-180 69.6-262.8 91.6-67.8 93.3-142.6 167.1-174.7 174.5-24.8 5.7-51 10.2-77.1 13.9l-303 394.1-41.3 13.8-687-763.4 466.1-939.6 41.3-13.8 306.9 340c52.6-32.1 106-61.9 131.6-68.4z"/><path class="b" d="m1333.7 915.6l-76.5-84.8c12.5-2.8 20.2-9 13.3-21.7-10.4-19.2-41.7-24.8-56.7-26.4l-23.3-25.7c-13.2-20.7-29.7-45.3-29.7-45.3 34.2-29.1 46.3-59.3 78.8-57.2 4.3 0.3 8.9 1.6 14.7 3.9 0.4 0.2 0.8 0.3 1.1 0.5q1.6 0.6 3.3 1.3 0.8 0.4 1.6 0.7 1.6 0.7 3.4 1.5c0.6 0.3 1.2 0.6 1.9 0.9q1.9 0.8 4 1.8c2.5 1.1 5.1 2.3 8 3.7q0.1 0 0.1 0 3.2 1.5 6.8 3.1 1.1 0.5 2.2 1 2.9 1.3 6 2.7c0.9 0.4 1.8 0.8 2.8 1.2q3.4 1.5 7.1 3.1c0.8 0.3 1.5 0.7 2.4 1q5 2.2 10.5 4.5c0.5 0.2 1.1 0.5 1.7 0.7q4.7 2 9.9 4.1c1.3 0.5 2.6 1 4 1.6q4.3 1.7 8.9 3.5 2.4 1 4.9 1.9c3.2 1.3 6.5 2.6 10 3.9 1.6 0.6 3.1 1.2 4.7 1.8 5.1 1.9 10.5 3.9 16.1 5.9q5 1.9 10.2 3.6c17.1 34.4 28 66.3 30.2 93.5 5.7 71.9-37.8 169.3-94.6 258.3-47.8 14.9-91.6 26.2-125.7 30.7z"/><path class="b" d="m978.3 456.6q-1.9 1.8-3.6 3.8-0.5 0.7-1 1.5-1.1 1.4-2.2 3-0.5 0.9-1.1 1.8-1 1.6-1.8 3.3-0.5 1-1 2-1 1.9-1.9 4-0.3 0.8-0.7 1.6-1.2 3-2.2 6.1-0.2 0.5-0.4 1-0.9 2.8-1.8 5.6-0.2 1.1-0.5 2.1-0.7 2.5-1.4 5.1-0.3 1-0.5 2l-143.9-159.5c52.6-32.1 106-61.9 131.6-68.4 27.2-6.8 97.9 41.5 176.6 114-26.6 14.2-51.4 27.9-51.4 27.9-49.5 18.6-71.1 23-92.8 43.1z"/><path class="b" d="m1283.1 1120.5c-67.8 93.3-142.6 167.1-174.7 174.5-24.8 5.7-51 10.2-77.1 13.9l129.5-168.5c31.4 0.7 74.2-7.1 122.3-19.9z"/><path class="c" d="m1144.5 1139.2c5 0.7 10.5 1.1 16.3 1.2l-129.5 168.5-303 394.1-41.3 13.8 445.6-579.6c4.2 0.8 8.2 1.4 11.9 2z"/><path class="c" d="m958.2 499.5q-0.7 2.9-1.4 5.8-0.2 0.7-0.4 1.5c-2.9 13.1-5.4 27.2-8.2 41.2l-482.1-534.2 41.3-13.8 306.9 340 143.9 159.5q0 0 0 0z"/><path class="c" d="m1205.1 831c2.9 0.7 5.7 1.2 8.2 1.3 12.6 0.8 30.8 1.5 43.9-1.5l76.5 84.8-137.9 179.3c-12.1 1.6-22.9 2.3-32.3 2.1l128.9-167.6-89.3-98.9q0.4 0.1 0.8 0.2c0.4 0.1 0.8 0.2 1.2 0.3z"/><path class="c" d="m1190.5 757l23.3 25.7c-5-0.5-8.2-0.6-8.2-0.6-2.2-4.5-8.2-14.3-15.1-25.1z"/><path class="d" d="m466.1 13.8l482.1 534.2q-0.2 0.9-0.4 1.8c-1.6 7.9-3.3 15.8-5.3 23.3-8.8 33.4-7.5 59.8-7.5 59.8 12.4 30.9 11.6 104.7 25.6 126.3 13.9 21.7 29.3 9.2 29.3 9.2 18.3 73.1 17.3 122 36.1 129.1v0.1q0.1 0 0.1 0 2 0.7 4.3 0.8c0.6 0.1 1.1 0.1 1.7 0.1q0.9-0.1 1.8-0.2c1.5-0.2 3-0.5 4.7-1 2.1-0.7 4-1.6 5.8-2.7 0.5-0.4 1-0.9 1.6-1.3 1.1-0.8 2.2-1.6 3.1-2.6 0.6-0.5 1.1-1.1 1.6-1.8 0.8-0.9 1.6-1.9 2.3-3q0.7-1 1.4-2.1 0.9-1.7 1.7-3.5 0.6-1.2 1.1-2.4 0.7-1.9 1.3-3.9c0.2-0.8 0.5-1.6 0.7-2.5 0.4-1.5 0.7-3 1-4.6 0.2-0.7 0.3-1.4 0.4-2.1q0.6-3.2 0.9-6.4 0-0.3 0.1-0.6 0.3-3.6 0.4-7.1c0-0.7 0-1.3 0-1.9q0.1-2.6 0-5.1c0-0.8 0-1.6-0.1-2.4q0-2.2-0.1-4.3c-0.1-0.8-0.1-1.6-0.2-2.4q-0.1-2-0.3-3.8c-0.1-0.8-0.1-1.6-0.2-2.3-0.1-1.2-0.3-2.3-0.4-3.3q-0.1-1.1-0.2-2.1c-0.2-0.9-0.3-1.8-0.4-2.7-0.1-0.6-0.2-1.2-0.3-1.8-0.1-0.6-0.2-1.1-0.3-1.6 0-0.6-0.1-1.2-0.2-1.7q0 0 0 0c-0.4-1.9-0.6-3.1-0.6-3.1 11.5 11.6 30.4 29.3 49.5 46.2 20.6 18.7 42 37.1 51.7 42.5 2.8 1.8 5.2 3.3 7 4.1 10.5 4.8 15.6 3.4 19.5-4.1q0.1 0 0.1 0c0.3-0.6 0.6-1.3 0.8-1.9 0.5-1 0.9-2 1.3-3.1 0.2-0.8 0.5-1.7 0.8-2.6q0.6-2 1.2-4.2 0.4-1.2 0.7-2.5c0.6-2.4 1.3-5 1.9-7.9 6.2-26.3-61.8-80.4-61.8-80.4l4.6 2.1c10.2 4.8 28.9 15.4 47 23.1 4.2 1.8 8.3 3.3 12.3 4.7q0 0 0 0 4 1.4 7.8 2.3l89.3 98.9-128.9 167.6c-4.5-0.1-8.8-0.3-12.7-0.9-94.4-13.9-412.3-107.2-550.1-148.2-3.6-25.6-12.2-50.9-21.3-64.3-15-22.3-44.8-32.9-62.7-16.7-19.3-1.3-37.2 12.4-37.7 50.2 0 0 5.3 118.8 69.8 114.4 7.3-0.5 13.1-3.3 17.6-7.7q2.7 0.2 5.6 0c16.3-1.1 25-13.4 28.6-30.5 138.9 41.4 425.3 125.1 532 143.9l-445.6 579.6-687-763.4z"/><path class="b" d="m556.2 891.3c-9.5-14-24.9-23.4-39.5-24.4 17.9-16.2 47.7-5.6 62.7 16.7 9.1 13.4 17.7 38.7 21.3 64.3-9.6-2.9-18.3-5.5-26-7.8-4.4-19.9-11.3-38.1-18.5-48.8z"/><path class="b" d="m600.6 993.3c-3.6 17.1-12.3 29.4-28.6 30.5q-2.9 0.2-5.6 0c8.1-8 11.9-21.4 12.7-36.9q10.1 3 21.5 6.4z"/><path class="e" d="m556.2 891.3c7.2 10.7 14.1 28.9 18.5 48.8-23.5-7.1-37.6-11.4-38.4-11.6-11.5-3.5-23.7 3-27.2 14.5-3.5 11.5 3 23.6 14.5 27.1 3.8 1.2 24.2 7.4 55.5 16.8-0.8 15.5-4.6 28.9-12.7 36.9-4.5 4.4-10.3 7.2-17.6 7.7-64.5 4.4-69.8-114.4-69.8-114.4 0.5-37.8 18.4-51.5 37.7-50.2 14.6 1 30 10.4 39.5 24.4z"/><path class="f" d="m1554.1 978.6l-8.7-24.7c-1.7-4.7 2.1-10.4 8.4-12.7q0.1 0 0.2 0l37 104.9q-0.1 0-0.1 0c-6.4 2.3-12.9 0.3-14.6-4.5l-7.7-21.9q0 0-0.1 0l-14.5-41.1q0 0 0.1 0z"/><path class="f" d="m1144.5 1139.2c-3.7-0.6-7.7-1.2-11.9-2-106.7-18.8-393.1-102.5-532-143.9q-11.4-3.4-21.5-6.4c-31.3-9.4-51.7-15.6-55.5-16.8-11.5-3.5-18-15.6-14.5-27.1 3.5-11.5 15.7-18 27.2-14.5 0.8 0.2 14.9 4.5 38.4 11.6 7.7 2.3 16.4 4.9 26 7.8 137.8 41 455.7 134.3 550.1 148.2 3.9 0.6 8.2 0.8 12.7 0.9 9.4 0.2 20.2-0.5 32.3-2.1 34.1-4.5 77.9-15.8 125.7-30.7 67.1-20.9 142.1-49.1 209.9-76.4l-7.9-22.4c-1.7-4.7 2.1-10.4 8.4-12.6q0.1 0 0.2 0l37 104.8q-0.1 0-0.1 0.1c-6.4 2.2-12.9 0.2-14.6-4.5l-8.5-24.3c-81.7 33-180 69.6-262.8 91.6-48.1 12.8-90.9 20.6-122.3 19.9-5.8-0.1-11.3-0.5-16.3-1.2z"/><path class="g" d="m1683 1015.3c-14.6 2.5-26.7 3.4-36.5 3.4-14.1 0-23.2-1.8-28.4-3.3l-3.6-10.2c12.6-0.9 31.8-2.9 54.5-7.2 13.6-1.5 29.9-4.1 49.6-8.5 38-8.4 68.3-14.7 91.4-19 23.2-4.3 38.9-6.6 49.3-6.6 2.6 0 4.9 0.1 7.3 0.6 5.9 1.1 9.7 6.8 8.6 12.7-1.2 5.9-6.9 9.7-12.8 8.6-0.2-0.1-1.4-0.2-3.1-0.2-7.2 0-22.7 2-45.3 6.2-6.2 1.1-12.9 2.5-20.1 3.9-12.5 1.3-25.8 3.4-39.7 6-22.7 4.1-46.9 9.3-71.2 13.6z"/><path class="g" d="m1650 952.7l-48.5 15.6-2.6-7.4c4.6-3.3 11.4-7.9 19.7-13.1 11.4-7.2 25.8-15.4 41.5-22.8 30.7-12.4 65.5-24.7 94.2-35.4 15.4-5.8 29-11.1 39-15.7 0.7-0.3 1.2-0.6 1.9-0.9 7.2-3 13.5-5.9 18.6-8.6 2.1-1.1 4-2.1 5.7-3.2 1.5 0.3 3 0.8 4.3 1.7 4.9 3.5 6.1 10.2 2.7 15.1-1.5 2.2-3.1 3.6-4.8 4.9-3.1 2.4-6.7 4.5-11 6.7-14.9 7.7-38.9 16.7-66 26.7-7.6 2.8-15.4 5.7-23.3 8.6-20.3 7.5-41 15.2-59.6 22.9-4.2 1.7-8.1 3.3-11.8 4.9z"/><path class="g" d="m1719.6 962.9c-34.6 11.2-67.1 16.5-89.8 19.1l168.4-54h0.1c10.2-2.9 18.6-5.3 24.4-7.3 2.9-0.9 5.2-1.8 6.5-2.4l1.1-0.5 0.1 0.1c0.1-0.1 0.3-0.2 0.4-0.3l6-1.9c2.5 0 4.9 0.7 7 2.4 2.7 2.2 3.9 5.5 3.7 8.8-9.9 2.1-21 4.8-33.1 8-28.9 7.5-62.8 17.7-94.8 28z"/><path class="f" d="m1608.7 988.7l-7.2-20.4 48.5-15.6c3.7-1.6 7.6-3.2 11.8-4.9 18.6-7.7 39.3-15.4 59.6-22.9q1.2 1.7 2.1 3.6l0.3 0.6 112.2-35.9c5.7-1.9 11.8 1.3 13.6 7 1.9 5.7-1.3 11.8-7 13.6l-5.8 1.9-6 1.9-32.5 10.4h-0.1l-168.4 54c22.7-2.6 55.2-7.9 89.8-19.1 32-10.3 65.9-20.5 94.8-28 12.1-3.2 23.2-5.9 33.1-8 2-0.4 3.9-0.8 5.8-1.2 11.2-2.2 20.3-3.6 27.5-3.6q1.7 0 3.4 0.1c6 0.5 10.4 5.8 9.9 11.8-0.5 5.9-5.8 10.4-11.7 9.9l-1.6-0.1c-4.3 0-12.8 1.1-23.3 3.2-31.8 6.3-83.7 21.2-131.2 36.6-20.4 6.5-39.8 11.1-57.3 14.4-22.7 4.3-41.9 6.3-54.5 7.2z"/><path class="f" d="m1795.2 873c-12 5.1-26.3 10.7-41.5 16.4-24.2 9.1-50.3 18.4-71.1 26.1-7.7 2.9-15.2 6.1-22.5 9.5-15.7 7.4-30.1 15.6-41.5 22.8-8.3 5.2-15.1 9.8-19.7 13.1l-2.3-6.5-5.9-16.7q-0.7-1.8-2.1-3c-0.5-0.4-1.1-0.6-1.7-0.9q-0.1-0.1-0.2-0.1c8.4-7.6 24.9-19.9 55.7-35.3 24.7-12.3 51.9-22.6 74.9-31.9 11.4-4.7 21.8-9.1 30.2-13.2 8.3-4 14.6-8.1 17.4-10.8 4.3-4.1 11.2-4 15.3 0.3 3.2 3.4 3.8 8.2 2 12.1 5.4-2.2 10.4-4.4 14.7-6.4 4.6-2.1 8.4-4.1 10.9-5.6 1.3-0.7 2.3-1.4 2.8-1.8l0.5-0.4h0.1c3.6-4.4 10-5.4 14.7-2.1 4.9 3.6 6 10.4 2.5 15.2-1.5 2-3 3.3-4.5 4.4q-2 1.6-4.4 3c-1.7 1.1-3.6 2.1-5.7 3.2-5.1 2.7-11.4 5.6-18.6 8.6z"/><path class="f" d="m1618.1 1035.2c0.9-0.8 1.7-1.6 2.4-2.5 0.1-0.3 0.1-0.5 0.2-0.7 1.2-2.1 1.7-4.4 1-6.5l-3.6-10.1c5.2 1.5 14.3 3.3 28.4 3.3 9.8 0 21.9-0.9 36.5-3.4 24.3-4.3 48.5-9.5 71.2-13.6 13.9-2.6 27.2-4.7 39.7-6 7.9-0.8 15.5-1.4 22.7-1.4q5.9 0 11.5 0.5c5.9 0.5 10.3 5.8 9.8 11.7-0.5 6-5.8 10.4-11.8 9.9q-4.4-0.4-9.5-0.4c-16 0-36.3 2.9-58.5 7-22.2 4.1-46.6 9.3-71.3 13.6-15.8 2.8-29.2 3.8-40.3 3.8-13.9 0-24.2-1.6-31.4-3.3-0.3 0.1-0.6 0.3-0.9 0.5 1.2-0.6 2.3-1.1 3.3-1.8 0.2-0.2 0.3-0.4 0.6-0.6z"/><path class="f" d="m1568.4 945.8c-0.2-0.5-0.6-0.8-0.8-1.2-0.7-4.5 2.7-9.3 8.6-11.4q0 0 0.1 0l37 104.8c0 0-0.1 0.1-0.1 0.1-5.8 2-11.4 0.4-13.8-3.4 0-0.4 0.1-0.8 0-1.2z"/><path class="h" d="m1576.3 933.2c0.5-0.2 1-0.2 1.6-0.3 1-0.3 2.1-0.6 3.1-0.6 0.3 0 0.6 0.1 0.9 0.1 1.1 0.1 2.3 0.1 3.3 0.5 0.6 0.1 1 0.5 1.5 0.8q0.1 0 0.2 0.1c0.6 0.3 1.2 0.5 1.7 0.9q1.4 1.2 2.1 3l5.9 16.7 2.3 6.5 2.6 7.4 7.2 20.4 5.8 16.5 3.6 10.2 3.6 10.1c0.7 2.1 0.2 4.4-1 6.5-0.1 0.2-0.1 0.4-0.2 0.7-0.7 0.9-1.5 1.7-2.4 2.5-0.3 0.2-0.4 0.4-0.6 0.6-1 0.7-2.1 1.2-3.3 1.8-0.3 0.1-0.6 0.3-0.9 0.4l-37-104.8z"/><path class="h" d="m1554 941.2c0.4-0.1 0.7-0.1 1.1-0.2 1.2-0.3 2.4-0.6 3.5-0.6 0.4-0.1 0.7 0.1 1 0.1 1.2 0 2.3 0.1 3.3 0.4 0.3 0.1 0.6 0.3 0.9 0.5 0.9 0.4 1.8 0.8 2.5 1.4 0.6 0.5 0.9 1.2 1.3 1.8 0.2 0.4 0.6 0.7 0.8 1.2l31 87.7c0.1 0.4 0 0.8 0 1.2 0.2 0.8 0.4 1.6 0.2 2.4-0.1 0.7-0.5 1.4-0.8 2.1-0.3 0.5-0.3 1-0.7 1.5-0.4 0.7-1.1 1.3-1.7 1.9-0.4 0.4-0.7 0.9-1.2 1.2-0.8 0.6-1.8 1.1-2.8 1.5-0.5 0.3-0.9 0.6-1.4 0.8l-37-104.9z"/><path class="h" d="m1532.1 952.8c0.6-0.3 1.2-0.3 1.8-0.4 1-0.2 1.9-0.5 2.9-0.5 0.4 0 0.8 0.1 1.3 0.2 1 0 2 0.1 2.9 0.4 0.4 0.1 0.6 0.3 0.9 0.4 0.9 0.4 1.8 0.8 2.5 1.4 1 0.8 1.7 1.8 2.1 3l7.5 21.3 14.5 41.1 9 25.3c0.4 1.2 0.5 2.4 0.2 3.7-0.1 0.7-0.5 1.4-0.8 2-0.2 0.5-0.3 1.1-0.7 1.6-0.5 0.7-1.2 1.4-1.9 2-0.4 0.4-0.6 0.8-1 1.1-0.7 0.5-1.6 0.8-2.4 1.2-0.6 0.4-1.1 0.8-1.8 1l-37-104.8z"/><path class="i" d="m1044.4 575.9c-13.9 16.2-66.1 84.6-69.6 98.5 0 0 8.1-35.9 15.1-59.7 7-23.8 4.1-32.5 26.1-51 22-18.6 66.1-47.5 82.3-69 15.2-20.1 35.6-48.4 47.1-55.7-4.8 10.3-16.4 34.5-21 41.8-5.8 9.3-66.1 78.8-80 95.1z"/><path class="i" d="m1024.9 826.9c4.6-15.5-5.9-37-14.4-51.1 10.4 7.8 30.5 23.3 39.1 30 3.9 3.7 7.2 7 9.7 9.5q0 0 0 0c0.1 0.5 0.2 1.1 0.2 1.7 0.1 0.5 0.2 1 0.3 1.6 0.1 0.6 0.2 1.2 0.3 1.8 0.1 0.9 0.2 1.8 0.4 2.7q0.1 1 0.2 2.1c0.1 1 0.3 2.1 0.4 3.3 0.1 0.7 0.1 1.5 0.2 2.3q0.2 1.8 0.3 3.8c0.1 0.8 0.1 1.6 0.2 2.4q0.1 2.1 0.1 4.3c0.1 0.8 0.1 1.6 0.1 2.4q0.1 2.5 0 5.1c0 0.6 0 1.2 0 1.9q-0.1 3.5-0.4 7.1-0.1 0.3-0.1 0.6-0.3 3.2-0.9 6.4c-0.1 0.7-0.2 1.4-0.4 2.1-0.3 1.6-0.6 3.1-1 4.6-0.2 0.9-0.5 1.7-0.7 2.5q-0.6 2-1.3 3.9-0.5 1.2-1.1 2.4-0.8 1.8-1.7 3.5-0.7 1.1-1.4 2.1c-0.7 1.1-1.5 2.1-2.3 3-0.5 0.7-1 1.3-1.6 1.8-0.9 1-2 1.8-3.1 2.6-0.6 0.4-1.1 0.9-1.6 1.3-1.8 1.1-3.7 2-5.8 2.7-1.7 0.5-3.2 0.8-4.7 1q-0.9 0.1-1.8 0.2c-0.6 0-1.1 0-1.7-0.1q-2.3-0.1-4.3-0.8 0 0-0.1 0v-0.1c1.1-1.6 1.9-3.7 2.4-6.8 2.7-16.2-10.8-38.8-3.5-63.8z"/><path class="i" d="m1159.6 811.6c0.7 0.6 1.3 1.3 2 1.8-10.2-5.1-19.4-10.1-25.5-13-0.2-0.1-2.2-1.2-5.6-2.9-0.4-0.4-0.8-0.8-1.4-1.4 10.2 5.2 21.1 10.7 30.5 15.5z"/><path class="i" d="m1151.1 853c-18.6-31.3-47-46.4-70.2-62-23.2-15.7-49.4-37.1-56-60.9-6.6-23.8-5.4-32.5-6.6-40-1.2-7.5 5.2-9.2 10.1-11.3 5-2 21.9-18.9 31.1-36 9.3-17.1 8.5-14.7 16.1-18.8 7.6-4.1 37.2-50.4 49.4-74.2 12.2-23.8 48.1-55.1 57.4-55.1 0 0-19.7 23.2-32.5 47.5-12.7 24.4-41.7 60.3-53.3 76.6-11.6 16.2-45.2 39.4-51 49.8-5.8 10.5-9.3 32.5-7 41.8 2.3 9.3 10.4 38.3 26.7 49.9 6.6 4.7 19.8 12.3 32.9 19.6q0 0.1 0 0.1c0.1 0 0.3 0.1 0.4 0.2 12.5 6.9 24.9 13.6 31.9 17.3 0.5 0.5 0.9 0.8 0.9 0.8 0 0 68 54.1 61.8 80.4-0.6 2.9-1.3 5.5-1.9 7.9q-0.3 1.3-0.7 2.5-0.6 2.2-1.2 4.2c-0.3 0.9-0.6 1.8-0.8 2.6-0.4 1.1-0.8 2.1-1.3 3.1-0.2 0.6-0.5 1.3-0.8 1.9q0 0-0.1 0c-12.7-0.5-16.8-16.7-35.3-47.9z"/><path class="j" d="m969.8 699.6c-5-18.8-9.4-37.2-10.8-48.6-0.2-1.2-0.3-2.4-0.4-3.4-1.5-18.2-5.7-34.2-5.7-47.6 1.7-11.5 5.4-21.4 12-27.7q0.1-0.1 0.2-0.2c9-8.4 24.7-22.9 42.3-39.1 37.7-33.7 84.8-74.7 96.1-88.2 0 0 8.5 12-14.6 42.2-23.2 30.1-106.7 75-112.9 86.6-6.2 11.6 8.2-3.9 7.6 27-0.7 30.9-10.4 35.2-12.1 47-1.7 11.8 3.3 26.8 3.3 26.8-1.7 7-3.2 13.7-3.3 20.5-0.5 1.8-1.1 3.5-1.7 4.7z"/><path class="j" d="m1030.9 783.7q-1.2-1.3-2.3-2.6-1.4-1.6-2.7-3.1-0.9-1-1.8-2-0.9-1-1.8-2.1-0.8-0.9-1.5-1.7-0.8-0.9-1.5-1.8c-1-1.1-1.9-2.2-2.7-3.2-11.6-13.9-31.3-40.6-25.5-70.7 5.8-30.2 39.4-77.7 54.5-100.9 15-23.2 92.7-116 102-132.2-2.3 39-68 127.9-88.1 158.3-20 30.3-47.2 41.5-54.9 83.3-7.7 41.7 43.3 79.6 54.9 99.7 11.7 20.1 60.3 35 83.5 56.5 20.7 19.1 17 39.3 16.9 39.7-9.7-5.4-31.1-23.8-51.7-42.5-25.3-22.9-49.5-46.2-49.5-46.2l-11.4-10.2c-4.4-4.8-10.5-11.6-16.4-18.3z"/><path class="j" d="m1098.2 780q0 0 0-0.1 0.2 0.2 0.4 0.3c-0.1-0.1-0.3-0.2-0.4-0.2z"/><path class="j" d="m1129.1 796.1c-1.3-1.4-3.2-3.3-5.4-5.5q-0.9-1-1.9-2-0.9-0.9-1.7-1.8-1-1-2.1-2.1-1.3-1.3-2.7-2.7-1.3-1.4-2.6-2.8-1.6-1.6-3.2-3.3-0.8-0.9-1.7-1.8-1.6-1.7-3.1-3.3-0.9-1-1.8-1.9-1.9-2.1-3.9-4.2-0.5-0.5-0.9-1-2.4-2.6-4.7-5.2-0.6-0.6-1.2-1.3-1.8-2-3.4-3.9-0.7-0.7-1.4-1.5-1.7-2-3.3-3.8-0.4-0.6-0.9-1.1-1.9-2.4-3.7-4.6-0.2-0.3-0.5-0.6-1.3-1.8-2.5-3.3-0.4-0.6-0.8-1.2c-0.6-0.8-1.1-1.6-1.6-2.4-0.2-0.3-0.4-0.6-0.6-0.9-0.5-1-1-1.9-1.3-2.6-4.6-12.8-19.7-29 0-56.9 19.7-27.8 92.8-124 102.1-140.3 0 0 19.7 23.2 13.5 48-6.2 24.7-27.8 37.1-46.4 47.9-18.5 10.8-34 24-43.3 41-9.2 17-9.2 25.5-13.1 36.3-3.9 10.8 0.8 24 7.7 28.6 7 4.6 18.6-10.8 33.3 3.9 14.7 14.7 35.5 54.1 41.7 64.1 6.2 10.1 15.3 19.6 15.3 19.6 0 0-10.1-5.1-23.4-11.9-9.4-4.8-20.3-10.3-30.5-15.5z"/><path class="k" d="m2104.3 264.6c-27.8 18.1-350.2 231.3-390.8 270.7-40.6 39.4-76.5 26.7-105.5 25.5-29-1.2-80-12-80-12 0 0 71.9-5.4 84.6-6.6 12.8-1.1 68.4-17.4 73.1-34.7 4.6-17.4-27.9-2.4-27.9-2.4-49.8 10.5-307.3-4.6-332.8-10.4-25.5-5.8-54.5-13.9-66.1-12.8-11.6 1.2-45.2 20.9-56.8 31.4-11.6 10.4-27.8 20.8-27.8 20.8 1.3-2.2 2.4-4.7 3.3-7.1 4.6-10 12.5-27.4 14.1-32.3 2.3-7-20.9 3.5-29 0-8.1-3.5 3.5-19.7 11.6-38.3 8.1-18.5 48.7-22 48.7-22 0 0-4.8 0-11.2 0 43.3-5.4 21.6-32.1 63.4-33.5 0 0 78.8 6.6 102 17.3 0 0-29.4 23.1-52.5 28.5-23.2 5.5-43.3 9.3-40.2 16.7 3 7.3 100.5 16.6 165.4 8.9 64.9-7.7 157.7-32.6 204.1-25.6 46.4 7 24.7 33 49.5 28.5 24.7-4.5 105.1-87 170-131.5 59.3-40.7 261.6-107.4 309.3-186.9 9.2-5.6 16.6-10.4 21.9-14.3 1.6-1.2 3.6-2.6 5.7-4 0.7-0.5 1.5-1.1 2.3-1.6q2.2-1.5 4.6-3.1 1.7-1.1 3.4-2.2 2.2-1.4 4.6-2.9c1.4-0.9 2.8-1.9 4.3-2.8 1.1-0.7 2.3-1.4 3.4-2.1q4.3-2.7 9.1-5.7c1.1-0.7 2.3-1.4 3.5-2.2 2.1-1.2 4.2-2.5 6.4-3.9q2.1-1.3 4.4-2.6 3.1-1.9 6.4-3.9c1.6-1 3.1-1.9 4.8-2.8 0.5-0.4 1-0.7 1.5-1q0 0 0 0c-54.2 95.2-164.8 162.9-164.8 162.9z"/><path class="i" d="m1296 608.3c16.3 17.4 109.1 41.8 136.9 47.6 27.8 5.8 119.4 16.2 147.3 4.6 27.8-11.6 86.9-68.4 84.6-51-2.3 17.4-42.9 76.5-52.2 87-9.3 10.4 13.9 4.6 29-1.2 15.1-5.8 40.6-59.1 96.3-82.3 55.6-23.2 107.8-37.1 173.9-39.4 56.1-2 302.2-111.5 430.2-180.9v77.5c-124.3 23.8-382.2 131.2-460.1 151.5-82.6 21.4-154.9 35.9-189.3 46.9-34.3 11.1-51 58-97.4 58-46.4 0-41.7-32.5-88.1-37.1-37.8-3.8-194.3-26.7-256.7-32.5q1.9 0.6 3.9 1.4c-5.8-2.3-10.4-3.6-14.7-3.9-32.5-2.1-44.6 28.1-78.8 57.2 0 0 16.5 24.6 29.7 45.3 6.9 10.8 12.9 20.6 15.1 25.1 0 0 3.2 0.1 8.2 0.6 15 1.6 46.3 7.2 56.7 26.4 6.9 12.7-0.8 18.9-13.3 21.7-13.1 3-31.3 2.3-43.9 1.5-2.5-0.1-5.3-0.6-8.2-1.3-0.4-0.1-0.8-0.2-1.2-0.3q-4.2-1-8.6-2.5 0 0 0 0c10.4-7 24-18.4 17.3-27.4-10.5-13.9-30.2 3.5-27.9-9.2 2.3-12.8-25.5-58-40.6-68.5-15-10.4-41.7-9.2-34.8-17.3 7-8.2 91.7-68.5 99.8-104.4 8.1-36 15-46.4 31.3-54.5 16.2-8.1 39.4 44 55.6 61.4z"/><path class="l" d="m1119.6 599.3c-12.6 14.3-26.5 32.2-33.5 40.9-6.9 8.7-35.9 40.6-35.9 49.9 0 9.3 4.8 22.7 9.3 35.1 4.6 12.4 22.7 33.7 31.3 36.8 0 0 19 20 33.3 29-0.1-0.2-0.3-0.3-0.4-0.4 2.2 2.2 4.1 4.1 5.4 5.5 0.6 0.6 1 1 1.4 1.4-7-3.7-19.4-10.4-31.9-17.3q-0.2-0.1-0.4-0.3c-13.1-7.3-26.3-14.9-32.9-19.6-16.3-11.6-24.4-40.6-26.7-49.9-2.3-9.3 1.2-31.3 7-41.8 5.8-10.4 39.4-33.6 51-49.8 11.6-16.3 40.6-52.2 53.3-76.6 12.8-24.3 32.5-47.5 32.5-47.5 0 0-14.2 24.9-22.2 43.5-7.9 18.5-28 47-40.6 61.1z"/><path class="l" d="m1136.1 800.4c0 0 0.1 0.1 0.1 0.1l-0.2-0.1-4.6-2.1c0 0-0.4-0.3-0.9-0.8 3.4 1.7 5.4 2.8 5.6 2.9z"/><path class="m" d="m1072.2 731.3c0.3 0.7 0.8 1.6 1.3 2.6 0.2 0.3 0.4 0.6 0.6 0.9 0.5 0.8 1 1.6 1.6 2.4q0.4 0.6 0.8 1.2 1.2 1.5 2.5 3.3 0.3 0.3 0.5 0.6 1.8 2.2 3.7 4.6 0.5 0.5 0.9 1.1 1.6 1.8 3.3 3.8 0.7 0.8 1.4 1.5 1.6 1.9 3.4 3.9 0.6 0.7 1.2 1.3 2.3 2.6 4.7 5.2 0.4 0.5 0.9 1 2 2.1 3.9 4.2 0.9 0.9 1.8 1.9 1.5 1.6 3.1 3.3 0.9 0.9 1.7 1.8 1.6 1.7 3.2 3.3 1.3 1.4 2.6 2.8 1.4 1.4 2.7 2.7 1.1 1.1 2.1 2.1 0.8 0.9 1.7 1.8 1 1 1.9 2c0.1 0.1 0.3 0.2 0.4 0.4-14.3-9-33.3-29-33.3-29-8.6-3.1-26.7-24.4-31.3-36.8-4.5-12.4-9.3-25.8-9.3-35.1 0-9.3 29-41.2 35.9-49.9 7-8.7 20.9-26.6 33.5-40.9 12.6-14.1 32.7-42.6 40.6-61.1 8-18.6 22.2-43.5 22.2-43.5 0 0 0.8 17.1-4.8 32.3-0.9 2.4-2 4.9-3.3 7.1-9.3 16.3-82.4 112.5-102.1 140.3-19.7 27.9-4.6 44.1 0 56.9z"/><path class="l" d="m1071.9 552.7c-11.3 11.6-52.4 60.9-60.5 77.1-8.2 16.2-34.8 59.1-33.1 73 1.7 14 20.3 49.3 21.5 51.7 1.1 2.3 30.5 28.6 31.6 29.8q-0.3-0.3-0.5-0.6c5.9 6.7 12 13.5 16.4 18.3 3.9 4.2 6.4 7 6.4 7 0 0-1.6-1.3-4.1-3.2-8.6-6.7-28.7-22.2-39.1-30-2.2-1.6-3.9-2.9-5-3.7-8.2-5.8-22.6-40.8-29.5-55.9-3.5-7.5-4.6-14.5-4.5-21.3 0.1-6.8 1.6-13.5 3.3-20.5 3.5-13.9 55.7-82.3 69.6-98.5 13.9-16.3 74.2-85.8 80-95.1 4.6-7.3 16.2-31.5 21-41.8 1.4-2.8 2.2-4.6 2.2-4.6v3.5c0 0-7.5 33.3-12.7 37.8-5.3 4.5-51.7 65.4-63 77z"/><path class="l" d="m952.9 573.6c9.3-14 97.3-90.5 114.7-107.9 2.6-2.6 5.3-5.3 8-8.1-9.8 17.4-75.8 74.8-82.8 81.2-7 6.3-47.6 40.6-45 61.4 1.2 9.4 6.1 30.5 11.2 50.9q0-0.1 0-0.1c1.4 11.4 5.8 29.8 10.8 48.6 9 33.6 20.1 68.8 20.1 68.8 0 0-39.4-97.4-47.8-142.7-1.7-9.2 1.4-38.2 10.8-52.1z"/><path class="n" d="m1881.9 621.7c77.9-20.3 335.8-127.7 460.1-151.5v71.5q-0.1 0.1-0.3 0.1-1.2 0.3-2.4 0.5-9.1 2-18.4 4.1-1.5 0.3-3 0.6-6.2 1.4-12.5 2.8c-27.2 6-54.9 12.1-82.9 18.3q-1.4 0.3-2.7 0.6-8.2 1.8-16.5 3.7-0.4 0-0.8 0.1c-64.9 14.4-130.5 29-191.9 42.9q-0.8 0.2-1.5 0.3c-21.9 5-43.3 9.8-63.9 14.5q-0.5 0.1-0.9 0.2-7.6 1.7-15 3.4-0.4 0.1-0.8 0.2c-20.1 4.6-39.3 9-57.6 13.2q-0.8 0.2-1.7 0.4c-3.7 0.9-7.4 1.7-11 2.6q-2.3 0.5-4.5 1-5 1.2-9.8 2.3-2.5 0.6-4.9 1.2c-3.2 0.7-6.3 1.4-9.4 2.2q-1.6 0.3-3.2 0.7c-7.1 1.7-14 3.3-20.7 4.9q-0.5 0.1-1.1 0.2c-2.9 0.8-5.7 1.4-8.6 2.1q-2.2 0.5-4.4 1-3.8 1-7.5 1.9-2.2 0.5-4.4 1c-2.3 0.6-4.7 1.2-7 1.7-1.6 0.4-3.2 0.8-4.8 1.2q-4.1 1-8 2c-2.6 0.6-5.2 1.2-7.6 1.8-1.4 0.4-2.7 0.7-4 1-1.8 0.5-3.7 1-5.4 1.4q-2.2 0.5-4.2 1.1-2.4 0.6-4.7 1.2-1.8 0.4-3.6 0.9c-1.7 0.4-3.4 0.9-5 1.3-0.8 0.2-1.7 0.5-2.5 0.7q-3.4 0.9-6.5 1.7c-0.5 0.2-0.9 0.3-1.4 0.4-1.5 0.5-2.9 0.9-4.2 1.2-0.7 0.2-1.2 0.4-1.8 0.6q-1.6 0.4-3 0.9-0.8 0.2-1.5 0.4-1.3 0.5-2.4 0.8c-0.3 0.1-0.7 0.3-1 0.4-0.9 0.3-1.7 0.6-2.3 0.9 0 0-23.2 26.3-60.3 44.8-35.8 17.9-156.7 9.9-252.6-22.7q-5.2-1.7-10.2-3.6c-5.6-2-11-4-16.1-5.9-1.6-0.6-3.1-1.2-4.7-1.8-3.5-1.3-6.8-2.6-10-3.9q-2.5-0.9-4.9-1.9-4.6-1.8-8.9-3.5c-1.4-0.6-2.7-1.1-4-1.6q-5.2-2.1-9.9-4.1c-0.6-0.2-1.2-0.5-1.7-0.7q-5.5-2.3-10.5-4.5c-0.9-0.3-1.6-0.7-2.4-1q-3.7-1.6-7.1-3.1c-1-0.4-1.9-0.8-2.8-1.2q-3.1-1.4-6-2.7-1.1-0.5-2.2-1-3.6-1.6-6.8-3.1 0 0-0.1 0c-2.9-1.4-5.5-2.6-8-3.7q-2.1-1-4-1.8c-0.7-0.3-1.3-0.6-1.9-0.9q-1.8-0.8-3.4-1.5-0.8-0.3-1.6-0.7-1.7-0.7-3.3-1.3c-0.3-0.2-0.7-0.3-1.1-0.5q-2-0.8-3.9-1.4c62.4 5.8 218.9 28.7 256.7 32.5 46.4 4.6 41.7 37.1 88.1 37.1 46.4 0 63.1-46.9 97.4-58 34.4-11 106.7-25.5 189.3-46.9z"/><path class="j" d="m1160.2 387.2c-23.7 12.4-72.1 27.1-88.3 32.5-16.2 5.4-19.4 25.5-34 49.5-14.7 24-44.9 29.4-61.1 38.6-10.5 6-22.1 27.5-29 42q0.2-0.9 0.4-1.8c2.8-14 5.3-28.1 8.2-41.2q0.2-0.8 0.4-1.5 0.7-2.9 1.4-5.8 0 0 0 0 0.2-1 0.5-2 0.7-2.6 1.4-5.1 0.3-1 0.5-2.1 0.9-2.8 1.8-5.6 0.2-0.5 0.4-1 1-3.1 2.2-6.1 0.4-0.8 0.7-1.6 0.9-2.1 1.9-4 0.5-1 1-2 0.8-1.7 1.8-3.3 0.6-0.9 1.1-1.8 1.1-1.6 2.2-3 0.5-0.8 1-1.5 1.7-2 3.6-3.8c21.7-20.1 43.3-24.5 92.8-43.1 0 0 24.8-13.7 51.4-27.9 23.1-12.3 47.6-25 58.3-29.3 0 0 0.2-0.1 0.5-0.3 0.2 0 0.4-0.2 0.5-0.3 0.3-0.1 0.5-0.2 0.8-0.4 0.4-0.3 0.9-0.6 1.4-0.9 0.2-0.1 0.4-0.2 0.7-0.4q0.9-0.5 2-1.1 0.4-0.3 0.9-0.5 1.1-0.7 2.3-1.4 0.7-0.3 1.3-0.7 1.3-0.7 2.7-1.5 0.8-0.4 1.6-0.9 1.4-0.7 2.8-1.5c0.9-0.5 1.8-0.9 2.6-1.4 0.8-0.4 1.6-0.8 2.4-1.3q0 0 0.1 0c-9.7 13.4-27.2 35.2-43.2 43.5z"/><path class="o" d="m1873.5 343.7c-64.9 44.5-145.3 127-170 131.5-24.8 4.5-3.1-21.5-49.5-28.5-46.4-7-139.2 17.9-204.1 25.6-64.9 7.7-162.4-1.6-165.4-8.9-3.1-7.4 17-11.2 40.2-16.7 23.1-5.4 52.5-28.5 52.5-28.5-23.2-10.7-102-17.3-102-17.3-41.8 1.4-20.1 28.1-63.4 33.5-6.2 0-13.8 0-20.1 0-12.8 0-4.7-32.5 5.8-62.6 10.4-30.2 68.4-37.1 85.8-45.3 17.4-8.1 41.7 0 41.7 0 8 0.8 15.3 0.1 22.2-1.6q0 0 0.1 0 2.4 0.9 5.3 1.9 0.1 0 0.1 0 2.9 1.1 6.3 2.3 0 0 0.1 0c22.5 7.8 59.1 19.6 99.3 32q0.5 0.1 1 0.3c3.5 1 7 2.1 10.5 3.2q1.2 0.4 2.5 0.7 4.8 1.5 9.6 2.9 1.7 0.6 3.5 1.1 4.5 1.4 9.1 2.7 1.9 0.6 3.9 1.2 4.4 1.3 8.9 2.6 2.1 0.7 4.2 1.3 4.3 1.3 8.6 2.5 2.2 0.7 4.4 1.3 4.1 1.2 8.3 2.4 2.3 0.7 4.7 1.4 4 1.2 7.9 2.3 2.3 0.6 4.6 1.3 5.9 1.7 11.8 3.3 4 1.1 7.9 2.2c1.6 0.5 3.1 0.9 4.6 1.3q3.6 1 7.2 2c1.7 0.4 3.3 0.9 4.9 1.3q3.3 0.9 6.5 1.8 2.4 0.6 4.7 1.2 3.1 0.8 6.2 1.6 2.2 0.6 4.4 1.2 2.9 0.7 5.8 1.4 2.1 0.6 4.2 1.1 2.7 0.6 5.3 1.3 2 0.5 3.9 0.9 2.5 0.6 5 1.1 1.7 0.5 3.4 0.8 2.4 0.5 4.6 1c1 0.2 2 0.4 3 0.6 1.4 0.3 2.8 0.6 4.1 0.8 0.8 0.2 1.7 0.4 2.5 0.5 1.4 0.2 2.6 0.4 3.8 0.6 0.6 0.1 1.2 0.2 1.8 0.3 1.7 0.2 3.2 0.4 4.5 0.5 0 0 7.1 7.7 40.2-9.3 0.9-0.5 2.1-1.1 3.6-1.9q0.1 0 0.2 0c1.5-0.8 3.2-1.7 5.2-2.6q0.2-0.2 0.5-0.3c1.8-0.9 3.9-1.9 6-3q0.9-0.5 1.9-0.9c2.3-1.2 4.8-2.4 7.6-3.8q0.1-0.1 0.3-0.2c2.3-1.1 4.9-2.4 7.4-3.6q11.4-5.7 25.9-12.8 0.6-0.4 1.3-0.7c12.9-6.4 27.5-13.7 43.2-21.5q0.8-0.4 1.7-0.8 7.6-3.8 15.5-7.8 0.3-0.1 0.6-0.2 8.2-4.1 16.7-8.4 0.5-0.2 1-0.4c11.1-5.6 22.7-11.4 34.5-17.4q1-0.4 2-0.9 8.5-4.3 17.2-8.7 0.9-0.4 1.8-0.9 8.8-4.4 17.7-8.9 0.9-0.4 1.7-0.9 9.2-4.6 18.5-9.3 0.2-0.1 0.4-0.2 9.6-4.9 19.2-9.7 0.3-0.2 0.6-0.4c12.9-6.5 25.8-13.1 38.6-19.7q0.1 0 0.2-0.1 9.4-4.8 18.7-9.6 0.5-0.3 1.1-0.5 9.1-4.7 18.1-9.4 0.5-0.3 1.1-0.5 8.9-4.7 17.7-9.3 0.5-0.2 1-0.5 8.9-4.6 17.5-9.2 0.2-0.1 0.4-0.2c17.7-9.3 34.6-18.3 50.2-26.7q0.2-0.2 0.5-0.3 7.6-4.1 14.7-8.1 0.3-0.1 0.6-0.3 7.2-3.9 13.8-7.6 0.2-0.1 0.4-0.2 6.7-3.8 13-7.4 0 0 0 0c8.4-4.8 15.9-9.2 22.6-13.3v0.1c-47.7 79.5-250 146.2-309.3 186.9z"/><path class="m" d="m991.1 696.5c-5.8 30.1 13.9 56.8 25.5 70.7 0.8 1 1.7 2.1 2.7 3.2q0.7 0.9 1.5 1.8 0.7 0.8 1.5 1.7 0.9 1.1 1.8 2.1 0.9 1 1.8 2 1.3 1.5 2.7 3.1 1.1 1.3 2.3 2.6 0.2 0.3 0.5 0.6c-1.1-1.2-30.5-27.5-31.6-29.8-1.2-2.4-19.8-37.7-21.5-51.7-1.7-13.9 24.9-56.8 33.1-73 8.1-16.2 49.2-65.5 60.5-77.1 11.3-11.6 57.7-72.5 63-77 5.2-4.5 12.7-37.8 12.7-37.8v25.5c-9.3 16.2-87 109-102 132.2-15.1 23.2-48.7 70.7-54.5 100.9z"/><path class="m" d="m1007.4 533c-17.8 15.9-33.5 30.2-42.3 39.1q-0.1 0.1-0.2 0.2c-3 3-5.2 5.4-6.3 7.1-4.3 5.9-5.7 12.8-5.7 20.6 0 13.4 4.2 29.4 5.7 47.6 0.1 1 0.2 2.2 0.4 3.4q0 0 0 0.1c-5.1-20.4-10-41.5-11.2-50.9-2.6-20.8 38-55.1 45-61.4 7-6.4 73-63.8 82.8-81.2 3.9-3.9 7.9-8 11.7-11.9q0 0 0.1-0.1 2.7-2.7 5.2-5.3 0.3-0.3 0.6-0.6c1.6-1.7 3.2-3.3 4.6-4.8q0 0 0.1-0.1c2.9-3 5.4-5.5 7.2-7.4 0.2-0.3 0.5-0.5 0.7-0.8 0.6-0.6 1.2-1.2 1.6-1.6q0.1-0.1 0.2-0.2c0.3-0.4 0.6-0.7 0.6-0.7l-4.7 20.7c-11.3 13.5-58.4 54.5-96.1 88.2z"/><path class="p" d="m2342 296.8c-90.1 34.7-165.9 65.2-187 79.6-45.1 30.8-58.9 33-136.1 87-52.6 36.8-210.4 151.1-221.1 70.7 0 0-23.2-35.6 69.6-87.4 92.7-51.7 218.2-63.9 281.4-114 41-32.6 113.4-87.1 193.2-143.9z"/></svg>