<svg version="1.2" xmlns="http://www.w3.org/2000/svg" viewBox="0 0 819 788" width="819" height="788"><style>.a{fill:#874c2f}.b{fill:#ffb583}.c{opacity:.2;fill:#333}.d{fill:none;stroke:#333;stroke-miterlimit:10;stroke-width:2}.e{fill:#dbcfb9}.f{opacity:.2;fill:#fff}.g{opacity:.1;fill:#333}.h{fill:#a78042}.i{fill:#f9f4e1}.j{fill:#b4653e}</style><path class="a" d="m697 533.5l-14 29.5-6 23-1 24 13 10 43-39 5-18z"/><path class="b" d="m741.5 574.6c0 0-28.8-10.6-101.9-57.9-35.7-23.1-82-55-140.7-98.5q-17-12.7-35.5-26.7c-3.4-2.6-32.4-13.5-52.4-12.3-20.1 1.2-29.6 7.5-47 7.7-17.4 0.3-91.2-35.2-91.2-35.2l5.1-23.8 13.3-63.1 15.7-74c0 0-22-12.7-24.6-16.2-2.7-3.4-22.9-15.3-24.7-20.5-1.9-5.2-1.9-9.6-1.2-15.7 0.8-6.1 8.6-13.2 13.8-15 5.2-1.8 34.7-9.3 45.2-8.6 10.4 0.8 39.4 12.5 42.9 14.2 3.5 1.7 24.6 16.2 34.4 27.4 9.8 11.1 36.7 63 37.7 70 1 6.9 20.6 38 36.5 50 15.9 11.9 67.5 26 67.5 26 0 0 177.3 65.2 205.6 77.8l4.5 1.8v194.2z"/><path class="c" d="m744.7 576.2c0 0-32-12.2-105.1-59.5-35.7-23.1-114.3-78.9-172.9-122.4 0 0 49.2 4.1 64.7 9.4 57.7 19.8 212.5 120.3 212.5 120.3z"/><path class="c" d="m306.9 190.8l-15.7 74-13.3 63.1c0 0 78.1 19.5 84.8 20.5 6.7 1.1 20.4-2.7 24.3-7.7 3.8-5-16.1-25.8-16.1-25.8l-16.3-86-22.9-35.6z"/><path class="b" d="m232.1 216.1c0 0-10.3 15.2-10.9 21.1-0.6 5.8 1.6 11.6 12.6 18.7 11.1 7.1 26 15.7 29.1 16.8 3 1.1 49 15.7 52.2 15 3.2-0.6 19.5-15.8 21.6-20.9 2.1-5.2-0.6-13.7-3.3-17.1-2.7-3.5-13.1-8.8-13.1-8.8l-71.4-34.4z"/><path class="c" d="m333.4 249.7c-2.7-3.5-13.1-8.8-13.1-8.8l-71.4-34.4-16.8 9.6c0 0 66.8 30.3 89.6 34.8 0 0 5.1 0.6 8.2 0 3.2-0.6 3.5-1.2 3.5-1.2z"/><path class="b" d="m265.5 162.2c0 0-16.4-7.3-18.8-5.8-2.4 1.6-8.6 5.6-12.2 12-3.6 6.4-8.3 18.2-2.7 25.7 5.6 7.6 25.3 26.2 49.4 37.9 24.2 11.6 40.7 12 42.9 11.9 2.2 0 8.9-4.9 11.4-10.2 2.5-5.2 1.1-23.7-3.5-26.5-4.6-2.8-66.5-45-66.5-45z"/><path class="c" d="m367.3 146.3c0 0-6.4-0.6-14.1-1.3-10.1-1-22.5-2.4-27-3.3-7.8-1.6-27.1 4.7-33.2 8.3 0 0-3.2-5.6-9-10.6-3-2.5 0.2-9.9-1-10.5 0 0 47.6 4.4 69.4 11.7z"/><path class="c" d="m332 207.2c-4.6-2.8-66.5-45-66.5-45 0 0-16.4-7.3-18.8-5.8-2.4 1.6-8.6 5.6-12.2 12 0 0 26.7 16.1 52.7 28.2 7.6 3.5-43.2 15.4-28.3 22.8 0.9 0.5 52.3-13 53.2-12.7 7.2 2.3 13.4 3.5 17.5 2.9z"/><path class="d" d=""/><path class="e" d="m259.7 309.7c0 0-101.6 8.9-141.7 108.1-40.2 99.2-55.8 168.4-55.8 177.6 0 9.2-13.4 55.3-20.1 62.3-6.7 6.9-31.2 36.9-37.9 43.8-6.7 6.9-6.7 11.5 8.9 23 15.6 11.6 73.6 36.9 107.1 34.6 33.5-2.3 37.9-6.9 37.9-6.9 0 0 162.9 48.5 252.1 32.3 89.3-16.1 109.3-43.8 109.3-43.8 0 0 20.1 4.6 24.6 0 0 0 31.2 0 37.9-9.2 6.7-9.3 13.4-23.1 11.1-39.2-1.2-8.7-6.5-18.2-12.4-29.4-5.1-9.6-10.5-20.5-13.9-33.3-7.5-27.7-50.6-170.7-80.4-206 0 0-16.3-68.7-129.3-113.5 0 0-75.1-6.6-97.4-0.4z"/><path class="f" d="m226.3 401.3c0 0-64 28-69.3 58.7-5.3 30.7 6.7 125.3-9.3 162.7-16 37.3-41.4 74.6 80 96 121.3 21.3 201.3 9.3 218.6-41.4 17.4-50.6 30.7-165.3 0-222.6-30.6-57.4-124-90.7-220-53.4z"/><path class="g" d="m281.1 312.5c0 0-33 15.1-47.4 38.3-14.3 23.3-28.7 44.3-34.3 49.8-5.5 5.5-21 19.9-15.4 24.3 5.5 4.5 23.2-7.7 30.9-19.9 7.8-12.1 27.7-48.6 34.3-58.6 6.6-9.9 33.2-24.3 33.2-24.3l5.5-7.7z"/><path class="g" d="m300.1 312.1c0 0-26.6 28.8-36.5 44.3-10 15.5-16.6 22.1-4.4 19.9 12.1-2.2 38.7-31 42-42 3.3-11.1 5.5-22.2 5.5-22.2z"/><path class="g" d="m345.4 324.3c0 0 12.2 54.2 11.1 68.6-1.1 14.3 4.4 26.5 5.5 29.8 1.1 3.3-4.4 8.9 1.1 8.9 5.6 0 2.2-8.9 2.2-24.4 0-15.4 1.1-22.1 2.2-35.3 1.2-13.3-9.9-53.1-9.9-53.1l-6-8.1-10.3 5.8z"/><path class="g" d="m356.7 310c0 0 33 46.4 38.5 58.5 5.5 12.2 12.2 23.3 14.4 31 2.2 7.7 5.5 12.2 8.8 11.1 3.3-1.1-5.5-32.1-11-43.2-5.6-11-32-49-35.7-51.1-5.7-3.1-15-6.3-15-6.3z"/><path class="g" d="m13.1 724.5c-15.6-11.5-15.6-16.1-8.9-23 6.7-6.9 31.2-36.9 37.9-43.8 6.7-7 20.1-53.1 20.1-62.3 0 0-1 52.9 12.3 69.2 13.2 16.2 7.4 19.9 2.9 16.2-4.4-3.7-19.1-19.9-21.4-20.7-2.2-0.7-7.3 7.4-7.3 7.4 0 0 4.4 14 11.8 18.4 7.3 4.5 14.7 17-1.5 8.1-16.2-8.8-18.4-11-18.4-11 0 0-18.5 16.2-25.8 19.9-7.4 3.7-1.7 21.6-1.7 21.6z"/><path class="g" d="m158.1 752.2c0 0 162.9 48.5 252.1 32.3 89.3-16.1 109.3-43.8 109.3-43.8 0 0 20.1 4.6 24.6 0 0 0 14-21.6 16.2-33.4 2.3-11.8-11.8 15.5-16.2 17.7-4.4 2.2-14 3.7-9.6-13.3 4.5-16.9 3.7-28-4.4-14.7-8.1 13.3-19.9 47.2-31 50.9-11 3.7-5.1-2.2-8.1-2.2-2.9 0-39.8 25-89.2 27.2-49.4 2.2-182.8-7.3-216.7-19.1-33.9-11.8-55.3-22.2-64.2-27.3-8.8-5.2-20.6-9.6-19.1-4.4 1.4 5.1 2.9 6.6 12.5 12.5 9.6 5.9 27.3 12.5 30.2 14 3 1.5 13.6 3.6 13.6 3.6z"/><path class="g" d="m486.4 423.6c29.8 35.3 72.9 178.3 80.4 206 3.4 12.8 8.8 23.7 13.9 33.3 0 0-3 29.7-8.6 26.4-5.5-3.4-1.1-10-3.3-17.7-2.2-7.8-5.5-14.4-5.5-14.4 0 0-5.5 37.6-10 46.4-4.4 8.9 2.2-21 2.2-34.3 0-13.2 0-44.2-12.1-79.6-12.2-35.4-37.6-101.7-44.3-118.3-6.6-16.6-34.2-57.5-37.6-68.6-3.3-11-17.5-41.1-17.5-41.1l17.5 17.9c0 0 19.2 24.4 24 41.3q0.1 0.4 0.2 0.7z"/><path class="b" d="m235.7 315.2c-3.7 1.1-2.1-5.9-3.3-10.7-2.6-10.9-3.5-21.8 0.6-28.9 4.1-7 11.9-10.5 17.1-8.7 5.3 1.8 54.3 14.6 54.3 14.6 0 0 4.3 0.8 10.3 2.1 12.9 2.7 33.7 7.2 35.6 8.8 2.8 2.4 7.8 10.9 4.2 17.5-3.5 6.6-6.1 13.6-18.4 12.1-4.2-0.6-11.6-1.5-19.7-2.7-6.5-0.9-13.6-1.9-19.7-2.8-8.4-1.2-14.1-3.6-15.6-4-3.8-1.1-17.3-1-20.8-2.6 0 0-19.3 3.7-24.6 5.3z"/><path class="c" d="m314.7 283.6c-6-1.3-10.3-2.1-10.3-2.1 0 0-49-12.8-54.3-14.6-5.2-1.8-13 1.7-17.1 8.7 0 0 16.9 3.8 33.5 6.8 16.6 2.9 45.1 4.4 46.8 3 1.8-1.3 1.4-1.8 1.4-1.8z"/><path class="a" d="m318.9 298.6c0 0-3.1 6.4-0.1 9.3 2.9 2.8 21.2 8.4 22.5 8.6 1.3 0.3 8-0.1 10.3-5.8 2.4-5.7 0.1-12.2-3.1-13.8-3.2-1.5-20.7-5.6-22.4-6.4-1.8-0.9-6.8 2.1-7.2 8.1z"/><path class="h" d="m385.2 477l9.4-35.2h-169.1l-9.3 35.2h74.9c7.6 6.4 12.7 15.5 14 25.8h-88.9l-9.4 35.3h89.1c-10.3 13-31.2 23.4-72.7 23.4h-18.8v45l96.6 89.9h56l-111.3-100.7c55.8 0 82-28.6 92-57.6h38.1l9.4-35.3h-42.4c-0.6-9.1-2.7-17.8-6.2-25.8z"/><path fill-rule="evenodd" class="i" d="m400.4 443.3l-9.4 35.3-1.2 4.4h-44.6q2.1 6.8 3 13.8h44.8l-2 7.6-9.4 35.2-1.2 4.5h-38.5c-8.5 21.3-29.6 52-81.4 57l100.5 90.8 11.6 10.5h-74l-1.7-1.6-96.6-89.9-1.9-1.8v-53.6h24.8c25 0 44-3.8 56.7-11.4h-80.9l2-7.6 9.4-35.2 1.1-4.5h86.1c-1.7-5.2-4.7-9.9-8.8-13.8h-80.5l2.1-7.5 9.3-35.2 1.2-4.5h181.5zm-174.8-1.5l-9.4 35.2h74.9c7.6 6.3 12.8 15.5 14 25.8h-88.9l-9.4 35.2h89.1c-10.3 13-31.1 23.5-72.7 23.5h-18.8v44.9l96.6 89.9h56l-111.3-100.6c55.8 0 82-28.7 92-57.7h38.1l9.4-35.2h-42.4c-0.6-9.1-2.7-17.8-6.1-25.8h48.5l9.4-35.2z"/><path class="g" d="m119.8 541.1c0 0-8.8-15.5-11-28.8-2.3-13.3-7.8-7.7-7.8 0 0 7.8 11.1 48.7 15.5 56.4 4.4 7.8 8.9 11.1 13.3 8.9 4.4-2.3-6.7-26.6-10-36.5z"/><path class="g" d="m493.6 549.9c0 0-13.3 79.6-23.2 96.2-10 16.6-19.9 34.3-10 31 10-3.3 32.1-43.1 35.4-74.1 3.3-31 5.6-65.3-2.2-53.1z"/><path class="g" d="m506.9 607.4c0 0-18.8 49.8-14.4 58.6 4.4 8.9 4.4-9.9 7.8-21 3.3-11 5.5-18.8 7.7-24.3 2.2-5.5 3.3-16.6-1.1-13.3z"/><path class="e" d="m355.4 151.4c0 0 34.5-35.6 47.2-58.2 10.3-18.5 52.3-77.4 28.7-82.6-23.6-5.2-11.8-3-29.5-5.2-17.7-2.2-33.1-0.7-45.7 6.7-12.5 7.3-9.6 11.8-14.7 8.1-5.2-3.7-9.6-14-21.4-15.5-11.8-1.5-21.4-5.2-39.1-3.7-17.7 1.5-40.5 17.7-42.7 24.3-2.3 6.7-3 6.7 3.6 26.6 6.7 19.9 52.4 83.3 54.6 95.1 2.2 11.8 59 4.4 59 4.4z"/><path class="g" d="m337.7 147.7c0 0 30.2-73.7 43.5-75.2 13.3-1.4-36.1 75.2-36.1 75.2z"/><path class="g" d="m328.8 147.7c0-2.2 3.7-29.5 4.5-41.3 0.7-11.8-14-19.1-13.3 10.4 0.7 29.5 0.7 29.5 0.7 29.5z"/><path class="b" d="m367.3 146.3c0 0-33.2-3-41.1-4.6-7.8-1.6-17.4 0.3-23.5 3.8-6 3.6-32.8 18.9-50.1 23.5-17.4 4.6-44.3 15.5-44.3 15.5 0 0-2.4 14-0.5 19.2 1.8 5.2 11.5 16.4 24.6 16.2 13.1-0.3 36.8-4.5 54.3-12.9 17.5-8.3 25.6-10.4 32.4-6.6 6.8 3.8 16.9 22.2 16.8 29.2-0.1 7-1.6 25.7 10.3 48.2 11.9 22.5 26.8 39.9 26.8 39.9"/><path class="a" d="m208.3 184.5c0 0-3.5 14 4 17.6 7.5 3.6 29.6-4.7 31.7-5.3 1.5-0.4 7.9-0.6 9.1-9.7 1.1-9.2-2.9-15.5-7.3-15.4-4.3 0.1-37.5 12.8-37.5 12.8z"/><path class="j" d="m729 376c0 0 29 138-22 209-51 71-14-35-14-35l-8-5c0 0-23 62-10 77 13 15 144 100.6 144 100.6v-331c0 0-66-16.6-90-15.6z"/></svg>