<?xml version="1.0" encoding="UTF-8"?>
<svg version="1.1" xmlns="http://www.w3.org/2000/svg" width="396" height="177">
<path d="M0 0 C0.80179687 0.04382812 1.60359375 0.08765625 2.4296875 0.1328125 C5.72405073 0.33113537 8.60542476 0.57680825 11.75 1.625 C11.75 5.915 11.75 10.205 11.75 14.625 C9.87054688 14.59019531 9.87054688 14.59019531 7.953125 14.5546875 C6.3020893 14.53592573 4.65104715 14.51772597 3 14.5 C2.175 14.48324219 1.35 14.46648438 0.5 14.44921875 C-0.29921875 14.44277344 -1.0984375 14.43632812 -1.921875 14.4296875 C-3.02160645 14.41397705 -3.02160645 14.41397705 -4.14355469 14.39794922 C-6.60860321 14.66365334 -8.16525037 15.29086167 -10.25 16.625 C-13.30838063 23.3146008 -13.47663133 31.9727763 -11.609375 39.0546875 C-10.73500853 41.12059259 -9.85411409 43.02088591 -8.25 44.625 C-6.76361008 44.78155027 -5.27050873 44.87566943 -3.77734375 44.94140625 C-2.42866211 45.00424805 -2.42866211 45.00424805 -1.05273438 45.06835938 C-0.10720703 45.10767578 0.83832031 45.14699219 1.8125 45.1875 C2.76189453 45.23068359 3.71128906 45.27386719 4.68945312 45.31835938 C7.04278176 45.42479132 9.39637099 45.52543154 11.75 45.625 C11.75 49.915 11.75 54.205 11.75 58.625 C0.51975927 60.49670679 -14.32462009 62.31201443 -24.25 55.625 C-29.88485315 50.8293803 -31.20063577 44.79838832 -32.25 37.625 C-32.9600519 26.94093783 -33.44145571 15.25474686 -26.25 6.625 C-18.57760927 -0.45720683 -9.93750384 -0.6516396 0 0 Z M-381.25 0.625 C-327.13 0.625 -273.01 0.625 -217.25 0.625 C-217.25 55.075 -217.25 109.525 -217.25 165.625 C-271.37 165.625 -325.49 165.625 -381.25 165.625 C-381.25 111.175 -381.25 56.725 -381.25 0.625 Z M-334.25 48.625 C-334.25 71.395 -334.25 94.165 -334.25 117.625 C-311.15 117.625 -288.05 117.625 -264.25 117.625 C-264.25 94.855 -264.25 72.085 -264.25 48.625 C-287.35 48.625 -310.45 48.625 -334.25 48.625 Z M-116.1875 0.375 C-114.99705078 0.354375 -113.80660156 0.33375 -112.58007812 0.3125 C-102.90082075 0.26993042 -93.93432645 1.00450226 -86.65234375 7.9609375 C-80.5812185 15.16511398 -80.73467943 25.66635004 -81.25 34.625 C-82.04873721 41.96529385 -83.06322987 49.06482132 -88.97265625 54.08984375 C-101.37342781 62.59534313 -118.15786578 60.03421342 -132.25 58.625 C-132.25 39.815 -132.25 21.005 -132.25 1.625 C-127.07232638 -0.10089121 -121.60730703 0.39795313 -116.1875 0.375 Z M-114.25 13.625 C-114.25 24.185 -114.25 34.745 -114.25 45.625 C-105.94976486 46.50545136 -105.94976486 46.50545136 -102.75 43.8125 C-99.66835102 39.31842858 -100.06665474 34.97665737 -100.0625 29.75 C-100.05025391 28.94691406 -100.03800781 28.14382812 -100.02539062 27.31640625 C-100.01475879 23.01405876 -100.09448911 19.4794726 -102.25 15.625 C-106.46914267 13.0935144 -108.97139286 13.625 -114.25 13.625 Z M-194.25 1.625 C-187.98 1.625 -181.71 1.625 -175.25 1.625 C-175.25 8.555 -175.25 15.485 -175.25 22.625 C-169.64 22.625 -164.03 22.625 -158.25 22.625 C-158.25 15.695 -158.25 8.765 -158.25 1.625 C-152.31 1.625 -146.37 1.625 -140.25 1.625 C-140.25 20.435 -140.25 39.245 -140.25 58.625 C-146.19 58.625 -152.13 58.625 -158.25 58.625 C-158.25 51.035 -158.25 43.445 -158.25 35.625 C-163.86 35.625 -169.47 35.625 -175.25 35.625 C-175.25 43.215 -175.25 50.805 -175.25 58.625 C-181.52 58.625 -187.79 58.625 -194.25 58.625 C-194.25 39.815 -194.25 21.005 -194.25 1.625 Z M-76.25 1.625 C-62.39 1.625 -48.53 1.625 -34.25 1.625 C-34.25 5.915 -34.25 10.205 -34.25 14.625 C-41.84 14.625 -49.43 14.625 -57.25 14.625 C-57.25 17.595 -57.25 20.565 -57.25 23.625 C-49.99 23.625 -42.73 23.625 -35.25 23.625 C-35.25 27.585 -35.25 31.545 -35.25 35.625 C-42.51 35.625 -49.77 35.625 -57.25 35.625 C-57.25 43.215 -57.25 50.805 -57.25 58.625 C-63.52 58.625 -69.79 58.625 -76.25 58.625 C-76.25 39.815 -76.25 21.005 -76.25 1.625 Z " fill="#AD0000" transform="translate(381.25,0.375)"/>
<path d="M0 0 C0.80179687 0.04382812 1.60359375 0.08765625 2.4296875 0.1328125 C5.72405073 0.33113537 8.60542476 0.57680825 11.75 1.625 C11.75 5.915 11.75 10.205 11.75 14.625 C9.87054688 14.59019531 9.87054688 14.59019531 7.953125 14.5546875 C6.3020893 14.53592573 4.65104715 14.51772597 3 14.5 C2.175 14.48324219 1.35 14.46648438 0.5 14.44921875 C-0.29921875 14.44277344 -1.0984375 14.43632812 -1.921875 14.4296875 C-3.02160645 14.41397705 -3.02160645 14.41397705 -4.14355469 14.39794922 C-6.60860321 14.66365334 -8.16525037 15.29086167 -10.25 16.625 C-13.30838063 23.3146008 -13.47663133 31.9727763 -11.609375 39.0546875 C-10.73500853 41.12059259 -9.85411409 43.02088591 -8.25 44.625 C-6.76361008 44.78155027 -5.27050873 44.87566943 -3.77734375 44.94140625 C-2.42866211 45.00424805 -2.42866211 45.00424805 -1.05273438 45.06835938 C-0.10720703 45.10767578 0.83832031 45.14699219 1.8125 45.1875 C2.76189453 45.23068359 3.71128906 45.27386719 4.68945312 45.31835938 C7.04278176 45.42479132 9.39637099 45.52543154 11.75 45.625 C11.75 49.915 11.75 54.205 11.75 58.625 C0.51975927 60.49670679 -14.32462009 62.31201443 -24.25 55.625 C-29.88485315 50.8293803 -31.20063577 44.79838832 -32.25 37.625 C-32.9600519 26.94093783 -33.44145571 15.25474686 -26.25 6.625 C-18.57760927 -0.45720683 -9.93750384 -0.6516396 0 0 Z M-380.25 0.625 C-326.46 0.625 -272.67 0.625 -217.25 0.625 C-217.25 54.745 -217.25 108.865 -217.25 164.625 C-219.56 162.645 -221.87 160.665 -224.25 158.625 C-225.72215597 157.52163724 -227.20897117 156.43725567 -228.71655273 155.3828125 C-262.28485048 131.17231549 -262.28485048 131.17231549 -265.78268719 112.173172 C-268.79975255 91.33733156 -266.59512539 69.43333482 -264.25 48.625 C-265.4122258 48.7782222 -265.4122258 48.7782222 -266.59793091 48.93453979 C-276.50473419 50.17868106 -286.40327628 51.00941606 -296.375 51.5 C-297.56304607 51.55862339 -297.56304607 51.55862339 -298.77509308 51.61843109 C-319.159012 52.50402287 -335.23514719 51.00044399 -350.81162643 36.94533157 C-354.61226976 33.38924373 -358.15540942 29.62716713 -361.625 25.75 C-362.11513832 25.20400902 -362.60527664 24.65801804 -363.11026764 24.09548187 C-380.25 4.85113958 -380.25 4.85113958 -380.25 0.625 Z M-116.1875 0.375 C-114.99705078 0.354375 -113.80660156 0.33375 -112.58007812 0.3125 C-102.90082075 0.26993042 -93.93432645 1.00450226 -86.65234375 7.9609375 C-80.5812185 15.16511398 -80.73467943 25.66635004 -81.25 34.625 C-82.04873721 41.96529385 -83.06322987 49.06482132 -88.97265625 54.08984375 C-101.37342781 62.59534313 -118.15786578 60.03421342 -132.25 58.625 C-132.25 39.815 -132.25 21.005 -132.25 1.625 C-127.07232638 -0.10089121 -121.60730703 0.39795313 -116.1875 0.375 Z M-114.25 13.625 C-114.25 24.185 -114.25 34.745 -114.25 45.625 C-105.94976486 46.50545136 -105.94976486 46.50545136 -102.75 43.8125 C-99.66835102 39.31842858 -100.06665474 34.97665737 -100.0625 29.75 C-100.05025391 28.94691406 -100.03800781 28.14382812 -100.02539062 27.31640625 C-100.01475879 23.01405876 -100.09448911 19.4794726 -102.25 15.625 C-106.46914267 13.0935144 -108.97139286 13.625 -114.25 13.625 Z M-194.25 1.625 C-187.98 1.625 -181.71 1.625 -175.25 1.625 C-175.25 8.555 -175.25 15.485 -175.25 22.625 C-169.64 22.625 -164.03 22.625 -158.25 22.625 C-158.25 15.695 -158.25 8.765 -158.25 1.625 C-152.31 1.625 -146.37 1.625 -140.25 1.625 C-140.25 20.435 -140.25 39.245 -140.25 58.625 C-146.19 58.625 -152.13 58.625 -158.25 58.625 C-158.25 51.035 -158.25 43.445 -158.25 35.625 C-163.86 35.625 -169.47 35.625 -175.25 35.625 C-175.25 43.215 -175.25 50.805 -175.25 58.625 C-181.52 58.625 -187.79 58.625 -194.25 58.625 C-194.25 39.815 -194.25 21.005 -194.25 1.625 Z M-76.25 1.625 C-62.39 1.625 -48.53 1.625 -34.25 1.625 C-34.25 5.915 -34.25 10.205 -34.25 14.625 C-41.84 14.625 -49.43 14.625 -57.25 14.625 C-57.25 17.595 -57.25 20.565 -57.25 23.625 C-49.99 23.625 -42.73 23.625 -35.25 23.625 C-35.25 27.585 -35.25 31.545 -35.25 35.625 C-42.51 35.625 -49.77 35.625 -57.25 35.625 C-57.25 43.215 -57.25 50.805 -57.25 58.625 C-63.52 58.625 -69.79 58.625 -76.25 58.625 C-76.25 39.815 -76.25 21.005 -76.25 1.625 Z " fill="#FF0707" transform="translate(381.25,0.375)"/>
<path d="M0 0 C0.80179687 0.04382812 1.60359375 0.08765625 2.4296875 0.1328125 C5.72405073 0.33113537 8.60542476 0.57680825 11.75 1.625 C11.75 5.915 11.75 10.205 11.75 14.625 C9.87054688 14.59019531 9.87054688 14.59019531 7.953125 14.5546875 C6.3020893 14.53592573 4.65104715 14.51772597 3 14.5 C2.175 14.48324219 1.35 14.46648438 0.5 14.44921875 C-0.29921875 14.44277344 -1.0984375 14.43632812 -1.921875 14.4296875 C-3.02160645 14.41397705 -3.02160645 14.41397705 -4.14355469 14.39794922 C-6.60860321 14.66365334 -8.16525037 15.29086167 -10.25 16.625 C-13.30838063 23.3146008 -13.47663133 31.9727763 -11.609375 39.0546875 C-10.73500853 41.12059259 -9.85411409 43.02088591 -8.25 44.625 C-6.76361008 44.78155027 -5.27050873 44.87566943 -3.77734375 44.94140625 C-2.42866211 45.00424805 -2.42866211 45.00424805 -1.05273438 45.06835938 C-0.10720703 45.10767578 0.83832031 45.14699219 1.8125 45.1875 C2.76189453 45.23068359 3.71128906 45.27386719 4.68945312 45.31835938 C7.04278176 45.42479132 9.39637099 45.52543154 11.75 45.625 C11.75 49.915 11.75 54.205 11.75 58.625 C0.51975927 60.49670679 -14.32462009 62.31201443 -24.25 55.625 C-29.88485315 50.8293803 -31.20063577 44.79838832 -32.25 37.625 C-32.9600519 26.94093783 -33.44145571 15.25474686 -26.25 6.625 C-18.57760927 -0.45720683 -9.93750384 -0.6516396 0 0 Z M-381.25 0.625 C-327.13 0.625 -273.01 0.625 -217.25 0.625 C-217.25 55.075 -217.25 109.525 -217.25 165.625 C-271.37 165.625 -325.49 165.625 -381.25 165.625 C-381.25 111.175 -381.25 56.725 -381.25 0.625 Z M-334.25 48.625 C-334.25 71.395 -334.25 94.165 -334.25 117.625 C-311.15 117.625 -288.05 117.625 -264.25 117.625 C-264.25 94.855 -264.25 72.085 -264.25 48.625 C-287.35 48.625 -310.45 48.625 -334.25 48.625 Z M-116.1875 0.375 C-114.99705078 0.354375 -113.80660156 0.33375 -112.58007812 0.3125 C-102.90082075 0.26993042 -93.93432645 1.00450226 -86.65234375 7.9609375 C-80.5812185 15.16511398 -80.73467943 25.66635004 -81.25 34.625 C-82.04873721 41.96529385 -83.06322987 49.06482132 -88.97265625 54.08984375 C-101.37342781 62.59534313 -118.15786578 60.03421342 -132.25 58.625 C-132.25 39.815 -132.25 21.005 -132.25 1.625 C-127.07232638 -0.10089121 -121.60730703 0.39795313 -116.1875 0.375 Z M-114.25 13.625 C-114.25 24.185 -114.25 34.745 -114.25 45.625 C-105.94976486 46.50545136 -105.94976486 46.50545136 -102.75 43.8125 C-99.66835102 39.31842858 -100.06665474 34.97665737 -100.0625 29.75 C-100.05025391 28.94691406 -100.03800781 28.14382812 -100.02539062 27.31640625 C-100.01475879 23.01405876 -100.09448911 19.4794726 -102.25 15.625 C-106.46914267 13.0935144 -108.97139286 13.625 -114.25 13.625 Z M-194.25 1.625 C-187.98 1.625 -181.71 1.625 -175.25 1.625 C-175.25 8.555 -175.25 15.485 -175.25 22.625 C-169.64 22.625 -164.03 22.625 -158.25 22.625 C-158.25 15.695 -158.25 8.765 -158.25 1.625 C-152.31 1.625 -146.37 1.625 -140.25 1.625 C-140.25 20.435 -140.25 39.245 -140.25 58.625 C-146.19 58.625 -152.13 58.625 -158.25 58.625 C-158.25 51.035 -158.25 43.445 -158.25 35.625 C-163.86 35.625 -169.47 35.625 -175.25 35.625 C-175.25 43.215 -175.25 50.805 -175.25 58.625 C-181.52 58.625 -187.79 58.625 -194.25 58.625 C-194.25 39.815 -194.25 21.005 -194.25 1.625 Z M-76.25 1.625 C-62.39 1.625 -48.53 1.625 -34.25 1.625 C-34.25 5.915 -34.25 10.205 -34.25 14.625 C-41.84 14.625 -49.43 14.625 -57.25 14.625 C-57.25 17.595 -57.25 20.565 -57.25 23.625 C-49.99 23.625 -42.73 23.625 -35.25 23.625 C-35.25 27.585 -35.25 31.545 -35.25 35.625 C-42.51 35.625 -49.77 35.625 -57.25 35.625 C-57.25 43.215 -57.25 50.805 -57.25 58.625 C-63.52 58.625 -69.79 58.625 -76.25 58.625 C-76.25 39.815 -76.25 21.005 -76.25 1.625 Z " fill="#AD0000" transform="translate(381.25,0.375)"/>
<path d="M0 0 C2.22966229 2.4252467 2.96103883 3.42856947 3.1875 6.75 C3.0946875 7.86375 3.0946875 7.86375 3 9 C0 10 0 10 -3.375 9.875 C-7.35987337 10.01240943 -8.92698851 10.52451852 -12 13 C-16.14369975 18.62359251 -16 23.03541365 -16 30 C-10.72 30.33 -5.44 30.66 0 31 C0 38 0 38 -1.08203125 39.92578125 C-3.96702313 41.54161173 -6.4148901 41.28470623 -9.6875 41.1875 C-11.45673828 41.14689453 -11.45673828 41.14689453 -13.26171875 41.10546875 C-14.16535156 41.07066406 -15.06898438 41.03585938 -16 41 C-15.99000725 41.90082809 -15.99000725 41.90082809 -15.97981262 42.81985474 C-15.91333922 49.08167151 -15.86814953 55.3433877 -15.83520508 61.60546875 C-15.82013739 63.94112216 -15.79967951 66.27674737 -15.77368164 68.61230469 C-15.73721042 71.97337819 -15.7202531 75.33407692 -15.70703125 78.6953125 C-15.69154739 79.73615997 -15.67606354 80.77700745 -15.66011047 81.84939575 C-15.65884512 87.32512149 -15.85415443 91.2988574 -19 96 C-23.700425 100.57990128 -28.16573219 100.41336154 -34.390625 100.3359375 C-37 100 -37 100 -39 98 C-39.22705078 95.93701172 -39.22705078 95.93701172 -39.1953125 93.4296875 C-39.18564453 92.08583984 -39.18564453 92.08583984 -39.17578125 90.71484375 C-39.15902344 89.77769531 -39.14226562 88.84054688 -39.125 87.875 C-39.11597656 86.93011719 -39.10695313 85.98523438 -39.09765625 85.01171875 C-39.07404522 82.67422708 -39.04111516 80.33723877 -39 78 C-39.68964844 78.45890625 -40.37929688 78.9178125 -41.08984375 79.390625 C-50.24777878 85.37029177 -58.34023014 90.09604944 -69.4375 90.25 C-70.54996094 90.27578125 -71.66242188 90.3015625 -72.80859375 90.328125 C-76.35482707 89.96351839 -78.16108734 89.11279645 -81 87 C-84.18875526 82.55851945 -85.11964399 78.74716098 -85.14526367 73.35498047 C-85.15164352 72.44078339 -85.15802338 71.5265863 -85.16459656 70.58468628 C-85.16570938 69.60541168 -85.1668222 68.62613708 -85.16796875 67.6171875 C-85.17129715 66.60657257 -85.17462555 65.59595764 -85.17805481 64.55471802 C-85.18311238 62.42141169 -85.1854635 60.28809747 -85.18530273 58.15478516 C-85.18749638 54.88040307 -85.20568407 51.60635406 -85.22460938 48.33203125 C-85.22754203 46.26041782 -85.22952768 44.18880279 -85.23046875 42.1171875 C-85.23765427 41.13386444 -85.24483978 40.15054138 -85.25224304 39.13742065 C-85.24916641 38.22952789 -85.24608978 37.32163513 -85.24291992 36.38623047 C-85.24434494 35.58555145 -85.24576996 34.78487244 -85.24723816 33.95993042 C-85 32 -85 32 -83 30 C-77.11602467 29.06002884 -71.17140313 30.03225687 -66 33 C-63.91748047 34.5690918 -63.91748047 34.5690918 -62 37 C-61.61775794 39.77645202 -61.46525062 42.16892191 -61.49609375 44.94140625 C-61.48667252 45.70549301 -61.47725128 46.46957977 -61.46754456 47.25682068 C-61.43891429 49.69232136 -61.43581609 52.12684466 -61.4375 54.5625 C-61.43389438 57.00158271 -61.42439821 59.4399568 -61.39674377 61.87889099 C-61.37993137 63.39463817 -61.37709894 64.91061928 -61.38975525 66.42640686 C-61.3503932 70.42447599 -61.3503932 70.42447599 -59.69946289 73.98022461 C-57.23213892 75.46076077 -55.08541732 75.24259247 -52.3215332 74.7409668 C-47.42893032 73.17938832 -43.46232418 70.8117475 -40 67 C-38.65134941 62.49646382 -38.73228092 58.23400143 -38.875 53.5625 C-38.87242187 52.35400391 -38.86984375 51.14550781 -38.8671875 49.90039062 C-38.8671875 46.93041222 -38.9127385 43.96848343 -39 41 C-42.3 41 -45.6 41 -49 41 C-49.125 37.625 -49.125 37.625 -49 34 C-47 32 -47 32 -45.0546875 31.8046875 C-43.03645833 31.86979167 -41.01822917 31.93489583 -39 32 C-39.04640625 30.87722656 -39.0928125 29.75445312 -39.140625 28.59765625 C-39.65828241 10.97171672 -39.65828241 10.97171672 -33.31640625 4.203125 C-24.02784119 -4.18654666 -11.29883832 -5.37848787 0 0 Z " fill="#193786" transform="translate(334,77)"/>
<path d="M0 0 C4.63581554 5.01169247 5.33343593 9.11976777 5.203125 15.765625 C4.72321516 21.04463321 2.07390827 24.15806363 -1.625 27.6875 C-8.20265324 33.10298136 -14.96868939 34.60432939 -23.40625 34.35546875 C-27.48938803 33.79588206 -29.75254743 32.54148462 -33 30 C-33.6796875 27.859375 -33.6796875 27.859375 -34 26 C-33.11957031 25.76925781 -32.23914063 25.53851563 -31.33203125 25.30078125 C-22.34755924 23.10532139 -22.34755924 23.10532139 -16 17 C-15.58168596 13.28999282 -15.58168596 13.28999282 -16 10 C-19.72851342 8.75716219 -23.12746761 8.4719274 -27 9 C-31.42483445 11.25416094 -33.87082141 13.51751875 -36 18 C-37.64814576 23.55528852 -37.79284578 28.9612537 -35.6875 34.375 C-32.67577298 39.0599087 -30.51686963 40.64680556 -25 42 C-16.53094481 42.89147949 -8.26627311 40.17415841 -0.75 36.34375 C2 35 2 35 4.375 35.3125 C4.91125 35.539375 5.4475 35.76625 6 36 C4.75934493 42.35835725 1.13973546 45.47975001 -4 49 C-10.92648941 53.19526268 -18.17670586 53.36973454 -26.0625 53.4375 C-27.44526123 53.4528479 -27.44526123 53.4528479 -28.85595703 53.46850586 C-39.16063539 53.33728867 -48.05286535 50.71451785 -56 44 C-61.8884435 37.26570274 -61.5748674 29.37338595 -61.18359375 20.921875 C-60.56557353 14.4523867 -56.83430046 8.25512999 -52 4 C-38.17113282 -6.05735795 -14.47729334 -11.78384341 0 0 Z " fill="#193786" transform="translate(390,114)"/>
<path d="M0 0 C6.19910516 -0.00970126 11.77479731 0.75175335 16.93359375 4.43359375 C19.70725699 8.24775344 20.29074712 10.82924388 20.18237305 15.5090332 C20.1621257 16.70990067 20.14187836 17.91076813 20.12101746 19.14802551 C20.064981 21.07795601 20.064981 21.07795601 20.0078125 23.046875 C19.97975629 24.38491605 19.95306835 25.72298644 19.9276886 27.06108093 C19.85744961 30.57134509 19.76869954 34.08090327 19.67602539 37.59063721 C19.58463437 41.17671939 19.51084203 44.76315953 19.43554688 48.34960938 C19.28540506 55.37805236 19.11569499 62.40590027 18.93359375 69.43359375 C19.8872583 69.4178833 20.84092285 69.40217285 21.82348633 69.38598633 C25.36246288 69.33167697 28.90140261 69.29724042 32.44067383 69.26879883 C33.97231236 69.25371439 35.50390773 69.23324397 37.03540039 69.20727539 C39.23725029 69.17087528 41.43852908 69.15386462 43.640625 69.140625 C44.32510208 69.12514114 45.00957916 69.10965729 45.71479797 69.09370422 C50.42387633 69.09203811 50.42387633 69.09203811 52.62675476 70.56816101 C54.51945589 73.26987612 54.22612353 75.3651705 54.12109375 78.62109375 C54.08048828 80.25111328 54.08048828 80.25111328 54.0390625 81.9140625 C54.00425781 82.74550781 53.96945313 83.57695312 53.93359375 84.43359375 C46.31652171 84.53493411 38.69962322 84.60503436 31.08203125 84.65332031 C28.49016829 84.6734475 25.89835079 84.70075191 23.30664062 84.73535156 C19.58321926 84.78381876 15.86039776 84.80655191 12.13671875 84.82421875 C10.39591034 84.85518646 10.39591034 84.85518646 8.61993408 84.88677979 C6.99870636 84.88723297 6.99870636 84.88723297 5.34472656 84.88769531 C3.91909393 84.90101898 3.91909393 84.90101898 2.46466064 84.91461182 C-0.97082916 84.26171218 -2.07592311 83.30232835 -4.06640625 80.43359375 C-4.45118518 77.80028153 -4.59440288 75.58781676 -4.55224609 72.95874023 C-4.55604279 72.21195007 -4.55983948 71.46515991 -4.56375122 70.69573975 C-4.57115015 68.23162601 -4.54978674 65.7686961 -4.52734375 63.3046875 C-4.52495904 61.59123371 -4.52405406 59.87777727 -4.52456665 58.1643219 C-4.5214399 54.57560833 -4.50488316 50.98729463 -4.47802734 47.39868164 C-4.44402196 42.79614486 -4.43639956 38.19404688 -4.43791771 33.59139919 C-4.4373742 30.05438541 -4.42641058 26.51746775 -4.41191483 22.98048592 C-4.40554629 21.28320099 -4.4016078 19.58590516 -4.40012741 17.88860893 C-4.39579639 15.51856757 -4.37830086 13.14899379 -4.35693359 10.77905273 C-4.35783997 10.07611588 -4.35874634 9.37317902 -4.35968018 8.64894104 C-4.25730958 0.89331071 -4.25730958 0.89331071 0 0 Z " fill="#193786" transform="translate(191.06640625,82.56640625)"/>
<path d="M0 0 C2.45307403 2.60682796 3.2459263 4.76848935 3.80859375 8.26953125 C3.14311319 12.41029917 1.92771898 14.56647889 -0.75390625 17.76953125 C-5.17070764 20.52298403 -9.70462139 20.4305575 -14.75390625 19.76953125 C-18.60935423 17.77295998 -20.35195717 16.37245487 -22.75390625 12.76953125 C-23.29953876 9.70250221 -23.27728419 6.83965545 -22.75390625 3.76953125 C-17.30567965 -3.76184081 -7.74002949 -5.4300875 0 0 Z " fill="#193786" transform="translate(270.75390625,83.23046875)"/>
</svg>
