<svg version="1.2" xmlns="http://www.w3.org/2000/svg" viewBox="0 0 842 634" width="842" height="634"><style>tspan{white-space:pre}.a{fill:#e3281d}.b{fill:#fa4a40}.c{fill:#ffebd6}.d{fill:#fff}.e{fill:#2a3891}.f{fill:#fefefe}.g{fill:#ffdd50}.h{fill:#e0a327}.i{fill:#e63939}</style><path class="a" d="m699 248.3c-11.1 136.5-151.5 223.9-269.5 307.4-118-83.5-258.4-170.9-269.4-307.4-0.2-1.6-0.3-3.2-0.4-4.8-0.7 10.8-0.6 22 0.4 33.7 11 136.4 151.4 223.9 269.4 307.3 118-83.4 258.4-170.9 269.5-307.3 0.9-11.7 1-22.9 0.3-33.7-0.1 1.6-0.2 3.2-0.3 4.8z"/><path class="b" d="m429.5 555.7c118-83.5 258.4-170.9 269.5-307.4 0.1-1.6 0.2-3.2 0.3-4.8-9.8-152.6-175.2-213.7-269.8-120.5-94.6-93.2-260-32.1-269.8 120.5 0.1 1.6 0.2 3.2 0.4 4.8 11 136.5 151.4 223.9 269.4 307.4z"/><path class="c" d="m832.3 79.1l-137.9-76.3c-8.6-4.8-19.5-1.7-24.3 7l-20.2 36.4-20.1 36.4c-4.8 8.7-1.7 19.5 7 24.3l137.9 76.4c8.6 4.7 19.5 1.6 24.3-7l20.2-36.5 20.1-36.4c4.8-8.6 1.7-19.5-7-24.3z"/><path class="c" d="m839.3 103.4c4.8-8.6 1.7-19.5-7-24.3l-137.9-76.3c-8.6-4.8-19.5-1.7-24.3 7l-20.2 36.4 169.3 93.6z"/><path class="d" d="m799 176.3l27.3-49.4-169.2-93.6-27.3 49.3"/><path class="b" d="m765.4 85.4l-14.4-8 8-14.4c1.8-3.3 0.6-7.5-2.7-9.3-3.3-1.8-7.5-0.6-9.3 2.7l-8 14.3-14.3-7.9c-3.4-1.8-7.5-0.6-9.4 2.7-1.8 3.3-0.6 7.5 2.7 9.3l14.4 8-8 14.3c-1.8 3.3-0.6 7.5 2.7 9.4 3.3 1.8 7.5 0.6 9.3-2.7l8-14.4 14.4 8c3.3 1.8 7.5 0.6 9.3-2.7 1.8-3.3 0.6-7.5-2.7-9.3z"/><path class="e" d="m797.7 178.6l-169.2-93.7 9.8-17.7 169.2 93.7z"/><path class="b" d="m603.1 391.9c68.4 0.6 132-25.6 172.5-82.1 39.2-54.5 29.9-134.1-2.5-189.4-6.9-11.7-25.1-1.1-18.2 10.7 29.3 49.9 36.8 118.8 2.6 168.1-35.2 50.6-94.7 72.2-154.4 71.7-13.6-0.2-13.6 20.9 0 21z"/><path class="b" d="m224.8 317.9c-53 4.3-104.5 17.5-147.5 49.9-43.3 32.6-79.1 87-53.1 141.3 5.9 12.2 24 1.5 18.2-10.6-22.2-46.3 17.1-92.6 52.9-117.9 38-27 83.6-37.9 129.5-41.6 13.4-1.1 13.5-22.2 0-21.1z"/><path class="e" d="m287.2 550.7c2.8 7.7-1.1 16.3-8.9 19.2l-171.2 63c-7.8 2.8-16.4-1.1-19.2-8.9l-86.5-235.1c-2.9-7.8 1.1-16.4 8.8-19.2l171.3-63c7.7-2.9 16.3 1.1 19.2 8.9z"/><path class="f" d="m273.4 553.3l-173.3 63.8-85-230.9 173.4-63.7z"/><path class="g" d="m148.8 346.6l-87.9 32.3-6.4-17.5 87.9-32.4z"/><path class="b" d="m202.5 400.7l-143 52.7-17.1-46.5 143-52.6z"/><path class="f" d="m87.1 414.7l-8.2 3-3.1-8.2c-0.7-1.9-2.8-2.9-4.7-2.2-1.9 0.7-2.8 2.8-2.1 4.7l3 8.2-8.2 3.1c-1.9 0.7-2.9 2.8-2.2 4.6 0.7 1.9 2.8 2.9 4.7 2.2l8.2-3 3.1 8.2c0.7 1.9 2.8 2.8 4.7 2.1 1.9-0.7 2.8-2.8 2.1-4.7l-3-8.2 8.2-3c1.9-0.7 2.8-2.8 2.1-4.7-0.7-1.9-2.8-2.8-4.6-2.1z"/><path class="h" d="m149.8 349.2l-87.9 32.4-2-5.4 87.9-32.3z"/><path fill-rule="evenodd" class="g" d="m116.9 327.9c4.4 12-1.8 25.4-13.8 29.9-12.1 4.4-25.5-1.7-30-13.8-4.4-12.1 1.8-25.5 13.9-30 12-4.4 25.4 1.8 29.9 13.9zm-13.4 4.9c-1.7-4.7-6.9-7.1-11.6-5.4-4.7 1.7-7.1 7-5.4 11.6 1.7 4.7 6.9 7.2 11.6 5.4 4.7-1.7 7.2-6.9 5.4-11.6z"/><path class="c" d="m210.6 422.8l-143 52.6-2.1-5.9 143-52.6z"/><path class="c" d="m214.8 434.3l-143 52.6-2.1-5.9 143-52.6z"/><path class="c" d="m219.1 445.8l-143 52.6-2.2-5.9 143-52.6z"/><path class="c" d="m223.3 457.2l-143 52.6-2.2-5.8 143-52.6z"/><path class="c" d="m231.7 480.2l-143 52.6-2.1-5.9 143-52.6z"/><path class="c" d="m236 491.7l-143 52.6-2.2-5.9 143-52.6z"/><path class="c" d="m192.3 520.8l-95.1 34.9-2.2-5.8 95.1-35z"/><path class="f" d="m186.6 378.8l-81.9 30.1-2.2-5.9 81.9-30.1z"/><path class="f" d="m190.8 390.2l-81.9 30.2-2.2-5.9 81.9-30.1z"/><path class="i" d="m117.6 597.8c4.6-8.2 9.3-21.5 6.5-30.9-0.8-2.4-3.4-4.3-5.9-3.5-3.9 1.2-5.4 5.4-5.8 9.2-0.7 6.9 3.8 25.6 14.5 17.2 2.8-2.2 4.8-5 7-7.8 4.6-5.9 6.4-0.5 11.2 0.7 6 1.4 7.9-3.1 10-8.1 0.8-1.8-1.9-3.5-2.7-1.6-0.7 1.8-1.5 3.5-2.4 5.2-2.1 3.8-6.8 0-8.6-1.3-1.7-1.2-3.1-1.8-5.1-1.2-2.3 0.6-4.3 3.6-5.6 5.3-1.1 1.4-2.2 2.9-3.4 4.2-4.1 4.7-9.8 1-11.2-3.6-1.1-3.6-0.9-7.8 0-11.4 0.6-2.5 4.2-4.9 5.2-1.5 0.5 1.8 0.3 4 0.1 5.9-0.5 7.2-3 15.2-6.5 21.6-1 1.8 1.7 3.4 2.7 1.6z"/><path class="b" d="m20.3 500.3c8.2 31.1 50.5 36.9 70.2 13 8.6-10.4-6.2-25.3-14.9-14.9-9.3 11.4-30.6 12.9-35-3.7-3.4-13.1-23.7-7.6-20.3 5.6z"/><path class="d" d="m579 285.6l-112.6 0.6-0.6-112.1c0 0-15-0.2-33.3 0-18.3 0.1-32.9-0.1-32.9-0.1l0.5 112.6-112 0.6c0 0-0.2 15.1 0 33.4 0.1 18.3 0 32.9 0 32.9l112.5-0.6 0.6 112.1c0 0 15.1 0.1 33.4 0 18.3-0.2 32.9 0 32.9 0l-0.6-112.6 112.1-0.6c0 0 0.1-15 0-33.4-0.1-18.2 0-32.8 0-32.8z"/></svg>