<svg version="1.2" xmlns="http://www.w3.org/2000/svg" viewBox="0 0 903 535" width="903" height="535"><style>.a{fill:#92e3a9;stroke:#263238;stroke-linecap:round;stroke-linejoin:round;stroke-width:2}.b{fill:none;stroke:#263238;stroke-linecap:round;stroke-linejoin:round;stroke-width:2}.c{fill:#263238;stroke:#263238;stroke-linecap:round;stroke-linejoin:round;stroke-width:2}.d{fill:#c7c7c7;stroke:#263238;stroke-linecap:round;stroke-linejoin:round;stroke-width:2}.e{fill:#fff;stroke:#263238;stroke-linecap:round;stroke-linejoin:round;stroke-width:2}.f{fill:#919191;stroke:#263238;stroke-linecap:round;stroke-linejoin:round;stroke-width:2}</style><path class="a" d="m158.8 335.9c0 0-18.3-29-51.4-46.1-33.1-17.2-47.2-34.1-30-33.1 20.8 1.2 68 17.7 89.4 75.9 9.3 25.1-8 3.3-8 3.3z"/><path class="b" d="m157.7 328.3c0 0-16.6-33-47.8-49"/><path class="a" d="m178.6 356c0 0-10.4-29.2-4.1-62.3 6.3-33.1 2.1-52.5-6.7-39.8-10.8 15.5-25.4 58.3 4 106 12.7 20.6 6.8-3.9 6.8-3.9z"/><path class="b" d="m173.9 351c0 0-14.3-30.2-8.2-61.3"/><path class="a" d="m160.1 321.3c0 0-10.4-29.1-4.1-62.2 6.2-33.1 2.1-52.6-6.8-39.8-10.7 15.4-25.3 58.2 4 105.9 12.7 20.6 6.9-3.9 6.9-3.9z"/><path class="b" d="m157.7 328.3c0 0-16.6-42.2-10.5-73.3"/><path class="a" d="m575.4 299.8c0 0 18.2-29 51.3-46.2 33.1-17.2 47.2-34.1 30-33.1-20.8 1.2-68 17.8-89.4 76-9.2 25.1 8.1 3.3 8.1 3.3z"/><path class="b" d="m576.5 292.2c0 0 16.5-33.1 47.8-49"/><path class="a" d="m555.5 319.9c0 0 10.4-29.2 4.1-62.3-6.2-33.1-2.1-52.6 6.8-39.8 10.8 15.5 25.3 58.2-4 106-12.7 20.6-6.9-3.9-6.9-3.9z"/><path class="b" d="m560.3 314.8c0 0 14.2-30.2 8.1-61.3"/><path class="a" d="m574 285.2c0 0 10.5-29.2 4.2-62.3-6.3-33.1-2.1-52.6 6.7-39.8 10.8 15.5 25.4 58.3-4 106-12.7 20.6-6.9-3.9-6.9-3.9z"/><path class="b" d="m576.5 292.2c0 0 16.6-42.3 10.5-73.4"/><path class="c" d="m583.7 196.3h-190.1l-106.4-169.1h190.2z"/><path class="d" d="m367.1 362.6h-194.8v-172.1h194.8z"/><path class="e" d="m562 362.6h-194.9v-172.1l99.1-157.5 95.8 157.5z"/><path class="d" d="m409.4 279.8h-19.5v-58.5h19.5z"/><path class="c" d="m428.9 279.8h-19.5v-58.5h19.5z"/><path class="d" d="m448.3 279.8h-19.4v-58.5h19.4z"/><path class="f" d="m320.1 279.8h-16.3v-58.5h16.3z"/><path class="c" d="m336.3 279.8h-16.2v-58.5h16.2z"/><path class="f" d="m352.5 279.8h-16.2v-58.5h16.2z"/><path class="f" d="m199.9 279.8h-16.2v-58.5h16.2z"/><path class="c" d="m216.1 279.8h-16.2v-58.5h16.2z"/><path class="f" d="m232.4 279.8h-16.3v-58.5h16.3z"/><path class="d" d="m508.4 279.8h-19.5v-58.5h19.5z"/><path class="c" d="m527.9 279.8h-19.5v-58.5h19.5z"/><path class="d" d="m547.4 279.8h-19.5v-58.5h19.5z"/><path class="d" d="m463 161.2h-13v-35.7h13z"/><path class="c" d="m475.9 161.2h-12.9v-35.7h12.9z"/><path class="d" d="m488.9 161.2h-13v-35.7h13z"/><path class="a" d="m161.4 196.3h209.3l106.3-169.1h-209.2z"/><path class="d" d="m324.8 103.5h-82.6v54.7h82.6z"/><path class="e" d="m324.8 103.5l57.1-39.2-57.1 93.9z"/><path class="a" d="m235.6 105.4h86.5l59.8-41.1h-86.5z"/><path class="f" d="m275.4 150.9h-13v-35.7h13z"/><path class="c" d="m288.4 150.9h-13v-35.7h13z"/><path class="f" d="m301.4 150.9h-13v-35.7h13z"/><path class="e" d="m426.7 1.5h-7.3v53.1l7.3-11.8z"/><path class="d" d="m419.7 1.5h-21.4v53.1h21.4z"/><path class="c" d="m294.7 362.6h-50v-131.4h50z"/><path class="e" d="m292.1 296.7c0-2.4-2-4.4-4.4-4.4-2.5 0-4.5 2-4.5 4.4 0 2.5 2 4.4 4.5 4.4 2.4 0 4.4-1.9 4.4-4.4z"/><path class="e" d="m162 335.1c0 0-41.9-22.9-81-27.2-39.1-4.2-61.8 14-61.6 21.9 0.2 7.9 27.4 8.5 32.5 9.8 5.2 1.4 36.6-7.3 83 3.7 46.5 11 52.4 13.3 52.4 13.3z"/><path class="e" d="m144.5 334.6c0 0-43.8-19.2-83.1-20.1-39.3-0.9-60.3 19.2-59.4 27.1 0.9 7.8 27.9 6.1 33.2 7 5.2 0.8 35.8-10.5 83-3.5 47.2 7 53.4 8.7 53.4 8.7z"/><path class="e" d="m703.1 318.4l-60.7-16.4c0 0-42.9-34.2-94.8-30.4-51.8 3.8-98.6 24-113.8 35.4-15.2 11.4-34.1 22.8-37.9 25.3-3.8 2.5-55.6-11.4-83.5 0-27.8 11.4-49.3 34.2-49.3 34.2 0 0-117.6-35.5-146.6-40.5-29.1-5.1-63.3-2.5-87.3 15.2-24 17.7-18.9 29-6.3 31.6 12.6 2.5 15.2-10.1 84.7 8.8 69.6 19 154.3 68.3 188.4 87.3 34.1 18.9 91 45.5 129 34.1 37.9-11.4 141.6-50.6 165.6-50.6 24 0 101.2 5.1 101.2 5.1z"/><path class="c" d="m670.1 402l-52.1 50.1 73.8 5.4z"/><path class="b" d="m263.1 366.5c0 0-11.7 15.4-6.8 35.4 3.1 12.3 17.5 9.6 43.7 4.4 26.3-5.3 1.8-8.8 63-9.7 61.2-0.8 126.7-2.6 130.2-2.6"/><path class="b" d="m262.7 409.3c0 0 1.2-8 9.7-12.9 0 0 14.5-7.5 23.7-7.5 9.1 0 16.6 9.7 14 12.9"/><path class="b" d="m341.3 394.3v-10.8"/><path class="b" d="m346.7 373.3c0 0 1.6 5.9 0.5 15"/><path class="a" d="m756.3 515.8h-81.5c-5 0-9-4-9-9v-204.6c0-4.9 4-8.9 9-8.9h81.5z"/><path class="a" d="m901.4 533.2h-144.4c-3.8 0-6.8-3.1-6.8-6.8v-237.7c0-3.8 3-6.9 6.8-6.9h144.4z"/><path class="a" d="m678.3 313.6h67.3"/><path class="a" d="m744.7 340.1h-68.4"/><path class="a" d="m673.9 388.1h46.8"/><path class="a" d="m729.1 388.1h15.6"/></svg>