<svg version="1.2" xmlns="http://www.w3.org/2000/svg" viewBox="0 0 851 635" width="851" height="635"><style>.a{fill:#e7ac87}.b{fill:#614b0b}.c{fill:#f3bd44}.d{fill:#d1d2d3}.e{fill:#fefefe}.f{fill:#f6dc44}.g{mix-blend-mode:multiply;fill:#d1d2d3}.h{fill:#3b2313}.i{mix-blend-mode:multiply;fill:#bbbdbf}.j{fill:#9a9d9f}.k{fill:#92b06b}.l{fill:#54784b}.m{fill:#3e532d}.n{fill:#2f4d2c}.o{fill:#577143}.p{opacity:.4;mix-blend-mode:soft-light;fill:#fefefe}</style><path class="a" d="m504.2 14.4l-70.9-2.9c0 0-19.9 1.3-29.1 17.8l-39.1 66.4 23.2 34.5 43.5-66.3 52.8-8.4"/><path class="a" d="m504.2 14.4l54.2 3.8c0 0 38.3-0.7 50.7 0.9 0 0 48.8 4.4 87.6 33.6l82.8-4.6 8 36.9 16.7 79-106.9-4.1c0 0-46.9 41.6-73.6 46z"/><path class="a" d="m378.9 71.2l-39.5 69c0 0 10 26.6 27.3 15.7l27.5-37.7z"/><path class="a" d="m426.6 180.8l-3.6 50.1c0 0 9.3 28.3 26.6 17.3l11.5-25.8z"/><path class="a" d="m397.4 133.6l-10.4 57.7c0 0 3.6 35.7 25.4 19.5l11.9-33.7z"/><path class="a" d="m623.7 205.9c0 0-72.3 14.5-117.5-5.5 0 0-9.1-8.2-21.6-12.1 0 0-11.7 14.9-26.9 42.9l-31.1-50.4 19.4-52.9-21.7 49.2-26.9-43.5 30.8-83.9 52.9-3.5 23.1-31.8z"/><path class="a" d="m583.1 94.3c0 0 80.2 57.1 114-8.4 0 0 7.3-18.6-0.4-33.2 0 0-20.3-15-54.3-26.6 0 0-31.4-7.5-45.6-7.8 0 0-26.4 9.3-57 30.6l-63.9 24.4c0 0-24 8.9-19.2 25.1 0 0 4.4 18.5 38.4 7.9 0 0 51.3-14.4 71.6-15.1 0 0 12.5 0.8 16.4 3.1z"/><path class="b" d="m575.5 175.4c-17 46.3-69 69.8-116.2 52.6-47.2-17.3-71.7-68.9-54.7-115.2 16.9-46.3 69-69.9 116.1-52.6 47.2 17.3 71.8 68.8 54.8 115.2z"/><path class="c" d="m562.2 170.5c-17 46.3-68.3 70.1-114.6 53.2-46.3-17-70.1-68.3-53.2-114.6 17-46.4 68.3-70.2 114.6-53.2 46.4 17 70.2 68.3 53.2 114.6z"/><path class="c" d="m562.2 170.5c-17 46.3-68.3 70.1-114.6 53.2-46.3-17-70.1-68.3-53.2-114.6 17-46.4 68.3-70.2 114.6-53.2 46.4 17 70.2 68.3 53.2 114.6z"/><path class="b" d="m542.2 163.2c-13 35.2-52 53.3-87.2 40.4-35.3-12.9-53.4-51.9-40.5-87.2 12.9-35.2 51.9-53.3 87.2-40.4 35.2 12.9 53.4 51.9 40.5 87.2z"/><path class="c" d="m538 161.7c-12.5 34.1-50.2 51.6-84.4 39.1-34.1-12.5-51.6-50.3-39.1-84.4 12.5-34.1 50.3-51.6 84.4-39.1 34.1 12.5 51.6 50.2 39.1 84.4z"/><g style="mix-blend-mode:multiply"><path class="d" d="m513.2 170.6c-5.7 0.5-12.9-1.3-18.4-2.9-5.2-1.4-10.1-3.9-14.4-7.1-8.2-5.9-16.2-14.4-18.4-24.5-1.2-5.7-1.2-13 0.3-18.7 4.1-15.9 14.4-30 29.8-36.6 1.9-0.9 8-3.1 10-2.3q-1.6-0.6-3.2-1.2c-34.1-12.5-71.9 5-84.4 39.1-12.5 34.1 5 71.9 39.1 84.4 34.2 12.5 71.9-5 84.4-39.1q0.4-1.1 0.7-2.1c-6.8 6.2-15.4 10.2-25.5 11z"/></g><g style="mix-blend-mode:soft-light"><path class="e" d="m494.6 137.8c0 0 14 30.2 46.9 9.9 2.9-22.2-5.7-44.3-22.5-58.7 0 0-39.5 10.5-24.4 48.8z"/></g><path class="b" d="m504.2 134.6l-17-6.2 1-2.8q1.6-4.5 1.6-6.1-0.1-1.6-2.1-2.4-1.5-0.5-2.7 0.4-1.2 0.9-2.1 3.3-1.5 4-0.5 6.2 1 2.2 6.9 9.6 5.1 6.3 6.7 9.2 1.6 3 1.8 7.4 0.2 4.4-1.9 10.1-3.3 9-9.6 12.6-6.2 3.6-15.5 1.6l-2.3 6.4-7.8-2.9 2.4-6.6q-6.6-3.1-10-9.6-3.4-6.4 0.7-17.8l1.3-3.3 17 6.2-1.6 4.2q-2.5 6.9-2.6 8.7 0 1.9 2 2.6 1.7 0.7 3-0.2 1.2-0.9 2.1-3.1 2.1-5.8 2.2-8.5 0.1-2.8-3.5-7.4-6-7.7-8-11-2-3.4-2.5-8.3-0.5-4.9 1.4-10.1 2.8-7.7 8.7-10.4 5.9-2.8 14.9-0.6l2-5.5 7.9 2.9-2 5.4q7.5 3.9 9.8 9.6 2.4 5.7-0.4 13.3-0.4 1-1.3 3.1z"/><path class="f" d="m500.6 133.3l-17-6.2 1-2.8q1.6-4.6 1.6-6.2-0.1-1.6-2.1-2.3-1.5-0.5-2.7 0.4-1.2 0.9-2.1 3.3-1.5 4-0.5 6.2 1 2.1 6.9 9.6 5.1 6.3 6.7 9.2 1.6 2.9 1.8 7.3 0.2 4.5-1.9 10.1-3.3 9.1-9.6 12.7-6.3 3.6-15.5 1.6l-2.3 6.4-7.8-2.9 2.4-6.6q-6.6-3.2-10-9.6-3.4-6.4 0.7-17.8l1.3-3.3 17 6.2-1.6 4.2q-2.5 6.8-2.6 8.7 0 1.9 2 2.6 1.7 0.6 3-0.2 1.2-0.9 2.1-3.1 2.1-5.8 2.2-8.5 0.1-2.8-3.5-7.4-6-7.7-8-11.1-2-3.3-2.5-8.2-0.5-4.9 1.4-10.2 2.8-7.6 8.7-10.3 5.9-2.8 14.9-0.6l2-5.5 7.9 2.9-2 5.4q7.5 3.9 9.8 9.6 2.4 5.7-0.4 13.3-0.4 1-1.3 3.1z"/><path class="g" d="m569.5 93.4c0 0 80.2 57.1 114-8.4 0 0 7.4-18.6-0.3-33.1 0 0-20.4-15.1-54.3-26.7 0 0-31.4-7.5-45.7-7.8 0 0-26.3 9.3-57 30.6l-63.9 24.4c0 0-23.9 8.9-19.2 25.1 0 0 4.4 18.5 38.4 7.9 0 0 51.3-14.4 71.7-15.1 0 0 12.5 0.8 16.3 3.1z"/><path class="a" d="m583.1 94.3c0 0 80.2 57.1 114-8.4 0 0 7.3-18.6-0.4-33.2 0 0-20.3-15-54.3-26.6 0 0-31.4-7.5-45.6-7.8 0 0-26.4 9.3-57 30.6l-63.9 24.4c0 0-24 8.9-19.2 25.1 0 0 4.4 18.5 38.4 7.9 0 0 51.3-14.4 71.6-15.1 0 0 12.5 0.8 16.4 3.1z"/><path class="h" d="m850.4 0.8l-119.1 17 32 187.4 87.1-14.9z"/><path class="i" d="m850.4 159.3c-14.6 4.7-29.6 7.9-44.8 9.7-15.2 1.8-30.4 3.2-45.6 1.2q-1.4-0.2-2.8-0.3l6.1 35.3 87.1-14.9z"/><path class="e" d="m732.3 24l29.9 175-38.8 6.6-29.9-174.9z"/><path class="i" d="m715.4 26.9l29.9 174.9-21.9 3.8-29.9-174.9z"/><path class="j" d="m734.7 154.6c7.3-1.2 14.3 3.7 15.5 11.1 1.3 7.3-3.7 14.3-11 15.5-7.3 1.3-14.3-3.7-15.6-11-1.2-7.4 3.7-14.3 11.1-15.6z"/><path class="e" d="m735.1 157.1c6-1 11.6 3 12.7 9 1 6-3 11.6-9 12.7-6 1-11.7-3-12.7-9-1-6 3-11.7 9-12.7z"/><path class="j" d="m737.2 169.4c1-0.1 1.9 0.5 2.1 1.5 0.2 1-0.5 2-1.5 2.1-1 0.2-1.9-0.5-2.1-1.5-0.2-1 0.5-1.9 1.5-2.1z"/><path class="j" d="m736.2 163.6c1-0.2 1.9 0.5 2.1 1.5 0.2 1-0.5 1.9-1.5 2.1-1 0.1-1.9-0.5-2.1-1.5-0.2-1 0.5-1.9 1.5-2.1z"/><path class="a" d="m337.8 340l72.2-7.2c0 0 20.5 0.2 30.8 16.5l43.8 65.4-21.6 36.6-48.3-65.1-54.4-5.5"/><path class="a" d="m337.8 340l-55 7.1c0 0-39.2 1.6-51.8 3.9 0 0-49.4 7.4-87.4 39.5l-84.6 0.2-6.1 38.1-12.3 81.6 108.8-10.5c0 0 50.3 39.8 77.8 42.6z"/><path class="a" d="m469.1 390.5l44.4 68.1c0 0-8.6 27.8-26.9 17.6l-30.4-36.8z"/><path class="a" d="m426.9 505.3l6.6 50.8c0 0-7.8 29.5-26 19.3l-13.3-25.7z"/><path class="a" d="m453.9 455.3l14.1 58.3c0 0-1.6 36.6-24.9 21.4l-14.1-33.7z"/><path class="a" d="m227.2 542.5c0 0 69.5 23.2 114.5 0 0 0 14-21.4 26.4-26.1 0 0 12.9 14.5 30.1 42.1l28.7-53.2-22.9-52.9 25 48.9 24.9-46-36.3-83.8-54.3-0.4-25.5-31.1z"/><path class="a" d="m262.1 426.2c0 0-78.5 63.1-116.8-1.8 0 0-8.6-18.5-1.7-33.9 0 0 19.9-16.5 53.9-30.3 0 0 31.6-9.6 46.1-10.7 0 0 27.5 7.9 60 27.8l66.7 21.2c0 0 24.9 7.6 21.1 24.4 0 0-3.5 19.2-38.8 10.4 0 0-53.2-11.7-74-11.2 0 0-12.7 1.6-16.5 4.1z"/><path class="k" d="m549.7 385.9l-202.6 249-135.4-110.2 202.6-249z"/><path class="l" d="m431.1 315.5q-3.2 3.9-7.9 5.7-2.3 0.5-4.6 1.1c-4.9 0.5-9.9-1-13.7-4.1q-0.2-0.2-0.3-0.3l-153.8 189c7.5 6.5 8.6 18.1 2.3 25.9q-0.1 0.1-0.2 0.2l77.4 62.9 0.3-0.5c3.2-3.8 7.7-6.3 12.6-6.8 4.9-0.5 9.8 1 13.6 4.1l153.8-189q-0.3-0.2-0.5-0.4l-0.3-0.2c-3.8-3.1-6.2-7.6-6.7-12.5-0.5-4.9 0.9-9.9 4-13.7q0.1-0.1 0.2-0.2l-75.8-61.7q-0.2 0.3-0.4 0.5z"/><path class="m" d="m427.3 398c29.2 23.7 33.6 66.6 9.9 95.8-23.8 29.2-66.7 33.6-95.9 9.9-29.1-23.8-33.6-66.7-9.8-95.9 23.7-29.2 66.6-33.6 95.8-9.8z"/><path class="k" d="m423.7 402.5c29.1 23.7 33.6 66.6 9.8 95.8-23.7 29.2-66.6 33.6-95.8 9.8-29.2-23.7-33.6-66.6-9.9-95.8 23.8-29.2 66.7-33.6 95.9-9.8z"/><path class="n" d="m383.7 425.9l-11.9 14.6-2.4-2q-3.8-3.1-5.4-3.6-1.6-0.4-3 1.2-1.1 1.4-0.6 2.9 0.5 1.5 2.5 3.2 3.5 2.8 6 2.5 2.4-0.2 11.7-3.5 7.9-2.9 11.3-3.4 3.5-0.6 7.9 0.7 4.4 1.2 9.2 5.2 7.8 6.4 9.2 13.7 1.4 7.4-3.6 15.8l5.4 4.4-5.4 6.7-5.7-4.6q-5.3 5.4-12.8 6.6-7.5 1.2-17.2-6.8l-2.9-2.3 11.9-14.6 3.6 2.9q5.9 4.8 7.6 5.5 1.8 0.7 3.2-1 1.3-1.5 0.8-3-0.4-1.5-2.3-3.1-4.9-4-7.6-5-2.7-1.1-8.4 0.9-9.6 3.3-13.6 4.1-3.9 0.8-8.9-0.4-5-1.1-9.5-4.8-6.5-5.3-7.2-12.1-0.8-6.7 4.4-14.8l-4.7-3.8 5.5-6.7 4.7 3.8q6.3-6.1 12.7-6.4 6.4-0.4 12.9 4.8 0.9 0.8 2.6 2.4z"/><path class="o" d="m381.2 429l-11.9 14.6-2.4-2q-3.9-3.1-5.5-3.6-1.6-0.4-2.9 1.2-1.1 1.4-0.6 2.9 0.5 1.5 2.5 3.2 3.5 2.7 5.9 2.5 2.5-0.2 11.8-3.5 7.9-2.9 11.3-3.4 3.5-0.6 7.9 0.7 4.4 1.2 9.2 5.2 7.8 6.3 9.2 13.7 1.4 7.4-3.7 15.7l5.5 4.5-5.4 6.7-5.7-4.6q-5.3 5.4-12.8 6.6-7.5 1.2-17.2-6.8l-2.9-2.3 11.9-14.6 3.5 2.9q5.9 4.8 7.7 5.5 1.8 0.7 3.2-1 1.2-1.5 0.8-3-0.4-1.5-2.3-3.1-4.9-4-7.6-5.1-2.7-1-8.4 1-9.7 3.3-13.6 4.1-3.9 0.8-8.9-0.4-5-1.1-9.5-4.8-6.6-5.3-7.3-12.1-0.7-6.7 4.5-14.8l-4.7-3.8 5.5-6.7 4.7 3.8q6.3-6.1 12.7-6.4 6.4-0.4 12.9 4.8 0.9 0.8 2.6 2.4z"/><path class="p" d="m329.3 431.3c1.7 0.1 3.4 0.2 5.1 0.2 3.4-0.1 6.8-0.3 10.1-0.8 0.6-0.1 0.9-0.1 1.2-0.1q0.3-0.1 0.8-0.3c1.7-0.4 3.3-0.8 4.9-1.3 3.8-1.3 7.7-2.8 11.4-4.4 12.6-5.8 26.9-16.3 36.1-26.3 11.9-13 19.8-25.1 26.3-41.1 2.9-7.3 5.7-15.3 6.9-21 1.3-6.6 2.5-15.9 2.2-20.4-1.2-16.2-8.3-28.4-20-40.1l-118.3 145.4c9.1 4.8 19.1 8.1 29.4 9.6 0.7 0.1 7.5 0.8 3.9 0.6z"/><path class="i" d="m478 349.5c-13.8 68.6-68 131.7-135.3 152.7-32.3 10-64.8 12.5-97.5 3q-7-2-13.9-4.6l-19.6 24.1 135.4 110.2 202.6-249-69.3-56.4c-0.3 6.7-1.1 13.3-2.4 20z"/><path class="i" d="m328.7 411.3q-0.4 0.5-0.9 1c-23.7 29.2-19.3 72.1 9.9 95.8 29.2 23.8 72.1 19.4 95.8-9.8q0.4-0.5 0.8-1.1z"/><path class="g" d="m275.9 424.5c0 0-78.5 63.1-116.8-1.9 0 0-8.6-18.5-1.7-33.8 0 0 19.9-16.6 53.9-30.4 0 0 31.6-9.5 46.1-10.6 0 0 27.5 7.9 60 27.8l66.7 21.1c0 0 24.9 7.7 21 24.5 0 0-3.4 19.2-38.7 10.4 0 0-53.2-11.8-74-11.3 0 0-12.7 1.7-16.5 4.2z"/><path class="a" d="m262.1 426.2c0 0-78.5 63.1-116.8-1.8 0 0-8.6-18.5-1.7-33.9 0 0 19.9-16.5 53.9-30.3 0 0 31.6-9.6 46.1-10.7 0 0 27.5 7.9 60 27.8l66.7 21.2c0 0 24.9 7.6 21.1 24.4 0 0-3.5 19.2-38.8 10.4 0 0-53.2-11.7-74-11.2 0 0-12.7 1.6-16.5 4.1z"/><path class="h" d="m0 542.4h96.4v-186.6h-96.4z"/><path class="i" d="m0 386.5c16.3-2.7 32.9-3.5 49.4-2.6 15 0.7 29.9 1.9 44.4 6.3q1.3 0.4 2.6 0.8v-35.2h-96.4z"/><path class="e" d="m96.4 536.2v-174.2h38.6v174.2z"/><path class="i" d="m113.2 536.2v-174.2h21.8v174.2z"/><path class="j" d="m115.7 409.5c-7.3 0-13.2-6-13.2-13.3 0-7.3 5.9-13.2 13.2-13.2 7.3 0 13.2 5.9 13.2 13.2 0 7.3-5.9 13.3-13.2 13.3z"/><path class="e" d="m115.7 407c-6 0-10.8-4.8-10.8-10.8 0-5.9 4.8-10.8 10.8-10.8 6 0 10.8 4.9 10.8 10.8 0 6-4.8 10.8-10.8 10.8z"/><path class="j" d="m115.7 394.7c-1 0-1.8-0.8-1.8-1.8 0-1 0.8-1.8 1.8-1.8 1 0 1.8 0.8 1.8 1.8 0 1-0.8 1.8-1.8 1.8z"/><path class="j" d="m115.7 400.5c-1 0-1.8-0.8-1.8-1.7 0-1 0.8-1.8 1.8-1.8 1 0 1.8 0.8 1.8 1.8 0 0.9-0.8 1.7-1.8 1.7z"/></svg>