<?xml version="1.0" encoding="UTF-8"?>
<svg version="1.1" xmlns="http://www.w3.org/2000/svg" width="754" height="601">
<path d="M0 0 C1.74022244 -0.00302806 3.48044355 -0.00692079 5.22066236 -0.01159257 C9.95738799 -0.02179706 14.69403729 -0.0197102 19.43076897 -0.01541197 C24.55703403 -0.0129309 29.68328136 -0.02197597 34.80953979 -0.02944946 C44.83516234 -0.04216043 54.86075807 -0.04399465 64.88638732 -0.0416492 C73.04087144 -0.0398618 81.19534747 -0.04162472 89.34983063 -0.04587364 C91.09472085 -0.04676643 91.09472085 -0.04676643 92.87486137 -0.04767724 C95.23849621 -0.04888907 97.60213104 -0.05010321 99.96576586 -0.05131962 C122.10286683 -0.06218134 144.23995254 -0.06003919 166.37705436 -0.05393478 C186.59630639 -0.04876717 206.81551021 -0.0600194 227.0347527 -0.07903299 C247.83210858 -0.0984392 268.6294417 -0.1066625 289.42680669 -0.10290974 C301.08839457 -0.10100188 312.74994145 -0.10344469 324.41152191 -0.11762428 C334.33956764 -0.12957459 344.26754711 -0.13090221 354.1955938 -0.11883412 C359.25329127 -0.11297091 364.31086777 -0.1117746 369.36855698 -0.12383652 C374.01236996 -0.13478198 378.65596223 -0.13149049 383.29976526 -0.11757483 C384.96584978 -0.11495151 386.63195209 -0.11721854 388.29801902 -0.1253107 C433.14753945 -0.32775801 477.50812682 16.38801132 510.1897583 47.26069641 C511.4985185 48.36929328 512.81092189 49.47360616 514.1272583 50.57319641 C545.00241485 77.74333418 564.83348255 119.63983937 569.1897583 160.26069641 C569.29932861 161.16561829 569.40889893 162.07054016 569.52178955 163.00288391 C574.3508731 209.49086157 560.93935398 256.48995176 532.45147705 293.47944641 C529.5015802 297.10695342 526.41577046 300.58382165 523.2444458 304.01850891 C521.47286073 305.95175954 519.79193489 307.92358975 518.1272583 309.94819641 C514.82040667 313.8106708 511.11227348 317.03593634 507.1897583 320.26069641 C505.6738208 321.51559875 505.6738208 321.51559875 504.1272583 322.79585266 C482.51533491 340.39359511 457.69920461 352.93604424 430.6272583 359.57319641 C429.64765137 359.81570129 428.66804443 360.05820618 427.65875244 360.30805969 C413.03344998 363.70705829 398.45982167 364.55948548 383.50723267 364.52139282 C381.79303403 364.52442184 380.07883674 364.52831503 378.36464179 364.53298539 C373.70437637 364.54317781 369.04418863 364.54110616 364.38391709 364.5368048 C359.33804914 364.53432145 354.29219912 364.54337163 349.24633789 364.55084229 C339.37960027 364.56354753 329.51288993 364.56538815 319.64614551 364.56304202 C311.61899938 364.56125378 303.59186148 364.56301932 295.56471634 364.56726646 C293.84630686 364.56815925 293.84630686 364.56815925 292.09318203 364.56907007 C289.76530793 364.57028191 287.43743383 364.57149605 285.10955973 364.57271244 C263.3109574 364.5835722 241.51237056 364.58143309 219.71376736 364.5753276 C199.81346509 364.57016154 179.91321182 364.58140848 160.01291923 364.60042582 C139.53531064 364.61984344 119.05772518 364.62805324 98.58010733 364.62430257 C87.10120317 364.62239625 75.62234067 364.62482215 64.14344406 364.63901711 C54.36958477 364.65098212 44.59579279 364.65227885 34.82193248 364.64022694 C29.84486633 364.6343736 24.867923 364.6331394 19.89086533 364.64522934 C-39.51666853 364.77949043 -89.21415559 351.51707172 -132.9977417 309.38569641 C-138.80851255 303.44112491 -143.83431378 296.90463406 -148.8102417 290.26069641 C-149.44832764 289.41764954 -150.08641357 288.57460266 -150.74383545 287.70600891 C-164.9405366 268.23062673 -174.74183676 245.5062259 -180.0602417 222.07319641 C-180.21130371 221.41021545 -180.36236572 220.7472345 -180.51800537 220.06416321 C-183.16351876 207.63338369 -184.17625144 195.32525947 -184.1227417 182.63569641 C-184.12091888 181.9430368 -184.11909607 181.2503772 -184.11721802 180.53672791 C-183.93365445 138.83670605 -169.57174335 96.80562395 -141.8102417 65.26069641 C-141.09223389 64.43311829 -140.37422607 63.60554016 -139.63446045 62.75288391 C-137.39742384 60.21784065 -135.11709319 57.73232301 -132.8102417 55.26069641 C-132.01360107 54.3983136 -131.21696045 53.53593079 -130.3961792 52.64741516 C-118.61083654 40.34579616 -104.73472328 30.40592195 -89.8102417 22.26069641 C-89.18327393 21.91700012 -88.55630615 21.57330383 -87.91033936 21.2191925 C-74.01231477 13.70417337 -59.47184864 8.18709952 -44.1227417 4.44819641 C-43.32908203 4.25330627 -42.53542236 4.05841614 -41.7177124 3.85762024 C-27.87385615 0.68760209 -14.13169595 -0.03535483 0 0 Z " fill="#FDFDFD" transform="translate(183.81024169921875,-0.2606964111328125)"/>
<path d="M0 0 C1.74022244 -0.00302806 3.48044355 -0.00692079 5.22066236 -0.01159257 C9.95738799 -0.02179706 14.69403729 -0.0197102 19.43076897 -0.01541197 C24.55703403 -0.0129309 29.68328136 -0.02197597 34.80953979 -0.02944946 C44.83516234 -0.04216043 54.86075807 -0.04399465 64.88638732 -0.0416492 C73.04087144 -0.0398618 81.19534747 -0.04162472 89.34983063 -0.04587364 C91.09472085 -0.04676643 91.09472085 -0.04676643 92.87486137 -0.04767724 C95.23849621 -0.04888907 97.60213104 -0.05010321 99.96576586 -0.05131962 C122.10286683 -0.06218134 144.23995254 -0.06003919 166.37705436 -0.05393478 C186.59630639 -0.04876717 206.81551021 -0.0600194 227.0347527 -0.07903299 C247.83210858 -0.0984392 268.6294417 -0.1066625 289.42680669 -0.10290974 C301.08839457 -0.10100188 312.74994145 -0.10344469 324.41152191 -0.11762428 C334.33956764 -0.12957459 344.26754711 -0.13090221 354.1955938 -0.11883412 C359.25329127 -0.11297091 364.31086777 -0.1117746 369.36855698 -0.12383652 C374.01236996 -0.13478198 378.65596223 -0.13149049 383.29976526 -0.11757483 C384.96584978 -0.11495151 386.63195209 -0.11721854 388.29801902 -0.1253107 C433.14753945 -0.32775801 477.50812682 16.38801132 510.1897583 47.26069641 C511.4985185 48.36929328 512.81092189 49.47360616 514.1272583 50.57319641 C545.00241485 77.74333418 564.83348255 119.63983937 569.1897583 160.26069641 C569.29932861 161.16561829 569.40889893 162.07054016 569.52178955 163.00288391 C574.3508731 209.49086157 560.93935398 256.48995176 532.45147705 293.47944641 C529.5015802 297.10695342 526.41577046 300.58382165 523.2444458 304.01850891 C521.47286073 305.95175954 519.79193489 307.92358975 518.1272583 309.94819641 C514.82040667 313.8106708 511.11227348 317.03593634 507.1897583 320.26069641 C505.6738208 321.51559875 505.6738208 321.51559875 504.1272583 322.79585266 C482.51533491 340.39359511 457.69920461 352.93604424 430.6272583 359.57319641 C429.64765137 359.81570129 428.66804443 360.05820618 427.65875244 360.30805969 C413.03344998 363.70705829 398.45982167 364.55948548 383.50723267 364.52139282 C381.79303403 364.52442184 380.07883674 364.52831503 378.36464179 364.53298539 C373.70437637 364.54317781 369.04418863 364.54110616 364.38391709 364.5368048 C359.33804914 364.53432145 354.29219912 364.54337163 349.24633789 364.55084229 C339.37960027 364.56354753 329.51288993 364.56538815 319.64614551 364.56304202 C311.61899938 364.56125378 303.59186148 364.56301932 295.56471634 364.56726646 C293.84630686 364.56815925 293.84630686 364.56815925 292.09318203 364.56907007 C289.76530793 364.57028191 287.43743383 364.57149605 285.10955973 364.57271244 C263.3109574 364.5835722 241.51237056 364.58143309 219.71376736 364.5753276 C199.81346509 364.57016154 179.91321182 364.58140848 160.01291923 364.60042582 C139.53531064 364.61984344 119.05772518 364.62805324 98.58010733 364.62430257 C87.10120317 364.62239625 75.62234067 364.62482215 64.14344406 364.63901711 C54.36958477 364.65098212 44.59579279 364.65227885 34.82193248 364.64022694 C29.84486633 364.6343736 24.867923 364.6331394 19.89086533 364.64522934 C-39.51666853 364.77949043 -89.21415559 351.51707172 -132.9977417 309.38569641 C-138.80851255 303.44112491 -143.83431378 296.90463406 -148.8102417 290.26069641 C-149.44832764 289.41764954 -150.08641357 288.57460266 -150.74383545 287.70600891 C-164.9405366 268.23062673 -174.74183676 245.5062259 -180.0602417 222.07319641 C-180.21130371 221.41021545 -180.36236572 220.7472345 -180.51800537 220.06416321 C-183.16351876 207.63338369 -184.17625144 195.32525947 -184.1227417 182.63569641 C-184.12091888 181.9430368 -184.11909607 181.2503772 -184.11721802 180.53672791 C-183.93365445 138.83670605 -169.57174335 96.80562395 -141.8102417 65.26069641 C-141.09223389 64.43311829 -140.37422607 63.60554016 -139.63446045 62.75288391 C-137.39742384 60.21784065 -135.11709319 57.73232301 -132.8102417 55.26069641 C-132.01360107 54.3983136 -131.21696045 53.53593079 -130.3961792 52.64741516 C-118.61083654 40.34579616 -104.73472328 30.40592195 -89.8102417 22.26069641 C-89.18327393 21.91700012 -88.55630615 21.57330383 -87.91033936 21.2191925 C-74.01231477 13.70417337 -59.47184864 8.18709952 -44.1227417 4.44819641 C-43.32908203 4.25330627 -42.53542236 4.05841614 -41.7177124 3.85762024 C-27.87385615 0.68760209 -14.13169595 -0.03535483 0 0 Z M-96.8102417 44.26069641 C-98.38998779 45.40151672 -98.38998779 45.40151672 -100.00164795 46.56538391 C-115.55579371 58.05744784 -129.17835414 72.11512669 -139.8102417 88.26069641 C-140.5114917 89.30096985 -141.2127417 90.34124329 -141.9352417 91.41304016 C-159.47775957 118.58338523 -168.03463093 149.37482156 -168.0602417 181.57319641 C-168.06091644 182.33358215 -168.06159119 183.0939679 -168.06228638 183.87739563 C-168.0457903 195.58190348 -167.53441631 206.8304244 -164.8102417 218.26069641 C-164.64395264 218.9849884 -164.47766357 219.7092804 -164.30633545 220.45552063 C-158.44876249 245.32308733 -147.7151692 267.38337634 -131.8102417 287.26069641 C-131.34182861 287.85157043 -130.87341553 288.44244446 -130.39080811 289.05122375 C-113.6239308 310.06197473 -91.60200318 326.86052436 -66.8102417 337.26069641 C-66.02230225 337.59488586 -65.23436279 337.92907532 -64.42254639 338.27339172 C-42.87422665 347.29419972 -22.15677369 350.41194235 1.06846619 350.40786743 C2.7807474 350.41117147 4.49302784 350.41489817 6.2053073 350.41900891 C10.89276716 350.42897567 15.58021421 350.43273707 20.26768315 350.43539822 C25.3307131 350.43931717 30.39373306 350.44889434 35.45675659 350.45761108 C47.67527458 350.47733077 59.89379334 350.48743602 72.11232325 350.49633887 C77.8758299 350.50072917 83.63933564 350.50609405 89.40284157 350.51132774 C108.57840503 350.52833557 127.75396793 350.5428278 146.92953777 350.55007648 C151.90047392 350.55198616 156.87141006 350.55390653 161.84234619 350.55586243 C163.0777444 350.55634617 164.3131426 350.55682991 165.58597711 350.55732831 C185.58049819 350.56562147 205.5749593 350.59094835 225.56945422 350.6234431 C246.12819866 350.65658067 266.68691269 350.67453129 287.24568397 350.67772073 C298.77613377 350.67987963 310.30649613 350.6885372 321.83691978 350.7141819 C331.66036279 350.73598058 341.48369709 350.74389449 351.30716153 350.73421512 C356.31054877 350.72969685 361.31371215 350.731411 366.3170681 350.75097656 C401.77920076 350.94395122 401.77920076 350.94395122 436.0647583 342.51069641 C437.00835205 342.16635559 437.9519458 341.82201477 438.9241333 341.46723938 C462.15378955 332.81513672 481.094156 320.19839559 499.1897583 303.26069641 C500.6128833 301.93618469 500.6128833 301.93618469 502.0647583 300.58491516 C531.0754571 272.97243693 549.32657073 231.32572843 550.50616455 191.35054016 C551.58591066 144.49875987 537.46241232 101.89252229 505.1897583 67.26069641 C504.66768799 66.70011536 504.14561768 66.1395343 503.60772705 65.56196594 C476.29653725 36.58120524 437.15596796 16.92604468 397.1897583 14.26069641 C391.58870124 14.11294939 385.98968216 14.11253751 380.38697815 14.11352539 C378.68294653 14.11022131 376.97891569 14.1064946 375.27488583 14.10238391 C370.61022912 14.09241761 365.94558527 14.08865582 361.28091943 14.0859946 C356.24242956 14.08207551 351.20394973 14.07249835 346.16546631 14.06378174 C334.00627404 14.04406243 321.84708099 14.03395685 309.68787673 14.02505395 C303.95226363 14.02066359 298.21665143 14.01529872 292.48103905 14.01006508 C273.39812188 13.99305729 254.31520527 13.97856508 235.23228168 13.97131634 C230.28540865 13.96940666 225.33853562 13.96748629 220.3916626 13.9655304 C219.16224562 13.96504666 217.93282865 13.96456292 216.66615661 13.96406452 C196.7686333 13.95577143 176.87117023 13.93044466 156.9736732 13.89794972 C136.51436985 13.8648115 116.05509704 13.84686147 95.59576672 13.8436721 C84.12120809 13.84151325 72.64673733 13.83285657 61.17220497 13.80721092 C51.39633897 13.78541134 41.6205822 13.77749876 31.84469465 13.7871777 C26.8656102 13.79169572 21.88675068 13.78998335 16.90769768 13.77041626 C-23.88374691 13.61922027 -63.12797562 18.84194181 -96.8102417 44.26069641 Z " fill="#881578" transform="translate(183.81024169921875,-0.2606964111328125)"/>
<path d="M0 0 C15.41069051 13.63537896 26.0662163 30.21537249 31.44140625 50.16015625 C31.77785156 51.35318359 31.77785156 51.35318359 32.12109375 52.5703125 C37.69037564 76.64029108 31.88708902 102.90524885 19.17675781 123.71337891 C4.63630638 146.24092301 -17.42513304 159.41868218 -43.0078125 165.71484375 C-45.59477038 166.16647193 -47.93840519 166.31617448 -50.55859375 166.16015625 C-52.37793305 164.34081695 -51.71479451 161.49883005 -51.7355957 159.05151367 C-51.75484856 157.08893867 -51.75484856 157.08893867 -51.77449036 155.0867157 C-51.78265761 153.64635596 -51.79010137 152.20599197 -51.796875 150.765625 C-51.80095053 150.04338556 -51.80502605 149.32114613 -51.80922508 148.57702065 C-51.83010511 144.75341704 -51.84439765 140.92984951 -51.85375977 137.10620117 C-51.86482063 133.15483442 -51.89921041 129.2040314 -51.93893147 125.25286388 C-51.96507176 122.21681162 -51.97344931 119.18089406 -51.97704124 116.14473915 C-51.981915 114.68826813 -51.99355157 113.23180345 -52.01207924 111.77544212 C-52.03640795 109.73609326 -52.03309206 107.69647137 -52.02856445 105.65698242 C-52.03443069 104.49639816 -52.04029694 103.3358139 -52.04634094 102.14006042 C-51.45185377 98.50802555 -50.40989611 97.40839227 -47.55859375 95.16015625 C-46.60984375 94.62390625 -45.66109375 94.08765625 -44.68359375 93.53515625 C-39.1124263 89.30106899 -35.5546255 83.09917744 -34.55859375 76.16015625 C-33.61141239 67.65105157 -36.08301634 61.09273509 -41.24609375 54.34765625 C-45.98013094 49.20818515 -52.62749208 46.665974 -59.53125 46.1328125 C-67.3808944 46.23868439 -73.67305529 48.99459628 -79.55859375 54.16015625 C-84.79102398 60.32194757 -86.92346741 67.15072187 -86.43359375 75.16015625 C-85.30478314 83.44232851 -82.01903867 88.32089198 -75.55859375 93.51953125 C-74.89859375 94.0609375 -74.23859375 94.60234375 -73.55859375 95.16015625 C-72.86670959 95.71777649 -72.17482544 96.27539673 -71.4619751 96.84991455 C-68.91299339 99.94375796 -69.0745879 101.78737865 -69.10449219 105.76464844 C-69.10390808 106.41872177 -69.10332397 107.0727951 -69.10272217 107.74668884 C-69.10550076 109.90068319 -69.13657827 112.05327981 -69.16796875 114.20703125 C-69.17543203 115.70346318 -69.18112456 117.19990489 -69.18511963 118.6963501 C-69.20036936 122.62899915 -69.23964463 126.56105432 -69.28393555 130.49346924 C-69.32490301 134.50858527 -69.34313374 138.52379756 -69.36328125 142.5390625 C-69.40614027 150.41303251 -69.47438272 158.28652044 -69.55859375 166.16015625 C-71.29887212 166.0215731 -73.03869897 165.87731331 -74.77832031 165.73071289 C-75.74723206 165.65099747 -76.7161438 165.57128204 -77.7144165 165.489151 C-81.77324911 165.01965332 -85.46285229 163.93998814 -89.30859375 162.59765625 C-90.07300781 162.3351709 -90.83742187 162.07268555 -91.625 161.80224609 C-103.49694266 157.561915 -114.17862001 151.65879017 -123.55859375 143.16015625 C-124.38875 142.4228125 -125.21890625 141.68546875 -126.07421875 140.92578125 C-139.70606596 128.13024369 -147.84216603 111.07351152 -152.55859375 93.16015625 C-152.78546875 92.32742187 -153.01234375 91.4946875 -153.24609375 90.63671875 C-158.78625347 66.24462664 -152.37265308 41.10672923 -139.55859375 20.16015625 C-124.2465062 -1.91395722 -101.65280961 -16.32372787 -75.30859375 -21.08984375 C-47.96297675 -24.74250739 -21.34437916 -17.78127252 0 0 Z " fill="#02AEE9" transform="translate(238.55859375,109.83984375)"/>
<path d="M0 0 C0.66040787 -0.00335861 1.32081573 -0.00671722 2.00123596 -0.01017761 C4.20111951 -0.01973 6.40092702 -0.02163417 8.60083008 -0.02270508 C10.13527965 -0.02591941 11.66972892 -0.02928361 13.20417786 -0.03279114 C16.43495389 -0.03879635 19.66570315 -0.04063009 22.89648438 -0.04003906 C26.99914048 -0.03993843 31.10161961 -0.05348042 35.20423412 -0.07081127 C38.38308974 -0.08204896 41.56190454 -0.08395455 44.74077797 -0.08342934 C46.25035514 -0.08459606 47.75993383 -0.08894273 49.2694912 -0.0967617 C68.24276266 -0.18567881 87.59499089 1.42519772 102.68286133 14.14526367 C103.32739258 14.67893555 103.97192383 15.21260742 104.63598633 15.76245117 C113.31217483 23.64646594 117.43355569 34.22473448 118.01879883 45.75854492 C118.2973922 60.25301215 115.81233678 70.55866721 106.68286133 82.14526367 C105.87848633 83.17651367 105.07411133 84.20776367 104.24536133 85.27026367 C103.72973633 85.88901367 103.21411133 86.50776367 102.68286133 87.14526367 C103.17915039 87.48557617 103.67543945 87.82588867 104.18676758 88.17651367 C114.85041861 95.78473528 121.74362233 105.24886701 124.68286133 118.14526367 C126.19360573 135.38444313 124.60391823 150.17147039 113.68286133 164.14526367 C110.87708689 167.10242881 107.91784085 169.66945623 104.68286133 172.14526367 C104.08086914 172.61577148 103.47887695 173.0862793 102.85864258 173.57104492 C96.59604946 177.95893555 89.00040374 180.15793952 81.68286133 182.14526367 C80.72555115 182.41224312 80.72555115 182.41224312 79.74890137 182.68461609 C71.07762157 184.75131981 62.27621111 184.39618833 53.42504883 184.34057617 C51.66814333 184.33683961 49.91123573 184.33399568 48.15432739 184.33200073 C43.56109728 184.32441489 38.96799642 184.30481057 34.37481689 184.28259277 C29.67543282 184.26202476 24.97602758 184.25297573 20.27661133 184.24291992 C11.0786383 184.22155927 1.88076062 184.1874853 -7.31713867 184.14526367 C-7.34046495 160.30229974 -7.35811651 136.45933751 -7.36895084 112.61636448 C-7.37411438 101.54648521 -7.38115817 90.47661301 -7.39257812 79.40673828 C-7.40252321 69.76195313 -7.40899168 60.1171731 -7.41122717 50.47238296 C-7.41253457 45.36219806 -7.41562231 40.25202783 -7.42286873 35.14184761 C-7.42962618 30.33783808 -7.4317562 25.53384934 -7.43024635 20.72983551 C-7.43052281 18.96127904 -7.43252956 17.19272192 -7.43634415 15.42416954 C-7.4412771 13.02038894 -7.44013845 10.6166881 -7.43739319 8.21290588 C-7.44030603 7.50377519 -7.44321887 6.79464449 -7.44621998 6.06402498 C-7.4259052 -0.46034547 -6.31384283 0.02007105 0 0 Z " fill="#2D1A6D" transform="translate(452.317138671875,89.854736328125)"/>
<path d="M0 0 C4.54355791 3.71045561 4.54355791 3.71045561 6.03515625 5.8828125 C5.60425561 9.75885258 4.25366574 12.76149753 2.453125 16.19140625 C1.93298828 17.18591797 1.41285156 18.18042969 0.87695312 19.20507812 C0.33103516 20.23310547 -0.21488281 21.26113281 -0.77734375 22.3203125 C-1.31166016 23.34447266 -1.84597656 24.36863281 -2.39648438 25.42382812 C-5.02871008 30.42602826 -7.6960543 35.26851649 -10.96484375 39.8828125 C-11.95484375 39.0578125 -12.94484375 38.2328125 -13.96484375 37.3828125 C-18.08429824 34.28769463 -22.43801252 31.93805261 -27.02734375 29.6328125 C-27.69958984 29.29185547 -28.37183594 28.95089844 -29.06445312 28.59960938 C-39.10134864 23.66455713 -50.7064609 21.70645805 -61.70703125 24.60546875 C-66.51687456 26.84703723 -69.62042894 30.19398289 -71.96484375 34.8828125 C-72.5148867 40.60325913 -71.60848404 43.45135809 -67.96484375 47.8828125 C-58.43386516 56.14360024 -45.49708168 60.37074502 -34.03125 65.29492188 C-15.39121762 73.44059467 -1.73132826 82.3755533 7.125 101.19921875 C11.65917833 113.21374659 10.09015545 127.78428106 5.57421875 139.515625 C-1.36658604 154.70083751 -11.76045128 163.45891304 -26.96484375 169.8828125 C-47.0359504 177.31048734 -70.45787393 174.80293558 -89.96484375 166.8828125 C-100.65918358 161.96173581 -109.91040657 155.47421216 -117.96484375 146.8828125 C-116.32566012 141.83611382 -113.34373908 137.89195507 -110.27734375 133.6328125 C-109.74077148 132.88008057 -109.20419922 132.12734863 -108.65136719 131.35180664 C-104.88519709 126.09358392 -101.03394997 120.91188392 -96.96484375 115.8828125 C-93.373366 117.47151325 -90.58839722 119.69061516 -87.52734375 122.1328125 C-75.03819463 131.75820769 -61.69132249 136.15363907 -45.96484375 134.8828125 C-41.69936581 134.01891823 -38.7184224 132.63639115 -35.58984375 129.5078125 C-32.75187181 124.92339629 -31.29631541 121.34246058 -31.96484375 115.8828125 C-38.18647052 103.43955896 -54.18798295 98.8477679 -66.12890625 93.6171875 C-86.16601655 84.81277556 -103.44127658 74.8099379 -111.984375 53.71484375 C-116.00343653 42.10600069 -114.25508065 29.23150885 -109.81640625 17.96875 C-101.89743898 2.08504108 -88.70504216 -7.49741564 -72.2265625 -13.171875 C-47.63913601 -20.29781178 -20.53550069 -14.66434963 0 0 Z " fill="#2D1A6D" transform="translate(418.96484375,103.1171875)"/>
<path d="M0 0 C0.80207382 0.26987228 1.60414764 0.53974457 2.43052673 0.8177948 C3.34095482 1.12611992 3.34095482 1.12611992 4.26977539 1.44067383 C4.36270524 14.79328113 4.43365698 28.14581072 4.47702408 41.4986763 C4.49784451 47.69983646 4.52606088 53.90077436 4.5715332 60.10180664 C4.61518855 66.09296587 4.63895414 72.08391211 4.64928436 78.0752182 C4.65664045 80.35402526 4.67100469 82.63282147 4.69269562 84.91153717 C4.9619693 114.38835074 4.9619693 114.38835074 -6.73022461 126.44067383 C-19.09422948 138.13707584 -34.24529345 138.90155302 -50.31225586 138.72192383 C-61.65165268 138.38904854 -72.21506368 135.88983846 -81.73022461 129.44067383 C-81.1535707 124.65353103 -79.08939465 121.18938559 -76.66772461 117.12817383 C-76.29067383 116.48299805 -75.91362305 115.83782227 -75.52514648 115.1730957 C-74.59984968 113.59189231 -73.6658978 112.01575923 -72.73022461 110.44067383 C-69.13291154 110.25396208 -66.99672781 110.58721624 -63.85522461 112.31567383 C-54.35468616 116.74925844 -42.70695549 117.84295273 -32.73022461 114.44067383 C-27.91694236 112.36241551 -25.50201733 109.63778902 -23.35522461 104.87817383 C-21.34447885 99.18106085 -20.93650833 93.44352997 -20.73022461 87.44067383 C-21.39666992 87.8505957 -22.06311523 88.26051758 -22.74975586 88.68286133 C-34.91541111 95.79509055 -47.02139816 97.0568808 -60.81616211 93.68676758 C-72.90133603 89.64145026 -81.04416396 82.79941085 -86.98022461 71.62817383 C-93.37432873 58.10347192 -93.74137971 42.54403837 -88.73022461 28.44067383 C-82.76588566 13.47247705 -73.35332409 4.60139125 -58.76538086 -1.87573242 C-40.95093243 -8.19556765 -17.67461403 -5.96362842 0 0 Z M-59.73022461 27.44067383 C-64.95088404 36.01069138 -66.61768603 43.43208119 -65.73022461 53.44067383 C-63.78773807 60.99948015 -60.45990365 67.06002763 -53.79272461 71.31567383 C-46.97712875 73.82668283 -38.03243818 73.50820592 -31.16772461 71.31567383 C-26.33164919 68.67781451 -23.80195114 65.96845408 -21.60961914 60.79760742 C-20.51579458 56.62212499 -20.47951926 52.83645231 -20.53491211 48.54223633 C-20.53915695 47.2897963 -20.53915695 47.2897963 -20.54348755 46.01205444 C-20.5546216 43.36311091 -20.57971334 40.71451399 -20.60522461 38.06567383 C-20.61526318 36.26229332 -20.62438749 34.45890747 -20.63256836 32.65551758 C-20.6545387 28.2504375 -20.6890214 23.8456143 -20.73022461 19.44067383 C-33.37657431 13.96008783 -50.69174423 16.5852979 -59.73022461 27.44067383 Z " fill="#861075" transform="translate(154.730224609375,438.559326171875)"/>
<path d="M0 0 C1.29997925 0.00303635 1.29997925 0.00303635 2.6262207 0.00613403 C3.51027588 0.00517731 4.39433105 0.00422058 5.30517578 0.00323486 C7.178142 0.00255302 9.05111056 0.0044076 10.92407227 0.00857544 C13.80140458 0.01392364 16.67858078 0.0086306 19.5559082 0.00222778 C21.37101272 0.00288856 23.18611713 0.00416972 25.0012207 0.00613403 C25.86787354 0.0041098 26.73452637 0.00208557 27.62744141 0 C33.69877061 0.02399644 33.69877061 0.02399644 34.8137207 1.13894653 C34.91356445 3.48951861 34.94814834 5.81076181 34.94070435 8.16189575 C34.94226434 8.90525114 34.94382433 9.64860653 34.94543159 10.41448784 C34.94944434 12.92422296 34.94625089 15.43389839 34.94311523 17.94363403 C34.94446915 19.73524003 34.94624903 21.52684574 34.94842529 23.31845093 C34.95300074 28.19847541 34.95120961 33.07847885 34.94804621 37.95850372 C34.94552318 43.05364541 34.94785998 48.14878524 34.94943237 53.243927 C34.95125424 61.80203578 34.94884732 70.36013594 34.9440918 78.91824341 C34.93864915 88.82766091 34.94041179 98.73705784 34.9459182 108.64647484 C34.95044886 117.13816187 34.95110012 125.62984269 34.94847953 134.12153053 C34.94691649 139.20039838 34.94672372 144.27925654 34.95001602 149.35812378 C34.95289404 154.13178221 34.95092032 158.90541399 34.94512177 163.67906952 C34.9437938 165.43633734 34.9441889 167.19360738 34.94638443 168.95087433 C34.9490945 171.33927946 34.94571659 173.7275978 34.94070435 176.11599731 C34.94293507 176.82055494 34.94516579 177.52511257 34.94746411 178.25102043 C34.92787057 183.02479667 34.92787057 183.02479667 33.8137207 184.13894653 C30.78394266 184.22765926 27.77705048 184.25414004 24.74731445 184.23660278 C23.83869156 184.23518784 22.93006866 184.23377289 21.99391174 184.23231506 C19.0796485 184.22669847 16.16546089 184.21414318 13.2512207 184.20144653 C11.28051868 184.19643367 9.30981547 184.19187039 7.33911133 184.18777466 C2.49728512 184.17672364 -2.34448425 184.15944791 -7.1862793 184.13894653 C-7.20960557 160.2959826 -7.22725713 136.45302037 -7.23809147 112.61004734 C-7.243255 101.54016807 -7.25029879 90.47029587 -7.26171875 79.40042114 C-7.27166383 69.75563599 -7.2781323 60.11085596 -7.28036779 50.46606582 C-7.2816752 45.35588093 -7.28476293 40.24571069 -7.29200935 35.13553047 C-7.2987668 30.33152095 -7.30089682 25.5275322 -7.29938698 20.72351837 C-7.29966343 18.9549619 -7.30167018 17.18640478 -7.30548477 15.4178524 C-7.31041773 13.0140718 -7.30927907 10.61037097 -7.30653381 8.20658875 C-7.30944665 7.49745805 -7.3123595 6.78832735 -7.31536061 6.05770785 C-7.29530551 -0.38325972 -6.31007137 0.02494005 0 0 Z " fill="#2E1B6E" transform="translate(602.186279296875,89.86105346679688)"/>
<path d="M0 0 C11.59026094 12.22430147 14.61820671 27.86018215 14.30078125 44.1171875 C14.09765625 47.2578125 14.09765625 47.2578125 13.09765625 48.2578125 C10.88897794 48.35214235 8.67724104 48.37523681 6.46655273 48.37133789 C5.7739032 48.37148392 5.08125366 48.37162994 4.36761475 48.3717804 C2.06796179 48.37108124 -0.23161112 48.36328878 -2.53125 48.35546875 C-4.12165787 48.35360458 -5.71206632 48.35218067 -7.30247498 48.35118103 C-11.49630305 48.34735579 -15.6900967 48.33752545 -19.88391113 48.32647705 C-24.16023289 48.31626307 -28.43656019 48.31168344 -32.71289062 48.30664062 C-41.10939083 48.29590319 -49.50586301 48.27882669 -57.90234375 48.2578125 C-57.30789314 49.84692292 -56.70295778 51.43211329 -56.09375 53.015625 C-55.75802979 53.89879395 -55.42230957 54.78196289 -55.07641602 55.69189453 C-52.2619152 61.84294538 -47.81554977 65.17200276 -41.65234375 67.6953125 C-31.93592993 70.77063038 -22.40940729 69.70111647 -12.90234375 66.2578125 C-10.17779637 64.81871182 -7.61753925 63.27699349 -5.05859375 61.5625 C-2.96788505 60.29746973 -1.28872222 59.70254667 1.09765625 59.2578125 C2.55838157 60.85980138 4.01615341 62.46448366 5.47265625 64.0703125 C6.28476562 64.96363281 7.096875 65.85695313 7.93359375 66.77734375 C12.07792106 71.52761062 12.07792106 71.52761062 12.16015625 74.5703125 C9.27443767 81.86948303 1.32166772 84.99203987 -5.45703125 87.93359375 C-21.58595699 94.1328067 -38.85790443 94.2107763 -55.01953125 88.07421875 C-67.21242207 82.59827669 -75.31384233 73.59654889 -80.234375 61.18457031 C-85.68790775 45.45383915 -85.22153829 29.02737206 -78.359375 13.84375 C-71.87914333 2.12891471 -62.71520732 -6.40263227 -49.83984375 -10.5546875 C-32.14546673 -15.19088861 -13.7675605 -12.60848456 0 0 Z M-52.90234375 17.1953125 C-55.97253093 21.08180827 -57.90234375 24.21148511 -57.90234375 29.2578125 C-42.72234375 29.2578125 -27.54234375 29.2578125 -11.90234375 29.2578125 C-12.9986408 21.58373312 -14.31978836 18.72808287 -19.77734375 13.5078125 C-30.13732075 6.04862906 -44.32673486 7.80297895 -52.90234375 17.1953125 Z " fill="#861075" transform="translate(469.90234375,444.7421875)"/>
<path d="M0 0 C10.48849748 9.81182022 15.63883718 24.1308017 16.28125 38.328125 C16.34584786 41.89767761 16.3011719 45.44024683 16 49 C15 50 15 50 12.18431091 50.12025452 C10.29568077 50.1169236 10.29568077 50.1169236 8.36889648 50.11352539 C7.67624695 50.11367142 6.98359741 50.11381744 6.2699585 50.1139679 C3.97030554 50.11326874 1.67073263 50.10547628 -0.62890625 50.09765625 C-2.21931412 50.09579208 -3.80972257 50.09436817 -5.40013123 50.09336853 C-9.5939593 50.08954329 -13.78775295 50.07971295 -17.98156738 50.06866455 C-22.25788914 50.05845057 -26.53421644 50.05387094 -30.81054688 50.04882812 C-39.20704708 50.03809069 -47.60351926 50.02101419 -56 50 C-55.38949035 51.60932001 -54.77069994 53.21550024 -54.1484375 54.8203125 C-53.80474121 55.71508301 -53.46104492 56.60985352 -53.10693359 57.53173828 C-50.26370004 63.87163489 -44.10408672 67.78271109 -37.8125 70.25 C-26.50646574 72.47413789 -15.34299217 70.92642906 -5.5 64.8125 C-4.7265625 64.28269531 -3.953125 63.75289063 -3.15625 63.20703125 C-1 62 -1 62 3 62 C4.74609375 63.3203125 4.74609375 63.3203125 6.4375 65.125 C7.3346875 66.07439453 7.3346875 66.07439453 8.25 67.04296875 C10.57419746 69.64212708 12.81364866 72.28362409 15 75 C11.75596486 82.6814718 3.27661879 86.8503248 -4.0703125 89.93359375 C-19.98665686 95.7271431 -37.43212591 96.16425372 -53.22265625 89.67578125 C-66.47810314 83.41763346 -74.14162913 74.36696567 -79.22265625 60.51953125 C-84.01617657 44.98274428 -83.19940426 28.92194418 -75.9375 14.3125 C-68.86393957 2.05955432 -59.50271719 -4.55936102 -46.375 -9.3125 C-29.79455102 -12.68999887 -13.42928054 -10.98759317 0 0 Z M-54 22 C-55.85800739 25.47366598 -56 26.96668567 -56 31 C-40.82 31 -25.64 31 -10 31 C-11.03151317 23.77940783 -12.13895112 20.70639759 -17.3125 15.8125 C-29.88964244 7.33024114 -44.66634292 9.91794827 -54 22 Z " fill="#861075" transform="translate(254,443)"/>
<path d="M0 0 C11.93627448 -0.53847855 26.19632737 2.04977094 35.2578125 10.1640625 C43.09326695 18.40133513 46.1494492 26.88381717 46.12915039 38.1496582 C46.12929642 38.83313828 46.12944244 39.51661835 46.1295929 40.22080994 C46.12889962 42.46625001 46.12113474 44.71160577 46.11328125 46.95703125 C46.11141499 48.51930191 46.10999207 50.08157315 46.10899353 51.6438446 C46.10518472 55.74555084 46.09536846 59.84722139 46.08428955 63.94891357 C46.0740402 68.13846351 46.06948837 72.32801925 46.06445312 76.51757812 C46.05374467 84.73048509 46.03668797 92.9433631 46.015625 101.15625 C43.57846285 102.37483107 41.98288443 102.28550575 39.26171875 102.2890625 C38.32521484 102.29035156 37.38871094 102.29164063 36.42382812 102.29296875 C34.95333008 102.28716797 34.95333008 102.28716797 33.453125 102.28125 C31.97682617 102.28705078 31.97682617 102.28705078 30.47070312 102.29296875 C29.53548828 102.29167969 28.60027344 102.29039062 27.63671875 102.2890625 C26.7748999 102.28793457 25.91308105 102.28680664 25.02514648 102.28564453 C23.015625 102.15625 23.015625 102.15625 22.015625 101.15625 C21.97481717 99.15666636 21.97308144 97.15579746 22.015625 95.15625 C21.314375 95.55457031 20.613125 95.95289063 19.890625 96.36328125 C6.2243557 103.99485283 -5.6414115 107.40750592 -21.0546875 103.19140625 C-29.82998399 100.09080149 -35.92047818 94.36528333 -40.015625 86.06640625 C-43.70616792 76.61793294 -42.81047864 66.40543968 -38.984375 57.15625 C-34.38229277 48.30609186 -26.78723137 42.84750104 -17.46484375 39.84765625 C-16.23701172 39.50541016 -16.23701172 39.50541016 -14.984375 39.15625 C-14.14628296 38.89038086 -14.14628296 38.89038086 -13.29125977 38.61914062 C-10.03872226 37.96649896 -6.90953072 38.04543589 -3.59375 38.05859375 C-2.53682953 38.06071617 -2.53682953 38.06071617 -1.45855713 38.06288147 C0.78288084 38.06846067 3.02421743 38.08100927 5.265625 38.09375 C6.78906105 38.09876769 8.31249868 38.10333013 9.8359375 38.10742188 C13.56253272 38.11842326 17.28906896 38.13567354 21.015625 38.15625 C20.74363281 36.89554687 20.47164062 35.63484375 20.19140625 34.3359375 C20.03841064 33.62679199 19.88541504 32.91764648 19.7277832 32.18701172 C18.24686144 27.96407473 14.68904215 25.99148809 10.79296875 24.046875 C7.30683812 22.92895969 4.01662494 22.77306198 0.390625 22.78125 C-0.31433105 22.78213623 -1.01928711 22.78302246 -1.74560547 22.78393555 C-9.46721498 22.95706975 -15.68546536 25.35684474 -22.421875 29.03125 C-24.984375 30.15625 -24.984375 30.15625 -26.84765625 29.671875 C-30.05157047 27.39926309 -31.71519851 24.35269667 -33.734375 21.03125 C-34.14558594 20.37253906 -34.55679688 19.71382813 -34.98046875 19.03515625 C-35.99056615 17.41430229 -36.98866438 15.78598148 -37.984375 14.15625 C-27.95057085 3.74510621 -14.01649478 1.10366101 0 0 Z M-13.859375 62.34375 C-16.48661588 65.82098057 -17.78674529 68.78261856 -17.984375 73.15625 C-16.42748017 77.91851655 -14.06105849 80.33393066 -9.984375 83.15625 C-4.88472685 85.70607408 3.11217888 84.91169209 8.5078125 83.5078125 C14.00567218 81.00489584 18.31749418 76.55251164 21.015625 71.15625 C21.08655342 68.9489577 21.09977525 66.73957548 21.078125 64.53125 C21.06910156 63.34273438 21.06007813 62.15421875 21.05078125 60.9296875 C21.03917969 60.01445312 21.02757812 59.09921875 21.015625 58.15625 C16.0212925 57.1669573 11.21076445 56.94010736 6.140625 56.90625 C4.99400391 56.8753125 4.99400391 56.8753125 3.82421875 56.84375 C-2.95525474 56.79770943 -8.35257741 58.15379531 -13.859375 62.34375 Z " fill="#861076" transform="translate(603.984375,431.84375)"/>
<path d="M0 0 C9.3247159 6.50636481 14.37956948 14.64063696 16.52804565 25.7240448 C17.01531224 29.10628618 17.12704367 32.30764214 17.12939453 35.72387695 C17.13254669 37.0415657 17.13569885 38.35925446 17.13894653 39.71687317 C17.13715742 41.14067621 17.13510663 42.56447894 17.1328125 43.98828125 C17.13348657 45.45704667 17.13445746 46.92581199 17.13571167 48.39457703 C17.13718145 51.46171132 17.13505571 54.52881638 17.13037109 57.59594727 C17.12464898 61.53490404 17.12797295 65.47379304 17.13394356 69.41274738 C17.13754717 72.44008399 17.13641195 75.46740436 17.13381577 78.49474144 C17.13314724 79.94807124 17.13397233 81.40140251 17.13629532 82.85473061 C17.13882123 84.8775187 17.13429199 86.90031196 17.12939453 88.9230957 C17.12859894 90.07526077 17.12780334 91.22742584 17.12698364 92.414505 C17 95 17 95 16 96 C14.23140807 96.09946453 12.45888549 96.13080217 10.6875 96.1328125 C9.61242187 96.13410156 8.53734375 96.13539063 7.4296875 96.13671875 C6.29789062 96.13285156 5.16609375 96.12898437 4 96.125 C2.86820312 96.12886719 1.73640625 96.13273438 0.5703125 96.13671875 C-0.50476563 96.13542969 -1.57984375 96.13414062 -2.6875 96.1328125 C-3.68136719 96.13168457 -4.67523438 96.13055664 -5.69921875 96.12939453 C-8 96 -8 96 -9 95 C-9.10797471 93.00719466 -9.14628733 91.01058821 -9.15771484 89.01489258 C-9.16797699 87.73298538 -9.17823914 86.45107819 -9.18881226 85.13032532 C-9.19225018 84.44049372 -9.1956881 83.75066212 -9.19923019 83.03992653 C-9.2109994 80.88318753 -9.23044955 78.72665059 -9.25234985 76.56999207 C-9.31401301 70.43629736 -9.36791298 64.30261954 -9.40136719 58.16870117 C-9.42236711 54.41966279 -9.45771998 50.67098635 -9.50212479 46.92215538 C-9.5162515 45.49533044 -9.5249997 44.06844139 -9.52817917 42.64155006 C-9.53311266 40.63831461 -9.55792412 38.63515838 -9.58349609 36.63208008 C-9.59158295 35.49370193 -9.5996698 34.35532379 -9.60800171 33.18244934 C-10.2118293 28.28025779 -11.88824244 25.02837575 -15.5 21.6875 C-20.64390672 18.21536296 -25.99712282 18.43260476 -32 19 C-37.85688665 20.56916588 -41.24057329 23.9208884 -44.7734375 28.70703125 C-48.6048854 35.86964246 -48.32356022 43.17431964 -48.37890625 51.1171875 C-48.39590073 52.37008575 -48.4128952 53.62298401 -48.43040466 54.91384888 C-48.47439804 58.22433463 -48.51078022 61.53477634 -48.54260254 64.84539795 C-48.58853365 69.53051192 -48.64415935 74.21548231 -48.70530701 78.90042114 C-48.73734884 81.3921189 -48.76421213 83.88388939 -48.78553772 86.3757019 C-48.79902756 87.49421539 -48.8125174 88.61272888 -48.82641602 89.76513672 C-48.83592789 90.75440155 -48.84543976 91.74366638 -48.85523987 92.76290894 C-49 95 -49 95 -50 96 C-53.80588144 96.25208722 -57.62425456 96.18522344 -61.4375 96.1875 C-62.51322266 96.19974609 -63.58894531 96.21199219 -64.69726562 96.22460938 C-65.72400391 96.22654297 -66.75074219 96.22847656 -67.80859375 96.23046875 C-69.22869751 96.23663208 -69.22869751 96.23663208 -70.67749023 96.24291992 C-73 96 -73 96 -75 94 C-75.15877012 90.95461357 -75.19179059 88.00403303 -75.13525391 84.96044922 C-75.12579239 84.02381439 -75.11633087 83.08717957 -75.10658264 82.12216187 C-75.07281673 79.01614223 -75.0247256 75.91051456 -74.9765625 72.8046875 C-74.95040448 70.65521275 -74.92513675 68.505727 -74.90072632 66.35623169 C-74.8339862 60.69091905 -74.7551127 55.02583701 -74.67376709 49.36071777 C-74.59293391 43.58301667 -74.52349976 37.80518003 -74.453125 32.02734375 C-74.31328073 20.68472598 -74.15957384 9.34235739 -74 -2 C-66.08 -2 -58.16 -2 -50 -2 C-49.67 0.64 -49.34 3.28 -49 6 C-48.46632813 5.61328125 -47.93265625 5.2265625 -47.3828125 4.828125 C-33.71754287 -4.72337834 -15.37210038 -8.90377194 0 0 Z " fill="#861076" transform="translate(357,438)"/>
<path d="M0 0 C34 0 34 0 42 4 C46.70912757 9.79584931 47.42164864 14.88252073 47.34375 22.17578125 C46.8063967 26.59062712 45.06008523 29.80470171 42 33 C36 37 36 37 19 37 C19 48.22 19 59.44 19 71 C24.89336107 70.84305809 24.89336107 70.84305809 30.78515625 70.63964844 C37.69804028 70.54775332 42.75957842 72.20372887 48.0234375 76.74609375 C52.38406104 82.20317465 54.51752354 86.42879749 54.3046875 93.53515625 C53.34255267 101.31858034 50.13072349 106.62675917 44.1953125 111.625 C31.47991279 119.58909377 12.74346296 115 0 115 C0 77.05 0 39.1 0 0 Z " fill="#FBF9FB" transform="translate(484,125)"/>
<path d="M0 0 C8.25 0 16.5 0 25 0 C25 45.87 25 91.74 25 139 C17.08 139 9.16 139 1 139 C0 138 0 138 -0.12304783 135.72175503 C-0.12166514 134.19664854 -0.12166514 134.19664854 -0.12025452 132.64073181 C-0.12162918 131.47820389 -0.12300385 130.31567596 -0.12442017 129.11791992 C-0.12082489 127.83111328 -0.11722961 126.54430664 -0.11352539 125.21850586 C-0.11324352 123.85876976 -0.11340125 122.4990335 -0.1139679 121.13929749 C-0.11425587 117.43698222 -0.10835912 113.73469908 -0.10139394 110.03239131 C-0.09516043 106.16731219 -0.0945566 102.30223242 -0.09336853 98.43714905 C-0.09025521 91.11315318 -0.0820418 83.78917216 -0.07201904 76.46518284 C-0.06085794 68.12916552 -0.05534746 59.79314751 -0.05032361 51.45712459 C-0.03985919 34.30474088 -0.02205929 17.15237258 0 0 Z " fill="#861176" transform="translate(667,395)"/>
<path d="M0 0 C1.19367187 -0.01417969 2.38734375 -0.02835937 3.6171875 -0.04296875 C7.12424022 0.18745008 9.86070089 0.92470539 13.125 2.1875 C12.48401851 5.64675102 11.83639409 9.10472524 11.1875 12.5625 C11.00509766 13.54734375 10.82269531 14.5321875 10.63476562 15.546875 C10.45751953 16.48789062 10.28027344 17.42890625 10.09765625 18.3984375 C9.93531494 19.26774902 9.77297363 20.13706055 9.60571289 21.03271484 C9.125 23.1875 9.125 23.1875 8.125 25.1875 C6.990625 25.15269531 5.85625 25.11789062 4.6875 25.08203125 C-8.52031725 24.73321178 -8.52031725 24.73321178 -20.1875 30.5 C-25.79414194 36.10664194 -26.96463802 42.11596355 -27.06445312 49.78808594 C-27.08117065 50.88562195 -27.09788818 51.98315796 -27.1151123 53.11395264 C-27.12868774 54.28806702 -27.14226318 55.4621814 -27.15625 56.671875 C-27.17465942 57.88321106 -27.19306885 59.09454712 -27.21203613 60.34259033 C-27.29072126 65.5243651 -27.35871746 70.70626602 -27.42724609 75.88818359 C-27.47879698 79.67031636 -27.53608978 83.45233126 -27.59375 87.234375 C-27.60732544 88.4165863 -27.62090088 89.59879761 -27.6348877 90.8168335 C-27.65160522 91.90176086 -27.66832275 92.98668823 -27.68554688 94.10449219 C-27.70433899 95.54414337 -27.70433899 95.54414337 -27.72351074 97.01287842 C-27.875 99.1875 -27.875 99.1875 -28.875 100.1875 C-30.57058726 100.28682153 -32.27025747 100.31830007 -33.96875 100.3203125 C-34.99871094 100.32160156 -36.02867187 100.32289063 -37.08984375 100.32421875 C-38.71599609 100.31841797 -38.71599609 100.31841797 -40.375 100.3125 C-41.45910156 100.31636719 -42.54320312 100.32023438 -43.66015625 100.32421875 C-44.69011719 100.32292969 -45.72007812 100.32164062 -46.78125 100.3203125 C-47.73322266 100.31918457 -48.68519531 100.31805664 -49.66601562 100.31689453 C-51.875 100.1875 -51.875 100.1875 -52.875 99.1875 C-52.97029612 96.17399762 -53.00051904 93.18345894 -52.98852539 90.16967773 C-52.98867142 89.22343536 -52.98881744 88.27719299 -52.9889679 87.30227661 C-52.98826836 84.15852608 -52.98047409 81.01483399 -52.97265625 77.87109375 C-52.97079221 75.69775932 -52.96936824 73.52442448 -52.96836853 71.35108948 C-52.96454221 65.61848805 -52.95471097 59.88591177 -52.94366455 54.15332031 C-52.93345287 48.30859721 -52.92887143 42.46387007 -52.92382812 36.61914062 C-52.9130888 25.14191423 -52.89549108 13.66471314 -52.875 2.1875 C-44.955 2.1875 -37.035 2.1875 -28.875 2.1875 C-28.215 5.1575 -27.555 8.1275 -26.875 11.1875 C-25.905625 10.28 -24.93625 9.3725 -23.9375 8.4375 C-16.89752191 2.38483591 -9.14846166 0.04918528 0 0 Z " fill="#861076" transform="translate(549.875,433.8125)"/>
<path d="M0 0 C9 0 9 0 11.04394531 1.35766602 C11.46772461 1.98342529 11.89150391 2.60918457 12.328125 3.25390625 C12.81796875 3.94419922 13.3078125 4.63449219 13.8125 5.34570312 C14.5240625 6.44301758 14.5240625 6.44301758 15.25 7.5625 C15.73984375 8.26697266 16.2296875 8.97144531 16.734375 9.69726562 C17.66109442 11.03435415 18.57592611 12.37983453 19.47363281 13.73657227 C21.58549362 16.86821999 23.80455219 19.92637307 26 23 C26.33 15.41 26.66 7.82 27 0 C29.64 0 32.28 0 35 0 C35.02464928 5.25105442 35.04283568 10.50207545 35.05493164 15.75317383 C35.05997218 17.54094021 35.06680454 19.32870245 35.07543945 21.11645508 C35.0875173 23.68051168 35.09323094 26.24451397 35.09765625 28.80859375 C35.10281754 29.6127623 35.10797882 30.41693085 35.11329651 31.24546814 C35.11349215 33.16401715 35.06201983 35.08245368 35 37 C34 38 34 38 30.8125 38.5 C26.74526697 37.96659239 26.51560889 37.93446775 24.16015625 34.99609375 C23.64638428 34.36106934 23.1326123 33.72604492 22.60327148 33.07177734 C19.91058267 29.59223459 17.24482729 26.09731064 14.625 22.5625 C11.840625 18.8190625 11.840625 18.8190625 9 15 C8.67 22.59 8.34 30.18 8 38 C5.36 38 2.72 38 0 38 C0 25.46 0 12.92 0 0 Z " fill="#861075" transform="translate(352,562)"/>
<path d="M0 0 C9 0 9 0 11.04394531 1.35766602 C11.46772461 1.98342529 11.89150391 2.60918457 12.328125 3.25390625 C12.81796875 3.94419922 13.3078125 4.63449219 13.8125 5.34570312 C14.5240625 6.44301758 14.5240625 6.44301758 15.25 7.5625 C15.73984375 8.26697266 16.2296875 8.97144531 16.734375 9.69726562 C17.66109442 11.03435415 18.57592611 12.37983453 19.47363281 13.73657227 C21.58549362 16.86821999 23.80455219 19.92637307 26 23 C26.33 15.41 26.66 7.82 27 0 C29.31 0 31.62 0 34 0 C35.78830448 1.78830448 35.12848711 4.19581152 35.13894653 6.57641602 C35.1369223 7.35557373 35.13489807 8.13473145 35.1328125 8.9375 C35.13376923 9.732771 35.13472595 10.52804199 35.13571167 11.34741211 C35.13639343 13.0320646 35.13453943 14.71671971 35.13037109 16.40136719 C35.12502275 18.98899197 35.13031619 21.57644316 35.13671875 24.1640625 C35.13605797 25.79687539 35.1347768 27.42968816 35.1328125 29.0625 C35.13483673 29.84165771 35.13686096 30.62081543 35.13894653 31.42358398 C35.11495105 36.88504895 35.11495105 36.88504895 34 38 C30.8125 38.5 30.8125 38.5 27 38 C25.53930664 36.73413086 25.53930664 36.73413086 24.16015625 35.02734375 C23.64638428 34.39231934 23.1326123 33.75729492 22.60327148 33.10302734 C19.84746327 29.48820597 17.21679055 25.79609516 14.625 22.0625 C12.76875 19.401875 10.9125 16.74125 9 14 C8.67 21.92 8.34 29.84 8 38 C5.36 38 2.72 38 0 38 C0 25.46 0 12.92 0 0 Z " fill="#861175" transform="translate(572,562)"/>
<path d="M0 0 C19 0 19 0 25 4 C27.38621552 7.46386124 28.01149219 9.34494544 27.9375 13.5625 C26.92852884 17.26206092 25.60392874 19.22807586 23 22 C24.52309387 26.29235546 26.69562115 30.08929071 28.9765625 34.01171875 C30 36 30 36 30 38 C26.84254749 38.56834145 24.13502553 38.76202089 21 38 C17.80195576 34.80195576 15.78660275 30.93105911 14.08984375 26.765625 C12.97454554 24.49911563 12.97454554 24.49911563 9 24 C8.67 28.62 8.34 33.24 8 38 C5.36 38 2.72 38 0 38 C0 25.46 0 12.92 0 0 Z M8 8 C7.92851801 9.35243917 7.91600546 10.70834367 7.9375 12.0625 C7.958125 13.361875 7.97875 14.66125 8 16 C9.45742463 16.08096803 10.91612807 16.13917774 12.375 16.1875 C13.59316406 16.23970703 13.59316406 16.23970703 14.8359375 16.29296875 C15.55007813 16.19628906 16.26421875 16.09960938 17 16 C19.264384 13.30844799 19.264384 13.30844799 18.75 10.9375 C18.07467282 8.80523025 18.07467282 8.80523025 16 7 C11.6892199 6.41683815 11.6892199 6.41683815 8 8 Z " fill="#861075" transform="translate(487,562)"/>
<path d="M0 0 C2.64 0 5.28 0 8 0 C8.01981934 0.70084717 8.03963867 1.40169434 8.06005859 2.1237793 C8.15556166 5.31205162 8.26513871 8.49969147 8.375 11.6875 C8.4059375 12.79029297 8.436875 13.89308594 8.46875 15.02929688 C8.50742187 16.09599609 8.54609375 17.16269531 8.5859375 18.26171875 C8.6173584 19.24100342 8.6487793 20.22028809 8.68115234 21.22924805 C9.01822782 24.15839782 9.68608379 26.36545499 11 29 C14.04983996 30.52491998 16.6423369 30.23562548 20 30 C21.81026068 28.92252514 21.81026068 28.92252514 23 27 C23.48986183 24.21287584 23.48986183 24.21287584 23.4765625 21.0546875 C23.5075 19.89582031 23.5384375 18.73695313 23.5703125 17.54296875 C23.58835937 16.33253906 23.60640625 15.12210938 23.625 13.875 C23.67576241 11.47647622 23.73024035 9.07802716 23.7890625 6.6796875 C23.80662598 5.61476074 23.82418945 4.54983398 23.84228516 3.45263672 C24 1 24 1 25 0 C27.67058851 -0.14115161 30.32432238 -0.04247107 33 0 C33.08735463 4.54154478 33.14051247 9.08287232 33.1875 13.625 C33.21263672 14.91019531 33.23777344 16.19539062 33.26367188 17.51953125 C33.27333984 18.76347656 33.28300781 20.00742187 33.29296875 21.2890625 C33.3086792 22.43068848 33.32438965 23.57231445 33.34057617 24.74853516 C32.95078636 28.46984033 31.94395685 30.81887607 30 34 C24.74498183 38.1369292 20.82086354 39.36376202 14.16015625 39.2890625 C9.03729062 38.60354341 4.3530652 35.90371521 1 32 C-0.13917218 28.58248347 -0.11338481 25.96512063 -0.09765625 22.36328125 C-0.09443359 21.06455078 -0.09121094 19.76582031 -0.08789062 18.42773438 C-0.07953531 17.05598892 -0.07107037 15.68424413 -0.0625 14.3125 C-0.05748335 12.92903805 -0.05292073 11.54557437 -0.04882812 10.16210938 C-0.03702529 6.77469605 -0.02056019 3.38736967 0 0 Z " fill="#861076" transform="translate(441,562)"/>
<path d="M0 0 C2.0078125 0.5234375 2.0078125 0.5234375 3.45092773 2.63793945 C6.13488321 7.61232706 8.20562523 12.85259944 10.36108398 18.07104492 C11.19559453 20.08661869 12.04178728 22.09702135 12.88867188 24.10742188 C13.42259346 25.392931 13.95582077 26.67872875 14.48828125 27.96484375 C14.97192139 29.12701416 15.45556152 30.28918457 15.95385742 31.48657227 C17.0078125 34.5234375 17.0078125 34.5234375 17.0078125 38.5234375 C14.0378125 38.5234375 11.0678125 38.5234375 8.0078125 38.5234375 C6.5228125 34.0684375 6.5228125 34.0684375 5.0078125 29.5234375 C0.7178125 29.5234375 -3.5721875 29.5234375 -7.9921875 29.5234375 C-8.6315625 30.8228125 -9.2709375 32.1221875 -9.9296875 33.4609375 C-11.8671875 37.3984375 -11.8671875 37.3984375 -12.9921875 38.5234375 C-15.66277601 38.66458911 -18.31650988 38.56590857 -20.9921875 38.5234375 C-20.39257703 33.73621007 -18.97421359 29.5962931 -17.0859375 25.19140625 C-16.80117554 24.51419022 -16.51641357 23.83697418 -16.22302246 23.13923645 C-15.62421042 21.7185756 -15.02231194 20.29921211 -14.41748047 18.88110352 C-13.48877075 16.7029239 -12.56980065 14.52083064 -11.65234375 12.33789062 C-11.06826821 10.95549248 -10.48365203 9.57332261 -9.8984375 8.19140625 C-9.48434631 7.21025093 -9.48434631 7.21025093 -9.06188965 6.20927429 C-6.67544461 0.62592257 -6.17234923 0.43274773 0 0 Z M-2.9921875 11.5234375 C-3.49834048 12.79183276 -3.99687849 14.06326852 -4.4921875 15.3359375 C-4.770625 16.04363281 -5.0490625 16.75132812 -5.3359375 17.48046875 C-6.1451037 19.64184966 -6.1451037 19.64184966 -5.9921875 22.5234375 C-3.6821875 22.5234375 -1.3721875 22.5234375 1.0078125 22.5234375 C1.3378125 21.8634375 1.6678125 21.2034375 2.0078125 20.5234375 C1.24059782 18.27927322 1.24059782 18.27927322 0.0703125 15.8984375 C-0.30996094 15.08117187 -0.69023438 14.26390625 -1.08203125 13.421875 C-1.38238281 12.79539062 -1.68273437 12.16890625 -1.9921875 11.5234375 C-2.3221875 11.5234375 -2.6521875 11.5234375 -2.9921875 11.5234375 Z " fill="#861075" transform="translate(544.9921875,561.4765625)"/>
<path d="M0 0 C8.91 0 17.82 0 27 0 C27 2.31 27 4.62 27 7 C21.06 7 15.12 7 9 7 C9 9.64 9 12.28 9 15 C13.29 15 17.58 15 22 15 C22 17.31 22 19.62 22 22 C17.71 22 13.42 22 9 22 C8.5527864 27.47825081 8.5527864 27.47825081 10 30 C11.82337891 29.98259766 11.82337891 29.98259766 13.68359375 29.96484375 C15.26822764 29.95546722 16.85286318 29.94636687 18.4375 29.9375 C19.23994141 29.92912109 20.04238281 29.92074219 20.86914062 29.91210938 C22.91295221 29.9034857 24.95683902 29.9477185 27 30 C28 31 28 31 28 38 C18.76 38 9.52 38 0 38 C0 25.46 0 12.92 0 0 Z " fill="#861175" transform="translate(666,562)"/>
<path d="M0 0 C1.91796875 1.1015625 1.91796875 1.1015625 4.73046875 3.1015625 C4.15701938 5.96880936 3.86901725 6.963014 1.73046875 9.1015625 C-1.01953125 8.7890625 -1.01953125 8.7890625 -4.26953125 8.1015625 C-8.39421719 7.07598536 -8.39421719 7.07598536 -12.26953125 8.1015625 C-12.26953125 9.4215625 -12.26953125 10.7415625 -12.26953125 12.1015625 C-11.46128906 12.34390625 -10.65304687 12.58625 -9.8203125 12.8359375 C0.98205559 16.22389372 0.98205559 16.22389372 4.73046875 20.1015625 C6.61548981 23.87160461 6.51209912 28.01832544 5.73046875 32.1015625 C3.05223882 35.6988633 -0.05124511 37.69546712 -4.26953125 39.1015625 C-11.05449734 39.69673496 -16.2060935 38.18963303 -22.26953125 35.1015625 C-22.92953125 34.4415625 -23.58953125 33.7815625 -24.26953125 33.1015625 C-24.08203125 31.1015625 -24.08203125 31.1015625 -23.26953125 29.1015625 C-20.26953125 27.1015625 -20.26953125 27.1015625 -18.33203125 27.3515625 C-16.26953125 28.1015625 -16.26953125 28.1015625 -14.45703125 29.1640625 C-11.37124788 30.48654109 -8.58475193 30.22907099 -5.26953125 30.1015625 C-3.69679557 27.2590771 -3.69679557 27.2590771 -3.26953125 24.1015625 C-4.06617188 23.94300781 -4.8628125 23.78445313 -5.68359375 23.62109375 C-12.19240022 22.18788941 -16.6403094 20.98101256 -21.26953125 16.1015625 C-22.87383389 12.89295721 -22.75058443 9.5825168 -22.26953125 6.1015625 C-17.77462541 -1.55642523 -8.02042983 -3.17504107 0 0 Z " fill="#861075" transform="translate(422.26953125,561.8984375)"/>
<path d="M0 0 C2.87556602 1.64991493 4.82690092 3.32207661 6.5 6.25 C4.8125 8.3125 4.8125 8.3125 2.5 10.25 C-0.72321663 10.16517851 -2.5650623 9.21322566 -5.375 7.625 C-9.37215214 5.86625306 -11.3405409 5.964349 -15.5 7.25 C-18.52337995 10.07620299 -20.16667004 12.27084325 -21.5 16.1875 C-21.5 20.24740681 -20.49409753 22.72709436 -18.5 26.25 C-15.58028473 28.76419926 -13.84151162 29.21340947 -10 29.625 C-6.26566767 29.22489297 -4.61562854 28.2177654 -1.5 26.25 C1.125 25.875 1.125 25.875 3.5 26.25 C5.3125 27.75 5.3125 27.75 6.5 29.25 C5.34738733 32.70783802 4.69468242 33.05618466 1.6875 34.875 C1.00042969 35.30039062 0.31335938 35.72578125 -0.39453125 36.1640625 C-6.110728 39.11230498 -12.04967353 38.85173924 -18.125 37.0625 C-23.25695925 35.20347395 -25.992461 32.2421051 -29.25 27.9375 C-31.87587289 22.29187329 -31.98584083 16.99323976 -30.20703125 11.12890625 C-27.81791406 4.77992632 -24.30689002 1.90834538 -18.28515625 -0.83203125 C-12.02557532 -2.89514699 -6.00661499 -2.76128271 0 0 Z " fill="#861075" transform="translate(649.5,562.75)"/>
<path d="M0 0 C2.64 0 5.28 0 8 0 C8 12.54 8 25.08 8 38 C5.36 38 2.72 38 0 38 C-1.55475264 34.89049471 -1.14199524 31.5955297 -1.1328125 28.18359375 C-1.13376923 27.41193375 -1.13472595 26.64027374 -1.13571167 25.8452301 C-1.13639246 24.21363239 -1.1345452 22.58203197 -1.13037109 20.95043945 C-1.12501413 18.44411179 -1.13032319 15.93796275 -1.13671875 13.43164062 C-1.13605809 11.84895794 -1.13477719 10.26627536 -1.1328125 8.68359375 C-1.13483673 7.92944687 -1.13686096 7.17529999 -1.13894653 6.39830017 C-1.11495624 1.11495624 -1.11495624 1.11495624 0 0 Z " fill="#861076" transform="translate(331,562)"/>
</svg>
